M48
;GenerationSoftware,Autodesk,EAGLE,9.4.2*%
;CreationDate,2020-04-13T01:01:48Z*%
FMAT,2
ICI,OFF
METRIC,TZ,000.000
T5C0.394
T4C0.700
T3C0.800
T2C0.900
T1C1.016
%
G90
M71
T1
X-9398Y112268
X-9398Y109728
X-11938Y112268
X-11938Y109728
T2
X-1402Y123361
X-1402Y116161
T3
X-4202Y116461
X-4202Y123061
T4
X-3302Y117811
X-3302Y121711
T5
X-12459Y123419
X-10770Y121158
X-8382Y115989
X-21717Y114630
X-115316Y76505
X-113436Y78638
X-66802Y24384
X-57607Y23139
X-27356Y122174
X-14351Y122745
X-17031Y115811
X-13157Y120205
X-24054Y70358
X-72517Y93345
X-92304Y70231
X-76200Y107188
X-40691Y93345
X-56515Y75438
X-15596Y105537
X-18161Y124308
X-52095Y22657
X-52095Y24638
X-117297Y71831
X-115265Y71831
X-57861Y126060
X-57861Y124155
X-6286Y115887
X-9779Y121412
X-16637Y120078
M30