G04 EAGLE Gerber RS-274X export*
G75*
%MOMM*%
%FSLAX34Y34*%
%LPD*%
%IN*%
%IPPOS*%
%AMOC8*
5,1,8,0,0,1.08239X$1,22.5*%
G01*
%ADD10C,0.254000*%


D10*
X-1201652Y297885D02*
X-1201251Y289170D01*
X-1200092Y280524D01*
X-1198184Y272011D01*
X-1195541Y263697D01*
X-1192184Y255645D01*
X-1188137Y247916D01*
X-1183433Y240570D01*
X-1178106Y233661D01*
X-1172197Y227243D01*
X-1165751Y221365D01*
X-1158817Y216070D01*
X-1151449Y211400D01*
X-1143701Y207390D01*
X-1135634Y204071D01*
X-1127307Y201467D01*
X-1118786Y199599D01*
X-1110134Y198480D01*
X-1101653Y198120D01*
X-86298Y198120D01*
X-77685Y198595D01*
X-69147Y199819D01*
X-60748Y201783D01*
X-52552Y204471D01*
X-44621Y207863D01*
X-37016Y211934D01*
X-29795Y216651D01*
X-23013Y221981D01*
X-16721Y227881D01*
X-10967Y234307D01*
X-5795Y241210D01*
X-1244Y248537D01*
X2650Y256233D01*
X5859Y264240D01*
X8359Y272495D01*
X10129Y280937D01*
X11156Y289502D01*
X11433Y298123D01*
X11430Y298387D01*
X11430Y1172210D01*
X6350Y1177290D01*
X6350Y1220470D01*
X11430Y1225550D01*
X11184Y1231189D01*
X10448Y1236785D01*
X9227Y1242295D01*
X7530Y1247678D01*
X5370Y1252893D01*
X2764Y1257900D01*
X-268Y1262660D01*
X-3704Y1267138D01*
X-7517Y1271300D01*
X-11678Y1275113D01*
X-16155Y1278549D01*
X-20916Y1281582D01*
X-25922Y1284189D01*
X-31136Y1286349D01*
X-36519Y1288047D01*
X-42029Y1289269D01*
X-47625Y1290006D01*
X-53264Y1290252D01*
X-53340Y1290252D01*
X-1103832Y1290252D01*
X-1112498Y1289726D01*
X-1121086Y1288447D01*
X-1129530Y1286424D01*
X-1137765Y1283673D01*
X-1145729Y1280215D01*
X-1153362Y1276075D01*
X-1160604Y1271287D01*
X-1167402Y1265885D01*
X-1173703Y1259911D01*
X-1179459Y1253411D01*
X-1184627Y1246434D01*
X-1189167Y1239033D01*
X-1193045Y1231264D01*
X-1196231Y1223188D01*
X-1198701Y1214864D01*
X-1200436Y1206356D01*
X-1201423Y1197730D01*
X-1201655Y1189050D01*
X-1201652Y1188923D01*
X-1201652Y297885D01*
X-20520Y1161610D02*
X-20548Y1161259D01*
X-20546Y1160908D01*
X-20513Y1160558D01*
X-20450Y1160212D01*
X-20357Y1159873D01*
X-20234Y1159543D01*
X-20083Y1159225D01*
X-19906Y1158922D01*
X-19702Y1158635D01*
X-19474Y1158367D01*
X-19224Y1158120D01*
X-18953Y1157896D01*
X-18664Y1157696D01*
X-18358Y1157522D01*
X-18038Y1157376D01*
X-17707Y1157258D01*
X-17367Y1157169D01*
X-17020Y1157110D01*
X-11020Y1157110D01*
X-10673Y1157169D01*
X-10333Y1157258D01*
X-10002Y1157376D01*
X-9682Y1157522D01*
X-9376Y1157696D01*
X-9087Y1157896D01*
X-8816Y1158120D01*
X-8566Y1158367D01*
X-8338Y1158635D01*
X-8134Y1158922D01*
X-7957Y1159225D01*
X-7806Y1159543D01*
X-7683Y1159873D01*
X-7590Y1160212D01*
X-7527Y1160558D01*
X-7494Y1160908D01*
X-7492Y1161259D01*
X-7520Y1161610D01*
X-7492Y1161961D01*
X-7494Y1162312D01*
X-7527Y1162662D01*
X-7590Y1163008D01*
X-7683Y1163347D01*
X-7806Y1163677D01*
X-7957Y1163995D01*
X-8134Y1164298D01*
X-8338Y1164585D01*
X-8566Y1164853D01*
X-8816Y1165100D01*
X-9087Y1165324D01*
X-9376Y1165524D01*
X-9682Y1165698D01*
X-10002Y1165844D01*
X-10333Y1165962D01*
X-10673Y1166051D01*
X-11020Y1166110D01*
X-17020Y1166110D01*
X-17367Y1166051D01*
X-17707Y1165962D01*
X-18038Y1165844D01*
X-18358Y1165698D01*
X-18664Y1165524D01*
X-18953Y1165324D01*
X-19224Y1165100D01*
X-19474Y1164853D01*
X-19702Y1164585D01*
X-19906Y1164298D01*
X-20083Y1163995D01*
X-20234Y1163677D01*
X-20357Y1163347D01*
X-20450Y1163008D01*
X-20513Y1162662D01*
X-20546Y1162312D01*
X-20548Y1161961D01*
X-20520Y1161610D01*
X-20520Y1232610D02*
X-20507Y1232305D01*
X-20467Y1232002D01*
X-20401Y1231704D01*
X-20309Y1231413D01*
X-20192Y1231131D01*
X-20051Y1230860D01*
X-19887Y1230602D01*
X-19701Y1230360D01*
X-19495Y1230135D01*
X-19270Y1229929D01*
X-19028Y1229743D01*
X-18770Y1229579D01*
X-18499Y1229438D01*
X-18217Y1229321D01*
X-17926Y1229229D01*
X-17628Y1229163D01*
X-17325Y1229123D01*
X-17020Y1229110D01*
X-11520Y1229110D01*
X-11192Y1229102D01*
X-10865Y1229124D01*
X-10541Y1229173D01*
X-10222Y1229251D01*
X-9912Y1229356D01*
X-9612Y1229487D01*
X-9324Y1229645D01*
X-9051Y1229827D01*
X-8795Y1230032D01*
X-8558Y1230258D01*
X-8342Y1230504D01*
X-8147Y1230769D01*
X-7977Y1231049D01*
X-7832Y1231343D01*
X-7712Y1231648D01*
X-7620Y1231963D01*
X-7556Y1232284D01*
X-7520Y1232610D01*
X-7520Y1234610D01*
X-7556Y1234936D01*
X-7620Y1235257D01*
X-7712Y1235572D01*
X-7832Y1235878D01*
X-7977Y1236171D01*
X-8147Y1236452D01*
X-8342Y1236716D01*
X-8558Y1236962D01*
X-8795Y1237188D01*
X-9051Y1237393D01*
X-9324Y1237575D01*
X-9612Y1237733D01*
X-9912Y1237864D01*
X-10222Y1237969D01*
X-10541Y1238047D01*
X-10865Y1238096D01*
X-11192Y1238118D01*
X-11520Y1238110D01*
X-17020Y1238110D01*
X-17325Y1238097D01*
X-17628Y1238057D01*
X-17926Y1237991D01*
X-18217Y1237899D01*
X-18499Y1237782D01*
X-18770Y1237641D01*
X-19028Y1237477D01*
X-19270Y1237291D01*
X-19495Y1237085D01*
X-19701Y1236860D01*
X-19887Y1236618D01*
X-20051Y1236360D01*
X-20192Y1236089D01*
X-20309Y1235807D01*
X-20401Y1235516D01*
X-20467Y1235218D01*
X-20507Y1234915D01*
X-20520Y1234610D01*
X-20520Y1232610D01*
X-32791Y1213610D02*
X-32336Y1213670D01*
X-31893Y1213789D01*
X-31469Y1213964D01*
X-31071Y1214194D01*
X-30707Y1214473D01*
X-30383Y1214797D01*
X-30104Y1215161D01*
X-29874Y1215559D01*
X-29699Y1215983D01*
X-29580Y1216426D01*
X-29520Y1216881D01*
X-29520Y1217339D01*
X-29580Y1217794D01*
X-29699Y1218237D01*
X-29874Y1218661D01*
X-30104Y1219059D01*
X-30383Y1219423D01*
X-30707Y1219747D01*
X-31071Y1220026D01*
X-31469Y1220256D01*
X-31893Y1220431D01*
X-32336Y1220550D01*
X-32791Y1220610D01*
X-33249Y1220610D01*
X-33704Y1220550D01*
X-34147Y1220431D01*
X-34571Y1220256D01*
X-34969Y1220026D01*
X-35333Y1219747D01*
X-35657Y1219423D01*
X-35936Y1219059D01*
X-36166Y1218661D01*
X-36341Y1218237D01*
X-36460Y1217794D01*
X-36520Y1217339D01*
X-36520Y1216881D01*
X-36460Y1216426D01*
X-36341Y1215983D01*
X-36166Y1215559D01*
X-35936Y1215161D01*
X-35657Y1214797D01*
X-35333Y1214473D01*
X-34969Y1214194D01*
X-34571Y1213964D01*
X-34147Y1213789D01*
X-33704Y1213670D01*
X-33249Y1213610D01*
X-32791Y1213610D01*
X-32791Y1174610D02*
X-32336Y1174670D01*
X-31893Y1174789D01*
X-31469Y1174964D01*
X-31071Y1175194D01*
X-30707Y1175473D01*
X-30383Y1175797D01*
X-30104Y1176161D01*
X-29874Y1176559D01*
X-29699Y1176983D01*
X-29580Y1177426D01*
X-29520Y1177881D01*
X-29520Y1178339D01*
X-29580Y1178794D01*
X-29699Y1179237D01*
X-29874Y1179661D01*
X-30104Y1180059D01*
X-30383Y1180423D01*
X-30707Y1180747D01*
X-31071Y1181026D01*
X-31469Y1181256D01*
X-31893Y1181431D01*
X-32336Y1181550D01*
X-32791Y1181610D01*
X-33249Y1181610D01*
X-33704Y1181550D01*
X-34147Y1181431D01*
X-34571Y1181256D01*
X-34969Y1181026D01*
X-35333Y1180747D01*
X-35657Y1180423D01*
X-35936Y1180059D01*
X-36166Y1179661D01*
X-36341Y1179237D01*
X-36460Y1178794D01*
X-36520Y1178339D01*
X-36520Y1177881D01*
X-36460Y1177426D01*
X-36341Y1176983D01*
X-36166Y1176559D01*
X-35936Y1176161D01*
X-35657Y1175797D01*
X-35333Y1175473D01*
X-34969Y1175194D01*
X-34571Y1174964D01*
X-34147Y1174789D01*
X-33704Y1174670D01*
X-33249Y1174610D01*
X-32791Y1174610D01*
M02*
