G04 EAGLE Gerber RS-274X export*
G75*
%MOMM*%
%FSLAX34Y34*%
%LPD*%
%INSilkscreen Top*%
%IPPOS*%
%AMOC8*
5,1,8,0,0,1.08239X$1,22.5*%
G01*

G36*
X-564709Y239620D02*
X-564709Y239620D01*
X-564708Y239620D01*
X-564707Y239620D01*
X-561179Y239643D01*
X-561176Y239644D01*
X-561173Y239644D01*
X-557646Y239712D01*
X-557643Y239713D01*
X-557639Y239712D01*
X-554113Y239827D01*
X-554110Y239827D01*
X-554107Y239827D01*
X-551288Y239951D01*
X-551286Y239952D01*
X-551284Y239952D01*
X-549170Y240063D01*
X-549070Y240089D01*
X-548979Y240112D01*
X-548978Y240112D01*
X-548977Y240113D01*
X-548971Y240117D01*
X-548843Y240208D01*
X-548766Y240285D01*
X-545675Y240285D01*
X-545659Y240289D01*
X-545637Y240287D01*
X-542120Y240557D01*
X-542117Y240557D01*
X-542113Y240557D01*
X-538600Y240873D01*
X-538597Y240874D01*
X-538593Y240873D01*
X-535084Y241234D01*
X-535081Y241235D01*
X-535078Y241235D01*
X-532274Y241557D01*
X-532272Y241557D01*
X-532269Y241557D01*
X-528769Y242001D01*
X-528766Y242001D01*
X-528762Y242001D01*
X-525268Y242490D01*
X-525266Y242491D01*
X-525262Y242491D01*
X-521775Y243027D01*
X-521772Y243028D01*
X-521769Y243028D01*
X-518289Y243609D01*
X-518286Y243610D01*
X-518283Y243610D01*
X-515505Y244107D01*
X-515503Y244108D01*
X-515499Y244108D01*
X-512034Y244771D01*
X-512032Y244772D01*
X-512028Y244772D01*
X-508572Y245480D01*
X-508569Y245482D01*
X-508565Y245482D01*
X-505119Y246236D01*
X-505117Y246237D01*
X-505114Y246237D01*
X-502364Y246873D01*
X-502361Y246874D01*
X-502358Y246874D01*
X-498931Y247709D01*
X-498928Y247711D01*
X-498924Y247711D01*
X-495508Y248591D01*
X-495505Y248592D01*
X-495501Y248593D01*
X-492097Y249519D01*
X-492095Y249520D01*
X-492092Y249520D01*
X-489377Y250293D01*
X-489375Y250294D01*
X-489372Y250294D01*
X-485990Y251300D01*
X-485987Y251301D01*
X-485984Y251302D01*
X-482616Y252352D01*
X-482613Y252353D01*
X-482610Y252354D01*
X-479256Y253449D01*
X-479254Y253450D01*
X-479251Y253451D01*
X-476578Y254358D01*
X-476576Y254359D01*
X-476572Y254360D01*
X-473246Y255533D01*
X-473243Y255535D01*
X-473239Y255535D01*
X-469928Y256753D01*
X-469926Y256754D01*
X-469923Y256755D01*
X-467286Y257760D01*
X-467283Y257762D01*
X-467280Y257762D01*
X-463999Y259057D01*
X-463996Y259059D01*
X-463993Y259059D01*
X-461381Y260128D01*
X-461379Y260129D01*
X-461377Y260129D01*
X-461376Y260130D01*
X-458126Y261502D01*
X-458123Y261504D01*
X-458119Y261504D01*
X-454888Y262919D01*
X-454885Y262921D01*
X-454882Y262922D01*
X-451669Y264380D01*
X-451667Y264382D01*
X-451664Y264382D01*
X-449108Y265578D01*
X-449106Y265580D01*
X-449102Y265581D01*
X-445925Y267113D01*
X-445922Y267115D01*
X-445919Y267116D01*
X-442762Y268691D01*
X-442760Y268693D01*
X-442757Y268694D01*
X-440246Y269982D01*
X-440244Y269984D01*
X-440241Y269985D01*
X-437122Y271634D01*
X-437120Y271635D01*
X-437117Y271636D01*
X-434637Y272984D01*
X-434635Y272986D01*
X-434632Y272987D01*
X-431553Y274708D01*
X-431550Y274710D01*
X-431547Y274711D01*
X-428490Y276472D01*
X-428488Y276474D01*
X-428485Y276475D01*
X-426057Y277913D01*
X-426055Y277915D01*
X-426052Y277916D01*
X-423037Y279748D01*
X-423035Y279750D01*
X-423031Y279751D01*
X-420041Y281624D01*
X-420039Y281625D01*
X-420036Y281627D01*
X-417661Y283151D01*
X-417659Y283153D01*
X-417656Y283155D01*
X-414711Y285096D01*
X-414709Y285098D01*
X-414706Y285099D01*
X-412368Y286680D01*
X-412366Y286682D01*
X-412363Y286683D01*
X-409463Y288692D01*
X-409461Y288694D01*
X-409458Y288696D01*
X-406585Y290743D01*
X-406583Y290746D01*
X-406579Y290747D01*
X-403167Y293253D01*
X-403165Y293255D01*
X-403161Y293257D01*
X-400347Y295385D01*
X-400345Y295387D01*
X-400342Y295389D01*
X-397557Y297553D01*
X-397555Y297555D01*
X-397552Y297557D01*
X-395344Y299315D01*
X-395342Y299317D01*
X-395340Y299318D01*
X-392605Y301547D01*
X-392603Y301549D01*
X-392600Y301551D01*
X-389895Y303816D01*
X-389893Y303818D01*
X-389890Y303819D01*
X-387747Y305655D01*
X-387745Y305657D01*
X-387742Y305659D01*
X-386535Y306719D01*
X-362720Y266827D01*
X-362717Y266824D01*
X-362715Y266820D01*
X-361971Y265620D01*
X-361963Y265612D01*
X-361957Y265599D01*
X-361555Y265019D01*
X-361549Y265013D01*
X-361544Y265004D01*
X-361121Y264439D01*
X-361115Y264433D01*
X-361110Y264425D01*
X-360667Y263875D01*
X-360661Y263870D01*
X-360656Y263861D01*
X-360193Y263328D01*
X-360186Y263323D01*
X-360181Y263314D01*
X-359698Y262799D01*
X-359691Y262794D01*
X-359685Y262786D01*
X-359185Y262288D01*
X-359178Y262284D01*
X-359172Y262276D01*
X-358653Y261796D01*
X-358646Y261792D01*
X-358640Y261784D01*
X-358105Y261324D01*
X-358097Y261320D01*
X-358090Y261312D01*
X-357538Y260872D01*
X-357531Y260869D01*
X-357524Y260861D01*
X-356956Y260442D01*
X-356949Y260438D01*
X-356942Y260431D01*
X-356359Y260032D01*
X-356352Y260029D01*
X-356344Y260022D01*
X-355747Y259645D01*
X-355740Y259642D01*
X-355732Y259635D01*
X-355122Y259280D01*
X-355114Y259277D01*
X-355106Y259271D01*
X-354484Y258938D01*
X-354476Y258936D01*
X-354468Y258930D01*
X-353834Y258619D01*
X-353825Y258617D01*
X-353817Y258612D01*
X-353172Y258325D01*
X-353164Y258323D01*
X-353155Y258318D01*
X-352500Y258055D01*
X-352492Y258053D01*
X-352483Y258048D01*
X-351819Y257809D01*
X-351811Y257808D01*
X-351802Y257803D01*
X-351130Y257588D01*
X-351121Y257587D01*
X-351112Y257582D01*
X-350432Y257392D01*
X-350424Y257392D01*
X-350415Y257388D01*
X-349728Y257222D01*
X-349720Y257222D01*
X-349711Y257218D01*
X-349019Y257078D01*
X-349011Y257078D01*
X-349001Y257075D01*
X-348304Y256959D01*
X-348296Y256960D01*
X-348286Y256957D01*
X-347586Y256867D01*
X-347578Y256868D01*
X-347568Y256865D01*
X-346865Y256801D01*
X-346857Y256802D01*
X-346847Y256800D01*
X-346142Y256761D01*
X-346134Y256763D01*
X-346124Y256761D01*
X-345418Y256748D01*
X-345410Y256749D01*
X-345400Y256748D01*
X-344694Y256760D01*
X-344686Y256762D01*
X-344677Y256761D01*
X-343972Y256798D01*
X-343964Y256800D01*
X-343954Y256799D01*
X-343251Y256862D01*
X-343243Y256864D01*
X-343233Y256864D01*
X-342532Y256952D01*
X-342525Y256954D01*
X-342515Y256954D01*
X-341818Y257067D01*
X-341810Y257070D01*
X-341799Y257070D01*
X-341107Y257209D01*
X-341100Y257212D01*
X-341090Y257213D01*
X-340403Y257376D01*
X-340395Y257380D01*
X-340385Y257381D01*
X-339705Y257570D01*
X-339697Y257574D01*
X-339688Y257576D01*
X-339015Y257789D01*
X-339007Y257793D01*
X-338997Y257795D01*
X-338333Y258034D01*
X-338325Y258038D01*
X-338316Y258040D01*
X-337660Y258303D01*
X-337653Y258308D01*
X-337643Y258310D01*
X-336998Y258597D01*
X-336991Y258602D01*
X-336982Y258605D01*
X-336348Y258915D01*
X-336341Y258920D01*
X-336331Y258924D01*
X-335709Y259258D01*
X-335703Y259263D01*
X-335693Y259266D01*
X-335084Y259622D01*
X-335077Y259628D01*
X-335068Y259632D01*
X-334472Y260011D01*
X-334466Y260016D01*
X-334457Y260021D01*
X-333875Y260420D01*
X-333869Y260426D01*
X-333860Y260431D01*
X-333293Y260852D01*
X-333288Y260858D01*
X-333279Y260863D01*
X-332728Y261304D01*
X-332722Y261311D01*
X-332714Y261316D01*
X-332179Y261777D01*
X-332174Y261783D01*
X-332166Y261789D01*
X-331648Y262269D01*
X-331643Y262276D01*
X-331634Y262282D01*
X-331135Y262781D01*
X-331131Y262787D01*
X-331124Y262793D01*
X-330641Y263308D01*
X-330637Y263315D01*
X-330629Y263322D01*
X-330166Y263855D01*
X-330162Y263862D01*
X-330154Y263869D01*
X-329712Y264419D01*
X-329708Y264426D01*
X-329701Y264432D01*
X-329277Y264996D01*
X-329273Y265004D01*
X-329266Y265011D01*
X-328863Y265591D01*
X-328860Y265599D01*
X-328852Y265607D01*
X-328472Y266201D01*
X-328469Y266208D01*
X-328463Y266215D01*
X-328102Y266822D01*
X-328100Y266830D01*
X-328093Y266838D01*
X-327755Y267458D01*
X-327753Y267466D01*
X-327747Y267474D01*
X-327432Y268106D01*
X-327430Y268114D01*
X-327425Y268121D01*
X-327132Y268763D01*
X-327130Y268772D01*
X-327124Y268781D01*
X-326856Y269434D01*
X-326854Y269442D01*
X-326849Y269451D01*
X-326604Y270113D01*
X-326603Y270121D01*
X-326598Y270130D01*
X-326378Y270801D01*
X-326377Y270809D01*
X-326373Y270818D01*
X-326177Y271497D01*
X-326176Y271505D01*
X-326172Y271514D01*
X-326002Y272199D01*
X-326001Y272208D01*
X-325997Y272217D01*
X-325852Y272908D01*
X-325852Y272917D01*
X-325849Y272926D01*
X-325729Y273622D01*
X-325729Y273630D01*
X-325726Y273641D01*
X-325632Y274340D01*
X-325633Y274348D01*
X-325630Y274358D01*
X-325562Y275060D01*
X-325563Y275069D01*
X-325560Y275080D01*
X-325519Y275784D01*
X-325520Y275792D01*
X-325518Y275802D01*
X-325502Y276508D01*
X-325503Y276516D01*
X-325501Y276527D01*
X-325512Y277233D01*
X-325513Y277235D01*
X-325514Y277241D01*
X-325513Y277250D01*
X-325549Y277956D01*
X-325551Y277964D01*
X-325550Y277974D01*
X-325612Y278678D01*
X-325614Y278685D01*
X-325614Y278695D01*
X-325701Y279396D01*
X-325704Y279404D01*
X-325704Y279414D01*
X-325817Y280111D01*
X-325820Y280119D01*
X-325820Y280129D01*
X-325958Y280821D01*
X-325961Y280828D01*
X-325962Y280838D01*
X-326124Y281525D01*
X-326127Y281532D01*
X-326128Y281542D01*
X-326315Y282223D01*
X-326316Y282226D01*
X-326317Y282229D01*
X-346059Y350933D01*
X-345747Y351355D01*
X-345746Y351358D01*
X-345744Y351361D01*
X-343686Y354226D01*
X-343685Y354229D01*
X-343682Y354232D01*
X-341262Y357705D01*
X-341260Y357708D01*
X-341258Y357710D01*
X-339676Y360047D01*
X-339675Y360050D01*
X-339672Y360052D01*
X-337728Y362995D01*
X-337727Y362998D01*
X-337724Y363001D01*
X-335818Y365969D01*
X-335817Y365972D01*
X-335815Y365974D01*
X-334318Y368367D01*
X-334318Y368370D01*
X-334315Y368372D01*
X-332479Y371384D01*
X-332478Y371387D01*
X-332476Y371390D01*
X-330680Y374426D01*
X-330679Y374429D01*
X-330677Y374431D01*
X-329269Y376877D01*
X-329268Y376880D01*
X-329266Y376882D01*
X-327541Y379959D01*
X-327540Y379962D01*
X-327537Y379965D01*
X-325854Y383065D01*
X-325853Y383068D01*
X-325851Y383070D01*
X-324533Y385566D01*
X-324532Y385569D01*
X-324530Y385571D01*
X-322919Y388710D01*
X-322918Y388713D01*
X-322916Y388716D01*
X-321347Y391875D01*
X-321346Y391878D01*
X-321345Y391880D01*
X-320119Y394422D01*
X-320118Y394425D01*
X-320116Y394428D01*
X-318621Y397623D01*
X-318621Y397626D01*
X-318619Y397629D01*
X-317167Y400844D01*
X-317166Y400847D01*
X-317164Y400850D01*
X-316032Y403435D01*
X-316031Y403437D01*
X-316030Y403440D01*
X-314653Y406689D01*
X-314653Y406691D01*
X-314651Y406694D01*
X-313581Y409306D01*
X-313581Y409308D01*
X-313579Y409311D01*
X-312280Y412591D01*
X-312279Y412594D01*
X-312277Y412597D01*
X-311022Y415894D01*
X-311021Y415897D01*
X-311019Y415900D01*
X-309807Y419213D01*
X-309807Y419216D01*
X-309805Y419218D01*
X-308867Y421880D01*
X-308866Y421883D01*
X-308865Y421885D01*
X-307731Y425226D01*
X-307731Y425229D01*
X-307729Y425232D01*
X-306640Y428588D01*
X-306640Y428591D01*
X-306638Y428594D01*
X-305798Y431288D01*
X-305798Y431291D01*
X-305797Y431294D01*
X-304787Y434674D01*
X-304786Y434677D01*
X-304785Y434680D01*
X-303820Y438073D01*
X-303820Y438076D01*
X-303819Y438079D01*
X-303079Y440803D01*
X-303079Y440805D01*
X-303078Y440808D01*
X-302193Y444223D01*
X-302193Y444227D01*
X-302192Y444230D01*
X-301352Y447656D01*
X-301352Y447659D01*
X-301351Y447663D01*
X-300557Y451100D01*
X-300557Y451103D01*
X-300556Y451106D01*
X-299954Y453863D01*
X-299954Y453866D01*
X-299953Y453869D01*
X-299240Y457324D01*
X-299240Y457327D01*
X-299239Y457330D01*
X-298572Y460795D01*
X-298572Y460798D01*
X-298570Y460801D01*
X-297949Y464274D01*
X-297949Y464277D01*
X-297948Y464280D01*
X-297373Y467761D01*
X-297373Y467763D01*
X-297372Y467767D01*
X-296945Y470556D01*
X-296945Y470559D01*
X-296944Y470562D01*
X-296450Y474055D01*
X-296450Y474058D01*
X-296449Y474062D01*
X-296002Y477561D01*
X-296002Y477564D01*
X-296001Y477567D01*
X-295600Y481072D01*
X-295600Y481075D01*
X-295599Y481078D01*
X-295381Y483183D01*
X-295381Y483185D01*
X-295381Y483187D01*
X-295114Y485997D01*
X-295114Y486000D01*
X-295113Y486003D01*
X-294821Y489519D01*
X-294821Y489522D01*
X-294821Y489525D01*
X-294575Y493044D01*
X-294576Y493047D01*
X-294575Y493051D01*
X-294375Y496573D01*
X-294375Y496576D01*
X-294375Y496579D01*
X-294220Y500104D01*
X-294221Y500107D01*
X-294220Y500110D01*
X-294112Y503636D01*
X-294112Y503639D01*
X-294111Y503643D01*
X-294048Y507170D01*
X-294049Y507173D01*
X-294048Y507176D01*
X-294030Y509998D01*
X-294031Y510000D01*
X-294030Y510004D01*
X-294049Y513531D01*
X-294049Y513534D01*
X-294049Y513538D01*
X-294113Y517065D01*
X-294113Y517068D01*
X-294113Y517071D01*
X-294117Y517220D01*
X-294133Y517719D01*
X-294194Y519716D01*
X-294210Y520215D01*
X-294222Y520598D01*
X-294222Y520600D01*
X-294222Y520604D01*
X-294377Y524128D01*
X-294378Y524131D01*
X-294377Y524135D01*
X-294578Y527657D01*
X-294578Y527660D01*
X-294578Y527663D01*
X-294692Y529297D01*
X-272319Y529325D01*
X-240364Y529404D01*
X-240350Y529407D01*
X-240331Y529405D01*
X-238984Y529499D01*
X-238977Y529501D01*
X-238967Y529500D01*
X-238072Y529594D01*
X-238066Y529595D01*
X-238059Y529595D01*
X-237166Y529712D01*
X-237160Y529714D01*
X-237153Y529714D01*
X-236264Y529856D01*
X-236258Y529858D01*
X-236251Y529858D01*
X-235366Y530024D01*
X-235359Y530026D01*
X-235350Y530027D01*
X-234031Y530319D01*
X-234025Y530322D01*
X-234015Y530323D01*
X-233143Y530546D01*
X-233137Y530549D01*
X-233128Y530550D01*
X-231832Y530928D01*
X-231825Y530932D01*
X-231816Y530933D01*
X-230961Y531213D01*
X-230956Y531216D01*
X-230949Y531217D01*
X-230101Y531519D01*
X-230096Y531522D01*
X-230089Y531523D01*
X-229249Y531846D01*
X-229242Y531850D01*
X-229234Y531852D01*
X-228248Y532268D01*
X-227990Y532376D01*
X-227984Y532380D01*
X-227976Y532382D01*
X-227157Y532757D01*
X-227152Y532762D01*
X-227143Y532764D01*
X-225934Y533364D01*
X-225929Y533368D01*
X-225921Y533371D01*
X-225127Y533795D01*
X-225122Y533800D01*
X-225114Y533803D01*
X-223943Y534475D01*
X-223938Y534479D01*
X-223930Y534483D01*
X-223163Y534954D01*
X-223158Y534958D01*
X-223151Y534962D01*
X-222022Y535702D01*
X-222015Y535709D01*
X-222005Y535714D01*
X-220542Y536762D01*
X-220535Y536769D01*
X-220525Y536775D01*
X-219461Y537605D01*
X-219457Y537610D01*
X-219450Y537614D01*
X-218756Y538188D01*
X-218752Y538193D01*
X-218745Y538197D01*
X-217730Y539087D01*
X-217726Y539092D01*
X-217719Y539096D01*
X-217060Y539709D01*
X-217056Y539714D01*
X-217050Y539719D01*
X-216087Y540665D01*
X-216083Y540671D01*
X-216077Y540675D01*
X-215453Y541324D01*
X-215450Y541330D01*
X-215443Y541335D01*
X-214536Y542334D01*
X-214533Y542340D01*
X-214527Y542345D01*
X-213941Y543028D01*
X-213938Y543032D01*
X-213933Y543037D01*
X-213363Y543733D01*
X-213360Y543739D01*
X-213354Y543744D01*
X-212529Y544812D01*
X-212525Y544819D01*
X-212519Y544826D01*
X-211730Y545922D01*
X-211727Y545928D01*
X-211722Y545934D01*
X-211217Y546679D01*
X-211215Y546685D01*
X-211210Y546691D01*
X-210485Y547831D01*
X-210483Y547837D01*
X-210478Y547843D01*
X-210017Y548616D01*
X-210015Y548622D01*
X-210010Y548629D01*
X-209353Y549808D01*
X-209351Y549815D01*
X-209346Y549821D01*
X-208931Y550620D01*
X-208930Y550625D01*
X-208926Y550631D01*
X-208530Y551439D01*
X-208529Y551446D01*
X-208524Y551452D01*
X-207967Y552682D01*
X-207965Y552692D01*
X-207959Y552702D01*
X-207286Y554371D01*
X-207284Y554381D01*
X-207278Y554391D01*
X-206827Y555664D01*
X-206826Y555671D01*
X-206822Y555678D01*
X-206548Y556536D01*
X-206547Y556541D01*
X-206544Y556548D01*
X-206292Y557412D01*
X-206291Y557419D01*
X-206288Y557427D01*
X-205950Y558734D01*
X-205950Y558743D01*
X-205946Y558753D01*
X-205658Y560072D01*
X-205658Y560079D01*
X-205655Y560088D01*
X-205492Y560973D01*
X-205492Y560979D01*
X-205490Y560986D01*
X-205350Y561875D01*
X-205350Y561881D01*
X-205348Y561888D01*
X-205232Y562780D01*
X-205232Y562786D01*
X-205230Y562793D01*
X-205137Y563689D01*
X-205138Y563695D01*
X-205136Y563702D01*
X-205067Y564599D01*
X-205068Y564605D01*
X-205066Y564613D01*
X-205021Y565512D01*
X-205022Y565518D01*
X-205021Y565525D01*
X-205000Y566425D01*
X-205002Y566434D01*
X-205000Y566445D01*
X-205030Y568241D01*
X-205059Y583088D01*
X-204994Y642046D01*
X-204995Y642046D01*
X-204994Y642047D01*
X-205018Y656899D01*
X-205018Y656900D01*
X-205018Y656901D01*
X-205092Y671752D01*
X-205093Y671753D01*
X-205092Y671755D01*
X-205229Y686156D01*
X-205231Y686163D01*
X-205229Y686171D01*
X-205248Y686621D01*
X-205250Y686632D01*
X-205249Y686647D01*
X-205291Y687095D01*
X-205293Y687101D01*
X-205293Y687109D01*
X-205455Y688449D01*
X-205458Y688456D01*
X-205458Y688466D01*
X-205596Y689355D01*
X-205598Y689361D01*
X-205598Y689368D01*
X-205761Y690254D01*
X-205763Y690259D01*
X-205764Y690267D01*
X-205950Y691147D01*
X-205952Y691153D01*
X-205953Y691160D01*
X-206162Y692036D01*
X-206164Y692041D01*
X-206165Y692048D01*
X-206397Y692918D01*
X-206400Y692923D01*
X-206401Y692931D01*
X-206656Y693794D01*
X-206659Y693799D01*
X-206660Y693806D01*
X-206937Y694663D01*
X-206940Y694668D01*
X-206941Y694675D01*
X-207240Y695524D01*
X-207244Y695530D01*
X-207246Y695538D01*
X-207735Y696797D01*
X-207739Y696803D01*
X-207741Y696811D01*
X-208093Y697640D01*
X-208097Y697645D01*
X-208098Y697651D01*
X-208116Y697690D01*
X-208343Y698189D01*
X-208472Y698470D01*
X-208477Y698477D01*
X-208480Y698487D01*
X-209286Y700096D01*
X-209293Y700105D01*
X-209297Y700118D01*
X-210181Y701686D01*
X-210188Y701694D01*
X-210194Y701706D01*
X-211152Y703230D01*
X-211159Y703238D01*
X-211165Y703250D01*
X-212194Y704727D01*
X-212201Y704734D01*
X-212208Y704746D01*
X-213304Y706173D01*
X-213312Y706180D01*
X-213319Y706191D01*
X-214480Y707566D01*
X-214489Y707572D01*
X-214496Y707583D01*
X-215719Y708904D01*
X-215727Y708910D01*
X-215735Y708920D01*
X-217018Y710183D01*
X-217026Y710189D01*
X-217034Y710198D01*
X-218373Y711402D01*
X-218382Y711407D01*
X-218390Y711417D01*
X-219782Y712558D01*
X-219791Y712563D01*
X-219800Y712572D01*
X-221242Y713649D01*
X-221252Y713653D01*
X-221261Y713662D01*
X-222751Y714672D01*
X-222761Y714676D01*
X-222770Y714684D01*
X-224305Y715624D01*
X-224315Y715628D01*
X-224325Y715636D01*
X-225902Y716504D01*
X-225913Y716507D01*
X-225923Y716515D01*
X-227539Y717308D01*
X-227550Y717310D01*
X-227561Y717318D01*
X-229213Y718032D01*
X-229223Y718034D01*
X-229233Y718040D01*
X-230494Y718523D01*
X-230500Y718524D01*
X-230508Y718528D01*
X-231358Y718824D01*
X-231363Y718825D01*
X-231369Y718828D01*
X-232226Y719103D01*
X-232232Y719104D01*
X-232238Y719107D01*
X-233102Y719361D01*
X-233108Y719361D01*
X-233114Y719364D01*
X-233984Y719596D01*
X-233991Y719597D01*
X-233999Y719600D01*
X-235314Y719906D01*
X-235321Y719907D01*
X-235330Y719910D01*
X-236212Y720086D01*
X-236218Y720086D01*
X-236225Y720088D01*
X-237112Y720241D01*
X-237118Y720241D01*
X-237125Y720243D01*
X-238015Y720373D01*
X-238021Y720373D01*
X-238028Y720375D01*
X-238922Y720482D01*
X-238928Y720481D01*
X-238935Y720483D01*
X-239832Y720566D01*
X-239838Y720565D01*
X-239845Y720567D01*
X-240743Y720626D01*
X-240749Y720625D01*
X-240756Y720627D01*
X-241656Y720662D01*
X-241662Y720661D01*
X-241669Y720662D01*
X-242569Y720673D01*
X-242577Y720671D01*
X-242586Y720673D01*
X-243930Y720643D01*
X-394482Y720644D01*
X-395376Y721372D01*
X-395378Y721373D01*
X-395380Y721376D01*
X-397588Y723133D01*
X-397591Y723134D01*
X-397593Y723137D01*
X-400379Y725301D01*
X-400382Y725302D01*
X-400384Y725305D01*
X-403199Y727432D01*
X-403201Y727433D01*
X-403204Y727436D01*
X-406617Y729941D01*
X-406620Y729943D01*
X-406622Y729945D01*
X-409496Y731992D01*
X-409499Y731994D01*
X-409501Y731996D01*
X-412401Y734005D01*
X-412404Y734006D01*
X-412406Y734008D01*
X-414744Y735588D01*
X-414747Y735589D01*
X-414749Y735591D01*
X-417695Y737532D01*
X-417698Y737533D01*
X-417700Y737535D01*
X-418532Y738069D01*
X-317152Y738069D01*
X-317149Y738069D01*
X-317146Y738069D01*
X-315736Y738085D01*
X-315729Y738087D01*
X-315722Y738086D01*
X-315017Y738114D01*
X-315010Y738115D01*
X-315001Y738115D01*
X-313594Y738215D01*
X-313585Y738218D01*
X-313574Y738217D01*
X-312172Y738375D01*
X-312163Y738378D01*
X-312152Y738378D01*
X-310757Y738593D01*
X-310749Y738596D01*
X-310737Y738596D01*
X-309353Y738869D01*
X-309344Y738872D01*
X-309333Y738873D01*
X-307961Y739203D01*
X-307953Y739207D01*
X-307941Y739209D01*
X-306585Y739595D01*
X-306576Y739599D01*
X-306565Y739601D01*
X-305225Y740043D01*
X-305219Y740047D01*
X-305210Y740048D01*
X-304548Y740290D01*
X-304542Y740294D01*
X-304533Y740296D01*
X-303224Y740821D01*
X-303216Y740826D01*
X-303205Y740829D01*
X-301918Y741408D01*
X-301911Y741413D01*
X-301900Y741416D01*
X-300638Y742047D01*
X-300631Y742053D01*
X-300620Y742057D01*
X-299385Y742740D01*
X-299380Y742745D01*
X-299372Y742748D01*
X-298766Y743108D01*
X-298760Y743113D01*
X-298752Y743116D01*
X-297563Y743874D01*
X-297556Y743881D01*
X-297546Y743885D01*
X-296388Y744691D01*
X-296383Y744696D01*
X-296375Y744700D01*
X-295809Y745121D01*
X-295805Y745126D01*
X-295797Y745130D01*
X-294691Y746006D01*
X-294685Y746013D01*
X-294675Y746019D01*
X-293606Y746939D01*
X-293600Y746947D01*
X-293591Y746953D01*
X-292560Y747916D01*
X-292555Y747923D01*
X-292545Y747930D01*
X-291555Y748935D01*
X-291551Y748941D01*
X-291545Y748946D01*
X-291065Y749463D01*
X-291061Y749469D01*
X-291054Y749474D01*
X-290128Y750538D01*
X-290123Y750546D01*
X-290115Y750554D01*
X-289232Y751654D01*
X-289229Y751660D01*
X-289222Y751666D01*
X-288798Y752230D01*
X-288795Y752236D01*
X-288790Y752242D01*
X-287976Y753395D01*
X-287972Y753403D01*
X-287964Y753412D01*
X-287199Y754597D01*
X-287197Y754604D01*
X-287191Y754610D01*
X-286827Y755214D01*
X-286824Y755221D01*
X-286819Y755227D01*
X-286129Y756458D01*
X-286126Y756466D01*
X-286119Y756476D01*
X-285479Y757733D01*
X-285477Y757740D01*
X-285472Y757747D01*
X-285173Y758386D01*
X-285171Y758392D01*
X-285167Y758399D01*
X-284606Y759694D01*
X-284604Y759703D01*
X-284598Y759714D01*
X-284093Y761031D01*
X-284091Y761040D01*
X-284086Y761050D01*
X-283635Y762386D01*
X-283633Y762396D01*
X-283628Y762406D01*
X-283233Y763760D01*
X-283232Y763767D01*
X-283229Y763775D01*
X-283053Y764459D01*
X-283052Y764466D01*
X-283049Y764473D01*
X-282739Y765850D01*
X-282739Y765857D01*
X-282736Y765865D01*
X-282602Y766558D01*
X-282602Y766565D01*
X-282600Y766572D01*
X-282375Y767965D01*
X-282375Y767975D01*
X-282372Y767986D01*
X-282206Y769387D01*
X-282207Y769394D01*
X-282205Y769402D01*
X-282143Y770104D01*
X-282143Y770111D01*
X-282141Y770120D01*
X-282061Y771528D01*
X-282062Y771537D01*
X-282060Y771548D01*
X-282037Y772959D01*
X-282038Y772963D01*
X-282037Y772967D01*
X-282037Y916164D01*
X-282037Y916166D01*
X-282037Y916167D01*
X-282046Y917578D01*
X-282047Y917586D01*
X-282046Y917595D01*
X-282104Y919005D01*
X-282106Y919014D01*
X-282105Y919026D01*
X-282222Y920431D01*
X-282224Y920440D01*
X-282224Y920451D01*
X-282397Y921851D01*
X-282400Y921861D01*
X-282400Y921872D01*
X-282631Y923264D01*
X-282634Y923270D01*
X-282634Y923278D01*
X-282771Y923970D01*
X-282773Y923977D01*
X-282774Y923986D01*
X-283091Y925361D01*
X-283095Y925369D01*
X-283097Y925381D01*
X-283471Y926741D01*
X-283475Y926749D01*
X-283477Y926760D01*
X-283906Y928104D01*
X-283911Y928112D01*
X-283913Y928124D01*
X-284398Y929448D01*
X-284403Y929456D01*
X-284406Y929467D01*
X-284946Y930771D01*
X-284951Y930779D01*
X-284954Y930790D01*
X-285046Y930989D01*
X-285509Y931988D01*
X-285547Y932070D01*
X-285553Y932077D01*
X-285556Y932088D01*
X-286202Y933342D01*
X-286206Y933348D01*
X-286209Y933356D01*
X-286551Y933973D01*
X-286555Y933978D01*
X-286559Y933986D01*
X-287280Y935198D01*
X-287287Y935205D01*
X-287291Y935216D01*
X-288062Y936397D01*
X-288069Y936404D01*
X-288074Y936414D01*
X-288893Y937563D01*
X-288900Y937569D01*
X-288905Y937579D01*
X-289770Y938693D01*
X-289777Y938699D01*
X-289783Y938709D01*
X-290693Y939787D01*
X-290699Y939791D01*
X-290704Y939798D01*
X-291175Y940323D01*
X-291181Y940327D01*
X-291185Y940334D01*
X-292160Y941354D01*
X-292168Y941359D01*
X-292174Y941368D01*
X-293190Y942348D01*
X-293196Y942351D01*
X-293201Y942358D01*
X-293724Y942832D01*
X-293730Y942835D01*
X-293735Y942842D01*
X-294809Y943756D01*
X-294818Y943761D01*
X-294825Y943769D01*
X-295936Y944639D01*
X-295944Y944643D01*
X-295952Y944651D01*
X-297097Y945475D01*
X-297106Y945479D01*
X-297114Y945487D01*
X-298292Y946263D01*
X-298299Y946265D01*
X-298305Y946271D01*
X-298906Y946641D01*
X-298913Y946643D01*
X-298919Y946648D01*
X-300143Y947350D01*
X-300152Y947353D01*
X-300161Y947360D01*
X-301413Y948011D01*
X-301422Y948013D01*
X-301431Y948020D01*
X-302709Y948618D01*
X-302718Y948621D01*
X-302727Y948627D01*
X-304029Y949172D01*
X-304038Y949174D01*
X-304048Y949180D01*
X-305370Y949670D01*
X-305380Y949672D01*
X-305390Y949677D01*
X-306732Y950113D01*
X-306739Y950113D01*
X-306746Y950117D01*
X-307424Y950314D01*
X-307431Y950315D01*
X-307439Y950318D01*
X-308805Y950669D01*
X-308814Y950670D01*
X-308825Y950674D01*
X-310205Y950969D01*
X-310214Y950969D01*
X-310225Y950972D01*
X-311615Y951210D01*
X-311622Y951210D01*
X-311631Y951212D01*
X-312329Y951309D01*
X-312336Y951309D01*
X-312345Y951311D01*
X-313747Y951462D01*
X-313757Y951461D01*
X-313768Y951463D01*
X-315175Y951556D01*
X-315182Y951555D01*
X-315191Y951557D01*
X-315896Y951582D01*
X-315902Y951581D01*
X-315909Y951582D01*
X-317319Y951594D01*
X-317321Y951594D01*
X-317324Y951594D01*
X-492969Y951594D01*
X-492974Y951593D01*
X-492980Y951594D01*
X-494390Y951565D01*
X-494399Y951563D01*
X-494410Y951564D01*
X-495818Y951478D01*
X-495827Y951476D01*
X-495839Y951477D01*
X-497242Y951334D01*
X-497251Y951331D01*
X-497262Y951331D01*
X-498659Y951131D01*
X-498668Y951127D01*
X-498679Y951127D01*
X-500066Y950869D01*
X-500072Y950866D01*
X-500081Y950866D01*
X-500770Y950715D01*
X-500777Y950713D01*
X-500785Y950712D01*
X-502154Y950368D01*
X-502162Y950364D01*
X-502174Y950362D01*
X-503526Y949962D01*
X-503534Y949957D01*
X-503546Y949956D01*
X-504881Y949500D01*
X-504889Y949495D01*
X-504900Y949493D01*
X-506215Y948981D01*
X-506223Y948976D01*
X-506234Y948974D01*
X-507527Y948408D01*
X-507534Y948403D01*
X-507545Y948400D01*
X-508814Y947782D01*
X-508819Y947778D01*
X-508828Y947775D01*
X-509452Y947446D01*
X-509457Y947442D01*
X-509465Y947439D01*
X-510693Y946744D01*
X-510700Y946737D01*
X-510710Y946733D01*
X-511908Y945988D01*
X-511915Y945981D01*
X-511925Y945976D01*
X-513091Y945183D01*
X-513098Y945176D01*
X-513108Y945171D01*
X-514240Y944329D01*
X-514245Y944324D01*
X-514252Y944320D01*
X-514806Y943883D01*
X-514810Y943877D01*
X-514818Y943873D01*
X-515896Y942963D01*
X-515902Y942956D01*
X-515911Y942950D01*
X-516952Y941998D01*
X-516956Y941992D01*
X-516964Y941987D01*
X-517469Y941495D01*
X-517473Y941489D01*
X-517479Y941484D01*
X-518460Y940470D01*
X-518465Y940462D01*
X-518474Y940454D01*
X-519411Y939401D01*
X-519416Y939393D01*
X-519424Y939385D01*
X-520318Y938294D01*
X-520323Y938286D01*
X-520331Y938278D01*
X-521179Y937150D01*
X-521183Y937142D01*
X-521191Y937134D01*
X-521993Y935973D01*
X-521996Y935964D01*
X-522004Y935956D01*
X-522757Y934763D01*
X-522760Y934756D01*
X-522765Y934750D01*
X-523123Y934142D01*
X-523126Y934136D01*
X-523131Y934129D01*
X-523808Y932891D01*
X-523811Y932882D01*
X-523818Y932873D01*
X-524444Y931609D01*
X-524447Y931600D01*
X-524453Y931590D01*
X-525026Y930301D01*
X-525028Y930292D01*
X-525034Y930282D01*
X-525554Y928971D01*
X-525554Y928965D01*
X-525557Y928962D01*
X-525558Y928957D01*
X-525561Y928951D01*
X-526026Y927620D01*
X-526027Y927610D01*
X-526032Y927600D01*
X-526441Y926249D01*
X-526442Y926243D01*
X-526445Y926235D01*
X-526629Y925554D01*
X-526629Y925547D01*
X-526633Y925538D01*
X-526957Y924165D01*
X-526957Y924156D01*
X-526961Y924145D01*
X-527228Y922760D01*
X-527228Y922751D01*
X-527231Y922740D01*
X-527441Y921345D01*
X-527441Y921336D01*
X-527444Y921325D01*
X-527596Y919922D01*
X-527596Y919915D01*
X-527598Y919906D01*
X-527652Y919203D01*
X-527651Y919196D01*
X-527653Y919188D01*
X-527719Y917779D01*
X-527718Y917771D01*
X-527720Y917760D01*
X-527732Y916350D01*
X-527732Y916348D01*
X-527732Y916345D01*
X-527732Y851098D01*
X-601756Y851098D01*
X-601756Y916868D01*
X-601757Y916873D01*
X-601756Y916879D01*
X-601787Y918289D01*
X-601788Y918296D01*
X-601787Y918304D01*
X-601823Y919008D01*
X-601825Y919015D01*
X-601824Y919024D01*
X-601942Y920430D01*
X-601944Y920439D01*
X-601944Y920450D01*
X-602117Y921850D01*
X-602120Y921859D01*
X-602120Y921871D01*
X-602352Y923262D01*
X-602355Y923268D01*
X-602355Y923277D01*
X-602492Y923969D01*
X-602495Y923976D01*
X-602495Y923984D01*
X-602813Y925359D01*
X-602817Y925367D01*
X-602818Y925379D01*
X-603192Y926739D01*
X-603196Y926747D01*
X-603198Y926759D01*
X-603628Y928102D01*
X-603632Y928110D01*
X-603634Y928122D01*
X-604120Y929446D01*
X-604125Y929454D01*
X-604127Y929466D01*
X-604667Y930769D01*
X-604672Y930777D01*
X-604675Y930788D01*
X-605268Y932068D01*
X-605274Y932075D01*
X-605277Y932086D01*
X-605922Y933341D01*
X-605928Y933348D01*
X-605932Y933359D01*
X-606629Y934585D01*
X-606635Y934593D01*
X-606639Y934603D01*
X-607386Y935800D01*
X-607391Y935805D01*
X-607394Y935813D01*
X-607786Y936400D01*
X-607791Y936405D01*
X-607794Y936412D01*
X-608613Y937561D01*
X-608620Y937567D01*
X-608625Y937577D01*
X-609490Y938692D01*
X-609498Y938698D01*
X-609503Y938708D01*
X-610413Y939785D01*
X-610421Y939791D01*
X-610427Y939801D01*
X-611380Y940840D01*
X-611386Y940845D01*
X-611391Y940852D01*
X-611883Y941356D01*
X-611889Y941360D01*
X-611894Y941367D01*
X-612910Y942347D01*
X-612918Y942352D01*
X-612925Y942360D01*
X-613980Y943297D01*
X-613986Y943301D01*
X-613991Y943307D01*
X-614533Y943759D01*
X-614539Y943762D01*
X-614545Y943769D01*
X-615655Y944639D01*
X-615664Y944643D01*
X-615672Y944651D01*
X-616817Y945475D01*
X-616825Y945478D01*
X-616834Y945486D01*
X-618012Y946262D01*
X-618018Y946265D01*
X-618025Y946271D01*
X-618625Y946640D01*
X-618632Y946643D01*
X-618639Y946648D01*
X-619862Y947350D01*
X-619871Y947353D01*
X-619880Y947360D01*
X-621132Y948011D01*
X-621141Y948013D01*
X-621150Y948020D01*
X-622428Y948618D01*
X-622437Y948621D01*
X-622447Y948627D01*
X-623748Y949172D01*
X-623757Y949174D01*
X-623767Y949179D01*
X-625089Y949670D01*
X-625099Y949672D01*
X-625109Y949677D01*
X-626451Y950113D01*
X-626458Y950113D01*
X-626465Y950117D01*
X-627143Y950314D01*
X-627150Y950315D01*
X-627158Y950318D01*
X-628524Y950669D01*
X-628531Y950670D01*
X-628539Y950673D01*
X-629227Y950827D01*
X-629234Y950828D01*
X-629243Y950831D01*
X-630628Y951097D01*
X-630637Y951096D01*
X-630648Y951100D01*
X-632043Y951309D01*
X-632053Y951308D01*
X-632064Y951311D01*
X-633467Y951462D01*
X-633476Y951461D01*
X-633487Y951464D01*
X-634895Y951556D01*
X-634902Y951555D01*
X-634910Y951557D01*
X-635615Y951582D01*
X-635621Y951581D01*
X-635628Y951582D01*
X-637039Y951594D01*
X-637041Y951594D01*
X-637043Y951594D01*
X-812688Y951594D01*
X-812693Y951593D01*
X-812698Y951594D01*
X-814109Y951565D01*
X-814118Y951563D01*
X-814129Y951564D01*
X-815537Y951478D01*
X-815546Y951476D01*
X-815557Y951477D01*
X-816961Y951334D01*
X-816970Y951331D01*
X-816981Y951331D01*
X-818377Y951131D01*
X-818386Y951127D01*
X-818398Y951127D01*
X-819785Y950869D01*
X-819791Y950866D01*
X-819800Y950866D01*
X-820489Y950715D01*
X-820495Y950713D01*
X-820504Y950712D01*
X-821872Y950368D01*
X-821881Y950364D01*
X-821892Y950362D01*
X-823245Y949962D01*
X-823253Y949957D01*
X-823264Y949956D01*
X-824599Y949500D01*
X-824608Y949495D01*
X-824619Y949493D01*
X-825934Y948981D01*
X-825942Y948976D01*
X-825953Y948974D01*
X-827245Y948408D01*
X-827253Y948403D01*
X-827264Y948400D01*
X-828532Y947782D01*
X-828538Y947778D01*
X-828546Y947775D01*
X-829170Y947446D01*
X-829176Y947442D01*
X-829184Y947439D01*
X-830411Y946744D01*
X-830418Y946737D01*
X-830429Y946733D01*
X-831627Y945987D01*
X-831633Y945981D01*
X-831644Y945976D01*
X-832810Y945183D01*
X-832815Y945178D01*
X-832823Y945174D01*
X-833393Y944759D01*
X-833398Y944754D01*
X-833405Y944750D01*
X-834520Y943886D01*
X-834526Y943879D01*
X-834536Y943873D01*
X-835615Y942963D01*
X-835620Y942956D01*
X-835630Y942950D01*
X-836671Y941998D01*
X-836675Y941992D01*
X-836682Y941987D01*
X-837187Y941495D01*
X-837191Y941489D01*
X-837198Y941484D01*
X-838178Y940470D01*
X-838183Y940462D01*
X-838192Y940455D01*
X-839130Y939400D01*
X-839134Y939393D01*
X-839143Y939385D01*
X-840037Y938294D01*
X-840042Y938286D01*
X-840050Y938278D01*
X-840898Y937150D01*
X-840902Y937142D01*
X-840910Y937134D01*
X-841711Y935973D01*
X-841715Y935965D01*
X-841723Y935956D01*
X-842476Y934763D01*
X-842478Y934756D01*
X-842483Y934750D01*
X-842842Y934143D01*
X-842844Y934136D01*
X-842850Y934129D01*
X-843527Y932891D01*
X-843530Y932882D01*
X-843536Y932873D01*
X-844163Y931609D01*
X-844165Y931600D01*
X-844172Y931590D01*
X-844745Y930301D01*
X-844747Y930292D01*
X-844753Y930282D01*
X-845272Y928971D01*
X-845273Y928965D01*
X-845276Y928962D01*
X-845276Y928957D01*
X-845279Y928952D01*
X-845744Y927620D01*
X-845746Y927610D01*
X-845751Y927600D01*
X-846160Y926250D01*
X-846160Y926243D01*
X-846164Y926235D01*
X-846348Y925554D01*
X-846348Y925547D01*
X-846351Y925539D01*
X-846675Y924166D01*
X-846676Y924156D01*
X-846680Y924145D01*
X-846947Y922760D01*
X-846946Y922751D01*
X-846950Y922740D01*
X-847160Y921345D01*
X-847160Y921336D01*
X-847163Y921325D01*
X-847315Y919922D01*
X-847314Y919915D01*
X-847316Y919907D01*
X-847371Y919203D01*
X-847370Y919197D01*
X-847372Y919188D01*
X-847438Y917779D01*
X-847436Y917771D01*
X-847438Y917760D01*
X-847451Y916350D01*
X-847450Y916348D01*
X-847451Y916345D01*
X-847451Y773149D01*
X-847450Y773146D01*
X-847451Y773142D01*
X-847433Y771732D01*
X-847432Y771725D01*
X-847433Y771718D01*
X-847404Y771013D01*
X-847402Y771007D01*
X-847403Y771003D01*
X-847402Y771001D01*
X-847403Y770997D01*
X-847301Y769590D01*
X-847299Y769584D01*
X-847300Y769575D01*
X-847228Y768874D01*
X-847225Y768867D01*
X-847226Y768858D01*
X-847037Y767460D01*
X-847034Y767451D01*
X-847034Y767439D01*
X-846789Y766050D01*
X-846785Y766042D01*
X-846785Y766030D01*
X-846482Y764652D01*
X-846478Y764644D01*
X-846477Y764632D01*
X-846118Y763268D01*
X-846114Y763260D01*
X-846112Y763248D01*
X-845696Y761900D01*
X-845691Y761892D01*
X-845689Y761881D01*
X-845218Y760551D01*
X-845213Y760543D01*
X-845211Y760531D01*
X-844685Y759223D01*
X-844679Y759215D01*
X-844677Y759204D01*
X-844096Y757918D01*
X-844091Y757910D01*
X-844088Y757899D01*
X-843455Y756638D01*
X-843451Y756632D01*
X-843448Y756624D01*
X-843112Y756004D01*
X-843108Y755999D01*
X-843105Y755991D01*
X-842395Y754771D01*
X-842389Y754764D01*
X-842385Y754754D01*
X-841625Y753565D01*
X-841619Y753558D01*
X-841614Y753548D01*
X-840807Y752391D01*
X-840802Y752386D01*
X-840798Y752378D01*
X-840377Y751812D01*
X-840371Y751808D01*
X-840367Y751800D01*
X-839491Y750695D01*
X-839484Y750689D01*
X-839478Y750679D01*
X-838556Y749611D01*
X-838549Y749606D01*
X-838543Y749596D01*
X-837579Y748566D01*
X-837573Y748562D01*
X-837568Y748555D01*
X-837070Y748055D01*
X-837064Y748051D01*
X-837059Y748045D01*
X-836034Y747076D01*
X-836026Y747071D01*
X-836018Y747062D01*
X-834954Y746137D01*
X-834946Y746132D01*
X-834938Y746124D01*
X-833837Y745242D01*
X-833829Y745237D01*
X-833821Y745229D01*
X-832684Y744394D01*
X-832678Y744391D01*
X-832672Y744385D01*
X-832091Y743985D01*
X-832087Y743983D01*
X-832082Y743979D01*
X-831493Y743591D01*
X-831487Y743588D01*
X-831480Y743583D01*
X-830279Y742843D01*
X-830270Y742840D01*
X-830261Y742833D01*
X-829030Y742144D01*
X-829021Y742141D01*
X-829012Y742134D01*
X-827754Y741496D01*
X-827747Y741494D01*
X-827740Y741489D01*
X-827101Y741190D01*
X-827094Y741188D01*
X-827087Y741183D01*
X-825792Y740624D01*
X-825783Y740622D01*
X-825773Y740617D01*
X-824455Y740112D01*
X-824446Y740111D01*
X-824436Y740105D01*
X-823099Y739656D01*
X-823090Y739654D01*
X-823079Y739649D01*
X-821724Y739256D01*
X-821717Y739255D01*
X-821709Y739252D01*
X-821026Y739076D01*
X-821019Y739076D01*
X-821011Y739072D01*
X-819635Y738764D01*
X-819628Y738764D01*
X-819620Y738761D01*
X-818927Y738628D01*
X-818920Y738628D01*
X-818912Y738625D01*
X-817519Y738402D01*
X-817509Y738403D01*
X-817498Y738399D01*
X-816097Y738235D01*
X-816090Y738235D01*
X-816082Y738233D01*
X-815380Y738172D01*
X-815372Y738172D01*
X-815364Y738170D01*
X-813955Y738092D01*
X-813946Y738093D01*
X-813936Y738091D01*
X-812525Y738069D01*
X-812521Y738069D01*
X-812517Y738069D01*
X-710952Y738069D01*
X-711808Y737519D01*
X-711810Y737517D01*
X-711813Y737516D01*
X-714759Y735575D01*
X-714761Y735573D01*
X-714764Y735572D01*
X-717102Y733991D01*
X-717104Y733989D01*
X-717106Y733988D01*
X-720006Y731979D01*
X-720009Y731977D01*
X-720012Y731975D01*
X-722885Y729928D01*
X-722887Y729926D01*
X-722891Y729924D01*
X-726303Y727418D01*
X-726305Y727416D01*
X-726309Y727414D01*
X-729123Y725287D01*
X-729125Y725284D01*
X-729128Y725283D01*
X-731913Y723118D01*
X-731915Y723116D01*
X-731918Y723115D01*
X-734126Y721357D01*
X-734128Y721355D01*
X-734131Y721354D01*
X-736866Y719125D01*
X-736868Y719123D01*
X-736871Y719121D01*
X-739090Y717264D01*
X-941749Y717264D01*
X-941754Y717263D01*
X-941760Y717263D01*
X-943171Y717234D01*
X-943177Y717233D01*
X-943186Y717234D01*
X-943890Y717198D01*
X-943897Y717196D01*
X-943905Y717197D01*
X-945312Y717083D01*
X-945321Y717080D01*
X-945333Y717081D01*
X-946733Y716908D01*
X-946742Y716905D01*
X-946753Y716905D01*
X-948146Y716675D01*
X-948154Y716672D01*
X-948166Y716672D01*
X-949548Y716385D01*
X-949556Y716381D01*
X-949568Y716380D01*
X-950936Y716036D01*
X-950943Y716033D01*
X-950951Y716032D01*
X-951630Y715839D01*
X-951636Y715835D01*
X-951645Y715834D01*
X-952989Y715405D01*
X-952998Y715400D01*
X-953009Y715398D01*
X-954334Y714914D01*
X-954342Y714909D01*
X-954353Y714907D01*
X-955658Y714368D01*
X-955664Y714364D01*
X-955673Y714362D01*
X-956316Y714072D01*
X-956322Y714068D01*
X-956330Y714066D01*
X-957598Y713447D01*
X-957606Y713441D01*
X-957617Y713438D01*
X-958858Y712767D01*
X-958865Y712761D01*
X-958876Y712757D01*
X-960089Y712036D01*
X-960096Y712030D01*
X-960107Y712025D01*
X-961289Y711254D01*
X-961295Y711248D01*
X-961306Y711243D01*
X-962455Y710425D01*
X-962462Y710418D01*
X-962472Y710412D01*
X-963587Y709548D01*
X-963591Y709542D01*
X-963599Y709538D01*
X-964143Y709089D01*
X-964147Y709083D01*
X-964155Y709079D01*
X-965214Y708147D01*
X-965220Y708140D01*
X-965229Y708133D01*
X-966250Y707159D01*
X-966256Y707151D01*
X-966265Y707145D01*
X-967245Y706129D01*
X-967249Y706124D01*
X-967255Y706118D01*
X-967730Y705596D01*
X-967733Y705590D01*
X-967740Y705584D01*
X-968656Y704511D01*
X-968660Y704503D01*
X-968669Y704495D01*
X-969540Y703385D01*
X-969544Y703376D01*
X-969552Y703369D01*
X-970377Y702224D01*
X-970380Y702217D01*
X-970386Y702211D01*
X-970781Y701626D01*
X-970784Y701620D01*
X-970789Y701613D01*
X-971542Y700420D01*
X-971545Y700411D01*
X-971553Y700402D01*
X-972256Y699178D01*
X-972259Y699170D01*
X-972266Y699160D01*
X-972918Y697909D01*
X-972920Y697900D01*
X-972927Y697890D01*
X-973527Y696613D01*
X-973529Y696604D01*
X-973535Y696594D01*
X-974082Y695293D01*
X-974083Y695284D01*
X-974089Y695274D01*
X-974581Y693951D01*
X-974582Y693944D01*
X-974586Y693937D01*
X-974812Y693268D01*
X-974812Y693261D01*
X-974816Y693253D01*
X-975225Y691902D01*
X-975226Y691893D01*
X-975230Y691882D01*
X-975582Y690516D01*
X-975583Y690506D01*
X-975587Y690496D01*
X-975883Y689116D01*
X-975883Y689107D01*
X-975887Y689095D01*
X-976124Y687705D01*
X-976124Y687698D01*
X-976127Y687690D01*
X-976224Y686991D01*
X-976224Y686984D01*
X-976226Y686975D01*
X-976378Y685572D01*
X-976377Y685563D01*
X-976380Y685552D01*
X-976473Y684144D01*
X-976472Y684137D01*
X-976474Y684129D01*
X-976500Y683424D01*
X-976499Y683417D01*
X-976500Y683410D01*
X-976512Y681998D01*
X-976512Y681997D01*
X-976512Y681994D01*
X-976504Y401855D01*
X-976503Y401846D01*
X-976504Y401835D01*
X-976447Y400425D01*
X-976445Y400416D01*
X-976446Y400405D01*
X-976332Y398999D01*
X-976329Y398989D01*
X-976330Y398978D01*
X-976157Y397577D01*
X-976155Y397569D01*
X-976155Y397557D01*
X-975925Y396165D01*
X-975922Y396156D01*
X-975921Y396145D01*
X-975635Y394763D01*
X-975631Y394754D01*
X-975630Y394743D01*
X-975286Y393374D01*
X-975282Y393365D01*
X-975280Y393354D01*
X-974880Y392001D01*
X-974875Y391993D01*
X-974873Y391981D01*
X-974417Y390646D01*
X-974413Y390638D01*
X-974410Y390626D01*
X-973899Y389311D01*
X-973894Y389303D01*
X-973891Y389292D01*
X-973325Y387999D01*
X-973320Y387991D01*
X-973317Y387980D01*
X-972699Y386712D01*
X-972693Y386704D01*
X-972689Y386693D01*
X-972019Y385452D01*
X-972013Y385445D01*
X-972008Y385434D01*
X-971288Y384221D01*
X-971282Y384214D01*
X-971277Y384203D01*
X-970506Y383021D01*
X-970500Y383014D01*
X-970495Y383004D01*
X-969677Y381854D01*
X-969670Y381848D01*
X-969665Y381838D01*
X-968800Y380722D01*
X-968795Y380718D01*
X-968791Y380710D01*
X-968341Y380166D01*
X-968336Y380162D01*
X-968331Y380154D01*
X-967400Y379095D01*
X-967392Y379089D01*
X-967386Y379080D01*
X-966412Y378059D01*
X-966404Y378053D01*
X-966398Y378044D01*
X-965383Y377064D01*
X-965377Y377060D01*
X-965371Y377053D01*
X-964849Y376579D01*
X-964845Y376576D01*
X-964841Y376572D01*
X-964309Y376108D01*
X-964303Y376105D01*
X-964298Y376099D01*
X-963206Y375204D01*
X-963200Y375201D01*
X-963194Y375195D01*
X-962634Y374765D01*
X-962628Y374762D01*
X-962622Y374756D01*
X-961477Y373931D01*
X-961469Y373927D01*
X-961460Y373919D01*
X-960283Y373142D01*
X-960274Y373138D01*
X-960265Y373131D01*
X-959057Y372402D01*
X-959048Y372399D01*
X-959039Y372391D01*
X-957801Y371714D01*
X-957794Y371712D01*
X-957788Y371707D01*
X-957159Y371387D01*
X-957154Y371386D01*
X-957149Y371382D01*
X-956514Y371076D01*
X-956507Y371074D01*
X-956500Y371069D01*
X-955210Y370496D01*
X-955201Y370494D01*
X-955191Y370488D01*
X-953879Y369969D01*
X-953870Y369967D01*
X-953860Y369961D01*
X-952527Y369496D01*
X-952518Y369495D01*
X-952507Y369490D01*
X-951157Y369081D01*
X-951150Y369081D01*
X-951142Y369077D01*
X-950461Y368893D01*
X-950454Y368893D01*
X-950445Y368890D01*
X-949072Y368566D01*
X-949065Y368566D01*
X-949057Y368563D01*
X-948366Y368422D01*
X-948359Y368422D01*
X-948350Y368419D01*
X-946959Y368181D01*
X-946952Y368181D01*
X-946944Y368178D01*
X-946245Y368081D01*
X-946238Y368081D01*
X-946230Y368079D01*
X-944827Y367927D01*
X-944820Y367928D01*
X-944811Y367926D01*
X-944108Y367872D01*
X-944101Y367873D01*
X-944093Y367871D01*
X-942683Y367805D01*
X-942675Y367806D01*
X-942664Y367804D01*
X-941253Y367792D01*
X-941251Y367793D01*
X-941249Y367792D01*
X-794803Y367797D01*
X-793650Y365948D01*
X-793648Y365946D01*
X-793646Y365942D01*
X-791740Y362974D01*
X-791738Y362972D01*
X-791736Y362969D01*
X-789791Y360025D01*
X-789789Y360023D01*
X-789788Y360021D01*
X-788206Y357684D01*
X-788203Y357682D01*
X-788202Y357678D01*
X-785781Y354205D01*
X-785778Y354203D01*
X-785777Y354200D01*
X-783719Y351334D01*
X-783717Y351332D01*
X-783715Y351329D01*
X-783424Y350935D01*
X-803161Y282233D01*
X-803161Y282230D01*
X-803163Y282227D01*
X-803350Y281547D01*
X-803350Y281539D01*
X-803354Y281529D01*
X-803516Y280842D01*
X-803516Y280834D01*
X-803520Y280825D01*
X-803658Y280133D01*
X-803658Y280125D01*
X-803661Y280115D01*
X-803774Y279419D01*
X-803774Y279410D01*
X-803777Y279401D01*
X-803865Y278700D01*
X-803864Y278692D01*
X-803867Y278682D01*
X-803929Y277979D01*
X-803928Y277971D01*
X-803931Y277960D01*
X-803967Y277255D01*
X-803965Y277247D01*
X-803967Y277238D01*
X-803978Y276532D01*
X-803976Y276523D01*
X-803978Y276513D01*
X-803962Y275807D01*
X-803960Y275799D01*
X-803961Y275789D01*
X-803920Y275084D01*
X-803918Y275076D01*
X-803919Y275065D01*
X-803850Y274363D01*
X-803848Y274355D01*
X-803848Y274345D01*
X-803755Y273645D01*
X-803752Y273637D01*
X-803752Y273626D01*
X-803632Y272931D01*
X-803630Y272923D01*
X-803629Y272913D01*
X-803484Y272222D01*
X-803481Y272214D01*
X-803480Y272204D01*
X-803310Y271519D01*
X-803306Y271511D01*
X-803305Y271501D01*
X-803110Y270823D01*
X-803106Y270816D01*
X-803104Y270806D01*
X-802885Y270135D01*
X-802880Y270128D01*
X-802879Y270117D01*
X-802634Y269455D01*
X-802630Y269448D01*
X-802628Y269439D01*
X-802360Y268785D01*
X-802355Y268778D01*
X-802352Y268768D01*
X-802059Y268125D01*
X-802055Y268119D01*
X-802052Y268110D01*
X-801738Y267478D01*
X-801732Y267471D01*
X-801729Y267461D01*
X-801390Y266842D01*
X-801385Y266836D01*
X-801382Y266828D01*
X-801024Y266219D01*
X-801018Y266213D01*
X-801014Y266203D01*
X-800632Y265609D01*
X-800626Y265603D01*
X-800622Y265594D01*
X-800218Y265014D01*
X-800213Y265009D01*
X-800209Y265001D01*
X-799787Y264435D01*
X-799780Y264429D01*
X-799775Y264420D01*
X-799331Y263871D01*
X-799325Y263866D01*
X-799320Y263858D01*
X-798858Y263324D01*
X-798851Y263320D01*
X-798846Y263311D01*
X-798365Y262795D01*
X-798358Y262790D01*
X-798352Y262781D01*
X-797852Y262283D01*
X-797845Y262279D01*
X-797839Y262271D01*
X-797321Y261790D01*
X-797314Y261786D01*
X-797308Y261778D01*
X-796773Y261317D01*
X-796766Y261313D01*
X-796759Y261306D01*
X-796209Y260864D01*
X-796201Y260861D01*
X-796194Y260853D01*
X-795627Y260432D01*
X-795620Y260429D01*
X-795612Y260422D01*
X-795031Y260022D01*
X-795023Y260018D01*
X-795016Y260012D01*
X-794420Y259633D01*
X-794412Y259630D01*
X-794404Y259623D01*
X-793794Y259267D01*
X-793787Y259264D01*
X-793779Y259258D01*
X-793157Y258924D01*
X-793149Y258922D01*
X-793140Y258916D01*
X-792506Y258606D01*
X-792498Y258603D01*
X-792490Y258598D01*
X-791845Y258311D01*
X-791837Y258309D01*
X-791828Y258303D01*
X-791172Y258041D01*
X-791164Y258039D01*
X-791155Y258034D01*
X-790491Y257795D01*
X-790483Y257794D01*
X-790473Y257789D01*
X-789800Y257576D01*
X-789792Y257575D01*
X-789783Y257570D01*
X-789103Y257381D01*
X-789094Y257381D01*
X-789085Y257377D01*
X-788398Y257213D01*
X-788390Y257213D01*
X-788381Y257209D01*
X-787689Y257070D01*
X-787680Y257070D01*
X-787670Y257067D01*
X-786973Y256954D01*
X-786965Y256955D01*
X-786956Y256952D01*
X-786255Y256864D01*
X-786247Y256864D01*
X-786237Y256862D01*
X-785534Y256799D01*
X-785526Y256800D01*
X-785516Y256798D01*
X-784811Y256761D01*
X-784803Y256762D01*
X-784794Y256760D01*
X-784088Y256748D01*
X-784080Y256749D01*
X-784070Y256748D01*
X-783364Y256761D01*
X-783356Y256762D01*
X-783346Y256761D01*
X-782641Y256800D01*
X-782633Y256802D01*
X-782623Y256801D01*
X-781920Y256865D01*
X-781912Y256868D01*
X-781902Y256867D01*
X-781202Y256956D01*
X-781194Y256959D01*
X-781184Y256959D01*
X-780487Y257074D01*
X-780479Y257077D01*
X-780469Y257077D01*
X-779777Y257218D01*
X-779770Y257221D01*
X-779760Y257222D01*
X-779074Y257387D01*
X-779066Y257390D01*
X-779056Y257391D01*
X-778376Y257581D01*
X-778369Y257585D01*
X-778358Y257587D01*
X-777686Y257802D01*
X-777679Y257806D01*
X-777669Y257807D01*
X-777005Y258047D01*
X-776998Y258051D01*
X-776988Y258053D01*
X-776333Y258316D01*
X-776326Y258321D01*
X-776316Y258323D01*
X-775671Y258610D01*
X-775664Y258615D01*
X-775654Y258618D01*
X-775020Y258928D01*
X-775014Y258933D01*
X-775004Y258936D01*
X-774382Y259270D01*
X-774375Y259275D01*
X-774366Y259278D01*
X-773756Y259634D01*
X-773750Y259639D01*
X-773741Y259643D01*
X-773144Y260020D01*
X-773138Y260026D01*
X-773129Y260031D01*
X-772546Y260430D01*
X-772541Y260436D01*
X-772532Y260440D01*
X-771964Y260860D01*
X-771959Y260866D01*
X-771950Y260871D01*
X-771398Y261311D01*
X-771392Y261317D01*
X-771383Y261323D01*
X-770848Y261783D01*
X-770843Y261789D01*
X-770834Y261795D01*
X-770316Y262274D01*
X-770312Y262281D01*
X-770303Y262287D01*
X-769803Y262785D01*
X-769798Y262791D01*
X-769790Y262797D01*
X-769308Y263313D01*
X-769303Y263320D01*
X-769295Y263327D01*
X-768833Y263860D01*
X-768829Y263867D01*
X-768821Y263874D01*
X-768378Y264424D01*
X-768374Y264431D01*
X-768367Y264438D01*
X-767944Y265003D01*
X-767941Y265011D01*
X-767934Y265018D01*
X-767531Y265598D01*
X-767527Y265608D01*
X-767517Y265619D01*
X-766773Y266819D01*
X-766772Y266823D01*
X-766769Y266826D01*
X-742951Y306722D01*
X-741715Y305637D01*
X-741713Y305636D01*
X-741711Y305634D01*
X-739567Y303798D01*
X-739565Y303796D01*
X-739563Y303794D01*
X-736858Y301530D01*
X-736855Y301528D01*
X-736853Y301525D01*
X-734118Y299297D01*
X-734115Y299296D01*
X-734113Y299294D01*
X-731905Y297536D01*
X-731902Y297535D01*
X-731900Y297533D01*
X-729114Y295368D01*
X-729112Y295367D01*
X-729109Y295364D01*
X-726295Y293237D01*
X-726292Y293236D01*
X-726289Y293233D01*
X-722877Y290728D01*
X-722874Y290726D01*
X-722871Y290724D01*
X-719998Y288677D01*
X-719995Y288675D01*
X-719993Y288673D01*
X-717093Y286664D01*
X-717090Y286663D01*
X-717088Y286661D01*
X-714750Y285080D01*
X-714747Y285079D01*
X-714745Y285077D01*
X-711799Y283137D01*
X-711796Y283135D01*
X-711794Y283133D01*
X-709419Y281609D01*
X-709416Y281608D01*
X-709414Y281606D01*
X-706424Y279734D01*
X-706421Y279733D01*
X-706418Y279730D01*
X-703403Y277899D01*
X-703400Y277898D01*
X-703398Y277896D01*
X-700969Y276459D01*
X-700967Y276458D01*
X-700964Y276456D01*
X-697907Y274695D01*
X-697905Y274694D01*
X-697902Y274691D01*
X-694822Y272971D01*
X-694819Y272970D01*
X-694817Y272968D01*
X-692337Y271620D01*
X-692334Y271620D01*
X-692332Y271618D01*
X-689213Y269970D01*
X-689210Y269969D01*
X-689207Y269967D01*
X-686696Y268679D01*
X-686694Y268678D01*
X-686691Y268676D01*
X-683534Y267102D01*
X-683531Y267101D01*
X-683528Y267099D01*
X-680350Y265567D01*
X-680348Y265566D01*
X-680345Y265564D01*
X-677789Y264368D01*
X-677786Y264368D01*
X-677784Y264366D01*
X-674571Y262908D01*
X-674568Y262908D01*
X-674565Y262906D01*
X-671333Y261491D01*
X-671330Y261491D01*
X-671327Y261489D01*
X-668077Y260117D01*
X-668074Y260117D01*
X-668072Y260115D01*
X-665459Y259047D01*
X-665456Y259046D01*
X-665453Y259045D01*
X-662172Y257750D01*
X-662169Y257750D01*
X-662166Y257748D01*
X-659529Y256743D01*
X-659526Y256743D01*
X-659524Y256741D01*
X-656212Y255524D01*
X-656209Y255523D01*
X-656206Y255522D01*
X-655080Y255125D01*
X-653664Y254625D01*
X-652879Y254349D01*
X-652876Y254348D01*
X-652873Y254347D01*
X-650201Y253440D01*
X-650198Y253440D01*
X-650195Y253438D01*
X-646842Y252344D01*
X-646839Y252343D01*
X-646835Y252342D01*
X-643467Y251292D01*
X-643464Y251292D01*
X-643461Y251290D01*
X-640079Y250285D01*
X-640077Y250285D01*
X-640074Y250284D01*
X-637359Y249511D01*
X-637357Y249511D01*
X-637354Y249510D01*
X-633949Y248584D01*
X-633946Y248584D01*
X-633943Y248583D01*
X-630526Y247703D01*
X-630524Y247703D01*
X-630521Y247702D01*
X-627779Y247031D01*
X-627777Y247031D01*
X-627774Y247029D01*
X-624338Y246230D01*
X-624335Y246230D01*
X-624331Y246229D01*
X-620885Y245475D01*
X-620882Y245475D01*
X-620878Y245474D01*
X-617422Y244766D01*
X-617419Y244766D01*
X-617416Y244765D01*
X-613951Y244103D01*
X-613948Y244103D01*
X-613945Y244102D01*
X-611167Y243604D01*
X-611164Y243604D01*
X-611161Y243603D01*
X-607682Y243023D01*
X-607679Y243023D01*
X-607675Y243022D01*
X-604188Y242487D01*
X-604185Y242487D01*
X-604182Y242486D01*
X-600688Y241997D01*
X-600685Y241997D01*
X-600681Y241996D01*
X-597181Y241554D01*
X-597179Y241554D01*
X-597176Y241553D01*
X-594372Y241232D01*
X-594369Y241232D01*
X-594366Y241231D01*
X-590857Y240870D01*
X-590854Y240870D01*
X-590850Y240870D01*
X-587336Y240555D01*
X-587333Y240555D01*
X-587330Y240554D01*
X-583813Y240285D01*
X-583810Y240285D01*
X-583806Y240284D01*
X-580285Y240062D01*
X-580283Y240062D01*
X-580280Y240061D01*
X-578166Y239950D01*
X-578164Y239950D01*
X-578162Y239950D01*
X-575342Y239825D01*
X-575340Y239826D01*
X-575336Y239825D01*
X-571811Y239712D01*
X-571808Y239712D01*
X-571804Y239711D01*
X-568277Y239643D01*
X-568274Y239644D01*
X-568271Y239643D01*
X-564743Y239620D01*
X-564741Y239621D01*
X-564738Y239620D01*
X-564709Y239620D01*
G37*
G36*
X-958566Y239627D02*
X-958566Y239627D01*
X-958557Y239629D01*
X-958545Y239627D01*
X-957841Y239671D01*
X-957832Y239674D01*
X-957821Y239673D01*
X-957119Y239746D01*
X-957110Y239749D01*
X-957098Y239748D01*
X-956400Y239851D01*
X-956391Y239854D01*
X-956380Y239854D01*
X-955687Y239986D01*
X-955678Y239989D01*
X-955667Y239990D01*
X-954980Y240150D01*
X-954971Y240154D01*
X-954959Y240155D01*
X-954280Y240344D01*
X-954272Y240348D01*
X-954260Y240349D01*
X-953589Y240565D01*
X-953580Y240570D01*
X-953569Y240572D01*
X-952907Y240817D01*
X-952899Y240822D01*
X-952888Y240824D01*
X-952237Y241095D01*
X-952229Y241100D01*
X-952218Y241103D01*
X-951579Y241401D01*
X-951571Y241407D01*
X-951560Y241410D01*
X-950934Y241734D01*
X-950927Y241739D01*
X-950916Y241743D01*
X-950303Y242091D01*
X-950296Y242097D01*
X-950285Y242101D01*
X-949686Y242474D01*
X-949680Y242480D01*
X-949670Y242485D01*
X-949086Y242881D01*
X-949080Y242888D01*
X-949070Y242893D01*
X-948503Y243312D01*
X-948496Y243320D01*
X-948486Y243326D01*
X-947937Y243769D01*
X-947931Y243776D01*
X-947922Y243782D01*
X-947392Y244247D01*
X-947386Y244254D01*
X-947376Y244261D01*
X-946866Y244747D01*
X-946862Y244753D01*
X-946857Y244756D01*
X-946855Y244759D01*
X-946850Y244762D01*
X-946361Y245270D01*
X-946356Y245278D01*
X-946348Y245285D01*
X-945879Y245812D01*
X-945874Y245821D01*
X-945866Y245828D01*
X-945419Y246374D01*
X-945415Y246383D01*
X-945406Y246391D01*
X-944984Y246956D01*
X-944980Y246964D01*
X-944972Y246972D01*
X-944573Y247554D01*
X-944569Y247562D01*
X-944562Y247571D01*
X-944186Y248168D01*
X-944183Y248177D01*
X-944175Y248186D01*
X-943826Y248799D01*
X-943823Y248808D01*
X-943816Y248817D01*
X-943492Y249443D01*
X-943489Y249452D01*
X-943483Y249461D01*
X-943184Y250100D01*
X-943182Y250109D01*
X-943176Y250119D01*
X-942904Y250770D01*
X-942902Y250779D01*
X-942896Y250789D01*
X-942652Y251451D01*
X-942650Y251460D01*
X-942645Y251470D01*
X-942427Y252140D01*
X-942426Y252150D01*
X-942421Y252160D01*
X-942230Y252839D01*
X-942230Y252849D01*
X-942225Y252860D01*
X-942064Y253546D01*
X-942064Y253555D01*
X-942060Y253566D01*
X-941926Y254258D01*
X-941926Y254267D01*
X-941923Y254278D01*
X-941817Y254975D01*
X-941817Y254985D01*
X-941814Y254996D01*
X-941737Y255697D01*
X-941738Y255707D01*
X-941735Y255718D01*
X-941688Y256422D01*
X-941689Y256431D01*
X-941687Y256442D01*
X-941668Y257147D01*
X-941670Y257156D01*
X-941668Y257167D01*
X-941677Y257872D01*
X-941680Y257882D01*
X-941678Y257894D01*
X-941719Y258599D01*
X-941721Y258607D01*
X-941720Y258618D01*
X-941789Y259320D01*
X-941792Y259329D01*
X-941791Y259340D01*
X-941888Y260039D01*
X-941891Y260048D01*
X-941891Y260060D01*
X-942019Y260754D01*
X-942022Y260763D01*
X-942023Y260774D01*
X-942178Y261462D01*
X-942182Y261471D01*
X-942183Y261482D01*
X-942366Y262163D01*
X-942370Y262172D01*
X-942372Y262184D01*
X-942584Y262856D01*
X-942589Y262864D01*
X-942591Y262876D01*
X-942830Y263539D01*
X-942835Y263547D01*
X-942837Y263557D01*
X-943103Y264211D01*
X-943108Y264219D01*
X-943111Y264231D01*
X-943405Y264872D01*
X-943411Y264879D01*
X-943414Y264890D01*
X-943732Y265519D01*
X-943737Y265525D01*
X-943740Y265534D01*
X-944080Y266152D01*
X-944081Y266153D01*
X-944082Y266155D01*
X-1028214Y416881D01*
X-1028214Y811533D01*
X-1028206Y812762D01*
X-1028050Y828277D01*
X-1027864Y840972D01*
X-1027767Y845909D01*
X-1027649Y850841D01*
X-1027525Y855070D01*
X-1027370Y859294D01*
X-1027243Y862110D01*
X-1027087Y864922D01*
X-1027075Y865087D01*
X-1026958Y865772D01*
X-1026552Y867837D01*
X-1026093Y869892D01*
X-1025756Y871251D01*
X-1025395Y872606D01*
X-1025010Y873956D01*
X-1024601Y875296D01*
X-1024168Y876631D01*
X-1023712Y877955D01*
X-1023231Y879274D01*
X-1022727Y880581D01*
X-1022198Y881882D01*
X-1021647Y883169D01*
X-1020777Y885087D01*
X-1020170Y886349D01*
X-1019538Y887601D01*
X-1018884Y888842D01*
X-1018208Y890069D01*
X-834026Y1209076D01*
X-834025Y1209079D01*
X-834022Y1209083D01*
X-833680Y1209700D01*
X-833677Y1209708D01*
X-833671Y1209716D01*
X-833351Y1210345D01*
X-833349Y1210355D01*
X-833342Y1210365D01*
X-833050Y1211007D01*
X-833048Y1211016D01*
X-833042Y1211025D01*
X-832776Y1211678D01*
X-832774Y1211688D01*
X-832768Y1211698D01*
X-832529Y1212361D01*
X-832528Y1212371D01*
X-832522Y1212382D01*
X-832312Y1213055D01*
X-832311Y1213064D01*
X-832306Y1213074D01*
X-832122Y1213755D01*
X-832122Y1213765D01*
X-832117Y1213776D01*
X-831962Y1214464D01*
X-831962Y1214474D01*
X-831958Y1214485D01*
X-831832Y1215179D01*
X-831833Y1215188D01*
X-831829Y1215199D01*
X-831732Y1215898D01*
X-831732Y1215907D01*
X-831729Y1215918D01*
X-831660Y1216620D01*
X-831661Y1216630D01*
X-831659Y1216642D01*
X-831620Y1217346D01*
X-831622Y1217355D01*
X-831620Y1217366D01*
X-831610Y1218072D01*
X-831611Y1218081D01*
X-831610Y1218092D01*
X-831628Y1218797D01*
X-831630Y1218807D01*
X-831629Y1218819D01*
X-831678Y1219523D01*
X-831680Y1219532D01*
X-831679Y1219543D01*
X-831756Y1220244D01*
X-831759Y1220253D01*
X-831759Y1220264D01*
X-831864Y1220962D01*
X-831867Y1220971D01*
X-831868Y1220982D01*
X-832001Y1221675D01*
X-832005Y1221684D01*
X-832006Y1221695D01*
X-832169Y1222382D01*
X-832173Y1222390D01*
X-832174Y1222401D01*
X-832364Y1223081D01*
X-832368Y1223089D01*
X-832370Y1223100D01*
X-832587Y1223771D01*
X-832592Y1223780D01*
X-832594Y1223791D01*
X-832840Y1224453D01*
X-832844Y1224461D01*
X-832847Y1224472D01*
X-833119Y1225122D01*
X-833121Y1225124D01*
X-833121Y1225125D01*
X-833124Y1225130D01*
X-833125Y1225130D01*
X-833127Y1225141D01*
X-833426Y1225780D01*
X-833431Y1225788D01*
X-833435Y1225799D01*
X-833759Y1226425D01*
X-833765Y1226433D01*
X-833769Y1226444D01*
X-834120Y1227056D01*
X-834126Y1227063D01*
X-834130Y1227073D01*
X-834505Y1227671D01*
X-834512Y1227678D01*
X-834516Y1227688D01*
X-834915Y1228270D01*
X-834922Y1228277D01*
X-834928Y1228288D01*
X-835352Y1228852D01*
X-835359Y1228858D01*
X-835364Y1228868D01*
X-835810Y1229414D01*
X-835818Y1229420D01*
X-835823Y1229429D01*
X-836291Y1229957D01*
X-836299Y1229963D01*
X-836306Y1229974D01*
X-836797Y1230481D01*
X-836805Y1230486D01*
X-836811Y1230495D01*
X-837322Y1230982D01*
X-837330Y1230986D01*
X-837337Y1230995D01*
X-837867Y1231461D01*
X-837875Y1231466D01*
X-837883Y1231475D01*
X-838433Y1231917D01*
X-838441Y1231922D01*
X-838449Y1231930D01*
X-839016Y1232349D01*
X-839024Y1232353D01*
X-839032Y1232361D01*
X-839616Y1232758D01*
X-839625Y1232762D01*
X-839634Y1232770D01*
X-840234Y1233141D01*
X-840242Y1233144D01*
X-840250Y1233151D01*
X-840863Y1233499D01*
X-840872Y1233502D01*
X-840882Y1233509D01*
X-841510Y1233831D01*
X-841518Y1233834D01*
X-841528Y1233840D01*
X-842168Y1234137D01*
X-842177Y1234139D01*
X-842186Y1234145D01*
X-842837Y1234416D01*
X-842847Y1234418D01*
X-842858Y1234424D01*
X-843521Y1234666D01*
X-843530Y1234667D01*
X-843540Y1234673D01*
X-844211Y1234888D01*
X-844221Y1234889D01*
X-844231Y1234894D01*
X-844911Y1235082D01*
X-844921Y1235083D01*
X-844932Y1235087D01*
X-845620Y1235245D01*
X-845629Y1235245D01*
X-845639Y1235249D01*
X-846333Y1235380D01*
X-846342Y1235379D01*
X-846353Y1235383D01*
X-847051Y1235485D01*
X-847061Y1235485D01*
X-847073Y1235488D01*
X-847775Y1235559D01*
X-847784Y1235558D01*
X-847795Y1235561D01*
X-848499Y1235604D01*
X-848508Y1235603D01*
X-848519Y1235605D01*
X-849224Y1235619D01*
X-849234Y1235618D01*
X-849246Y1235619D01*
X-849951Y1235604D01*
X-849960Y1235602D01*
X-849972Y1235603D01*
X-850676Y1235559D01*
X-850685Y1235556D01*
X-850696Y1235557D01*
X-851397Y1235484D01*
X-851406Y1235481D01*
X-851418Y1235482D01*
X-852116Y1235381D01*
X-852125Y1235377D01*
X-852137Y1235377D01*
X-852831Y1235246D01*
X-852839Y1235243D01*
X-852850Y1235242D01*
X-853537Y1235083D01*
X-853546Y1235080D01*
X-853557Y1235079D01*
X-854237Y1234893D01*
X-854246Y1234888D01*
X-854258Y1234887D01*
X-854930Y1234672D01*
X-854938Y1234668D01*
X-854949Y1234666D01*
X-855612Y1234424D01*
X-855620Y1234419D01*
X-855631Y1234417D01*
X-856283Y1234148D01*
X-856291Y1234143D01*
X-856302Y1234140D01*
X-856943Y1233846D01*
X-856951Y1233840D01*
X-856963Y1233837D01*
X-857591Y1233515D01*
X-857598Y1233509D01*
X-857608Y1233505D01*
X-858223Y1233159D01*
X-858229Y1233153D01*
X-858240Y1233149D01*
X-858840Y1232778D01*
X-858847Y1232771D01*
X-858858Y1232766D01*
X-859442Y1232369D01*
X-859448Y1232363D01*
X-859458Y1232357D01*
X-860025Y1231937D01*
X-860031Y1231930D01*
X-860041Y1231925D01*
X-860591Y1231483D01*
X-860597Y1231475D01*
X-860607Y1231469D01*
X-861137Y1231003D01*
X-861143Y1230996D01*
X-861153Y1230989D01*
X-861663Y1230502D01*
X-861668Y1230495D01*
X-861677Y1230488D01*
X-862167Y1229981D01*
X-862173Y1229973D01*
X-862182Y1229965D01*
X-862650Y1229438D01*
X-862655Y1229429D01*
X-862664Y1229422D01*
X-863110Y1228875D01*
X-863114Y1228867D01*
X-863122Y1228860D01*
X-863546Y1228296D01*
X-863550Y1228287D01*
X-863559Y1228278D01*
X-863958Y1227697D01*
X-863962Y1227688D01*
X-863969Y1227680D01*
X-864345Y1227083D01*
X-864348Y1227075D01*
X-864355Y1227067D01*
X-1048895Y907447D01*
X-1048897Y907442D01*
X-1048900Y907438D01*
X-1049921Y905583D01*
X-1049922Y905579D01*
X-1049925Y905575D01*
X-1050912Y903702D01*
X-1050913Y903698D01*
X-1050916Y903693D01*
X-1051866Y901801D01*
X-1051867Y901798D01*
X-1051870Y901794D01*
X-1052483Y900523D01*
X-1052484Y900520D01*
X-1052487Y900517D01*
X-1053378Y898596D01*
X-1053379Y898592D01*
X-1053382Y898588D01*
X-1054236Y896650D01*
X-1054237Y896647D01*
X-1054239Y896644D01*
X-1054789Y895344D01*
X-1054789Y895340D01*
X-1054792Y895336D01*
X-1055585Y893374D01*
X-1055586Y893370D01*
X-1055588Y893366D01*
X-1056096Y892050D01*
X-1056097Y892046D01*
X-1056099Y892043D01*
X-1056832Y890057D01*
X-1056832Y890052D01*
X-1056835Y890048D01*
X-1057529Y888048D01*
X-1057530Y888043D01*
X-1057532Y888039D01*
X-1058189Y886026D01*
X-1058190Y886022D01*
X-1058192Y886018D01*
X-1058812Y883994D01*
X-1058812Y883989D01*
X-1058814Y883984D01*
X-1059396Y881949D01*
X-1059396Y881945D01*
X-1059398Y881941D01*
X-1059764Y880578D01*
X-1059764Y880575D01*
X-1059766Y880571D01*
X-1060285Y878518D01*
X-1060285Y878513D01*
X-1060287Y878508D01*
X-1060918Y875756D01*
X-1060918Y875751D01*
X-1060920Y875746D01*
X-1061347Y873672D01*
X-1061347Y873669D01*
X-1061348Y873665D01*
X-1061612Y872278D01*
X-1061612Y872274D01*
X-1061614Y872269D01*
X-1062089Y869487D01*
X-1062089Y869482D01*
X-1062091Y869476D01*
X-1062401Y867382D01*
X-1062401Y867378D01*
X-1062402Y867374D01*
X-1062587Y865975D01*
X-1062587Y865971D01*
X-1062588Y865967D01*
X-1062834Y863865D01*
X-1062833Y863861D01*
X-1062835Y863856D01*
X-1062975Y862452D01*
X-1062975Y862449D01*
X-1062976Y862446D01*
X-1063100Y861040D01*
X-1063100Y861037D01*
X-1063101Y861032D01*
X-1063253Y858921D01*
X-1063252Y858917D01*
X-1063253Y858913D01*
X-1063334Y857504D01*
X-1063333Y857501D01*
X-1063334Y857496D01*
X-1063420Y855381D01*
X-1063419Y855376D01*
X-1063420Y855370D01*
X-1063473Y852548D01*
X-1063473Y852544D01*
X-1063473Y852539D01*
X-1063476Y416848D01*
X-1147962Y265512D01*
X-1147965Y265503D01*
X-1147972Y265493D01*
X-1148289Y264863D01*
X-1148291Y264854D01*
X-1148297Y264846D01*
X-1148589Y264204D01*
X-1148592Y264194D01*
X-1148598Y264184D01*
X-1148862Y263530D01*
X-1148864Y263521D01*
X-1148869Y263511D01*
X-1149107Y262847D01*
X-1149108Y262838D01*
X-1149113Y262828D01*
X-1149325Y262155D01*
X-1149326Y262145D01*
X-1149331Y262134D01*
X-1149512Y261452D01*
X-1149513Y261443D01*
X-1149517Y261433D01*
X-1149671Y260745D01*
X-1149671Y260735D01*
X-1149675Y260725D01*
X-1149801Y260031D01*
X-1149800Y260021D01*
X-1149804Y260009D01*
X-1149899Y259310D01*
X-1149899Y259301D01*
X-1149902Y259290D01*
X-1149969Y258588D01*
X-1149968Y258579D01*
X-1149970Y258568D01*
X-1150009Y257864D01*
X-1150008Y257854D01*
X-1150010Y257843D01*
X-1150019Y257137D01*
X-1150017Y257128D01*
X-1150019Y257117D01*
X-1150017Y257069D01*
X-1150003Y256569D01*
X-1149998Y256412D01*
X-1149996Y256403D01*
X-1149997Y256392D01*
X-1149949Y255688D01*
X-1149946Y255679D01*
X-1149947Y255668D01*
X-1149870Y254967D01*
X-1149867Y254957D01*
X-1149867Y254946D01*
X-1149760Y254248D01*
X-1149756Y254240D01*
X-1149756Y254229D01*
X-1149621Y253536D01*
X-1149618Y253528D01*
X-1149617Y253517D01*
X-1149455Y252831D01*
X-1149451Y252822D01*
X-1149449Y252810D01*
X-1149258Y252131D01*
X-1149253Y252123D01*
X-1149252Y252112D01*
X-1149033Y251441D01*
X-1149028Y251433D01*
X-1149026Y251423D01*
X-1148781Y250761D01*
X-1148776Y250753D01*
X-1148773Y250742D01*
X-1148501Y250092D01*
X-1148495Y250084D01*
X-1148492Y250072D01*
X-1148192Y249434D01*
X-1148186Y249427D01*
X-1148183Y249416D01*
X-1147858Y248790D01*
X-1147852Y248783D01*
X-1147848Y248773D01*
X-1147498Y248160D01*
X-1147492Y248153D01*
X-1147487Y248142D01*
X-1147111Y247545D01*
X-1147104Y247538D01*
X-1147099Y247528D01*
X-1146699Y246947D01*
X-1146693Y246941D01*
X-1146687Y246931D01*
X-1146264Y246367D01*
X-1146257Y246361D01*
X-1146251Y246350D01*
X-1145804Y245805D01*
X-1145797Y245798D01*
X-1145790Y245788D01*
X-1145321Y245262D01*
X-1145314Y245257D01*
X-1145307Y245247D01*
X-1144817Y244740D01*
X-1144811Y244736D01*
X-1144808Y244733D01*
X-1144807Y244732D01*
X-1144802Y244726D01*
X-1144291Y244239D01*
X-1144287Y244237D01*
X-1144285Y244234D01*
X-1144280Y244231D01*
X-1144275Y244225D01*
X-1143744Y243761D01*
X-1143736Y243757D01*
X-1143729Y243749D01*
X-1143180Y243306D01*
X-1143171Y243302D01*
X-1143163Y243293D01*
X-1142595Y242875D01*
X-1142587Y242871D01*
X-1142578Y242863D01*
X-1141994Y242468D01*
X-1141986Y242464D01*
X-1141978Y242457D01*
X-1141379Y242085D01*
X-1141369Y242082D01*
X-1141360Y242074D01*
X-1140745Y241728D01*
X-1140737Y241726D01*
X-1140728Y241720D01*
X-1140101Y241397D01*
X-1140092Y241395D01*
X-1140082Y241388D01*
X-1139442Y241092D01*
X-1139433Y241090D01*
X-1139423Y241084D01*
X-1138771Y240815D01*
X-1138762Y240813D01*
X-1138753Y240808D01*
X-1138091Y240564D01*
X-1138081Y240563D01*
X-1138070Y240557D01*
X-1137398Y240343D01*
X-1137389Y240342D01*
X-1137379Y240337D01*
X-1136698Y240151D01*
X-1136689Y240150D01*
X-1136679Y240146D01*
X-1135992Y239987D01*
X-1135982Y239986D01*
X-1135971Y239982D01*
X-1135277Y239853D01*
X-1135268Y239853D01*
X-1135257Y239850D01*
X-1134559Y239749D01*
X-1134550Y239749D01*
X-1134539Y239746D01*
X-1133838Y239674D01*
X-1133828Y239675D01*
X-1133816Y239672D01*
X-1133112Y239629D01*
X-1133103Y239631D01*
X-1133091Y239628D01*
X-1132386Y239615D01*
X-1132377Y239617D01*
X-1132366Y239616D01*
X-1131661Y239630D01*
X-1131652Y239633D01*
X-1131641Y239631D01*
X-1130937Y239675D01*
X-1130927Y239678D01*
X-1130915Y239677D01*
X-1130214Y239751D01*
X-1130205Y239754D01*
X-1130194Y239753D01*
X-1129496Y239855D01*
X-1129488Y239859D01*
X-1129477Y239859D01*
X-1128783Y239988D01*
X-1128774Y239992D01*
X-1128763Y239993D01*
X-1128075Y240152D01*
X-1128067Y240156D01*
X-1128055Y240157D01*
X-1127375Y240344D01*
X-1127367Y240348D01*
X-1127356Y240350D01*
X-1126684Y240564D01*
X-1126676Y240568D01*
X-1126665Y240571D01*
X-1126002Y240812D01*
X-1125994Y240817D01*
X-1125982Y240820D01*
X-1125331Y241089D01*
X-1125323Y241094D01*
X-1125312Y241097D01*
X-1124672Y241392D01*
X-1124664Y241398D01*
X-1124654Y241401D01*
X-1124026Y241721D01*
X-1124018Y241727D01*
X-1124007Y241732D01*
X-1123393Y242079D01*
X-1123386Y242085D01*
X-1123375Y242089D01*
X-1122776Y242461D01*
X-1122769Y242468D01*
X-1122759Y242472D01*
X-1122175Y242868D01*
X-1122169Y242875D01*
X-1122158Y242880D01*
X-1121592Y243300D01*
X-1121585Y243307D01*
X-1121575Y243313D01*
X-1121026Y243757D01*
X-1121021Y243764D01*
X-1121011Y243770D01*
X-1120481Y244235D01*
X-1120475Y244243D01*
X-1120466Y244249D01*
X-1119956Y244736D01*
X-1119950Y244744D01*
X-1119940Y244751D01*
X-1119451Y245260D01*
X-1119446Y245267D01*
X-1119438Y245274D01*
X-1118970Y245802D01*
X-1118965Y245810D01*
X-1118956Y245817D01*
X-1118510Y246364D01*
X-1118506Y246373D01*
X-1118497Y246381D01*
X-1118075Y246946D01*
X-1118071Y246954D01*
X-1118064Y246962D01*
X-1117664Y247543D01*
X-1117660Y247552D01*
X-1117653Y247561D01*
X-1117278Y248158D01*
X-1117275Y248166D01*
X-1117268Y248174D01*
X-1116916Y248786D01*
X-1116915Y248789D01*
X-1116913Y248791D01*
X-1045841Y376122D01*
X-974762Y248764D01*
X-974760Y248761D01*
X-974759Y248758D01*
X-974407Y248146D01*
X-974401Y248140D01*
X-974396Y248129D01*
X-974020Y247533D01*
X-974013Y247526D01*
X-974008Y247516D01*
X-973608Y246935D01*
X-973601Y246929D01*
X-973596Y246919D01*
X-973173Y246355D01*
X-973166Y246349D01*
X-973160Y246338D01*
X-972713Y245793D01*
X-972705Y245787D01*
X-972699Y245777D01*
X-972231Y245250D01*
X-972223Y245245D01*
X-972216Y245235D01*
X-971726Y244728D01*
X-971718Y244723D01*
X-971711Y244714D01*
X-971201Y244227D01*
X-971192Y244222D01*
X-971185Y244213D01*
X-970654Y243749D01*
X-970646Y243744D01*
X-970638Y243736D01*
X-970089Y243293D01*
X-970081Y243289D01*
X-970073Y243281D01*
X-969505Y242861D01*
X-969497Y242858D01*
X-969488Y242850D01*
X-968904Y242454D01*
X-968896Y242451D01*
X-968887Y242443D01*
X-968287Y242072D01*
X-968278Y242069D01*
X-968269Y242062D01*
X-967654Y241716D01*
X-967645Y241713D01*
X-967636Y241706D01*
X-967008Y241386D01*
X-966999Y241384D01*
X-966989Y241377D01*
X-966348Y241083D01*
X-966339Y241081D01*
X-966329Y241075D01*
X-965677Y240807D01*
X-965668Y240806D01*
X-965658Y240800D01*
X-964995Y240559D01*
X-964985Y240558D01*
X-964975Y240553D01*
X-964303Y240339D01*
X-964294Y240338D01*
X-964284Y240334D01*
X-963603Y240148D01*
X-963594Y240147D01*
X-963583Y240143D01*
X-962895Y239985D01*
X-962886Y239985D01*
X-962876Y239981D01*
X-962182Y239852D01*
X-962173Y239852D01*
X-962162Y239848D01*
X-961464Y239747D01*
X-961455Y239748D01*
X-961444Y239745D01*
X-960742Y239672D01*
X-960733Y239673D01*
X-960721Y239670D01*
X-960017Y239628D01*
X-960008Y239629D01*
X-959998Y239627D01*
X-959292Y239612D01*
X-959283Y239613D01*
X-959271Y239612D01*
X-958566Y239627D01*
G37*
G36*
X-69515Y239626D02*
X-69515Y239626D01*
X-69506Y239629D01*
X-69494Y239627D01*
X-68790Y239671D01*
X-68781Y239673D01*
X-68770Y239673D01*
X-68068Y239745D01*
X-68059Y239748D01*
X-68047Y239748D01*
X-67349Y239850D01*
X-67340Y239853D01*
X-67329Y239853D01*
X-66636Y239984D01*
X-66627Y239988D01*
X-66615Y239988D01*
X-65928Y240148D01*
X-65920Y240152D01*
X-65908Y240153D01*
X-65228Y240341D01*
X-65220Y240345D01*
X-65209Y240347D01*
X-64537Y240563D01*
X-64529Y240567D01*
X-64517Y240570D01*
X-63855Y240814D01*
X-63848Y240818D01*
X-63837Y240821D01*
X-63185Y241091D01*
X-63177Y241097D01*
X-63166Y241100D01*
X-62526Y241397D01*
X-62519Y241403D01*
X-62509Y241406D01*
X-61882Y241729D01*
X-61874Y241735D01*
X-61864Y241739D01*
X-61250Y242086D01*
X-61243Y242093D01*
X-61232Y242097D01*
X-60634Y242470D01*
X-60627Y242476D01*
X-60617Y242481D01*
X-60034Y242877D01*
X-60027Y242884D01*
X-60017Y242889D01*
X-59450Y243308D01*
X-59444Y243315D01*
X-59433Y243321D01*
X-58885Y243765D01*
X-58879Y243772D01*
X-58870Y243778D01*
X-58339Y244242D01*
X-58333Y244250D01*
X-58324Y244257D01*
X-57813Y244743D01*
X-57808Y244751D01*
X-57801Y244756D01*
X-57800Y244757D01*
X-57798Y244758D01*
X-57309Y245267D01*
X-57304Y245274D01*
X-57296Y245281D01*
X-56827Y245808D01*
X-56822Y245817D01*
X-56814Y245824D01*
X-56367Y246370D01*
X-56363Y246379D01*
X-56354Y246387D01*
X-55932Y246952D01*
X-55928Y246961D01*
X-55920Y246969D01*
X-55521Y247550D01*
X-55517Y247559D01*
X-55510Y247567D01*
X-55134Y248164D01*
X-55131Y248173D01*
X-55123Y248183D01*
X-54774Y248796D01*
X-54771Y248804D01*
X-54764Y248813D01*
X-54440Y249439D01*
X-54438Y249448D01*
X-54431Y249457D01*
X-54133Y250096D01*
X-54130Y250106D01*
X-54124Y250115D01*
X-53852Y250766D01*
X-53850Y250776D01*
X-53844Y250786D01*
X-53600Y251447D01*
X-53599Y251456D01*
X-53594Y251466D01*
X-53376Y252137D01*
X-53375Y252146D01*
X-53370Y252156D01*
X-53179Y252835D01*
X-53178Y252845D01*
X-53173Y252856D01*
X-53012Y253543D01*
X-53012Y253552D01*
X-53008Y253562D01*
X-52874Y254255D01*
X-52875Y254264D01*
X-52871Y254274D01*
X-52765Y254972D01*
X-52766Y254981D01*
X-52762Y254992D01*
X-52686Y255694D01*
X-52687Y255703D01*
X-52684Y255715D01*
X-52637Y256418D01*
X-52638Y256427D01*
X-52636Y256438D01*
X-52617Y257143D01*
X-52618Y257152D01*
X-52616Y257163D01*
X-52626Y257869D01*
X-52628Y257878D01*
X-52627Y257891D01*
X-52667Y258595D01*
X-52668Y258599D01*
X-52669Y258604D01*
X-52669Y258615D01*
X-52737Y259317D01*
X-52740Y259326D01*
X-52739Y259337D01*
X-52836Y260035D01*
X-52839Y260045D01*
X-52839Y260057D01*
X-52967Y260751D01*
X-52970Y260759D01*
X-52971Y260771D01*
X-53126Y261459D01*
X-53130Y261467D01*
X-53131Y261478D01*
X-53313Y262159D01*
X-53318Y262168D01*
X-53319Y262180D01*
X-53532Y262853D01*
X-53536Y262861D01*
X-53538Y262872D01*
X-53777Y263535D01*
X-53782Y263543D01*
X-53784Y263554D01*
X-54050Y264207D01*
X-54055Y264216D01*
X-54059Y264228D01*
X-54353Y264869D01*
X-54358Y264876D01*
X-54361Y264886D01*
X-54679Y265515D01*
X-54684Y265522D01*
X-54687Y265531D01*
X-55027Y266149D01*
X-55028Y266150D01*
X-55029Y266152D01*
X-136400Y411930D01*
X-136535Y413005D01*
X-136738Y415099D01*
X-136897Y417201D01*
X-137067Y420010D01*
X-137236Y423530D01*
X-137285Y424791D01*
X-137323Y425789D01*
X-137323Y425790D01*
X-137362Y426788D01*
X-137399Y427754D01*
X-137400Y427786D01*
X-137400Y427787D01*
X-137431Y428785D01*
X-137446Y429284D01*
X-137477Y430283D01*
X-137492Y430782D01*
X-137523Y431780D01*
X-137523Y431781D01*
X-137538Y432280D01*
X-137550Y432684D01*
X-137676Y437621D01*
X-137795Y443260D01*
X-137921Y450310D01*
X-137921Y450311D01*
X-138143Y466534D01*
X-138339Y486282D01*
X-138339Y486283D01*
X-138517Y510266D01*
X-138830Y570932D01*
X-139155Y672503D01*
X-139156Y1096518D01*
X-139157Y1096523D01*
X-139156Y1096530D01*
X-139174Y1097236D01*
X-139176Y1097245D01*
X-139175Y1097257D01*
X-139223Y1097960D01*
X-139225Y1097969D01*
X-139225Y1097979D01*
X-139299Y1098681D01*
X-139302Y1098690D01*
X-139302Y1098703D01*
X-139408Y1099400D01*
X-139411Y1099409D01*
X-139411Y1099420D01*
X-139545Y1100113D01*
X-139548Y1100121D01*
X-139549Y1100132D01*
X-139710Y1100819D01*
X-139714Y1100828D01*
X-139716Y1100840D01*
X-139907Y1101519D01*
X-139911Y1101527D01*
X-139913Y1101538D01*
X-140131Y1102209D01*
X-140136Y1102217D01*
X-140138Y1102228D01*
X-140383Y1102889D01*
X-140388Y1102898D01*
X-140391Y1102910D01*
X-140664Y1103560D01*
X-140670Y1103567D01*
X-140673Y1103578D01*
X-140973Y1104217D01*
X-140978Y1104224D01*
X-140982Y1104235D01*
X-141307Y1104860D01*
X-141313Y1104868D01*
X-141317Y1104879D01*
X-141669Y1105491D01*
X-141675Y1105498D01*
X-141680Y1105509D01*
X-142056Y1106105D01*
X-142063Y1106111D01*
X-142067Y1106121D01*
X-142468Y1106702D01*
X-142474Y1106709D01*
X-142479Y1106719D01*
X-142903Y1107283D01*
X-142910Y1107289D01*
X-142916Y1107300D01*
X-143364Y1107845D01*
X-143371Y1107851D01*
X-143377Y1107860D01*
X-143845Y1108387D01*
X-143853Y1108393D01*
X-143859Y1108402D01*
X-144348Y1108910D01*
X-144356Y1108915D01*
X-144363Y1108925D01*
X-144874Y1109411D01*
X-144882Y1109416D01*
X-144889Y1109425D01*
X-145419Y1109891D01*
X-145427Y1109895D01*
X-145434Y1109904D01*
X-145983Y1110347D01*
X-145991Y1110352D01*
X-145998Y1110360D01*
X-146564Y1110781D01*
X-146573Y1110785D01*
X-146582Y1110794D01*
X-147165Y1111190D01*
X-147174Y1111194D01*
X-147182Y1111201D01*
X-147781Y1111574D01*
X-147789Y1111577D01*
X-147798Y1111584D01*
X-148411Y1111933D01*
X-148420Y1111936D01*
X-148430Y1111943D01*
X-149057Y1112265D01*
X-149067Y1112267D01*
X-149076Y1112274D01*
X-149717Y1112570D01*
X-149726Y1112572D01*
X-149735Y1112578D01*
X-150387Y1112847D01*
X-150396Y1112849D01*
X-150406Y1112855D01*
X-151069Y1113097D01*
X-151078Y1113099D01*
X-151089Y1113104D01*
X-151761Y1113318D01*
X-151770Y1113319D01*
X-151780Y1113323D01*
X-152460Y1113510D01*
X-152470Y1113511D01*
X-152481Y1113515D01*
X-153168Y1113674D01*
X-153178Y1113674D01*
X-153189Y1113678D01*
X-153882Y1113807D01*
X-153891Y1113806D01*
X-153902Y1113810D01*
X-154600Y1113911D01*
X-154610Y1113910D01*
X-154621Y1113914D01*
X-155323Y1113985D01*
X-155332Y1113984D01*
X-155343Y1113987D01*
X-156047Y1114030D01*
X-156056Y1114028D01*
X-156066Y1114030D01*
X-156772Y1114046D01*
X-156781Y1114044D01*
X-156793Y1114046D01*
X-157499Y1114031D01*
X-157507Y1114029D01*
X-157518Y1114030D01*
X-158222Y1113988D01*
X-158231Y1113986D01*
X-158243Y1113986D01*
X-158944Y1113915D01*
X-158953Y1113912D01*
X-158965Y1113913D01*
X-159663Y1113812D01*
X-159672Y1113809D01*
X-159683Y1113809D01*
X-160376Y1113681D01*
X-160385Y1113677D01*
X-160397Y1113676D01*
X-161085Y1113518D01*
X-161093Y1113514D01*
X-161105Y1113513D01*
X-161785Y1113327D01*
X-161793Y1113323D01*
X-161804Y1113321D01*
X-162477Y1113108D01*
X-162485Y1113103D01*
X-162497Y1113101D01*
X-163160Y1112859D01*
X-163168Y1112854D01*
X-163179Y1112852D01*
X-163831Y1112582D01*
X-163838Y1112577D01*
X-163849Y1112574D01*
X-164490Y1112279D01*
X-164498Y1112273D01*
X-164509Y1112270D01*
X-165136Y1111948D01*
X-165144Y1111942D01*
X-165155Y1111938D01*
X-165769Y1111590D01*
X-165775Y1111584D01*
X-165786Y1111580D01*
X-166385Y1111207D01*
X-166391Y1111201D01*
X-166402Y1111196D01*
X-166985Y1110800D01*
X-166992Y1110793D01*
X-167003Y1110787D01*
X-167569Y1110366D01*
X-167575Y1110359D01*
X-167585Y1110354D01*
X-168133Y1109910D01*
X-168139Y1109903D01*
X-168148Y1109897D01*
X-168679Y1109432D01*
X-168684Y1109425D01*
X-168694Y1109418D01*
X-169204Y1108931D01*
X-169210Y1108924D01*
X-169219Y1108917D01*
X-169709Y1108409D01*
X-169714Y1108401D01*
X-169722Y1108394D01*
X-170191Y1107867D01*
X-170196Y1107860D01*
X-170204Y1107852D01*
X-170652Y1107307D01*
X-170657Y1107298D01*
X-170665Y1107290D01*
X-171089Y1106726D01*
X-171093Y1106718D01*
X-171100Y1106710D01*
X-171501Y1106129D01*
X-171505Y1106121D01*
X-171512Y1106112D01*
X-171889Y1105516D01*
X-171892Y1105507D01*
X-171900Y1105498D01*
X-172251Y1104886D01*
X-172254Y1104877D01*
X-172261Y1104868D01*
X-172587Y1104242D01*
X-172589Y1104234D01*
X-172596Y1104224D01*
X-172896Y1103586D01*
X-172898Y1103577D01*
X-172904Y1103567D01*
X-173178Y1102917D01*
X-173180Y1102908D01*
X-173186Y1102897D01*
X-173431Y1102236D01*
X-173433Y1102227D01*
X-173438Y1102217D01*
X-173656Y1101546D01*
X-173657Y1101537D01*
X-173662Y1101527D01*
X-173853Y1100848D01*
X-173854Y1100838D01*
X-173859Y1100826D01*
X-174020Y1100140D01*
X-174020Y1100131D01*
X-174024Y1100121D01*
X-174158Y1099428D01*
X-174158Y1099419D01*
X-174162Y1099408D01*
X-174267Y1098711D01*
X-174267Y1098701D01*
X-174270Y1098689D01*
X-174345Y1097987D01*
X-174344Y1097979D01*
X-174347Y1097968D01*
X-174395Y1097265D01*
X-174393Y1097253D01*
X-174396Y1097238D01*
X-174416Y1095827D01*
X-174415Y1095824D01*
X-174416Y1095820D01*
X-174415Y456775D01*
X-174472Y416763D01*
X-258909Y265516D01*
X-258912Y265506D01*
X-258919Y265497D01*
X-259236Y264866D01*
X-259238Y264858D01*
X-259244Y264849D01*
X-259537Y264207D01*
X-259539Y264198D01*
X-259545Y264187D01*
X-259809Y263533D01*
X-259811Y263525D01*
X-259817Y263515D01*
X-260055Y262851D01*
X-260056Y262842D01*
X-260061Y262832D01*
X-260272Y262159D01*
X-260273Y262149D01*
X-260279Y262138D01*
X-260460Y261456D01*
X-260460Y261447D01*
X-260464Y261437D01*
X-260618Y260748D01*
X-260619Y260739D01*
X-260622Y260729D01*
X-260749Y260035D01*
X-260748Y260025D01*
X-260752Y260013D01*
X-260848Y259314D01*
X-260847Y259305D01*
X-260850Y259294D01*
X-260917Y258592D01*
X-260916Y258583D01*
X-260919Y258572D01*
X-260958Y257868D01*
X-260956Y257858D01*
X-260958Y257847D01*
X-260967Y257141D01*
X-260966Y257132D01*
X-260967Y257121D01*
X-260966Y257069D01*
X-260966Y257068D01*
X-260947Y256416D01*
X-260945Y256407D01*
X-260946Y256396D01*
X-260898Y255692D01*
X-260895Y255683D01*
X-260896Y255672D01*
X-260818Y254970D01*
X-260815Y254961D01*
X-260816Y254950D01*
X-260709Y254252D01*
X-260706Y254244D01*
X-260705Y254233D01*
X-260571Y253540D01*
X-260567Y253532D01*
X-260566Y253521D01*
X-260404Y252835D01*
X-260400Y252826D01*
X-260399Y252814D01*
X-260207Y252135D01*
X-260203Y252127D01*
X-260201Y252115D01*
X-259983Y251445D01*
X-259978Y251437D01*
X-259976Y251426D01*
X-259731Y250765D01*
X-259726Y250757D01*
X-259723Y250746D01*
X-259451Y250095D01*
X-259445Y250087D01*
X-259442Y250076D01*
X-259142Y249437D01*
X-259137Y249430D01*
X-259133Y249420D01*
X-258808Y248794D01*
X-258803Y248787D01*
X-258799Y248776D01*
X-258449Y248164D01*
X-258442Y248156D01*
X-258438Y248145D01*
X-258061Y247548D01*
X-258055Y247542D01*
X-258050Y247532D01*
X-257650Y246951D01*
X-257643Y246944D01*
X-257638Y246934D01*
X-257215Y246370D01*
X-257208Y246363D01*
X-257202Y246353D01*
X-256755Y245808D01*
X-256748Y245802D01*
X-256741Y245792D01*
X-256272Y245265D01*
X-256265Y245260D01*
X-256259Y245251D01*
X-255768Y244743D01*
X-255761Y244738D01*
X-255759Y244736D01*
X-255757Y244733D01*
X-255754Y244728D01*
X-255242Y244242D01*
X-255237Y244239D01*
X-255233Y244234D01*
X-255230Y244232D01*
X-255227Y244228D01*
X-254695Y243764D01*
X-254688Y243760D01*
X-254680Y243751D01*
X-254131Y243309D01*
X-254123Y243304D01*
X-254114Y243296D01*
X-253547Y242877D01*
X-253538Y242873D01*
X-253530Y242865D01*
X-252946Y242470D01*
X-252938Y242466D01*
X-252930Y242459D01*
X-252331Y242087D01*
X-252321Y242084D01*
X-252312Y242076D01*
X-251697Y241730D01*
X-251689Y241728D01*
X-251680Y241722D01*
X-251053Y241399D01*
X-251044Y241397D01*
X-251034Y241390D01*
X-250394Y241094D01*
X-250385Y241092D01*
X-250375Y241085D01*
X-249723Y240816D01*
X-249715Y240815D01*
X-249705Y240809D01*
X-249043Y240566D01*
X-249033Y240564D01*
X-249023Y240559D01*
X-248351Y240344D01*
X-248341Y240343D01*
X-248331Y240338D01*
X-247651Y240152D01*
X-247642Y240151D01*
X-247632Y240147D01*
X-246945Y239987D01*
X-246935Y239987D01*
X-246923Y239983D01*
X-246230Y239853D01*
X-246221Y239854D01*
X-246210Y239850D01*
X-245512Y239749D01*
X-245502Y239750D01*
X-245492Y239747D01*
X-244790Y239674D01*
X-244781Y239675D01*
X-244769Y239672D01*
X-244065Y239630D01*
X-244055Y239631D01*
X-244044Y239629D01*
X-243339Y239615D01*
X-243330Y239617D01*
X-243319Y239615D01*
X-242614Y239630D01*
X-242605Y239632D01*
X-242593Y239631D01*
X-241889Y239675D01*
X-241880Y239677D01*
X-241868Y239677D01*
X-241166Y239751D01*
X-241158Y239753D01*
X-241147Y239753D01*
X-240449Y239855D01*
X-240440Y239858D01*
X-240429Y239858D01*
X-239736Y239988D01*
X-239727Y239991D01*
X-239715Y239992D01*
X-239028Y240151D01*
X-239019Y240155D01*
X-239008Y240156D01*
X-238328Y240343D01*
X-238320Y240347D01*
X-238309Y240349D01*
X-237637Y240563D01*
X-237629Y240567D01*
X-237617Y240569D01*
X-236955Y240810D01*
X-236946Y240815D01*
X-236935Y240818D01*
X-236283Y241087D01*
X-236275Y241092D01*
X-236265Y241095D01*
X-235624Y241390D01*
X-235616Y241396D01*
X-235606Y241399D01*
X-234978Y241720D01*
X-234970Y241726D01*
X-234959Y241730D01*
X-234345Y242077D01*
X-234338Y242083D01*
X-234327Y242087D01*
X-233728Y242459D01*
X-233721Y242466D01*
X-233711Y242470D01*
X-233127Y242866D01*
X-233121Y242873D01*
X-233110Y242878D01*
X-232543Y243298D01*
X-232537Y243305D01*
X-232526Y243311D01*
X-231978Y243754D01*
X-231972Y243761D01*
X-231963Y243767D01*
X-231433Y244233D01*
X-231427Y244240D01*
X-231418Y244246D01*
X-230907Y244733D01*
X-230901Y244741D01*
X-230892Y244748D01*
X-230403Y245257D01*
X-230398Y245265D01*
X-230389Y245271D01*
X-229921Y245799D01*
X-229916Y245807D01*
X-229908Y245815D01*
X-229461Y246361D01*
X-229457Y246370D01*
X-229448Y246378D01*
X-229026Y246943D01*
X-229022Y246951D01*
X-229015Y246959D01*
X-228615Y247540D01*
X-228611Y247549D01*
X-228603Y247557D01*
X-228228Y248155D01*
X-228225Y248163D01*
X-228219Y248171D01*
X-227867Y248782D01*
X-227866Y248785D01*
X-227863Y248788D01*
X-156801Y376084D01*
X-156693Y375934D01*
X-156640Y375855D01*
X-85706Y248771D01*
X-85704Y248768D01*
X-85703Y248765D01*
X-85351Y248154D01*
X-85345Y248147D01*
X-85340Y248137D01*
X-84964Y247540D01*
X-84958Y247533D01*
X-84953Y247523D01*
X-84553Y246942D01*
X-84546Y246936D01*
X-84541Y246926D01*
X-84118Y246362D01*
X-84111Y246355D01*
X-84105Y246345D01*
X-83658Y245799D01*
X-83651Y245793D01*
X-83645Y245784D01*
X-83176Y245257D01*
X-83169Y245251D01*
X-83162Y245241D01*
X-82672Y244734D01*
X-82664Y244729D01*
X-82657Y244720D01*
X-82147Y244233D01*
X-82139Y244228D01*
X-82131Y244219D01*
X-81601Y243754D01*
X-81593Y243750D01*
X-81585Y243741D01*
X-81036Y243298D01*
X-81027Y243294D01*
X-81019Y243286D01*
X-80452Y242866D01*
X-80444Y242862D01*
X-80435Y242854D01*
X-79851Y242459D01*
X-79843Y242455D01*
X-79834Y242448D01*
X-79234Y242076D01*
X-79226Y242073D01*
X-79217Y242066D01*
X-78602Y241720D01*
X-78593Y241717D01*
X-78584Y241710D01*
X-77956Y241389D01*
X-77947Y241387D01*
X-77937Y241380D01*
X-77296Y241086D01*
X-77287Y241084D01*
X-77277Y241078D01*
X-76625Y240810D01*
X-76616Y240808D01*
X-76606Y240802D01*
X-75943Y240561D01*
X-75934Y240560D01*
X-75923Y240554D01*
X-75251Y240341D01*
X-75242Y240340D01*
X-75232Y240335D01*
X-74552Y240149D01*
X-74542Y240148D01*
X-74531Y240144D01*
X-73844Y239986D01*
X-73835Y239986D01*
X-73825Y239982D01*
X-73131Y239852D01*
X-73122Y239852D01*
X-73110Y239849D01*
X-72412Y239748D01*
X-72403Y239748D01*
X-72393Y239745D01*
X-71691Y239672D01*
X-71681Y239673D01*
X-71670Y239671D01*
X-70966Y239628D01*
X-70957Y239629D01*
X-70946Y239627D01*
X-70241Y239612D01*
X-70231Y239613D01*
X-70220Y239612D01*
X-69515Y239626D01*
G37*
G36*
X-493277Y1154428D02*
X-493277Y1154428D01*
X-493181Y1154446D01*
X-493179Y1154448D01*
X-493176Y1154448D01*
X-493096Y1154503D01*
X-493016Y1154556D01*
X-493014Y1154559D01*
X-493012Y1154561D01*
X-493000Y1154579D01*
X-492920Y1154692D01*
X-492658Y1155241D01*
X-492647Y1155283D01*
X-492620Y1155351D01*
X-483922Y1195852D01*
X-479801Y1154920D01*
X-479783Y1154863D01*
X-479775Y1154804D01*
X-479754Y1154769D01*
X-479742Y1154730D01*
X-479704Y1154685D01*
X-479673Y1154633D01*
X-479640Y1154609D01*
X-479614Y1154578D01*
X-479561Y1154551D01*
X-479513Y1154516D01*
X-479467Y1154504D01*
X-479436Y1154488D01*
X-479400Y1154486D01*
X-479352Y1154473D01*
X-478702Y1154411D01*
X-478681Y1154413D01*
X-478655Y1154409D01*
X-465953Y1154409D01*
X-465900Y1154419D01*
X-465846Y1154420D01*
X-465803Y1154439D01*
X-465758Y1154448D01*
X-465713Y1154479D01*
X-465664Y1154501D01*
X-465625Y1154539D01*
X-465594Y1154561D01*
X-465577Y1154588D01*
X-465546Y1154618D01*
X-465161Y1155159D01*
X-465150Y1155183D01*
X-465130Y1155209D01*
X-443650Y1194363D01*
X-451894Y1155650D01*
X-451894Y1155632D01*
X-451901Y1155610D01*
X-451984Y1154972D01*
X-451981Y1154932D01*
X-451987Y1154891D01*
X-451974Y1154833D01*
X-451969Y1154774D01*
X-451951Y1154738D01*
X-451941Y1154698D01*
X-451906Y1154650D01*
X-451879Y1154597D01*
X-451848Y1154571D01*
X-451824Y1154538D01*
X-451772Y1154507D01*
X-451727Y1154469D01*
X-451688Y1154457D01*
X-451653Y1154436D01*
X-451579Y1154424D01*
X-451536Y1154411D01*
X-451515Y1154413D01*
X-451488Y1154409D01*
X-429613Y1154409D01*
X-429558Y1154420D01*
X-429502Y1154421D01*
X-429462Y1154439D01*
X-429418Y1154448D01*
X-429372Y1154480D01*
X-429321Y1154503D01*
X-429291Y1154536D01*
X-429254Y1154561D01*
X-429224Y1154608D01*
X-429186Y1154649D01*
X-429167Y1154697D01*
X-429147Y1154728D01*
X-429141Y1154761D01*
X-429125Y1154803D01*
X-415824Y1216905D01*
X-415824Y1216929D01*
X-415816Y1216959D01*
X-415752Y1217581D01*
X-415755Y1217615D01*
X-415749Y1217648D01*
X-415765Y1217713D01*
X-415771Y1217779D01*
X-415788Y1217809D01*
X-415795Y1217842D01*
X-415835Y1217895D01*
X-415866Y1217953D01*
X-415893Y1217975D01*
X-415913Y1218002D01*
X-415970Y1218036D01*
X-416022Y1218077D01*
X-416055Y1218086D01*
X-416084Y1218103D01*
X-416171Y1218118D01*
X-416214Y1218130D01*
X-416229Y1218128D01*
X-416248Y1218131D01*
X-440947Y1218131D01*
X-440972Y1218126D01*
X-441005Y1218128D01*
X-441664Y1218051D01*
X-441718Y1218033D01*
X-441774Y1218025D01*
X-441812Y1218002D01*
X-441853Y1217989D01*
X-441896Y1217952D01*
X-441944Y1217922D01*
X-441976Y1217882D01*
X-442003Y1217858D01*
X-442018Y1217828D01*
X-442046Y1217791D01*
X-460178Y1183983D01*
X-463093Y1217647D01*
X-463114Y1217720D01*
X-463129Y1217795D01*
X-463142Y1217815D01*
X-463149Y1217837D01*
X-463197Y1217896D01*
X-463240Y1217960D01*
X-463260Y1217973D01*
X-463275Y1217991D01*
X-463343Y1218027D01*
X-463407Y1218068D01*
X-463433Y1218074D01*
X-463451Y1218083D01*
X-463496Y1218087D01*
X-463569Y1218103D01*
X-464249Y1218131D01*
X-464259Y1218129D01*
X-464270Y1218131D01*
X-488263Y1218131D01*
X-488289Y1218126D01*
X-488418Y1218106D01*
X-488976Y1217923D01*
X-489042Y1217885D01*
X-489112Y1217853D01*
X-489128Y1217836D01*
X-489149Y1217824D01*
X-489195Y1217764D01*
X-489247Y1217707D01*
X-489257Y1217683D01*
X-489269Y1217666D01*
X-489280Y1217623D01*
X-489308Y1217552D01*
X-502515Y1155431D01*
X-502516Y1155357D01*
X-502524Y1155283D01*
X-502517Y1155255D01*
X-502517Y1155232D01*
X-502500Y1155191D01*
X-502482Y1155122D01*
X-502294Y1154703D01*
X-502292Y1154701D01*
X-502291Y1154698D01*
X-502235Y1154621D01*
X-502178Y1154542D01*
X-502175Y1154540D01*
X-502174Y1154538D01*
X-502091Y1154489D01*
X-502008Y1154438D01*
X-502005Y1154438D01*
X-502003Y1154436D01*
X-501839Y1154409D01*
X-493371Y1154409D01*
X-493277Y1154428D01*
G37*
G36*
X-747924Y1154414D02*
X-747924Y1154414D01*
X-747917Y1154415D01*
X-747909Y1154414D01*
X-745795Y1154479D01*
X-745786Y1154481D01*
X-745776Y1154480D01*
X-743666Y1154628D01*
X-743657Y1154630D01*
X-743645Y1154630D01*
X-741544Y1154869D01*
X-741535Y1154871D01*
X-741523Y1154871D01*
X-740130Y1155088D01*
X-740123Y1155090D01*
X-740113Y1155091D01*
X-738729Y1155354D01*
X-738720Y1155358D01*
X-738710Y1155358D01*
X-737336Y1155674D01*
X-737330Y1155677D01*
X-737322Y1155678D01*
X-736640Y1155856D01*
X-736633Y1155860D01*
X-736625Y1155861D01*
X-735273Y1156260D01*
X-735263Y1156265D01*
X-735251Y1156267D01*
X-733919Y1156728D01*
X-733909Y1156734D01*
X-733896Y1156737D01*
X-732588Y1157261D01*
X-732580Y1157266D01*
X-732570Y1157268D01*
X-731926Y1157555D01*
X-731919Y1157560D01*
X-731908Y1157563D01*
X-730644Y1158187D01*
X-730637Y1158193D01*
X-730627Y1158196D01*
X-729388Y1158871D01*
X-729381Y1158876D01*
X-729371Y1158880D01*
X-728161Y1159603D01*
X-728155Y1159608D01*
X-728148Y1159611D01*
X-727554Y1159991D01*
X-727548Y1159996D01*
X-727540Y1159999D01*
X-726377Y1160796D01*
X-726370Y1160804D01*
X-726360Y1160809D01*
X-725233Y1161657D01*
X-725226Y1161664D01*
X-725215Y1161671D01*
X-724129Y1162569D01*
X-724124Y1162576D01*
X-724115Y1162581D01*
X-723588Y1163049D01*
X-723583Y1163055D01*
X-723575Y1163061D01*
X-722555Y1164034D01*
X-722550Y1164042D01*
X-722543Y1164047D01*
X-722541Y1164049D01*
X-722538Y1164052D01*
X-721567Y1165074D01*
X-721561Y1165084D01*
X-721551Y1165093D01*
X-720632Y1166162D01*
X-720627Y1166171D01*
X-720617Y1166180D01*
X-719751Y1167293D01*
X-719746Y1167302D01*
X-719738Y1167310D01*
X-718921Y1168459D01*
X-718918Y1168466D01*
X-718912Y1168473D01*
X-718522Y1169060D01*
X-718520Y1169067D01*
X-718514Y1169074D01*
X-717773Y1170273D01*
X-717770Y1170280D01*
X-717765Y1170288D01*
X-717414Y1170899D01*
X-717412Y1170906D01*
X-717407Y1170913D01*
X-716745Y1172158D01*
X-716742Y1172168D01*
X-716735Y1172177D01*
X-716129Y1173450D01*
X-716126Y1173459D01*
X-716120Y1173469D01*
X-715568Y1174766D01*
X-715566Y1174775D01*
X-715560Y1174785D01*
X-715062Y1176104D01*
X-715060Y1176113D01*
X-715055Y1176123D01*
X-714611Y1177461D01*
X-714610Y1177469D01*
X-714606Y1177476D01*
X-714405Y1178152D01*
X-714404Y1178158D01*
X-714402Y1178164D01*
X-714033Y1179525D01*
X-714033Y1179531D01*
X-714030Y1179537D01*
X-713530Y1181592D01*
X-713529Y1181601D01*
X-713525Y1181611D01*
X-713106Y1183683D01*
X-713106Y1183691D01*
X-713103Y1183700D01*
X-712870Y1185090D01*
X-712870Y1185098D01*
X-712867Y1185106D01*
X-712585Y1187202D01*
X-712586Y1187210D01*
X-712583Y1187219D01*
X-712443Y1188622D01*
X-712443Y1188629D01*
X-712441Y1188637D01*
X-712296Y1190747D01*
X-712298Y1190756D01*
X-712295Y1190767D01*
X-712236Y1192881D01*
X-712237Y1192889D01*
X-712236Y1192899D01*
X-712254Y1195014D01*
X-712256Y1195022D01*
X-712255Y1195031D01*
X-712317Y1196440D01*
X-712319Y1196446D01*
X-712318Y1196455D01*
X-712423Y1197861D01*
X-712424Y1197866D01*
X-712424Y1197873D01*
X-712494Y1198575D01*
X-712496Y1198581D01*
X-712495Y1198588D01*
X-712674Y1199987D01*
X-712677Y1199996D01*
X-712677Y1200007D01*
X-712913Y1201397D01*
X-712917Y1201406D01*
X-712917Y1201419D01*
X-713217Y1202797D01*
X-713221Y1202807D01*
X-713223Y1202821D01*
X-713592Y1204182D01*
X-713597Y1204192D01*
X-713599Y1204206D01*
X-714037Y1205546D01*
X-714041Y1205554D01*
X-714043Y1205564D01*
X-714288Y1206225D01*
X-714291Y1206232D01*
X-714293Y1206240D01*
X-714559Y1206893D01*
X-714564Y1206900D01*
X-714566Y1206910D01*
X-714855Y1207553D01*
X-714860Y1207560D01*
X-714863Y1207569D01*
X-715175Y1208201D01*
X-715180Y1208208D01*
X-715184Y1208219D01*
X-715521Y1208838D01*
X-715527Y1208845D01*
X-715531Y1208855D01*
X-715892Y1209461D01*
X-715899Y1209468D01*
X-715903Y1209479D01*
X-716291Y1210068D01*
X-716297Y1210075D01*
X-716303Y1210085D01*
X-716714Y1210658D01*
X-716722Y1210665D01*
X-716728Y1210676D01*
X-717165Y1211228D01*
X-717173Y1211235D01*
X-717180Y1211246D01*
X-717643Y1211778D01*
X-717651Y1211784D01*
X-717658Y1211795D01*
X-718145Y1212305D01*
X-718153Y1212311D01*
X-718160Y1212320D01*
X-718668Y1212809D01*
X-718675Y1212814D01*
X-718682Y1212822D01*
X-719208Y1213291D01*
X-719217Y1213296D01*
X-719226Y1213307D01*
X-719774Y1213750D01*
X-719784Y1213755D01*
X-719793Y1213764D01*
X-720362Y1214181D01*
X-720372Y1214185D01*
X-720381Y1214194D01*
X-720969Y1214583D01*
X-720979Y1214587D01*
X-720988Y1214595D01*
X-721593Y1214957D01*
X-721603Y1214960D01*
X-721612Y1214968D01*
X-722232Y1215303D01*
X-722242Y1215306D01*
X-722252Y1215313D01*
X-722886Y1215621D01*
X-722895Y1215623D01*
X-722904Y1215629D01*
X-723550Y1215911D01*
X-723559Y1215913D01*
X-723568Y1215919D01*
X-724225Y1216175D01*
X-724233Y1216177D01*
X-724241Y1216182D01*
X-724907Y1216414D01*
X-724915Y1216415D01*
X-724924Y1216420D01*
X-725597Y1216629D01*
X-725605Y1216629D01*
X-725614Y1216633D01*
X-726975Y1217003D01*
X-726981Y1217003D01*
X-726988Y1217006D01*
X-727673Y1217172D01*
X-727681Y1217172D01*
X-727690Y1217176D01*
X-729070Y1217461D01*
X-729077Y1217461D01*
X-729086Y1217464D01*
X-729780Y1217585D01*
X-729787Y1217585D01*
X-729795Y1217587D01*
X-731190Y1217787D01*
X-731197Y1217787D01*
X-731204Y1217789D01*
X-731904Y1217870D01*
X-731910Y1217869D01*
X-731917Y1217871D01*
X-733321Y1217997D01*
X-733328Y1217996D01*
X-733337Y1217998D01*
X-734744Y1218080D01*
X-734751Y1218079D01*
X-734758Y1218080D01*
X-736042Y1218118D01*
X-736110Y1218107D01*
X-736178Y1218104D01*
X-736183Y1218101D01*
X-736195Y1218103D01*
X-736229Y1218116D01*
X-736262Y1218115D01*
X-736307Y1218122D01*
X-763675Y1218131D01*
X-763722Y1218122D01*
X-763769Y1218122D01*
X-763818Y1218102D01*
X-763870Y1218092D01*
X-763909Y1218065D01*
X-763953Y1218047D01*
X-763990Y1218009D01*
X-764034Y1217979D01*
X-764060Y1217939D01*
X-764093Y1217905D01*
X-764119Y1217847D01*
X-764141Y1217812D01*
X-764145Y1217785D01*
X-764160Y1217753D01*
X-764326Y1217087D01*
X-764326Y1217079D01*
X-764330Y1217070D01*
X-777523Y1155012D01*
X-777524Y1154951D01*
X-777534Y1154891D01*
X-777525Y1154853D01*
X-777525Y1154813D01*
X-777502Y1154757D01*
X-777488Y1154698D01*
X-777464Y1154666D01*
X-777449Y1154629D01*
X-777406Y1154587D01*
X-777370Y1154538D01*
X-777336Y1154518D01*
X-777307Y1154490D01*
X-777251Y1154467D01*
X-777199Y1154436D01*
X-777153Y1154429D01*
X-777122Y1154416D01*
X-777086Y1154417D01*
X-777035Y1154409D01*
X-776827Y1154409D01*
X-747924Y1154414D01*
G37*
G36*
X-530655Y1154423D02*
X-530655Y1154423D01*
X-530581Y1154431D01*
X-530558Y1154443D01*
X-530533Y1154448D01*
X-530472Y1154490D01*
X-530406Y1154526D01*
X-530388Y1154548D01*
X-530369Y1154561D01*
X-530346Y1154598D01*
X-530299Y1154653D01*
X-530000Y1155157D01*
X-529993Y1155176D01*
X-529983Y1155200D01*
X-529966Y1155228D01*
X-529961Y1155256D01*
X-529941Y1155306D01*
X-524133Y1182214D01*
X-524133Y1182218D01*
X-524131Y1182223D01*
X-523858Y1183608D01*
X-523858Y1183614D01*
X-523856Y1183621D01*
X-523620Y1185013D01*
X-523620Y1185021D01*
X-523617Y1185032D01*
X-523435Y1186432D01*
X-523436Y1186441D01*
X-523433Y1186452D01*
X-523370Y1187155D01*
X-523371Y1187162D01*
X-523369Y1187172D01*
X-523331Y1187877D01*
X-523333Y1187887D01*
X-523331Y1187899D01*
X-523324Y1188605D01*
X-523326Y1188618D01*
X-523324Y1188634D01*
X-523359Y1189339D01*
X-523363Y1189353D01*
X-523362Y1189371D01*
X-523442Y1190072D01*
X-523447Y1190087D01*
X-523447Y1190107D01*
X-523576Y1190801D01*
X-523583Y1190816D01*
X-523585Y1190837D01*
X-523766Y1191519D01*
X-523774Y1191535D01*
X-523777Y1191557D01*
X-524012Y1192222D01*
X-524021Y1192238D01*
X-524027Y1192260D01*
X-524314Y1192904D01*
X-524325Y1192919D01*
X-524332Y1192941D01*
X-524672Y1193559D01*
X-524684Y1193573D01*
X-524693Y1193595D01*
X-525082Y1194183D01*
X-525095Y1194196D01*
X-525106Y1194216D01*
X-525542Y1194771D01*
X-525555Y1194782D01*
X-525566Y1194800D01*
X-526043Y1195320D01*
X-526056Y1195330D01*
X-526068Y1195346D01*
X-526580Y1195831D01*
X-526589Y1195836D01*
X-526597Y1195846D01*
X-527131Y1196307D01*
X-527142Y1196314D01*
X-527154Y1196326D01*
X-527714Y1196755D01*
X-527727Y1196762D01*
X-527741Y1196775D01*
X-528329Y1197165D01*
X-528343Y1197171D01*
X-528358Y1197183D01*
X-528971Y1197532D01*
X-528986Y1197537D01*
X-529001Y1197548D01*
X-529637Y1197855D01*
X-529651Y1197859D01*
X-529666Y1197868D01*
X-530320Y1198134D01*
X-530334Y1198136D01*
X-530349Y1198145D01*
X-531019Y1198368D01*
X-531032Y1198370D01*
X-531047Y1198377D01*
X-531728Y1198561D01*
X-531741Y1198562D01*
X-531755Y1198567D01*
X-532446Y1198713D01*
X-532457Y1198713D01*
X-532471Y1198718D01*
X-533168Y1198828D01*
X-533179Y1198827D01*
X-533193Y1198831D01*
X-533894Y1198906D01*
X-533904Y1198905D01*
X-533916Y1198908D01*
X-534621Y1198952D01*
X-534630Y1198951D01*
X-534641Y1198953D01*
X-535347Y1198968D01*
X-535356Y1198966D01*
X-535367Y1198968D01*
X-536072Y1198955D01*
X-536080Y1198953D01*
X-536089Y1198955D01*
X-536794Y1198917D01*
X-536802Y1198915D01*
X-536812Y1198916D01*
X-537515Y1198853D01*
X-537524Y1198851D01*
X-537535Y1198851D01*
X-538235Y1198760D01*
X-538243Y1198757D01*
X-538254Y1198757D01*
X-538950Y1198640D01*
X-538958Y1198636D01*
X-538969Y1198636D01*
X-539660Y1198492D01*
X-539668Y1198488D01*
X-539680Y1198487D01*
X-540364Y1198313D01*
X-540373Y1198309D01*
X-540384Y1198307D01*
X-541060Y1198106D01*
X-541068Y1198102D01*
X-541079Y1198100D01*
X-541747Y1197872D01*
X-541755Y1197868D01*
X-541766Y1197866D01*
X-542424Y1197611D01*
X-542429Y1197608D01*
X-542436Y1197607D01*
X-543739Y1197065D01*
X-543744Y1197061D01*
X-543751Y1197060D01*
X-544396Y1196771D01*
X-544401Y1196767D01*
X-544409Y1196765D01*
X-545680Y1196150D01*
X-545686Y1196145D01*
X-545695Y1196142D01*
X-546319Y1195814D01*
X-546326Y1195808D01*
X-546337Y1195804D01*
X-547559Y1195097D01*
X-547569Y1195089D01*
X-547584Y1195082D01*
X-548762Y1194304D01*
X-548768Y1194297D01*
X-548778Y1194292D01*
X-549923Y1193467D01*
X-549928Y1193462D01*
X-549935Y1193458D01*
X-550495Y1193028D01*
X-550500Y1193023D01*
X-550507Y1193019D01*
X-551600Y1192126D01*
X-551605Y1192121D01*
X-551612Y1192116D01*
X-552103Y1191690D01*
X-552337Y1191564D01*
X-552340Y1191567D01*
X-552431Y1192086D01*
X-552437Y1192104D01*
X-552439Y1192127D01*
X-552617Y1192810D01*
X-552626Y1192828D01*
X-552630Y1192852D01*
X-552868Y1193516D01*
X-552879Y1193534D01*
X-552885Y1193558D01*
X-553183Y1194198D01*
X-553194Y1194215D01*
X-553203Y1194239D01*
X-553557Y1194849D01*
X-553570Y1194864D01*
X-553581Y1194886D01*
X-553988Y1195463D01*
X-554001Y1195476D01*
X-554013Y1195496D01*
X-554467Y1196037D01*
X-554482Y1196048D01*
X-554495Y1196066D01*
X-554991Y1196568D01*
X-555004Y1196577D01*
X-555016Y1196592D01*
X-555546Y1197058D01*
X-555567Y1197070D01*
X-555589Y1197092D01*
X-556167Y1197496D01*
X-556188Y1197505D01*
X-556210Y1197523D01*
X-556826Y1197867D01*
X-556846Y1197873D01*
X-556869Y1197888D01*
X-557515Y1198172D01*
X-557533Y1198176D01*
X-557553Y1198187D01*
X-558220Y1198417D01*
X-558236Y1198419D01*
X-558255Y1198427D01*
X-558937Y1198608D01*
X-558951Y1198609D01*
X-558968Y1198615D01*
X-559660Y1198752D01*
X-559673Y1198752D01*
X-559687Y1198757D01*
X-560386Y1198855D01*
X-560397Y1198855D01*
X-560410Y1198858D01*
X-561113Y1198923D01*
X-561123Y1198922D01*
X-561134Y1198924D01*
X-561839Y1198959D01*
X-561851Y1198957D01*
X-561866Y1198960D01*
X-563277Y1198954D01*
X-563290Y1198951D01*
X-563306Y1198953D01*
X-564715Y1198865D01*
X-564725Y1198862D01*
X-564738Y1198863D01*
X-565439Y1198787D01*
X-565447Y1198784D01*
X-565456Y1198784D01*
X-566155Y1198684D01*
X-566162Y1198682D01*
X-566172Y1198681D01*
X-566867Y1198557D01*
X-566874Y1198554D01*
X-566884Y1198553D01*
X-567574Y1198404D01*
X-567582Y1198401D01*
X-567594Y1198400D01*
X-568277Y1198223D01*
X-568285Y1198219D01*
X-568295Y1198217D01*
X-568971Y1198015D01*
X-568979Y1198010D01*
X-568991Y1198008D01*
X-569658Y1197777D01*
X-569666Y1197772D01*
X-569677Y1197770D01*
X-570991Y1197254D01*
X-570996Y1197251D01*
X-571002Y1197249D01*
X-571653Y1196975D01*
X-571658Y1196971D01*
X-571665Y1196969D01*
X-572950Y1196384D01*
X-572958Y1196377D01*
X-572971Y1196373D01*
X-574226Y1195729D01*
X-574233Y1195723D01*
X-574244Y1195720D01*
X-574858Y1195373D01*
X-574866Y1195366D01*
X-574877Y1195362D01*
X-575476Y1194989D01*
X-575482Y1194983D01*
X-575492Y1194978D01*
X-576077Y1194582D01*
X-576081Y1194577D01*
X-576089Y1194573D01*
X-577232Y1193746D01*
X-577239Y1193738D01*
X-577249Y1193733D01*
X-578356Y1192857D01*
X-578363Y1192849D01*
X-578374Y1192843D01*
X-579440Y1191918D01*
X-579445Y1191912D01*
X-579453Y1191907D01*
X-579789Y1191595D01*
X-579858Y1191607D01*
X-581493Y1197420D01*
X-581494Y1197422D01*
X-581494Y1197423D01*
X-581540Y1197511D01*
X-581584Y1197597D01*
X-581585Y1197598D01*
X-581586Y1197600D01*
X-581661Y1197661D01*
X-581736Y1197724D01*
X-581738Y1197725D01*
X-581739Y1197726D01*
X-581897Y1197778D01*
X-582529Y1197876D01*
X-582562Y1197874D01*
X-582605Y1197882D01*
X-597428Y1197882D01*
X-597438Y1197880D01*
X-597451Y1197881D01*
X-598131Y1197850D01*
X-598175Y1197839D01*
X-598220Y1197838D01*
X-598270Y1197815D01*
X-598324Y1197801D01*
X-598360Y1197774D01*
X-598401Y1197755D01*
X-598439Y1197715D01*
X-598483Y1197681D01*
X-598505Y1197642D01*
X-598536Y1197609D01*
X-598559Y1197549D01*
X-598576Y1197524D01*
X-598577Y1197518D01*
X-598582Y1197509D01*
X-598585Y1197484D01*
X-598597Y1197454D01*
X-607511Y1155331D01*
X-607512Y1155270D01*
X-607522Y1155210D01*
X-607512Y1155172D01*
X-607513Y1155132D01*
X-607489Y1155076D01*
X-607475Y1155017D01*
X-607449Y1154979D01*
X-607437Y1154949D01*
X-607410Y1154923D01*
X-607381Y1154880D01*
X-607070Y1154560D01*
X-607056Y1154551D01*
X-607047Y1154538D01*
X-606975Y1154495D01*
X-606905Y1154448D01*
X-606890Y1154445D01*
X-606876Y1154436D01*
X-606712Y1154409D01*
X-586948Y1154409D01*
X-586893Y1154420D01*
X-586837Y1154421D01*
X-586797Y1154439D01*
X-586753Y1154448D01*
X-586707Y1154480D01*
X-586656Y1154503D01*
X-586626Y1154536D01*
X-586589Y1154561D01*
X-586559Y1154608D01*
X-586521Y1154649D01*
X-586502Y1154698D01*
X-586482Y1154728D01*
X-586477Y1154761D01*
X-586460Y1154804D01*
X-580021Y1185104D01*
X-579771Y1185562D01*
X-579320Y1185981D01*
X-578263Y1186895D01*
X-577736Y1187331D01*
X-577198Y1187721D01*
X-576634Y1188047D01*
X-576043Y1188305D01*
X-575431Y1188483D01*
X-574804Y1188573D01*
X-574184Y1188570D01*
X-573610Y1188454D01*
X-573118Y1188202D01*
X-572714Y1187787D01*
X-572371Y1187291D01*
X-572155Y1186736D01*
X-572049Y1186127D01*
X-572034Y1185482D01*
X-572080Y1184817D01*
X-572169Y1184145D01*
X-572293Y1183470D01*
X-572583Y1182095D01*
X-572583Y1182087D01*
X-572586Y1182079D01*
X-572829Y1180697D01*
X-578212Y1155150D01*
X-578213Y1155054D01*
X-578215Y1154958D01*
X-578214Y1154955D01*
X-578214Y1154951D01*
X-578177Y1154862D01*
X-578142Y1154774D01*
X-578139Y1154771D01*
X-578138Y1154768D01*
X-578069Y1154700D01*
X-578002Y1154632D01*
X-577998Y1154631D01*
X-577996Y1154628D01*
X-577973Y1154620D01*
X-577850Y1154564D01*
X-577316Y1154425D01*
X-577271Y1154422D01*
X-577190Y1154409D01*
X-559544Y1154409D01*
X-559506Y1154416D01*
X-559468Y1154414D01*
X-559410Y1154436D01*
X-559349Y1154448D01*
X-559318Y1154470D01*
X-559282Y1154483D01*
X-559222Y1154535D01*
X-559185Y1154561D01*
X-559175Y1154577D01*
X-559157Y1154593D01*
X-558803Y1155027D01*
X-558787Y1155059D01*
X-558763Y1155085D01*
X-558732Y1155163D01*
X-558711Y1155203D01*
X-558710Y1155220D01*
X-558702Y1155240D01*
X-552483Y1184902D01*
X-552288Y1185387D01*
X-551338Y1186255D01*
X-550272Y1187154D01*
X-549742Y1187572D01*
X-549194Y1187929D01*
X-548618Y1188217D01*
X-548015Y1188427D01*
X-547393Y1188550D01*
X-546765Y1188583D01*
X-546162Y1188515D01*
X-545617Y1188324D01*
X-545150Y1187994D01*
X-544767Y1187546D01*
X-544485Y1187024D01*
X-544325Y1186445D01*
X-544274Y1185822D01*
X-544310Y1185172D01*
X-544398Y1184504D01*
X-544523Y1183827D01*
X-550385Y1155493D01*
X-550385Y1155470D01*
X-550393Y1155447D01*
X-550390Y1155403D01*
X-550392Y1155391D01*
X-550389Y1155374D01*
X-550386Y1155330D01*
X-550386Y1155295D01*
X-550384Y1155289D01*
X-550383Y1155281D01*
X-550272Y1154796D01*
X-550251Y1154749D01*
X-550238Y1154698D01*
X-550210Y1154659D01*
X-550190Y1154615D01*
X-550152Y1154580D01*
X-550121Y1154538D01*
X-550079Y1154513D01*
X-550044Y1154481D01*
X-549995Y1154463D01*
X-549950Y1154436D01*
X-549893Y1154427D01*
X-549857Y1154414D01*
X-549826Y1154415D01*
X-549786Y1154409D01*
X-530728Y1154409D01*
X-530655Y1154423D01*
G37*
%LPC*%
G36*
X-601756Y815836D02*
X-601756Y815836D01*
X-527732Y815836D01*
X-527732Y778515D01*
X-528808Y778666D01*
X-528811Y778666D01*
X-528815Y778667D01*
X-532315Y779109D01*
X-532317Y779109D01*
X-532320Y779110D01*
X-535124Y779431D01*
X-535127Y779431D01*
X-535130Y779432D01*
X-538639Y779793D01*
X-538642Y779792D01*
X-538646Y779793D01*
X-542160Y780108D01*
X-542162Y780108D01*
X-542166Y780109D01*
X-545684Y780377D01*
X-545687Y780377D01*
X-545690Y780378D01*
X-549211Y780601D01*
X-549213Y780600D01*
X-549216Y780601D01*
X-551330Y780712D01*
X-551332Y780712D01*
X-551334Y780712D01*
X-554154Y780837D01*
X-554156Y780836D01*
X-554160Y780837D01*
X-557686Y780950D01*
X-557688Y780950D01*
X-557692Y780950D01*
X-561219Y781019D01*
X-561222Y781018D01*
X-561226Y781019D01*
X-564753Y781041D01*
X-564756Y781041D01*
X-564760Y781041D01*
X-568287Y781018D01*
X-568290Y781017D01*
X-568294Y781018D01*
X-571821Y780950D01*
X-571824Y780949D01*
X-571827Y780949D01*
X-575353Y780835D01*
X-575356Y780835D01*
X-575359Y780835D01*
X-578179Y780711D01*
X-578181Y780710D01*
X-578183Y780710D01*
X-580297Y780599D01*
X-580299Y780599D01*
X-580302Y780599D01*
X-583823Y780376D01*
X-583826Y780375D01*
X-583829Y780375D01*
X-587347Y780106D01*
X-587350Y780105D01*
X-587353Y780105D01*
X-590867Y779790D01*
X-590870Y779789D01*
X-590873Y779789D01*
X-594383Y779429D01*
X-594385Y779428D01*
X-594388Y779428D01*
X-597192Y779106D01*
X-597195Y779105D01*
X-597198Y779106D01*
X-600698Y778663D01*
X-600701Y778662D01*
X-600704Y778662D01*
X-601755Y778515D01*
X-601756Y815836D01*
G37*
%LPD*%
G36*
X-293766Y1154413D02*
X-293766Y1154413D01*
X-293743Y1154411D01*
X-293669Y1154433D01*
X-293594Y1154448D01*
X-293575Y1154461D01*
X-293553Y1154468D01*
X-293456Y1154542D01*
X-293430Y1154561D01*
X-293427Y1154565D01*
X-293421Y1154570D01*
X-293046Y1154977D01*
X-293020Y1155020D01*
X-292986Y1155056D01*
X-292964Y1155112D01*
X-292943Y1155147D01*
X-292939Y1155175D01*
X-292925Y1155211D01*
X-286618Y1184833D01*
X-286456Y1185357D01*
X-286056Y1185770D01*
X-285558Y1186244D01*
X-285043Y1186703D01*
X-284517Y1187149D01*
X-283990Y1187564D01*
X-283439Y1187916D01*
X-282860Y1188204D01*
X-282257Y1188417D01*
X-281636Y1188546D01*
X-281010Y1188583D01*
X-280411Y1188520D01*
X-279880Y1188329D01*
X-279435Y1187987D01*
X-279067Y1187522D01*
X-278796Y1186988D01*
X-278643Y1186401D01*
X-278591Y1185771D01*
X-278614Y1185114D01*
X-278685Y1184444D01*
X-278793Y1183774D01*
X-279081Y1182406D01*
X-279081Y1182400D01*
X-279083Y1182394D01*
X-279468Y1180323D01*
X-284700Y1155498D01*
X-284700Y1155477D01*
X-284706Y1155457D01*
X-284704Y1155409D01*
X-284707Y1155391D01*
X-284703Y1155371D01*
X-284701Y1155327D01*
X-284701Y1155299D01*
X-284699Y1155295D01*
X-284699Y1155291D01*
X-284595Y1154803D01*
X-284573Y1154752D01*
X-284560Y1154698D01*
X-284533Y1154662D01*
X-284515Y1154621D01*
X-284475Y1154583D01*
X-284442Y1154538D01*
X-284404Y1154515D01*
X-284371Y1154484D01*
X-284319Y1154465D01*
X-284271Y1154436D01*
X-284219Y1154428D01*
X-284185Y1154415D01*
X-284152Y1154416D01*
X-284107Y1154409D01*
X-264371Y1154409D01*
X-264358Y1154411D01*
X-264345Y1154409D01*
X-264261Y1154431D01*
X-264176Y1154448D01*
X-264165Y1154456D01*
X-264153Y1154459D01*
X-264083Y1154512D01*
X-264012Y1154561D01*
X-264005Y1154572D01*
X-263995Y1154580D01*
X-263908Y1154721D01*
X-263673Y1155304D01*
X-263667Y1155339D01*
X-263648Y1155385D01*
X-259641Y1173990D01*
X-259641Y1173993D01*
X-259640Y1173997D01*
X-258950Y1177444D01*
X-258460Y1179491D01*
X-258460Y1179494D01*
X-258458Y1179499D01*
X-258152Y1180875D01*
X-258152Y1180880D01*
X-258150Y1180885D01*
X-257736Y1182959D01*
X-257736Y1182962D01*
X-257734Y1182966D01*
X-257350Y1185045D01*
X-257350Y1185055D01*
X-257346Y1185067D01*
X-257153Y1186464D01*
X-257154Y1186474D01*
X-257151Y1186487D01*
X-257087Y1187189D01*
X-257088Y1187198D01*
X-257086Y1187209D01*
X-257051Y1187913D01*
X-257053Y1187924D01*
X-257050Y1187938D01*
X-257051Y1188643D01*
X-257054Y1188656D01*
X-257052Y1188672D01*
X-257094Y1189376D01*
X-257098Y1189390D01*
X-257097Y1189409D01*
X-257187Y1190108D01*
X-257192Y1190123D01*
X-257192Y1190143D01*
X-257331Y1190834D01*
X-257338Y1190850D01*
X-257341Y1190872D01*
X-257533Y1191550D01*
X-257542Y1191567D01*
X-257547Y1191590D01*
X-257796Y1192249D01*
X-257806Y1192265D01*
X-257813Y1192289D01*
X-258118Y1192924D01*
X-258130Y1192940D01*
X-258139Y1192963D01*
X-258500Y1193568D01*
X-258513Y1193583D01*
X-258524Y1193605D01*
X-258937Y1194176D01*
X-258951Y1194189D01*
X-258964Y1194210D01*
X-259424Y1194743D01*
X-259439Y1194754D01*
X-259453Y1194773D01*
X-259956Y1195266D01*
X-259971Y1195276D01*
X-259985Y1195293D01*
X-260526Y1195745D01*
X-260536Y1195750D01*
X-260546Y1195761D01*
X-261109Y1196184D01*
X-261121Y1196190D01*
X-261133Y1196201D01*
X-261720Y1196591D01*
X-261733Y1196596D01*
X-261747Y1196608D01*
X-262358Y1196959D01*
X-262371Y1196964D01*
X-262384Y1196974D01*
X-263015Y1197288D01*
X-263028Y1197292D01*
X-263042Y1197301D01*
X-263690Y1197577D01*
X-263703Y1197580D01*
X-263717Y1197588D01*
X-264380Y1197826D01*
X-264392Y1197827D01*
X-264406Y1197834D01*
X-265081Y1198036D01*
X-265093Y1198037D01*
X-265107Y1198043D01*
X-265792Y1198208D01*
X-265803Y1198209D01*
X-265816Y1198213D01*
X-266508Y1198345D01*
X-266519Y1198345D01*
X-266532Y1198349D01*
X-267230Y1198448D01*
X-267239Y1198447D01*
X-267251Y1198450D01*
X-267953Y1198518D01*
X-267962Y1198517D01*
X-267973Y1198520D01*
X-268677Y1198559D01*
X-268685Y1198558D01*
X-268696Y1198560D01*
X-269400Y1198573D01*
X-269411Y1198571D01*
X-269426Y1198573D01*
X-270834Y1198527D01*
X-270845Y1198524D01*
X-270859Y1198525D01*
X-271561Y1198468D01*
X-271569Y1198466D01*
X-271580Y1198466D01*
X-272280Y1198383D01*
X-272287Y1198380D01*
X-272298Y1198380D01*
X-272994Y1198271D01*
X-273002Y1198268D01*
X-273013Y1198267D01*
X-273704Y1198131D01*
X-273713Y1198127D01*
X-273725Y1198127D01*
X-274410Y1197961D01*
X-274419Y1197956D01*
X-274432Y1197955D01*
X-275109Y1197759D01*
X-275118Y1197754D01*
X-275130Y1197752D01*
X-275798Y1197526D01*
X-275807Y1197521D01*
X-275821Y1197518D01*
X-277132Y1196998D01*
X-277138Y1196994D01*
X-277148Y1196991D01*
X-277794Y1196708D01*
X-277801Y1196703D01*
X-277812Y1196700D01*
X-279079Y1196083D01*
X-279087Y1196077D01*
X-279099Y1196073D01*
X-279718Y1195738D01*
X-279724Y1195733D01*
X-279732Y1195730D01*
X-280341Y1195374D01*
X-280347Y1195368D01*
X-280356Y1195365D01*
X-280951Y1194988D01*
X-280956Y1194983D01*
X-280963Y1194980D01*
X-282133Y1194195D01*
X-282141Y1194187D01*
X-282153Y1194180D01*
X-283283Y1193338D01*
X-283289Y1193331D01*
X-283299Y1193325D01*
X-283846Y1192882D01*
X-283852Y1192874D01*
X-283863Y1192868D01*
X-284918Y1191934D01*
X-284925Y1191926D01*
X-284935Y1191919D01*
X-285146Y1191715D01*
X-279009Y1220604D01*
X-279009Y1220643D01*
X-278998Y1220699D01*
X-278989Y1221278D01*
X-278991Y1221291D01*
X-278989Y1221303D01*
X-279009Y1221388D01*
X-279025Y1221474D01*
X-279032Y1221484D01*
X-279035Y1221497D01*
X-279087Y1221567D01*
X-279135Y1221640D01*
X-279145Y1221647D01*
X-279153Y1221657D01*
X-279228Y1221701D01*
X-279300Y1221749D01*
X-279313Y1221752D01*
X-279324Y1221758D01*
X-279488Y1221786D01*
X-299224Y1221786D01*
X-299282Y1221774D01*
X-299341Y1221772D01*
X-299385Y1221753D01*
X-299419Y1221746D01*
X-299448Y1221726D01*
X-299494Y1221707D01*
X-299957Y1221409D01*
X-299967Y1221399D01*
X-299980Y1221393D01*
X-300038Y1221330D01*
X-300100Y1221270D01*
X-300105Y1221257D01*
X-300115Y1221247D01*
X-300176Y1221092D01*
X-314019Y1155577D01*
X-314020Y1155535D01*
X-314030Y1155468D01*
X-314024Y1154902D01*
X-314023Y1154897D01*
X-314023Y1154891D01*
X-314002Y1154800D01*
X-313982Y1154708D01*
X-313979Y1154703D01*
X-313977Y1154698D01*
X-313922Y1154622D01*
X-313867Y1154545D01*
X-313863Y1154542D01*
X-313860Y1154538D01*
X-313779Y1154490D01*
X-313699Y1154440D01*
X-313693Y1154439D01*
X-313689Y1154436D01*
X-313524Y1154409D01*
X-293788Y1154409D01*
X-293766Y1154413D01*
G37*
G36*
X-206801Y1154410D02*
X-206801Y1154410D01*
X-206794Y1154409D01*
X-206703Y1154430D01*
X-206613Y1154448D01*
X-206607Y1154452D01*
X-206600Y1154454D01*
X-206525Y1154508D01*
X-206449Y1154561D01*
X-206445Y1154567D01*
X-206439Y1154571D01*
X-206349Y1154711D01*
X-206104Y1155279D01*
X-206096Y1155318D01*
X-206075Y1155373D01*
X-199790Y1184985D01*
X-199601Y1185477D01*
X-199178Y1185876D01*
X-198129Y1186794D01*
X-197600Y1187232D01*
X-197067Y1187637D01*
X-196511Y1187977D01*
X-195926Y1188252D01*
X-195319Y1188450D01*
X-194696Y1188560D01*
X-194072Y1188580D01*
X-193484Y1188493D01*
X-192970Y1188275D01*
X-192543Y1187901D01*
X-192187Y1187420D01*
X-191940Y1186876D01*
X-191809Y1186280D01*
X-191776Y1185644D01*
X-191808Y1184982D01*
X-191886Y1184312D01*
X-192002Y1183641D01*
X-192292Y1182270D01*
X-192292Y1182263D01*
X-192295Y1182254D01*
X-192540Y1180872D01*
X-192680Y1180188D01*
X-197912Y1155360D01*
X-197913Y1155326D01*
X-197922Y1155293D01*
X-197913Y1155227D01*
X-197914Y1155161D01*
X-197900Y1155130D01*
X-197896Y1155095D01*
X-197855Y1155019D01*
X-197837Y1154978D01*
X-197826Y1154967D01*
X-197817Y1154949D01*
X-197542Y1154600D01*
X-197510Y1154572D01*
X-197485Y1154538D01*
X-197435Y1154508D01*
X-197391Y1154471D01*
X-197350Y1154458D01*
X-197314Y1154436D01*
X-197243Y1154424D01*
X-197201Y1154411D01*
X-197179Y1154414D01*
X-197150Y1154409D01*
X-178117Y1154409D01*
X-178107Y1154411D01*
X-178094Y1154409D01*
X-177415Y1154441D01*
X-177372Y1154452D01*
X-177329Y1154453D01*
X-177277Y1154476D01*
X-177222Y1154490D01*
X-177187Y1154517D01*
X-177147Y1154535D01*
X-177109Y1154576D01*
X-177064Y1154610D01*
X-177042Y1154648D01*
X-177012Y1154681D01*
X-176986Y1154745D01*
X-176965Y1154783D01*
X-176962Y1154807D01*
X-176950Y1154835D01*
X-172796Y1174130D01*
X-172796Y1174135D01*
X-172794Y1174140D01*
X-172123Y1177592D01*
X-171654Y1179645D01*
X-171653Y1179649D01*
X-171652Y1179654D01*
X-171218Y1181724D01*
X-171218Y1181728D01*
X-171216Y1181732D01*
X-170819Y1183809D01*
X-170819Y1183814D01*
X-170817Y1183820D01*
X-170463Y1185904D01*
X-170464Y1185916D01*
X-170460Y1185930D01*
X-170296Y1187330D01*
X-170297Y1187341D01*
X-170293Y1187354D01*
X-170246Y1188057D01*
X-170247Y1188068D01*
X-170245Y1188081D01*
X-170230Y1188786D01*
X-170233Y1188799D01*
X-170231Y1188815D01*
X-170257Y1189519D01*
X-170261Y1189533D01*
X-170260Y1189552D01*
X-170333Y1190253D01*
X-170338Y1190267D01*
X-170338Y1190287D01*
X-170459Y1190981D01*
X-170465Y1190997D01*
X-170467Y1191018D01*
X-170641Y1191701D01*
X-170649Y1191718D01*
X-170653Y1191741D01*
X-170883Y1192407D01*
X-170892Y1192423D01*
X-170898Y1192447D01*
X-171184Y1193090D01*
X-171196Y1193107D01*
X-171204Y1193130D01*
X-171546Y1193746D01*
X-171559Y1193761D01*
X-171569Y1193784D01*
X-171965Y1194367D01*
X-171979Y1194381D01*
X-171991Y1194402D01*
X-172436Y1194949D01*
X-172450Y1194960D01*
X-172464Y1194980D01*
X-172953Y1195487D01*
X-172968Y1195497D01*
X-172982Y1195515D01*
X-173510Y1195981D01*
X-173523Y1195988D01*
X-173534Y1196001D01*
X-174091Y1196433D01*
X-174102Y1196439D01*
X-174112Y1196449D01*
X-174691Y1196851D01*
X-174704Y1196857D01*
X-174718Y1196868D01*
X-175321Y1197233D01*
X-175334Y1197237D01*
X-175347Y1197248D01*
X-175971Y1197575D01*
X-175984Y1197579D01*
X-175998Y1197588D01*
X-176640Y1197878D01*
X-176654Y1197881D01*
X-176668Y1197889D01*
X-177327Y1198140D01*
X-177339Y1198142D01*
X-177352Y1198149D01*
X-178023Y1198364D01*
X-178036Y1198365D01*
X-178050Y1198371D01*
X-178732Y1198549D01*
X-178743Y1198549D01*
X-178756Y1198554D01*
X-179446Y1198698D01*
X-179457Y1198698D01*
X-179470Y1198702D01*
X-180167Y1198811D01*
X-180177Y1198811D01*
X-180188Y1198814D01*
X-180889Y1198893D01*
X-180898Y1198892D01*
X-180909Y1198895D01*
X-181613Y1198944D01*
X-181622Y1198943D01*
X-181633Y1198945D01*
X-182337Y1198966D01*
X-182345Y1198965D01*
X-182354Y1198966D01*
X-183059Y1198963D01*
X-183070Y1198961D01*
X-183083Y1198963D01*
X-184491Y1198889D01*
X-184502Y1198886D01*
X-184516Y1198887D01*
X-185217Y1198814D01*
X-185224Y1198812D01*
X-185234Y1198812D01*
X-185932Y1198716D01*
X-185940Y1198713D01*
X-185950Y1198713D01*
X-186644Y1198591D01*
X-186653Y1198587D01*
X-186664Y1198587D01*
X-187353Y1198436D01*
X-187361Y1198433D01*
X-187372Y1198432D01*
X-188054Y1198255D01*
X-188062Y1198251D01*
X-188074Y1198250D01*
X-188748Y1198045D01*
X-188757Y1198040D01*
X-188770Y1198038D01*
X-189434Y1197803D01*
X-189442Y1197798D01*
X-189454Y1197795D01*
X-190762Y1197269D01*
X-190768Y1197265D01*
X-190778Y1197262D01*
X-192066Y1196692D01*
X-192072Y1196688D01*
X-192080Y1196685D01*
X-192716Y1196381D01*
X-192721Y1196377D01*
X-192730Y1196374D01*
X-193981Y1195725D01*
X-193988Y1195720D01*
X-193998Y1195716D01*
X-194611Y1195368D01*
X-194618Y1195362D01*
X-194629Y1195358D01*
X-195226Y1194985D01*
X-195233Y1194978D01*
X-195243Y1194974D01*
X-195826Y1194578D01*
X-195831Y1194573D01*
X-195838Y1194569D01*
X-196980Y1193743D01*
X-196986Y1193735D01*
X-196997Y1193730D01*
X-198102Y1192855D01*
X-198109Y1192847D01*
X-198119Y1192841D01*
X-199185Y1191918D01*
X-199190Y1191912D01*
X-199198Y1191906D01*
X-199533Y1191595D01*
X-199602Y1191607D01*
X-201234Y1197411D01*
X-201277Y1197495D01*
X-201322Y1197584D01*
X-201324Y1197586D01*
X-201325Y1197588D01*
X-201399Y1197650D01*
X-201474Y1197713D01*
X-201476Y1197714D01*
X-201478Y1197715D01*
X-201495Y1197720D01*
X-201631Y1197768D01*
X-202255Y1197875D01*
X-202290Y1197873D01*
X-202339Y1197882D01*
X-217846Y1197881D01*
X-217901Y1197869D01*
X-217957Y1197868D01*
X-217998Y1197850D01*
X-218041Y1197841D01*
X-218087Y1197809D01*
X-218139Y1197786D01*
X-218168Y1197753D01*
X-218205Y1197729D01*
X-218235Y1197681D01*
X-218273Y1197640D01*
X-218292Y1197592D01*
X-218312Y1197561D01*
X-218317Y1197528D01*
X-218318Y1197526D01*
X-218320Y1197524D01*
X-218320Y1197521D01*
X-218334Y1197485D01*
X-227237Y1155418D01*
X-227237Y1155334D01*
X-227243Y1155250D01*
X-227238Y1155233D01*
X-227238Y1155219D01*
X-227221Y1155178D01*
X-227195Y1155091D01*
X-226991Y1154684D01*
X-226934Y1154612D01*
X-226880Y1154538D01*
X-226873Y1154534D01*
X-226868Y1154528D01*
X-226788Y1154483D01*
X-226709Y1154436D01*
X-226701Y1154435D01*
X-226694Y1154432D01*
X-226658Y1154428D01*
X-226545Y1154409D01*
X-206808Y1154409D01*
X-206801Y1154410D01*
G37*
G36*
X-649946Y1153623D02*
X-649946Y1153623D01*
X-649932Y1153621D01*
X-649228Y1153645D01*
X-649220Y1153646D01*
X-649210Y1153645D01*
X-648507Y1153693D01*
X-648499Y1153695D01*
X-648490Y1153695D01*
X-647789Y1153768D01*
X-647777Y1153771D01*
X-647763Y1153771D01*
X-646371Y1153990D01*
X-646360Y1153994D01*
X-646346Y1153995D01*
X-645656Y1154140D01*
X-645649Y1154143D01*
X-645639Y1154144D01*
X-644955Y1154313D01*
X-644945Y1154318D01*
X-644932Y1154319D01*
X-643582Y1154722D01*
X-643573Y1154727D01*
X-643560Y1154730D01*
X-642895Y1154963D01*
X-642886Y1154969D01*
X-642873Y1154971D01*
X-641567Y1155501D01*
X-641558Y1155506D01*
X-641545Y1155510D01*
X-640905Y1155805D01*
X-640897Y1155811D01*
X-640886Y1155815D01*
X-639633Y1156460D01*
X-639623Y1156468D01*
X-639607Y1156474D01*
X-638395Y1157193D01*
X-638388Y1157200D01*
X-638376Y1157205D01*
X-637787Y1157591D01*
X-637782Y1157596D01*
X-637774Y1157600D01*
X-637197Y1158005D01*
X-637191Y1158012D01*
X-637182Y1158016D01*
X-636621Y1158443D01*
X-636616Y1158450D01*
X-636607Y1158455D01*
X-636062Y1158902D01*
X-636057Y1158909D01*
X-636048Y1158914D01*
X-635521Y1159382D01*
X-635513Y1159392D01*
X-635500Y1159402D01*
X-634233Y1160662D01*
X-634210Y1160655D01*
X-632566Y1154809D01*
X-632554Y1154786D01*
X-632549Y1154759D01*
X-632509Y1154698D01*
X-632475Y1154633D01*
X-632455Y1154615D01*
X-632440Y1154593D01*
X-632379Y1154552D01*
X-632322Y1154505D01*
X-632297Y1154497D01*
X-632275Y1154483D01*
X-632170Y1154459D01*
X-632132Y1154447D01*
X-632123Y1154448D01*
X-632112Y1154446D01*
X-631435Y1154409D01*
X-631423Y1154411D01*
X-631408Y1154409D01*
X-616611Y1154409D01*
X-616568Y1154417D01*
X-616474Y1154428D01*
X-615901Y1154591D01*
X-615825Y1154631D01*
X-615746Y1154666D01*
X-615737Y1154676D01*
X-615725Y1154683D01*
X-615670Y1154749D01*
X-615611Y1154812D01*
X-615606Y1154826D01*
X-615598Y1154836D01*
X-615585Y1154877D01*
X-615550Y1154967D01*
X-606557Y1197000D01*
X-606556Y1197096D01*
X-606554Y1197193D01*
X-606555Y1197196D01*
X-606555Y1197199D01*
X-606591Y1197288D01*
X-606627Y1197378D01*
X-606629Y1197380D01*
X-606630Y1197383D01*
X-606646Y1197398D01*
X-606740Y1197500D01*
X-607101Y1197778D01*
X-607173Y1197813D01*
X-607242Y1197854D01*
X-607264Y1197858D01*
X-607279Y1197865D01*
X-607324Y1197868D01*
X-607406Y1197882D01*
X-627136Y1197882D01*
X-627191Y1197871D01*
X-627246Y1197869D01*
X-627287Y1197851D01*
X-627331Y1197842D01*
X-627377Y1197811D01*
X-627427Y1197788D01*
X-627458Y1197755D01*
X-627495Y1197730D01*
X-627525Y1197683D01*
X-627563Y1197642D01*
X-627582Y1197593D01*
X-627602Y1197562D01*
X-627608Y1197529D01*
X-627624Y1197488D01*
X-634143Y1167226D01*
X-634362Y1166723D01*
X-634774Y1166283D01*
X-635267Y1165818D01*
X-635783Y1165371D01*
X-636319Y1164946D01*
X-636860Y1164555D01*
X-637422Y1164230D01*
X-638011Y1163977D01*
X-638624Y1163805D01*
X-639254Y1163718D01*
X-639887Y1163716D01*
X-640489Y1163807D01*
X-641019Y1164015D01*
X-641429Y1164348D01*
X-641701Y1164832D01*
X-641893Y1165422D01*
X-642006Y1166053D01*
X-642045Y1166704D01*
X-642024Y1167371D01*
X-641966Y1168033D01*
X-641570Y1170083D01*
X-641570Y1170085D01*
X-641569Y1170087D01*
X-641061Y1172855D01*
X-640919Y1173535D01*
X-635902Y1196962D01*
X-635901Y1197027D01*
X-635893Y1197072D01*
X-635894Y1197074D01*
X-635891Y1197091D01*
X-635900Y1197125D01*
X-635900Y1197161D01*
X-635924Y1197221D01*
X-635940Y1197284D01*
X-635964Y1197317D01*
X-635975Y1197345D01*
X-636003Y1197373D01*
X-636036Y1197419D01*
X-636351Y1197735D01*
X-636362Y1197742D01*
X-636369Y1197752D01*
X-636444Y1197797D01*
X-636516Y1197845D01*
X-636529Y1197847D01*
X-636540Y1197854D01*
X-636704Y1197882D01*
X-655730Y1197882D01*
X-655750Y1197878D01*
X-655775Y1197880D01*
X-656432Y1197820D01*
X-656464Y1197811D01*
X-656497Y1197810D01*
X-656558Y1197783D01*
X-656622Y1197763D01*
X-656648Y1197742D01*
X-656678Y1197729D01*
X-656724Y1197679D01*
X-656776Y1197637D01*
X-656791Y1197607D01*
X-656814Y1197583D01*
X-656847Y1197500D01*
X-656867Y1197460D01*
X-656868Y1197445D01*
X-656875Y1197428D01*
X-661327Y1176762D01*
X-661783Y1174705D01*
X-662577Y1171274D01*
X-662577Y1171269D01*
X-662580Y1171263D01*
X-662724Y1170573D01*
X-662724Y1170568D01*
X-662726Y1170563D01*
X-662984Y1169178D01*
X-662984Y1169172D01*
X-662986Y1169166D01*
X-663099Y1168470D01*
X-663099Y1168462D01*
X-663101Y1168453D01*
X-663279Y1167055D01*
X-663278Y1167046D01*
X-663281Y1167036D01*
X-663342Y1166334D01*
X-663341Y1166326D01*
X-663343Y1166317D01*
X-663381Y1165614D01*
X-663379Y1165605D01*
X-663381Y1165594D01*
X-663392Y1164890D01*
X-663390Y1164879D01*
X-663392Y1164866D01*
X-663382Y1164588D01*
X-663368Y1164162D01*
X-663365Y1164150D01*
X-663366Y1164134D01*
X-663304Y1163432D01*
X-663300Y1163419D01*
X-663301Y1163403D01*
X-663196Y1162706D01*
X-663191Y1162693D01*
X-663191Y1162675D01*
X-663043Y1161986D01*
X-663037Y1161972D01*
X-663035Y1161954D01*
X-662841Y1161276D01*
X-662834Y1161262D01*
X-662831Y1161243D01*
X-662590Y1160581D01*
X-662582Y1160568D01*
X-662577Y1160548D01*
X-662290Y1159905D01*
X-662289Y1159903D01*
X-662289Y1159901D01*
X-662280Y1159889D01*
X-662274Y1159871D01*
X-661940Y1159251D01*
X-661930Y1159239D01*
X-661922Y1159220D01*
X-661544Y1158625D01*
X-661533Y1158614D01*
X-661524Y1158596D01*
X-661105Y1158030D01*
X-661093Y1158019D01*
X-661083Y1158002D01*
X-660626Y1157467D01*
X-660614Y1157458D01*
X-660604Y1157443D01*
X-660112Y1156938D01*
X-660098Y1156929D01*
X-660085Y1156912D01*
X-659557Y1156446D01*
X-659543Y1156438D01*
X-659529Y1156423D01*
X-658968Y1155997D01*
X-658954Y1155990D01*
X-658940Y1155976D01*
X-658350Y1155590D01*
X-658337Y1155585D01*
X-658323Y1155574D01*
X-657711Y1155226D01*
X-657697Y1155221D01*
X-657682Y1155211D01*
X-657048Y1154903D01*
X-657035Y1154900D01*
X-657021Y1154891D01*
X-656370Y1154622D01*
X-656357Y1154620D01*
X-656343Y1154612D01*
X-655678Y1154381D01*
X-655666Y1154379D01*
X-655652Y1154372D01*
X-654975Y1154177D01*
X-654964Y1154176D01*
X-654951Y1154171D01*
X-654265Y1154009D01*
X-654255Y1154009D01*
X-654243Y1154005D01*
X-653551Y1153875D01*
X-653541Y1153875D01*
X-653530Y1153871D01*
X-652832Y1153771D01*
X-652823Y1153771D01*
X-652813Y1153768D01*
X-652112Y1153695D01*
X-652104Y1153696D01*
X-652094Y1153694D01*
X-651391Y1153647D01*
X-651380Y1153648D01*
X-651366Y1153646D01*
X-649957Y1153621D01*
X-649946Y1153623D01*
G37*
G36*
X-407173Y1153623D02*
X-407173Y1153623D01*
X-407163Y1153622D01*
X-406457Y1153643D01*
X-406449Y1153644D01*
X-406439Y1153643D01*
X-405735Y1153690D01*
X-405727Y1153693D01*
X-405716Y1153692D01*
X-405014Y1153765D01*
X-405007Y1153767D01*
X-404998Y1153767D01*
X-404298Y1153863D01*
X-404291Y1153866D01*
X-404280Y1153866D01*
X-403585Y1153989D01*
X-403578Y1153991D01*
X-403568Y1153992D01*
X-402878Y1154138D01*
X-402871Y1154141D01*
X-402862Y1154142D01*
X-402177Y1154310D01*
X-402169Y1154313D01*
X-402160Y1154314D01*
X-401481Y1154506D01*
X-401474Y1154509D01*
X-401465Y1154511D01*
X-400792Y1154724D01*
X-400783Y1154729D01*
X-400771Y1154732D01*
X-399446Y1155218D01*
X-399437Y1155224D01*
X-399423Y1155227D01*
X-398774Y1155503D01*
X-398764Y1155510D01*
X-398750Y1155514D01*
X-397481Y1156134D01*
X-397473Y1156140D01*
X-397461Y1156144D01*
X-396842Y1156483D01*
X-396836Y1156488D01*
X-396826Y1156491D01*
X-396219Y1156851D01*
X-396211Y1156859D01*
X-396199Y1156864D01*
X-395021Y1157641D01*
X-395013Y1157649D01*
X-395001Y1157655D01*
X-394431Y1158071D01*
X-394426Y1158076D01*
X-394418Y1158081D01*
X-393862Y1158516D01*
X-393857Y1158522D01*
X-393849Y1158526D01*
X-393308Y1158980D01*
X-393301Y1158988D01*
X-393291Y1158995D01*
X-392251Y1159950D01*
X-392245Y1159958D01*
X-392235Y1159966D01*
X-391760Y1160444D01*
X-391500Y1160647D01*
X-391464Y1160630D01*
X-389996Y1155412D01*
X-389990Y1155400D01*
X-389988Y1155383D01*
X-389766Y1154744D01*
X-389753Y1154722D01*
X-389747Y1154698D01*
X-389703Y1154638D01*
X-389664Y1154573D01*
X-389644Y1154558D01*
X-389629Y1154538D01*
X-389565Y1154500D01*
X-389504Y1154455D01*
X-389480Y1154449D01*
X-389458Y1154436D01*
X-389348Y1154418D01*
X-389311Y1154409D01*
X-389303Y1154410D01*
X-389294Y1154409D01*
X-373763Y1154409D01*
X-373668Y1154428D01*
X-373570Y1154447D01*
X-373569Y1154448D01*
X-373568Y1154448D01*
X-373561Y1154453D01*
X-373430Y1154536D01*
X-373021Y1154904D01*
X-372977Y1154963D01*
X-372928Y1155016D01*
X-372916Y1155044D01*
X-372902Y1155063D01*
X-372892Y1155106D01*
X-372866Y1155171D01*
X-368295Y1176572D01*
X-368295Y1176579D01*
X-368292Y1176587D01*
X-368166Y1177282D01*
X-368166Y1177291D01*
X-368163Y1177300D01*
X-367963Y1178698D01*
X-367964Y1178705D01*
X-367961Y1178713D01*
X-367650Y1181520D01*
X-367650Y1181527D01*
X-367648Y1181537D01*
X-367540Y1182944D01*
X-367541Y1182955D01*
X-367539Y1182969D01*
X-367501Y1184380D01*
X-367503Y1184391D01*
X-367501Y1184403D01*
X-367515Y1185109D01*
X-367517Y1185117D01*
X-367516Y1185127D01*
X-367554Y1185832D01*
X-367557Y1185840D01*
X-367556Y1185850D01*
X-367621Y1186553D01*
X-367624Y1186562D01*
X-367623Y1186573D01*
X-367717Y1187273D01*
X-367720Y1187282D01*
X-367720Y1187294D01*
X-367843Y1187989D01*
X-367847Y1187998D01*
X-367848Y1188011D01*
X-368003Y1188700D01*
X-368008Y1188710D01*
X-368009Y1188723D01*
X-368198Y1189404D01*
X-368203Y1189414D01*
X-368205Y1189428D01*
X-368428Y1190098D01*
X-368435Y1190109D01*
X-368438Y1190124D01*
X-368699Y1190780D01*
X-368709Y1190794D01*
X-368715Y1190815D01*
X-369025Y1191449D01*
X-369035Y1191462D01*
X-369043Y1191482D01*
X-369400Y1192091D01*
X-369411Y1192103D01*
X-369420Y1192122D01*
X-369822Y1192702D01*
X-369834Y1192713D01*
X-369844Y1192731D01*
X-370286Y1193281D01*
X-370298Y1193291D01*
X-370309Y1193307D01*
X-370789Y1193825D01*
X-370800Y1193833D01*
X-370810Y1193847D01*
X-371321Y1194334D01*
X-371333Y1194341D01*
X-371343Y1194354D01*
X-371882Y1194809D01*
X-371893Y1194815D01*
X-371904Y1194827D01*
X-372467Y1195252D01*
X-372480Y1195258D01*
X-372493Y1195270D01*
X-373081Y1195659D01*
X-373093Y1195663D01*
X-373104Y1195673D01*
X-373713Y1196030D01*
X-373723Y1196034D01*
X-373734Y1196042D01*
X-374359Y1196369D01*
X-374369Y1196372D01*
X-374380Y1196379D01*
X-375020Y1196677D01*
X-375029Y1196679D01*
X-375039Y1196685D01*
X-375690Y1196957D01*
X-375698Y1196959D01*
X-375707Y1196964D01*
X-376368Y1197212D01*
X-376379Y1197213D01*
X-376392Y1197220D01*
X-377736Y1197648D01*
X-377746Y1197649D01*
X-377757Y1197654D01*
X-378438Y1197840D01*
X-378447Y1197841D01*
X-378458Y1197845D01*
X-379834Y1198160D01*
X-379845Y1198161D01*
X-379857Y1198165D01*
X-381247Y1198414D01*
X-381256Y1198414D01*
X-381267Y1198417D01*
X-382666Y1198607D01*
X-382674Y1198607D01*
X-382683Y1198609D01*
X-384088Y1198752D01*
X-384094Y1198751D01*
X-384102Y1198753D01*
X-385510Y1198855D01*
X-385516Y1198855D01*
X-385523Y1198856D01*
X-386933Y1198922D01*
X-386939Y1198921D01*
X-386946Y1198923D01*
X-389064Y1198966D01*
X-389070Y1198965D01*
X-389078Y1198966D01*
X-391196Y1198948D01*
X-391202Y1198947D01*
X-391209Y1198948D01*
X-392620Y1198899D01*
X-392625Y1198897D01*
X-392631Y1198898D01*
X-394041Y1198817D01*
X-394046Y1198816D01*
X-394052Y1198816D01*
X-395459Y1198702D01*
X-395465Y1198700D01*
X-395472Y1198700D01*
X-396876Y1198550D01*
X-396882Y1198548D01*
X-396889Y1198549D01*
X-398288Y1198361D01*
X-398295Y1198359D01*
X-398303Y1198359D01*
X-399696Y1198130D01*
X-399703Y1198128D01*
X-399711Y1198127D01*
X-401097Y1197856D01*
X-401101Y1197854D01*
X-401108Y1197854D01*
X-402487Y1197551D01*
X-402493Y1197548D01*
X-402501Y1197548D01*
X-403870Y1197203D01*
X-403877Y1197200D01*
X-403887Y1197199D01*
X-405243Y1196808D01*
X-405250Y1196805D01*
X-405259Y1196804D01*
X-406602Y1196368D01*
X-406609Y1196365D01*
X-406618Y1196363D01*
X-407946Y1195884D01*
X-407952Y1195880D01*
X-407961Y1195878D01*
X-409273Y1195356D01*
X-409279Y1195352D01*
X-409287Y1195350D01*
X-410582Y1194788D01*
X-410588Y1194784D01*
X-410596Y1194781D01*
X-411873Y1194179D01*
X-411910Y1194152D01*
X-411952Y1194133D01*
X-411989Y1194093D01*
X-412032Y1194060D01*
X-412056Y1194020D01*
X-412087Y1193986D01*
X-412111Y1193925D01*
X-412133Y1193889D01*
X-412136Y1193863D01*
X-412148Y1193832D01*
X-412289Y1193171D01*
X-413911Y1185576D01*
X-413911Y1185535D01*
X-413920Y1185432D01*
X-413876Y1184896D01*
X-413852Y1184812D01*
X-413832Y1184726D01*
X-413824Y1184717D01*
X-413821Y1184705D01*
X-413766Y1184637D01*
X-413714Y1184566D01*
X-413703Y1184560D01*
X-413696Y1184551D01*
X-413618Y1184509D01*
X-413543Y1184465D01*
X-413530Y1184463D01*
X-413520Y1184457D01*
X-413478Y1184454D01*
X-413379Y1184437D01*
X-399260Y1184437D01*
X-399259Y1184437D01*
X-399258Y1184437D01*
X-399163Y1184457D01*
X-399065Y1184477D01*
X-399064Y1184477D01*
X-399063Y1184477D01*
X-398985Y1184531D01*
X-398901Y1184589D01*
X-398901Y1184590D01*
X-398900Y1184591D01*
X-398806Y1184728D01*
X-398553Y1185279D01*
X-398545Y1185317D01*
X-398522Y1185368D01*
X-398358Y1186039D01*
X-398158Y1186684D01*
X-397919Y1187313D01*
X-397638Y1187922D01*
X-397315Y1188507D01*
X-396950Y1189066D01*
X-396550Y1189584D01*
X-396098Y1190036D01*
X-395591Y1190421D01*
X-395033Y1190734D01*
X-394435Y1190978D01*
X-393806Y1191155D01*
X-393156Y1191271D01*
X-392491Y1191335D01*
X-391820Y1191351D01*
X-391154Y1191321D01*
X-390504Y1191236D01*
X-389889Y1191080D01*
X-389330Y1190837D01*
X-388860Y1190495D01*
X-388486Y1190024D01*
X-388159Y1189471D01*
X-387896Y1188881D01*
X-387709Y1188265D01*
X-387599Y1187630D01*
X-387564Y1186975D01*
X-387582Y1186301D01*
X-387630Y1185619D01*
X-387792Y1184242D01*
X-388244Y1181618D01*
X-388371Y1181481D01*
X-390979Y1181455D01*
X-390983Y1181455D01*
X-390987Y1181455D01*
X-393810Y1181381D01*
X-393814Y1181380D01*
X-393818Y1181381D01*
X-396640Y1181261D01*
X-396643Y1181260D01*
X-396648Y1181260D01*
X-399467Y1181093D01*
X-399473Y1181091D01*
X-399481Y1181092D01*
X-401590Y1180905D01*
X-401598Y1180903D01*
X-401609Y1180903D01*
X-403009Y1180728D01*
X-403016Y1180726D01*
X-403025Y1180726D01*
X-404420Y1180506D01*
X-404427Y1180503D01*
X-404436Y1180503D01*
X-405823Y1180236D01*
X-405830Y1180233D01*
X-405840Y1180232D01*
X-407216Y1179915D01*
X-407222Y1179913D01*
X-407229Y1179912D01*
X-407913Y1179734D01*
X-407919Y1179731D01*
X-407927Y1179730D01*
X-409282Y1179335D01*
X-409290Y1179331D01*
X-409300Y1179329D01*
X-410639Y1178883D01*
X-410647Y1178878D01*
X-410658Y1178876D01*
X-411318Y1178627D01*
X-411325Y1178623D01*
X-411334Y1178621D01*
X-411985Y1178350D01*
X-411993Y1178345D01*
X-412003Y1178342D01*
X-412644Y1178047D01*
X-412650Y1178042D01*
X-412660Y1178039D01*
X-413290Y1177721D01*
X-413297Y1177715D01*
X-413308Y1177711D01*
X-413924Y1177367D01*
X-413931Y1177362D01*
X-413942Y1177357D01*
X-414544Y1176989D01*
X-414551Y1176983D01*
X-414562Y1176978D01*
X-415148Y1176585D01*
X-415155Y1176578D01*
X-415166Y1176572D01*
X-415734Y1176153D01*
X-415741Y1176146D01*
X-415752Y1176140D01*
X-416301Y1175697D01*
X-416308Y1175689D01*
X-416318Y1175682D01*
X-416847Y1175215D01*
X-416853Y1175206D01*
X-416864Y1175199D01*
X-417370Y1174707D01*
X-417377Y1174698D01*
X-417388Y1174690D01*
X-417869Y1174173D01*
X-417877Y1174160D01*
X-417893Y1174147D01*
X-418336Y1173597D01*
X-418344Y1173582D01*
X-418359Y1173567D01*
X-418759Y1172985D01*
X-418765Y1172970D01*
X-418779Y1172954D01*
X-419134Y1172344D01*
X-419139Y1172329D01*
X-419151Y1172312D01*
X-419461Y1171678D01*
X-419465Y1171663D01*
X-419475Y1171647D01*
X-419741Y1170993D01*
X-419744Y1170979D01*
X-419753Y1170962D01*
X-419975Y1170292D01*
X-419976Y1170278D01*
X-419983Y1170263D01*
X-420165Y1169581D01*
X-420165Y1169568D01*
X-420171Y1169553D01*
X-420313Y1168862D01*
X-420313Y1168850D01*
X-420318Y1168836D01*
X-420423Y1168138D01*
X-420423Y1168127D01*
X-420426Y1168115D01*
X-420498Y1167412D01*
X-420497Y1167403D01*
X-420500Y1167391D01*
X-420542Y1166686D01*
X-420540Y1166677D01*
X-420542Y1166666D01*
X-420555Y1165960D01*
X-420553Y1165951D01*
X-420555Y1165940D01*
X-420540Y1165235D01*
X-420538Y1165225D01*
X-420539Y1165214D01*
X-420494Y1164509D01*
X-420491Y1164499D01*
X-420492Y1164486D01*
X-420414Y1163785D01*
X-420411Y1163774D01*
X-420411Y1163759D01*
X-420298Y1163063D01*
X-420293Y1163051D01*
X-420293Y1163035D01*
X-420140Y1162346D01*
X-420135Y1162333D01*
X-420133Y1162317D01*
X-419939Y1161638D01*
X-419932Y1161625D01*
X-419929Y1161606D01*
X-419690Y1160942D01*
X-419682Y1160928D01*
X-419676Y1160907D01*
X-419389Y1160263D01*
X-419378Y1160249D01*
X-419371Y1160228D01*
X-419034Y1159608D01*
X-419025Y1159598D01*
X-419019Y1159583D01*
X-418647Y1158984D01*
X-418637Y1158973D01*
X-418629Y1158957D01*
X-418219Y1158383D01*
X-418209Y1158373D01*
X-418201Y1158358D01*
X-417756Y1157810D01*
X-417745Y1157801D01*
X-417735Y1157785D01*
X-417256Y1157267D01*
X-417244Y1157259D01*
X-417234Y1157244D01*
X-416722Y1156758D01*
X-416714Y1156753D01*
X-416709Y1156746D01*
X-416701Y1156741D01*
X-416692Y1156731D01*
X-416143Y1156288D01*
X-416128Y1156280D01*
X-416112Y1156265D01*
X-415531Y1155865D01*
X-415519Y1155860D01*
X-415506Y1155849D01*
X-414902Y1155484D01*
X-414890Y1155479D01*
X-414877Y1155470D01*
X-414253Y1155140D01*
X-414240Y1155137D01*
X-414227Y1155128D01*
X-413585Y1154834D01*
X-413573Y1154832D01*
X-413560Y1154824D01*
X-412903Y1154566D01*
X-412891Y1154564D01*
X-412878Y1154557D01*
X-412209Y1154334D01*
X-412198Y1154333D01*
X-412185Y1154327D01*
X-411505Y1154137D01*
X-411496Y1154136D01*
X-411485Y1154132D01*
X-410798Y1153971D01*
X-410787Y1153971D01*
X-410776Y1153966D01*
X-410082Y1153836D01*
X-410072Y1153837D01*
X-410060Y1153833D01*
X-409361Y1153734D01*
X-409351Y1153735D01*
X-409339Y1153732D01*
X-408637Y1153664D01*
X-408626Y1153665D01*
X-408614Y1153662D01*
X-407909Y1153627D01*
X-407899Y1153628D01*
X-407887Y1153626D01*
X-407181Y1153622D01*
X-407173Y1153623D01*
G37*
G36*
X-142962Y1153623D02*
X-142962Y1153623D01*
X-142953Y1153622D01*
X-140840Y1153687D01*
X-140831Y1153689D01*
X-140821Y1153688D01*
X-138712Y1153832D01*
X-138708Y1153833D01*
X-138704Y1153833D01*
X-136598Y1154010D01*
X-136594Y1154011D01*
X-136590Y1154011D01*
X-135187Y1154151D01*
X-135182Y1154153D01*
X-135175Y1154153D01*
X-133776Y1154328D01*
X-133771Y1154330D01*
X-133764Y1154330D01*
X-132370Y1154540D01*
X-132363Y1154543D01*
X-132355Y1154543D01*
X-131662Y1154671D01*
X-131654Y1154674D01*
X-131645Y1154674D01*
X-130957Y1154826D01*
X-130952Y1154828D01*
X-130946Y1154828D01*
X-129576Y1155163D01*
X-129570Y1155166D01*
X-129561Y1155167D01*
X-128203Y1155544D01*
X-128198Y1155547D01*
X-128191Y1155548D01*
X-127517Y1155754D01*
X-127512Y1155756D01*
X-127505Y1155757D01*
X-126168Y1156203D01*
X-126158Y1156209D01*
X-126145Y1156212D01*
X-124832Y1156725D01*
X-124823Y1156731D01*
X-124810Y1156734D01*
X-124167Y1157021D01*
X-124161Y1157025D01*
X-124152Y1157028D01*
X-123518Y1157336D01*
X-123512Y1157340D01*
X-123502Y1157343D01*
X-122880Y1157673D01*
X-122873Y1157679D01*
X-122863Y1157683D01*
X-122253Y1158036D01*
X-122224Y1158062D01*
X-122174Y1158093D01*
X-121671Y1158535D01*
X-121629Y1158590D01*
X-121581Y1158639D01*
X-121567Y1158672D01*
X-121551Y1158693D01*
X-121541Y1158733D01*
X-121516Y1158792D01*
X-119019Y1169064D01*
X-119016Y1169159D01*
X-119011Y1169259D01*
X-119012Y1169261D01*
X-119012Y1169263D01*
X-119046Y1169353D01*
X-119081Y1169445D01*
X-119082Y1169447D01*
X-119083Y1169448D01*
X-119151Y1169519D01*
X-119217Y1169590D01*
X-119219Y1169591D01*
X-119220Y1169592D01*
X-119233Y1169598D01*
X-119367Y1169662D01*
X-119884Y1169809D01*
X-119928Y1169813D01*
X-120021Y1169829D01*
X-135525Y1169829D01*
X-135599Y1169814D01*
X-135674Y1169806D01*
X-135696Y1169794D01*
X-135720Y1169789D01*
X-135782Y1169746D01*
X-135848Y1169710D01*
X-135866Y1169689D01*
X-135884Y1169677D01*
X-135908Y1169639D01*
X-135956Y1169583D01*
X-136271Y1169048D01*
X-136283Y1169014D01*
X-136308Y1168969D01*
X-136550Y1168321D01*
X-136820Y1167701D01*
X-137124Y1167097D01*
X-137464Y1166510D01*
X-137838Y1165934D01*
X-138221Y1165360D01*
X-138626Y1164815D01*
X-139058Y1164295D01*
X-139520Y1163800D01*
X-140011Y1163325D01*
X-140514Y1162872D01*
X-141041Y1162464D01*
X-141597Y1162102D01*
X-142181Y1161788D01*
X-142772Y1161529D01*
X-143365Y1161372D01*
X-143966Y1161342D01*
X-144553Y1161427D01*
X-145063Y1161635D01*
X-145468Y1162008D01*
X-145817Y1162520D01*
X-146112Y1163075D01*
X-146295Y1163679D01*
X-146427Y1164330D01*
X-146517Y1164996D01*
X-146612Y1166374D01*
X-146627Y1167057D01*
X-146609Y1168453D01*
X-146531Y1170538D01*
X-146281Y1172606D01*
X-146010Y1174268D01*
X-145968Y1174276D01*
X-145901Y1174281D01*
X-145898Y1174282D01*
X-145881Y1174279D01*
X-145841Y1174266D01*
X-145816Y1174268D01*
X-145784Y1174263D01*
X-119129Y1174263D01*
X-119127Y1174263D01*
X-118966Y1174291D01*
X-118368Y1174498D01*
X-118300Y1174539D01*
X-118228Y1174573D01*
X-118213Y1174590D01*
X-118197Y1174599D01*
X-118170Y1174635D01*
X-118115Y1174695D01*
X-117728Y1175284D01*
X-117723Y1175295D01*
X-117714Y1175307D01*
X-117359Y1175916D01*
X-117355Y1175927D01*
X-117347Y1175938D01*
X-117024Y1176564D01*
X-117021Y1176575D01*
X-117013Y1176586D01*
X-116720Y1177227D01*
X-116718Y1177237D01*
X-116711Y1177247D01*
X-116448Y1177901D01*
X-116447Y1177903D01*
X-116446Y1177906D01*
X-116445Y1177913D01*
X-116440Y1177921D01*
X-116205Y1178585D01*
X-116203Y1178594D01*
X-116199Y1178603D01*
X-115989Y1179276D01*
X-115988Y1179285D01*
X-115984Y1179294D01*
X-115800Y1179974D01*
X-115799Y1179985D01*
X-115794Y1179996D01*
X-115488Y1181372D01*
X-115488Y1181383D01*
X-115483Y1181396D01*
X-115247Y1182786D01*
X-115247Y1182799D01*
X-115243Y1182814D01*
X-115086Y1184214D01*
X-115087Y1184225D01*
X-115084Y1184239D01*
X-115040Y1184942D01*
X-115041Y1184950D01*
X-115039Y1184960D01*
X-115020Y1185664D01*
X-115021Y1185673D01*
X-115020Y1185684D01*
X-115029Y1186389D01*
X-115031Y1186398D01*
X-115030Y1186410D01*
X-115070Y1187114D01*
X-115072Y1187124D01*
X-115071Y1187138D01*
X-115145Y1187839D01*
X-115149Y1187850D01*
X-115149Y1187865D01*
X-115260Y1188561D01*
X-115265Y1188573D01*
X-115266Y1188589D01*
X-115417Y1189277D01*
X-115422Y1189290D01*
X-115424Y1189307D01*
X-115617Y1189984D01*
X-115624Y1189997D01*
X-115627Y1190016D01*
X-115863Y1190679D01*
X-115871Y1190692D01*
X-115876Y1190711D01*
X-116157Y1191357D01*
X-116167Y1191370D01*
X-116173Y1191389D01*
X-116500Y1192013D01*
X-116511Y1192026D01*
X-116519Y1192045D01*
X-116891Y1192643D01*
X-116903Y1192655D01*
X-116912Y1192674D01*
X-117328Y1193242D01*
X-117340Y1193254D01*
X-117351Y1193271D01*
X-117808Y1193808D01*
X-117820Y1193818D01*
X-117832Y1193834D01*
X-118326Y1194336D01*
X-118339Y1194345D01*
X-118351Y1194360D01*
X-118879Y1194826D01*
X-118892Y1194834D01*
X-118905Y1194847D01*
X-119462Y1195278D01*
X-119475Y1195284D01*
X-119487Y1195296D01*
X-120071Y1195692D01*
X-120081Y1195696D01*
X-120092Y1195705D01*
X-120695Y1196070D01*
X-120705Y1196074D01*
X-120716Y1196082D01*
X-121336Y1196417D01*
X-121346Y1196420D01*
X-121357Y1196428D01*
X-121992Y1196734D01*
X-122002Y1196736D01*
X-122012Y1196743D01*
X-122660Y1197020D01*
X-122669Y1197021D01*
X-122678Y1197027D01*
X-123337Y1197278D01*
X-123344Y1197279D01*
X-123353Y1197284D01*
X-124020Y1197512D01*
X-124028Y1197513D01*
X-124036Y1197517D01*
X-124711Y1197722D01*
X-124721Y1197723D01*
X-124732Y1197728D01*
X-126097Y1198077D01*
X-126109Y1198077D01*
X-126123Y1198083D01*
X-127505Y1198359D01*
X-127513Y1198359D01*
X-127522Y1198362D01*
X-128217Y1198477D01*
X-128224Y1198477D01*
X-128232Y1198479D01*
X-129629Y1198666D01*
X-129635Y1198666D01*
X-129643Y1198668D01*
X-130344Y1198741D01*
X-130349Y1198741D01*
X-130356Y1198742D01*
X-131760Y1198856D01*
X-131767Y1198855D01*
X-131776Y1198857D01*
X-133183Y1198928D01*
X-133189Y1198927D01*
X-133196Y1198928D01*
X-134605Y1198963D01*
X-134610Y1198962D01*
X-134617Y1198963D01*
X-136027Y1198963D01*
X-136031Y1198962D01*
X-136036Y1198963D01*
X-137445Y1198938D01*
X-137450Y1198937D01*
X-137456Y1198938D01*
X-138864Y1198882D01*
X-138869Y1198881D01*
X-138875Y1198881D01*
X-140282Y1198793D01*
X-140287Y1198791D01*
X-140293Y1198792D01*
X-141698Y1198671D01*
X-141705Y1198669D01*
X-141715Y1198670D01*
X-143813Y1198416D01*
X-143822Y1198413D01*
X-143832Y1198413D01*
X-145224Y1198191D01*
X-145231Y1198188D01*
X-145241Y1198188D01*
X-146624Y1197918D01*
X-146632Y1197915D01*
X-146642Y1197914D01*
X-148015Y1197593D01*
X-148021Y1197590D01*
X-148029Y1197589D01*
X-148710Y1197409D01*
X-148717Y1197405D01*
X-148727Y1197404D01*
X-150075Y1196996D01*
X-150082Y1196992D01*
X-150092Y1196990D01*
X-150759Y1196763D01*
X-150766Y1196759D01*
X-150777Y1196757D01*
X-152092Y1196251D01*
X-152098Y1196247D01*
X-152106Y1196245D01*
X-152756Y1195973D01*
X-152760Y1195970D01*
X-152765Y1195969D01*
X-153409Y1195684D01*
X-153416Y1195679D01*
X-153426Y1195677D01*
X-154693Y1195061D01*
X-154702Y1195054D01*
X-154715Y1195049D01*
X-155951Y1194371D01*
X-155960Y1194363D01*
X-155974Y1194358D01*
X-157171Y1193614D01*
X-157178Y1193607D01*
X-157189Y1193602D01*
X-157771Y1193205D01*
X-157776Y1193200D01*
X-157784Y1193196D01*
X-158353Y1192781D01*
X-158358Y1192775D01*
X-158366Y1192771D01*
X-158922Y1192338D01*
X-158927Y1192333D01*
X-158934Y1192328D01*
X-159476Y1191877D01*
X-159481Y1191871D01*
X-159489Y1191867D01*
X-160015Y1191398D01*
X-160020Y1191391D01*
X-160028Y1191386D01*
X-160537Y1190899D01*
X-160542Y1190893D01*
X-160549Y1190888D01*
X-161042Y1190384D01*
X-161046Y1190378D01*
X-161053Y1190373D01*
X-161530Y1189854D01*
X-161534Y1189848D01*
X-161540Y1189842D01*
X-162001Y1189309D01*
X-162004Y1189302D01*
X-162011Y1189297D01*
X-162454Y1188749D01*
X-162458Y1188742D01*
X-162464Y1188736D01*
X-162889Y1188174D01*
X-162893Y1188167D01*
X-162899Y1188160D01*
X-163305Y1187584D01*
X-163308Y1187577D01*
X-163314Y1187570D01*
X-163701Y1186981D01*
X-163704Y1186974D01*
X-163710Y1186967D01*
X-164076Y1186365D01*
X-164079Y1186358D01*
X-164085Y1186350D01*
X-164430Y1185736D01*
X-164433Y1185728D01*
X-164438Y1185721D01*
X-164763Y1185096D01*
X-164765Y1185088D01*
X-164770Y1185081D01*
X-165074Y1184444D01*
X-165075Y1184437D01*
X-165081Y1184429D01*
X-165362Y1183782D01*
X-165363Y1183775D01*
X-165368Y1183767D01*
X-165628Y1183112D01*
X-165629Y1183105D01*
X-165633Y1183097D01*
X-165872Y1182434D01*
X-165873Y1182421D01*
X-165881Y1182406D01*
X-166278Y1181054D01*
X-166279Y1181046D01*
X-166283Y1181038D01*
X-166459Y1180356D01*
X-166459Y1180351D01*
X-166462Y1180345D01*
X-166623Y1179659D01*
X-166624Y1179652D01*
X-166627Y1179643D01*
X-166904Y1178261D01*
X-166904Y1178253D01*
X-166907Y1178243D01*
X-167020Y1177548D01*
X-167020Y1177540D01*
X-167023Y1177531D01*
X-167203Y1176134D01*
X-167202Y1176124D01*
X-167205Y1176111D01*
X-167323Y1174707D01*
X-167322Y1174699D01*
X-167324Y1174690D01*
X-167358Y1173986D01*
X-167357Y1173978D01*
X-167359Y1173969D01*
X-167379Y1172560D01*
X-167377Y1172552D01*
X-167379Y1172543D01*
X-167365Y1171838D01*
X-167363Y1171830D01*
X-167365Y1171820D01*
X-167286Y1170413D01*
X-167283Y1170402D01*
X-167284Y1170387D01*
X-167131Y1168986D01*
X-167127Y1168976D01*
X-167127Y1168963D01*
X-167018Y1168266D01*
X-167015Y1168259D01*
X-167015Y1168250D01*
X-166883Y1167558D01*
X-166880Y1167551D01*
X-166879Y1167541D01*
X-166722Y1166854D01*
X-166718Y1166846D01*
X-166717Y1166836D01*
X-166535Y1166155D01*
X-166530Y1166147D01*
X-166529Y1166135D01*
X-166318Y1165463D01*
X-166314Y1165455D01*
X-166312Y1165443D01*
X-166073Y1164780D01*
X-166068Y1164771D01*
X-166065Y1164759D01*
X-165797Y1164107D01*
X-165789Y1164097D01*
X-165785Y1164082D01*
X-165480Y1163446D01*
X-165471Y1163435D01*
X-165465Y1163417D01*
X-165119Y1162803D01*
X-165113Y1162796D01*
X-165108Y1162786D01*
X-164738Y1162187D01*
X-164731Y1162180D01*
X-164726Y1162170D01*
X-164331Y1161586D01*
X-164324Y1161579D01*
X-164318Y1161568D01*
X-163897Y1161003D01*
X-163890Y1160996D01*
X-163884Y1160986D01*
X-163438Y1160440D01*
X-163430Y1160433D01*
X-163424Y1160423D01*
X-162954Y1159897D01*
X-162945Y1159891D01*
X-162938Y1159881D01*
X-162445Y1159377D01*
X-162436Y1159371D01*
X-162428Y1159361D01*
X-161912Y1158881D01*
X-161904Y1158876D01*
X-161895Y1158866D01*
X-161358Y1158410D01*
X-161348Y1158406D01*
X-161340Y1158396D01*
X-160782Y1157966D01*
X-160772Y1157961D01*
X-160763Y1157952D01*
X-160185Y1157548D01*
X-160178Y1157545D01*
X-160170Y1157538D01*
X-159578Y1157156D01*
X-159569Y1157152D01*
X-159560Y1157145D01*
X-158952Y1156788D01*
X-158944Y1156786D01*
X-158936Y1156779D01*
X-158315Y1156445D01*
X-158307Y1156443D01*
X-158299Y1156437D01*
X-157666Y1156127D01*
X-157658Y1156125D01*
X-157649Y1156119D01*
X-157005Y1155833D01*
X-156998Y1155831D01*
X-156990Y1155826D01*
X-156337Y1155561D01*
X-156325Y1155559D01*
X-156312Y1155552D01*
X-154980Y1155092D01*
X-154970Y1155091D01*
X-154958Y1155085D01*
X-154281Y1154887D01*
X-154274Y1154886D01*
X-154266Y1154883D01*
X-153584Y1154706D01*
X-153575Y1154706D01*
X-153565Y1154702D01*
X-152187Y1154403D01*
X-152180Y1154403D01*
X-152171Y1154400D01*
X-151478Y1154273D01*
X-151472Y1154273D01*
X-151466Y1154271D01*
X-150073Y1154053D01*
X-150067Y1154054D01*
X-150060Y1154051D01*
X-149361Y1153961D01*
X-149356Y1153961D01*
X-149349Y1153959D01*
X-147947Y1153812D01*
X-147939Y1153813D01*
X-147929Y1153811D01*
X-145819Y1153670D01*
X-145811Y1153672D01*
X-145801Y1153670D01*
X-144393Y1153627D01*
X-144387Y1153628D01*
X-144379Y1153627D01*
X-142970Y1153622D01*
X-142962Y1153623D01*
G37*
G36*
X-337569Y1153641D02*
X-337569Y1153641D01*
X-337564Y1153642D01*
X-337557Y1153641D01*
X-336147Y1153688D01*
X-336143Y1153689D01*
X-336137Y1153688D01*
X-334729Y1153763D01*
X-334724Y1153764D01*
X-334718Y1153763D01*
X-333311Y1153868D01*
X-333305Y1153870D01*
X-333299Y1153869D01*
X-331895Y1154009D01*
X-331889Y1154011D01*
X-331882Y1154011D01*
X-330482Y1154188D01*
X-330475Y1154190D01*
X-330465Y1154190D01*
X-327680Y1154640D01*
X-327672Y1154643D01*
X-327661Y1154643D01*
X-326278Y1154921D01*
X-326270Y1154924D01*
X-326260Y1154925D01*
X-324888Y1155252D01*
X-324881Y1155256D01*
X-324871Y1155257D01*
X-323511Y1155634D01*
X-323506Y1155637D01*
X-323498Y1155638D01*
X-322824Y1155844D01*
X-322818Y1155848D01*
X-322810Y1155849D01*
X-321474Y1156303D01*
X-321467Y1156307D01*
X-321457Y1156309D01*
X-320139Y1156812D01*
X-320082Y1156848D01*
X-320022Y1156876D01*
X-319999Y1156901D01*
X-319971Y1156919D01*
X-319933Y1156973D01*
X-319888Y1157023D01*
X-319874Y1157058D01*
X-319858Y1157082D01*
X-319850Y1157122D01*
X-319828Y1157178D01*
X-316985Y1170997D01*
X-316985Y1171009D01*
X-316981Y1171020D01*
X-316983Y1171068D01*
X-316976Y1171110D01*
X-316985Y1171147D01*
X-316985Y1171196D01*
X-316989Y1171207D01*
X-316990Y1171219D01*
X-317014Y1171269D01*
X-317022Y1171303D01*
X-317041Y1171329D01*
X-317062Y1171379D01*
X-317071Y1171387D01*
X-317076Y1171398D01*
X-317122Y1171439D01*
X-317140Y1171464D01*
X-317163Y1171477D01*
X-317205Y1171517D01*
X-317216Y1171522D01*
X-317225Y1171530D01*
X-317297Y1171557D01*
X-317311Y1171565D01*
X-317326Y1171568D01*
X-317381Y1171588D01*
X-317953Y1171697D01*
X-317991Y1171696D01*
X-318046Y1171705D01*
X-331449Y1171705D01*
X-331450Y1171705D01*
X-331452Y1171705D01*
X-331548Y1171685D01*
X-331644Y1171666D01*
X-331645Y1171665D01*
X-331647Y1171665D01*
X-331728Y1171608D01*
X-331808Y1171553D01*
X-331808Y1171552D01*
X-331810Y1171551D01*
X-331903Y1171413D01*
X-332160Y1170851D01*
X-332168Y1170815D01*
X-332189Y1170768D01*
X-332362Y1170093D01*
X-332555Y1169432D01*
X-332772Y1168783D01*
X-333016Y1168143D01*
X-333286Y1167517D01*
X-333586Y1166907D01*
X-333919Y1166307D01*
X-334272Y1165718D01*
X-334647Y1165141D01*
X-335040Y1164583D01*
X-335458Y1164047D01*
X-335896Y1163545D01*
X-336380Y1163092D01*
X-336898Y1162671D01*
X-337444Y1162295D01*
X-338019Y1161972D01*
X-338621Y1161703D01*
X-339237Y1161493D01*
X-339856Y1161364D01*
X-340463Y1161343D01*
X-341024Y1161446D01*
X-341498Y1161701D01*
X-341888Y1162123D01*
X-342221Y1162650D01*
X-342478Y1163222D01*
X-342638Y1163847D01*
X-342759Y1164508D01*
X-342838Y1165177D01*
X-342917Y1166557D01*
X-342925Y1167944D01*
X-342870Y1169334D01*
X-342771Y1170727D01*
X-342633Y1172118D01*
X-342465Y1173507D01*
X-342259Y1174884D01*
X-341865Y1176942D01*
X-341384Y1178983D01*
X-341015Y1180327D01*
X-340604Y1181663D01*
X-340385Y1182318D01*
X-340145Y1182962D01*
X-339613Y1184246D01*
X-339017Y1185497D01*
X-338695Y1186104D01*
X-338352Y1186702D01*
X-337992Y1187289D01*
X-337610Y1187860D01*
X-337209Y1188419D01*
X-336793Y1188960D01*
X-336353Y1189465D01*
X-335880Y1189924D01*
X-335370Y1190331D01*
X-334823Y1190674D01*
X-334243Y1190943D01*
X-333636Y1191130D01*
X-333008Y1191231D01*
X-332390Y1191245D01*
X-331823Y1191138D01*
X-331337Y1190884D01*
X-330947Y1190484D01*
X-330653Y1189966D01*
X-330444Y1189372D01*
X-330301Y1188732D01*
X-330206Y1188065D01*
X-330146Y1187387D01*
X-330113Y1186703D01*
X-330106Y1185312D01*
X-330148Y1183919D01*
X-330379Y1180409D01*
X-330369Y1180335D01*
X-330366Y1180261D01*
X-330356Y1180238D01*
X-330352Y1180212D01*
X-330314Y1180148D01*
X-330283Y1180080D01*
X-330262Y1180060D01*
X-330250Y1180041D01*
X-330215Y1180015D01*
X-330163Y1179965D01*
X-329756Y1179685D01*
X-329695Y1179659D01*
X-329637Y1179625D01*
X-329599Y1179618D01*
X-329573Y1179607D01*
X-329533Y1179607D01*
X-329473Y1179597D01*
X-316776Y1179597D01*
X-316767Y1179599D01*
X-316758Y1179597D01*
X-316670Y1179619D01*
X-316581Y1179637D01*
X-316574Y1179642D01*
X-316565Y1179644D01*
X-316428Y1179738D01*
X-316032Y1180123D01*
X-315997Y1180174D01*
X-315955Y1180220D01*
X-315938Y1180261D01*
X-315920Y1180287D01*
X-315913Y1180324D01*
X-315892Y1180374D01*
X-313330Y1192089D01*
X-313329Y1192127D01*
X-313319Y1192179D01*
X-313296Y1192836D01*
X-313297Y1192843D01*
X-313296Y1192850D01*
X-313314Y1192941D01*
X-313329Y1193032D01*
X-313333Y1193038D01*
X-313334Y1193045D01*
X-313423Y1193186D01*
X-313894Y1193711D01*
X-313903Y1193718D01*
X-313911Y1193729D01*
X-314407Y1194231D01*
X-314417Y1194237D01*
X-314425Y1194248D01*
X-314946Y1194724D01*
X-314956Y1194730D01*
X-314966Y1194741D01*
X-315510Y1195189D01*
X-315521Y1195194D01*
X-315531Y1195205D01*
X-316099Y1195623D01*
X-316110Y1195628D01*
X-316121Y1195638D01*
X-316710Y1196026D01*
X-316722Y1196030D01*
X-316734Y1196040D01*
X-317343Y1196395D01*
X-317355Y1196399D01*
X-317366Y1196407D01*
X-317994Y1196729D01*
X-318006Y1196733D01*
X-318018Y1196741D01*
X-318662Y1197029D01*
X-318673Y1197031D01*
X-318685Y1197038D01*
X-319343Y1197293D01*
X-319354Y1197295D01*
X-319367Y1197302D01*
X-320037Y1197523D01*
X-320047Y1197524D01*
X-320050Y1197526D01*
X-320053Y1197526D01*
X-320060Y1197530D01*
X-320739Y1197718D01*
X-320751Y1197719D01*
X-320764Y1197725D01*
X-322141Y1198031D01*
X-322149Y1198031D01*
X-322159Y1198035D01*
X-323546Y1198292D01*
X-323554Y1198292D01*
X-323563Y1198295D01*
X-324958Y1198503D01*
X-324967Y1198503D01*
X-324978Y1198506D01*
X-327081Y1198736D01*
X-327089Y1198736D01*
X-327098Y1198738D01*
X-328505Y1198843D01*
X-328512Y1198842D01*
X-328520Y1198844D01*
X-330634Y1198939D01*
X-330641Y1198938D01*
X-330649Y1198939D01*
X-332765Y1198967D01*
X-332773Y1198966D01*
X-332782Y1198967D01*
X-334897Y1198926D01*
X-334904Y1198924D01*
X-334913Y1198925D01*
X-336322Y1198855D01*
X-336329Y1198853D01*
X-336339Y1198854D01*
X-338447Y1198675D01*
X-338455Y1198672D01*
X-338466Y1198673D01*
X-339866Y1198500D01*
X-339873Y1198497D01*
X-339883Y1198498D01*
X-341276Y1198278D01*
X-341284Y1198275D01*
X-341293Y1198275D01*
X-342678Y1198008D01*
X-342687Y1198004D01*
X-342698Y1198003D01*
X-344071Y1197680D01*
X-344080Y1197676D01*
X-344092Y1197674D01*
X-345450Y1197292D01*
X-345459Y1197287D01*
X-345472Y1197285D01*
X-346811Y1196839D01*
X-346819Y1196835D01*
X-346830Y1196832D01*
X-348149Y1196331D01*
X-348157Y1196326D01*
X-348169Y1196323D01*
X-349464Y1195765D01*
X-349473Y1195759D01*
X-349485Y1195755D01*
X-350754Y1195138D01*
X-350763Y1195131D01*
X-350776Y1195127D01*
X-352012Y1194445D01*
X-352021Y1194437D01*
X-352035Y1194431D01*
X-353231Y1193684D01*
X-353238Y1193677D01*
X-353249Y1193672D01*
X-353831Y1193273D01*
X-353838Y1193265D01*
X-353849Y1193259D01*
X-354974Y1192409D01*
X-354981Y1192401D01*
X-354993Y1192395D01*
X-355535Y1191944D01*
X-355540Y1191938D01*
X-355547Y1191933D01*
X-356075Y1191465D01*
X-356081Y1191457D01*
X-356091Y1191450D01*
X-356598Y1190960D01*
X-356603Y1190951D01*
X-356614Y1190944D01*
X-357581Y1189917D01*
X-357583Y1189913D01*
X-357584Y1189913D01*
X-357588Y1189907D01*
X-357596Y1189900D01*
X-358056Y1189366D01*
X-358061Y1189356D01*
X-358071Y1189348D01*
X-358940Y1188237D01*
X-358945Y1188227D01*
X-358954Y1188218D01*
X-359363Y1187643D01*
X-359366Y1187637D01*
X-359372Y1187630D01*
X-359762Y1187043D01*
X-359764Y1187036D01*
X-359770Y1187029D01*
X-360142Y1186430D01*
X-360145Y1186420D01*
X-360153Y1186410D01*
X-360840Y1185178D01*
X-360843Y1185167D01*
X-360851Y1185157D01*
X-361165Y1184525D01*
X-361167Y1184515D01*
X-361174Y1184505D01*
X-361745Y1183215D01*
X-361747Y1183203D01*
X-361755Y1183189D01*
X-362005Y1182530D01*
X-362006Y1182523D01*
X-362010Y1182515D01*
X-362239Y1181848D01*
X-362240Y1181839D01*
X-362245Y1181829D01*
X-362648Y1180477D01*
X-362649Y1180467D01*
X-362653Y1180457D01*
X-362826Y1179773D01*
X-362827Y1179764D01*
X-362831Y1179753D01*
X-363122Y1178373D01*
X-363122Y1178364D01*
X-363126Y1178353D01*
X-363243Y1177658D01*
X-363243Y1177649D01*
X-363246Y1177638D01*
X-363425Y1176239D01*
X-363424Y1176228D01*
X-363428Y1176215D01*
X-363538Y1174808D01*
X-363537Y1174798D01*
X-363539Y1174785D01*
X-363584Y1173375D01*
X-363582Y1173365D01*
X-363584Y1173352D01*
X-363563Y1171942D01*
X-363561Y1171933D01*
X-363562Y1171923D01*
X-363526Y1171218D01*
X-363523Y1171209D01*
X-363524Y1171196D01*
X-363387Y1169792D01*
X-363384Y1169783D01*
X-363385Y1169770D01*
X-363284Y1169072D01*
X-363282Y1169065D01*
X-363282Y1169057D01*
X-363160Y1168362D01*
X-363157Y1168354D01*
X-363157Y1168344D01*
X-363010Y1167654D01*
X-363006Y1167646D01*
X-363005Y1167635D01*
X-362831Y1166952D01*
X-362828Y1166944D01*
X-362826Y1166933D01*
X-362626Y1166256D01*
X-362622Y1166248D01*
X-362620Y1166237D01*
X-362392Y1165569D01*
X-362387Y1165561D01*
X-362384Y1165548D01*
X-362127Y1164892D01*
X-362121Y1164883D01*
X-362118Y1164871D01*
X-361831Y1164227D01*
X-361824Y1164217D01*
X-361820Y1164202D01*
X-361498Y1163574D01*
X-361492Y1163566D01*
X-361488Y1163554D01*
X-361138Y1162942D01*
X-361132Y1162935D01*
X-361128Y1162925D01*
X-360755Y1162327D01*
X-360748Y1162319D01*
X-360743Y1162307D01*
X-360343Y1161726D01*
X-360335Y1161719D01*
X-360329Y1161708D01*
X-359904Y1161146D01*
X-359896Y1161139D01*
X-359890Y1161128D01*
X-359439Y1160586D01*
X-359431Y1160579D01*
X-359424Y1160569D01*
X-358949Y1160047D01*
X-358941Y1160041D01*
X-358933Y1160031D01*
X-358435Y1159532D01*
X-358426Y1159526D01*
X-358418Y1159516D01*
X-357898Y1159040D01*
X-357889Y1159035D01*
X-357881Y1159025D01*
X-357338Y1158573D01*
X-357330Y1158569D01*
X-357322Y1158561D01*
X-356762Y1158132D01*
X-356754Y1158128D01*
X-356745Y1158119D01*
X-356166Y1157715D01*
X-356159Y1157712D01*
X-356151Y1157705D01*
X-355559Y1157323D01*
X-355552Y1157320D01*
X-355544Y1157314D01*
X-354939Y1156951D01*
X-354928Y1156947D01*
X-354916Y1156938D01*
X-353668Y1156280D01*
X-353657Y1156277D01*
X-353645Y1156269D01*
X-353005Y1155973D01*
X-352995Y1155970D01*
X-352984Y1155963D01*
X-351678Y1155430D01*
X-351667Y1155428D01*
X-351656Y1155422D01*
X-350990Y1155187D01*
X-350981Y1155186D01*
X-350971Y1155181D01*
X-349623Y1154765D01*
X-349612Y1154764D01*
X-349600Y1154759D01*
X-348916Y1154585D01*
X-348905Y1154584D01*
X-348892Y1154579D01*
X-347509Y1154300D01*
X-347502Y1154300D01*
X-347495Y1154297D01*
X-346800Y1154177D01*
X-346793Y1154178D01*
X-346786Y1154175D01*
X-345389Y1153975D01*
X-345382Y1153975D01*
X-345373Y1153973D01*
X-343970Y1153820D01*
X-343963Y1153820D01*
X-343954Y1153818D01*
X-342548Y1153710D01*
X-342541Y1153711D01*
X-342532Y1153710D01*
X-341123Y1153645D01*
X-341117Y1153646D01*
X-341109Y1153645D01*
X-339699Y1153620D01*
X-339692Y1153621D01*
X-339685Y1153620D01*
X-337569Y1153641D01*
G37*
G36*
X-692601Y1154409D02*
X-692601Y1154409D01*
X-692599Y1154409D01*
X-692505Y1154429D01*
X-692408Y1154448D01*
X-692407Y1154450D01*
X-692404Y1154450D01*
X-692325Y1154506D01*
X-692245Y1154561D01*
X-692243Y1154563D01*
X-692241Y1154564D01*
X-692148Y1154702D01*
X-691896Y1155261D01*
X-691886Y1155302D01*
X-691862Y1155362D01*
X-685692Y1184191D01*
X-685340Y1184621D01*
X-684879Y1185083D01*
X-684383Y1185484D01*
X-683840Y1185794D01*
X-683239Y1186027D01*
X-682614Y1186205D01*
X-681991Y1186300D01*
X-681392Y1186290D01*
X-680845Y1186140D01*
X-680363Y1185843D01*
X-679956Y1185417D01*
X-679624Y1184894D01*
X-679358Y1184306D01*
X-679144Y1183679D01*
X-678974Y1183027D01*
X-678833Y1182358D01*
X-678719Y1181683D01*
X-678540Y1180306D01*
X-678365Y1178219D01*
X-678262Y1176116D01*
X-678250Y1176071D01*
X-678249Y1176025D01*
X-678226Y1175976D01*
X-678212Y1175923D01*
X-678184Y1175886D01*
X-678165Y1175845D01*
X-678118Y1175799D01*
X-678092Y1175765D01*
X-678070Y1175752D01*
X-678046Y1175729D01*
X-677622Y1175437D01*
X-677560Y1175411D01*
X-677503Y1175377D01*
X-677465Y1175371D01*
X-677439Y1175360D01*
X-677398Y1175360D01*
X-677339Y1175350D01*
X-667472Y1175350D01*
X-667460Y1175352D01*
X-667448Y1175350D01*
X-667286Y1175386D01*
X-666754Y1175599D01*
X-666703Y1175633D01*
X-666648Y1175658D01*
X-666621Y1175687D01*
X-666588Y1175709D01*
X-666554Y1175759D01*
X-666513Y1175804D01*
X-666496Y1175846D01*
X-666477Y1175874D01*
X-666471Y1175910D01*
X-666452Y1175958D01*
X-662182Y1195947D01*
X-662182Y1196003D01*
X-662171Y1196058D01*
X-662181Y1196101D01*
X-662180Y1196146D01*
X-662202Y1196198D01*
X-662214Y1196253D01*
X-662242Y1196296D01*
X-662256Y1196329D01*
X-662280Y1196353D01*
X-662305Y1196391D01*
X-662733Y1196850D01*
X-662766Y1196874D01*
X-662846Y1196941D01*
X-663455Y1197296D01*
X-663473Y1197302D01*
X-663492Y1197316D01*
X-664128Y1197619D01*
X-664143Y1197622D01*
X-664160Y1197632D01*
X-665471Y1198149D01*
X-665485Y1198152D01*
X-665502Y1198160D01*
X-666173Y1198374D01*
X-666189Y1198376D01*
X-666208Y1198384D01*
X-667577Y1198715D01*
X-667595Y1198716D01*
X-667617Y1198723D01*
X-668312Y1198833D01*
X-668332Y1198832D01*
X-668358Y1198838D01*
X-669052Y1198883D01*
X-669746Y1198951D01*
X-669764Y1198949D01*
X-669785Y1198953D01*
X-670490Y1198966D01*
X-670503Y1198963D01*
X-670519Y1198965D01*
X-671927Y1198908D01*
X-671937Y1198905D01*
X-671950Y1198906D01*
X-672652Y1198846D01*
X-672659Y1198844D01*
X-672668Y1198844D01*
X-673368Y1198760D01*
X-673376Y1198758D01*
X-673386Y1198758D01*
X-674082Y1198649D01*
X-674090Y1198646D01*
X-674101Y1198646D01*
X-674792Y1198511D01*
X-674801Y1198507D01*
X-674812Y1198506D01*
X-675498Y1198343D01*
X-675507Y1198339D01*
X-675520Y1198338D01*
X-676197Y1198143D01*
X-676207Y1198139D01*
X-676220Y1198137D01*
X-676887Y1197911D01*
X-676897Y1197905D01*
X-676911Y1197902D01*
X-677566Y1197643D01*
X-677577Y1197637D01*
X-677591Y1197633D01*
X-678232Y1197338D01*
X-678242Y1197331D01*
X-678257Y1197326D01*
X-678879Y1196996D01*
X-678890Y1196988D01*
X-678905Y1196981D01*
X-679507Y1196615D01*
X-679517Y1196606D01*
X-679532Y1196599D01*
X-680111Y1196199D01*
X-680116Y1196193D01*
X-680124Y1196189D01*
X-680691Y1195770D01*
X-680699Y1195762D01*
X-680711Y1195755D01*
X-681800Y1194861D01*
X-681807Y1194853D01*
X-681818Y1194846D01*
X-682341Y1194374D01*
X-682346Y1194367D01*
X-682355Y1194362D01*
X-682861Y1193871D01*
X-682865Y1193865D01*
X-682872Y1193860D01*
X-683362Y1193353D01*
X-683366Y1193347D01*
X-683373Y1193342D01*
X-683846Y1192820D01*
X-683851Y1192813D01*
X-683859Y1192806D01*
X-684312Y1192267D01*
X-684316Y1192260D01*
X-684322Y1192254D01*
X-684759Y1191701D01*
X-684762Y1191694D01*
X-684769Y1191688D01*
X-685187Y1191121D01*
X-685190Y1191113D01*
X-685197Y1191106D01*
X-685519Y1190635D01*
X-685637Y1190578D01*
X-685667Y1190608D01*
X-687020Y1197373D01*
X-687026Y1197388D01*
X-687027Y1197404D01*
X-687065Y1197479D01*
X-687097Y1197556D01*
X-687109Y1197567D01*
X-687116Y1197582D01*
X-687180Y1197636D01*
X-687240Y1197695D01*
X-687255Y1197701D01*
X-687267Y1197711D01*
X-687424Y1197767D01*
X-688040Y1197874D01*
X-688076Y1197873D01*
X-688126Y1197882D01*
X-703632Y1197882D01*
X-703687Y1197870D01*
X-703744Y1197869D01*
X-703784Y1197851D01*
X-703827Y1197842D01*
X-703873Y1197810D01*
X-703925Y1197787D01*
X-703955Y1197754D01*
X-703991Y1197730D01*
X-704021Y1197682D01*
X-704059Y1197641D01*
X-704078Y1197593D01*
X-704098Y1197562D01*
X-704103Y1197529D01*
X-704105Y1197526D01*
X-704106Y1197524D01*
X-704106Y1197522D01*
X-704120Y1197486D01*
X-713022Y1155424D01*
X-713023Y1155345D01*
X-713030Y1155267D01*
X-713023Y1155244D01*
X-713023Y1155225D01*
X-713006Y1155184D01*
X-712985Y1155107D01*
X-712789Y1154694D01*
X-712730Y1154614D01*
X-712673Y1154538D01*
X-712671Y1154537D01*
X-712670Y1154535D01*
X-712585Y1154485D01*
X-712502Y1154436D01*
X-712500Y1154436D01*
X-712498Y1154435D01*
X-712482Y1154433D01*
X-712338Y1154409D01*
X-692603Y1154409D01*
X-692601Y1154409D01*
G37*
G36*
X-235663Y1154420D02*
X-235663Y1154420D01*
X-235636Y1154421D01*
X-235611Y1154422D01*
X-235604Y1154423D01*
X-235567Y1154440D01*
X-235526Y1154448D01*
X-235478Y1154482D01*
X-235465Y1154488D01*
X-235430Y1154503D01*
X-235429Y1154504D01*
X-235424Y1154507D01*
X-235396Y1154537D01*
X-235362Y1154561D01*
X-235331Y1154610D01*
X-235295Y1154649D01*
X-235294Y1154651D01*
X-235291Y1154655D01*
X-235274Y1154699D01*
X-235255Y1154728D01*
X-235250Y1154762D01*
X-235233Y1154803D01*
X-226123Y1196927D01*
X-226122Y1196962D01*
X-226113Y1196995D01*
X-226121Y1197060D01*
X-226120Y1197126D01*
X-226133Y1197158D01*
X-226138Y1197192D01*
X-226178Y1197268D01*
X-226195Y1197310D01*
X-226207Y1197321D01*
X-226217Y1197339D01*
X-226489Y1197689D01*
X-226518Y1197714D01*
X-226519Y1197715D01*
X-226522Y1197717D01*
X-226548Y1197752D01*
X-226597Y1197781D01*
X-226640Y1197818D01*
X-226682Y1197832D01*
X-226719Y1197854D01*
X-226788Y1197866D01*
X-226830Y1197879D01*
X-226853Y1197877D01*
X-226883Y1197882D01*
X-246665Y1197882D01*
X-246675Y1197880D01*
X-246684Y1197881D01*
X-246772Y1197860D01*
X-246860Y1197842D01*
X-246868Y1197837D01*
X-246878Y1197834D01*
X-246950Y1197780D01*
X-247024Y1197729D01*
X-247029Y1197721D01*
X-247037Y1197716D01*
X-247126Y1197575D01*
X-247367Y1197000D01*
X-247374Y1196963D01*
X-247394Y1196911D01*
X-256171Y1155439D01*
X-256172Y1155371D01*
X-256181Y1155304D01*
X-256172Y1155268D01*
X-256173Y1155240D01*
X-256157Y1155202D01*
X-256143Y1155142D01*
X-255964Y1154715D01*
X-255959Y1154707D01*
X-255956Y1154698D01*
X-255903Y1154625D01*
X-255852Y1154551D01*
X-255844Y1154545D01*
X-255839Y1154538D01*
X-255761Y1154492D01*
X-255685Y1154443D01*
X-255676Y1154441D01*
X-255668Y1154436D01*
X-255504Y1154409D01*
X-235721Y1154409D01*
X-235663Y1154420D01*
G37*
%LPC*%
G36*
X-753597Y1162322D02*
X-753597Y1162322D01*
X-753583Y1162396D01*
X-743259Y1210348D01*
X-743049Y1210416D01*
X-738906Y1210416D01*
X-738232Y1210391D01*
X-737677Y1210323D01*
X-737659Y1210325D01*
X-737658Y1210325D01*
X-737616Y1210325D01*
X-737587Y1210331D01*
X-737584Y1210331D01*
X-737484Y1210289D01*
X-736952Y1210166D01*
X-736363Y1209944D01*
X-735832Y1209636D01*
X-735374Y1209235D01*
X-734986Y1208739D01*
X-734647Y1208191D01*
X-734381Y1207604D01*
X-734179Y1206982D01*
X-734035Y1206337D01*
X-733940Y1205675D01*
X-733889Y1205002D01*
X-733875Y1204323D01*
X-733893Y1203638D01*
X-733977Y1202246D01*
X-734094Y1200850D01*
X-734429Y1197348D01*
X-734669Y1195257D01*
X-735058Y1192477D01*
X-735722Y1188311D01*
X-736242Y1185554D01*
X-736837Y1182812D01*
X-737666Y1179401D01*
X-738232Y1177382D01*
X-738873Y1175387D01*
X-739596Y1173421D01*
X-740123Y1172131D01*
X-740687Y1170852D01*
X-740982Y1170231D01*
X-741624Y1169002D01*
X-742327Y1167813D01*
X-743101Y1166668D01*
X-743512Y1166121D01*
X-743943Y1165585D01*
X-744392Y1165066D01*
X-744856Y1164570D01*
X-745344Y1164112D01*
X-745862Y1163695D01*
X-746410Y1163324D01*
X-746986Y1163006D01*
X-747588Y1162746D01*
X-748212Y1162547D01*
X-748852Y1162410D01*
X-749509Y1162337D01*
X-749978Y1162322D01*
X-753597Y1162322D01*
G37*
%LPD*%
G36*
X-234515Y1200643D02*
X-234515Y1200643D01*
X-234504Y1200645D01*
X-234491Y1200644D01*
X-233786Y1200682D01*
X-233775Y1200684D01*
X-233761Y1200683D01*
X-233058Y1200756D01*
X-233047Y1200760D01*
X-233033Y1200759D01*
X-232335Y1200868D01*
X-232324Y1200872D01*
X-232310Y1200872D01*
X-231618Y1201016D01*
X-231608Y1201021D01*
X-231594Y1201022D01*
X-230911Y1201200D01*
X-230900Y1201206D01*
X-230885Y1201208D01*
X-230212Y1201422D01*
X-230200Y1201428D01*
X-230183Y1201432D01*
X-229524Y1201687D01*
X-229512Y1201695D01*
X-229494Y1201700D01*
X-228853Y1201999D01*
X-228841Y1202009D01*
X-228822Y1202015D01*
X-228205Y1202358D01*
X-228193Y1202369D01*
X-228174Y1202377D01*
X-227583Y1202764D01*
X-227572Y1202774D01*
X-227555Y1202783D01*
X-226992Y1203209D01*
X-226984Y1203218D01*
X-226972Y1203225D01*
X-226431Y1203680D01*
X-226420Y1203693D01*
X-226402Y1203706D01*
X-225899Y1204202D01*
X-225889Y1204217D01*
X-225871Y1204232D01*
X-225410Y1204767D01*
X-225401Y1204783D01*
X-225384Y1204800D01*
X-224970Y1205372D01*
X-224962Y1205389D01*
X-224947Y1205407D01*
X-224582Y1206012D01*
X-224578Y1206024D01*
X-224569Y1206036D01*
X-224238Y1206660D01*
X-224232Y1206680D01*
X-224217Y1206703D01*
X-223949Y1207356D01*
X-223944Y1207378D01*
X-223932Y1207403D01*
X-223730Y1208080D01*
X-223728Y1208101D01*
X-223718Y1208126D01*
X-223581Y1208818D01*
X-223581Y1208837D01*
X-223574Y1208861D01*
X-223496Y1209562D01*
X-223498Y1209579D01*
X-223493Y1209599D01*
X-223468Y1210304D01*
X-223470Y1210319D01*
X-223468Y1210338D01*
X-223490Y1211044D01*
X-223494Y1211059D01*
X-223492Y1211079D01*
X-223564Y1211781D01*
X-223569Y1211799D01*
X-223569Y1211821D01*
X-223697Y1212516D01*
X-223705Y1212535D01*
X-223707Y1212560D01*
X-223898Y1213240D01*
X-223908Y1213260D01*
X-223914Y1213288D01*
X-224173Y1213945D01*
X-224186Y1213967D01*
X-224197Y1213997D01*
X-224528Y1214620D01*
X-224545Y1214640D01*
X-224559Y1214671D01*
X-224963Y1215250D01*
X-224982Y1215269D01*
X-225001Y1215298D01*
X-225472Y1215824D01*
X-225493Y1215840D01*
X-225514Y1215866D01*
X-226045Y1216332D01*
X-226065Y1216344D01*
X-226086Y1216365D01*
X-226663Y1216772D01*
X-226679Y1216779D01*
X-226696Y1216793D01*
X-227303Y1217154D01*
X-227319Y1217159D01*
X-227335Y1217171D01*
X-227967Y1217487D01*
X-227983Y1217491D01*
X-228000Y1217502D01*
X-228653Y1217771D01*
X-228668Y1217774D01*
X-228685Y1217783D01*
X-229355Y1218006D01*
X-229370Y1218008D01*
X-229387Y1218016D01*
X-230070Y1218195D01*
X-230084Y1218196D01*
X-230100Y1218202D01*
X-230793Y1218338D01*
X-230807Y1218338D01*
X-230822Y1218343D01*
X-231522Y1218439D01*
X-231534Y1218438D01*
X-231548Y1218442D01*
X-232252Y1218500D01*
X-232264Y1218499D01*
X-232277Y1218501D01*
X-232983Y1218525D01*
X-232993Y1218523D01*
X-233006Y1218525D01*
X-233712Y1218516D01*
X-233722Y1218514D01*
X-233735Y1218516D01*
X-234440Y1218475D01*
X-234450Y1218472D01*
X-234463Y1218473D01*
X-235165Y1218400D01*
X-235175Y1218397D01*
X-235188Y1218397D01*
X-235887Y1218292D01*
X-235897Y1218289D01*
X-235910Y1218288D01*
X-236603Y1218151D01*
X-236612Y1218147D01*
X-236625Y1218146D01*
X-237311Y1217977D01*
X-237322Y1217971D01*
X-237338Y1217969D01*
X-238013Y1217761D01*
X-238026Y1217755D01*
X-238043Y1217751D01*
X-238704Y1217501D01*
X-238715Y1217494D01*
X-238732Y1217490D01*
X-239376Y1217200D01*
X-239387Y1217192D01*
X-239404Y1217187D01*
X-240029Y1216857D01*
X-240040Y1216848D01*
X-240057Y1216842D01*
X-240659Y1216473D01*
X-240670Y1216463D01*
X-240686Y1216456D01*
X-241264Y1216049D01*
X-241275Y1216038D01*
X-241292Y1216028D01*
X-241840Y1215582D01*
X-241853Y1215565D01*
X-241875Y1215550D01*
X-242377Y1215053D01*
X-242389Y1215036D01*
X-242409Y1215019D01*
X-242862Y1214478D01*
X-242872Y1214460D01*
X-242890Y1214442D01*
X-243293Y1213863D01*
X-243300Y1213846D01*
X-243315Y1213828D01*
X-243669Y1213216D01*
X-243674Y1213202D01*
X-243685Y1213187D01*
X-243997Y1212553D01*
X-244002Y1212534D01*
X-244015Y1212512D01*
X-244269Y1211853D01*
X-244272Y1211832D01*
X-244283Y1211808D01*
X-244474Y1211128D01*
X-244475Y1211108D01*
X-244484Y1211084D01*
X-244613Y1210390D01*
X-244612Y1210372D01*
X-244619Y1210350D01*
X-244691Y1209648D01*
X-244689Y1209631D01*
X-244693Y1209612D01*
X-244715Y1208906D01*
X-244712Y1208891D01*
X-244715Y1208873D01*
X-244706Y1208611D01*
X-244691Y1208168D01*
X-244687Y1208153D01*
X-244688Y1208134D01*
X-244617Y1207431D01*
X-244612Y1207415D01*
X-244611Y1207393D01*
X-244486Y1206698D01*
X-244478Y1206680D01*
X-244476Y1206655D01*
X-244289Y1205974D01*
X-244280Y1205954D01*
X-244274Y1205927D01*
X-244022Y1205268D01*
X-244008Y1205247D01*
X-243998Y1205216D01*
X-243673Y1204590D01*
X-243657Y1204570D01*
X-243643Y1204540D01*
X-243248Y1203955D01*
X-243228Y1203936D01*
X-243210Y1203906D01*
X-242744Y1203375D01*
X-242723Y1203359D01*
X-242702Y1203333D01*
X-242176Y1202861D01*
X-242155Y1202849D01*
X-242133Y1202827D01*
X-241558Y1202417D01*
X-241542Y1202409D01*
X-241525Y1202395D01*
X-240919Y1202032D01*
X-240903Y1202026D01*
X-240886Y1202014D01*
X-240254Y1201697D01*
X-240239Y1201693D01*
X-240222Y1201683D01*
X-239570Y1201412D01*
X-239554Y1201409D01*
X-239537Y1201400D01*
X-238867Y1201175D01*
X-238853Y1201173D01*
X-238836Y1201166D01*
X-238153Y1200985D01*
X-238140Y1200985D01*
X-238124Y1200979D01*
X-237431Y1200840D01*
X-237418Y1200840D01*
X-237403Y1200835D01*
X-236704Y1200736D01*
X-236692Y1200736D01*
X-236678Y1200733D01*
X-235974Y1200670D01*
X-235963Y1200671D01*
X-235950Y1200669D01*
X-235244Y1200640D01*
X-235234Y1200642D01*
X-235222Y1200640D01*
X-234515Y1200643D01*
G37*
%LPC*%
G36*
X-397720Y1163847D02*
X-397720Y1163847D01*
X-398324Y1163989D01*
X-398894Y1164233D01*
X-399418Y1164570D01*
X-399872Y1164977D01*
X-400222Y1165468D01*
X-400482Y1166029D01*
X-400655Y1166640D01*
X-400752Y1167283D01*
X-400787Y1167941D01*
X-400766Y1168602D01*
X-400682Y1169256D01*
X-400539Y1169902D01*
X-400340Y1170535D01*
X-400091Y1171149D01*
X-399788Y1171736D01*
X-399434Y1172292D01*
X-399029Y1172816D01*
X-398587Y1173298D01*
X-398091Y1173719D01*
X-397548Y1174099D01*
X-396972Y1174437D01*
X-396371Y1174732D01*
X-395743Y1174990D01*
X-395103Y1175219D01*
X-394455Y1175412D01*
X-393795Y1175563D01*
X-393126Y1175679D01*
X-392448Y1175762D01*
X-391766Y1175815D01*
X-391079Y1175840D01*
X-389555Y1175842D01*
X-391007Y1168852D01*
X-391171Y1168204D01*
X-391397Y1167593D01*
X-391689Y1167016D01*
X-392047Y1166477D01*
X-392466Y1165983D01*
X-392941Y1165534D01*
X-393468Y1165128D01*
X-393936Y1164812D01*
X-393943Y1164805D01*
X-393952Y1164801D01*
X-394001Y1164747D01*
X-394032Y1164732D01*
X-394113Y1164703D01*
X-394599Y1164432D01*
X-395198Y1164168D01*
X-395818Y1163972D01*
X-396452Y1163849D01*
X-397092Y1163805D01*
X-397720Y1163847D01*
G37*
%LPD*%
%LPC*%
G36*
X-144804Y1179805D02*
X-144804Y1179805D01*
X-144474Y1181003D01*
X-144268Y1181660D01*
X-143810Y1182973D01*
X-143300Y1184265D01*
X-142735Y1185531D01*
X-142428Y1186145D01*
X-142103Y1186746D01*
X-141383Y1187927D01*
X-141001Y1188486D01*
X-140589Y1189019D01*
X-140146Y1189518D01*
X-139668Y1189977D01*
X-139158Y1190388D01*
X-138616Y1190734D01*
X-138043Y1190999D01*
X-137441Y1191172D01*
X-136824Y1191247D01*
X-136221Y1191216D01*
X-135657Y1191056D01*
X-135142Y1190766D01*
X-134700Y1190372D01*
X-134361Y1189892D01*
X-134130Y1189326D01*
X-133973Y1188701D01*
X-133875Y1188044D01*
X-133820Y1187371D01*
X-133810Y1187055D01*
X-133799Y1186685D01*
X-133797Y1186521D01*
X-133817Y1185839D01*
X-133869Y1185157D01*
X-134103Y1183072D01*
X-134196Y1182384D01*
X-134600Y1179878D01*
X-134769Y1179805D01*
X-144804Y1179805D01*
G37*
%LPD*%
M02*
