G04 EAGLE Gerber RS-274X export*
G75*
%MOMM*%
%FSLAX34Y34*%
%LPD*%
%INSilkscreen Bottom*%
%IPPOS*%
%AMOC8*
5,1,8,0,0,1.08239X$1,22.5*%
G01*
%ADD10C,0.152400*%
%ADD11C,0.076200*%
%ADD12C,0.304800*%
%ADD13R,0.190500X0.889000*%
%ADD14C,0.127000*%
%ADD15C,0.203200*%
%ADD16R,0.200000X1.400000*%

G36*
X-187641Y1154569D02*
X-187641Y1154569D01*
X-187575Y1154571D01*
X-187532Y1154589D01*
X-187485Y1154597D01*
X-187428Y1154631D01*
X-187368Y1154656D01*
X-187333Y1154687D01*
X-187292Y1154712D01*
X-187251Y1154763D01*
X-187202Y1154807D01*
X-187180Y1154849D01*
X-187151Y1154886D01*
X-187130Y1154948D01*
X-187099Y1155007D01*
X-187091Y1155061D01*
X-187079Y1155098D01*
X-187080Y1155138D01*
X-187072Y1155192D01*
X-187072Y1161796D01*
X-187088Y1161884D01*
X-187097Y1161972D01*
X-187107Y1161993D01*
X-187111Y1162017D01*
X-187157Y1162094D01*
X-187196Y1162173D01*
X-187213Y1162190D01*
X-187226Y1162210D01*
X-187295Y1162266D01*
X-187359Y1162327D01*
X-187381Y1162336D01*
X-187400Y1162351D01*
X-187484Y1162380D01*
X-187566Y1162415D01*
X-187590Y1162416D01*
X-187612Y1162423D01*
X-187701Y1162421D01*
X-187790Y1162425D01*
X-187813Y1162417D01*
X-187837Y1162417D01*
X-187919Y1162383D01*
X-188004Y1162356D01*
X-188025Y1162340D01*
X-188044Y1162332D01*
X-188082Y1162298D01*
X-188154Y1162244D01*
X-194758Y1155640D01*
X-194809Y1155567D01*
X-194865Y1155498D01*
X-194873Y1155476D01*
X-194887Y1155456D01*
X-194909Y1155370D01*
X-194937Y1155286D01*
X-194937Y1155262D01*
X-194943Y1155239D01*
X-194933Y1155150D01*
X-194931Y1155061D01*
X-194922Y1155039D01*
X-194919Y1155016D01*
X-194880Y1154936D01*
X-194846Y1154854D01*
X-194830Y1154836D01*
X-194820Y1154815D01*
X-194755Y1154754D01*
X-194695Y1154688D01*
X-194674Y1154677D01*
X-194657Y1154661D01*
X-194575Y1154626D01*
X-194495Y1154585D01*
X-194469Y1154582D01*
X-194450Y1154573D01*
X-194400Y1154571D01*
X-194310Y1154558D01*
X-187706Y1154558D01*
X-187641Y1154569D01*
G37*
G36*
X-294076Y1226462D02*
X-294076Y1226462D01*
X-294059Y1226460D01*
X-293956Y1226482D01*
X-293851Y1226500D01*
X-293836Y1226508D01*
X-293818Y1226512D01*
X-293728Y1226566D01*
X-293635Y1226616D01*
X-293622Y1226629D01*
X-293607Y1226638D01*
X-293538Y1226718D01*
X-293466Y1226795D01*
X-293459Y1226812D01*
X-293447Y1226825D01*
X-293408Y1226923D01*
X-293364Y1227019D01*
X-293362Y1227037D01*
X-293355Y1227053D01*
X-293337Y1227220D01*
X-293337Y1234840D01*
X-293339Y1234857D01*
X-293338Y1234872D01*
X-293338Y1234875D01*
X-293359Y1234979D01*
X-293377Y1235083D01*
X-293385Y1235098D01*
X-293389Y1235116D01*
X-293442Y1235207D01*
X-293492Y1235300D01*
X-293504Y1235312D01*
X-293514Y1235328D01*
X-293593Y1235397D01*
X-293670Y1235470D01*
X-293686Y1235477D01*
X-293700Y1235489D01*
X-293797Y1235529D01*
X-293893Y1235573D01*
X-293911Y1235575D01*
X-293927Y1235582D01*
X-294033Y1235589D01*
X-294137Y1235600D01*
X-294155Y1235596D01*
X-294173Y1235598D01*
X-294275Y1235570D01*
X-294348Y1235554D01*
X-294351Y1235554D01*
X-294378Y1235548D01*
X-294393Y1235539D01*
X-294410Y1235534D01*
X-294555Y1235449D01*
X-299635Y1231639D01*
X-299638Y1231636D01*
X-299642Y1231634D01*
X-299723Y1231547D01*
X-299805Y1231462D01*
X-299807Y1231458D01*
X-299810Y1231455D01*
X-299860Y1231346D01*
X-299910Y1231239D01*
X-299910Y1231235D01*
X-299912Y1231231D01*
X-299925Y1231113D01*
X-299938Y1230995D01*
X-299938Y1230991D01*
X-299938Y1230986D01*
X-299912Y1230870D01*
X-299888Y1230754D01*
X-299885Y1230750D01*
X-299884Y1230746D01*
X-299823Y1230644D01*
X-299763Y1230542D01*
X-299759Y1230539D01*
X-299757Y1230536D01*
X-299635Y1230421D01*
X-294555Y1226611D01*
X-294539Y1226603D01*
X-294526Y1226591D01*
X-294430Y1226546D01*
X-294337Y1226497D01*
X-294319Y1226494D01*
X-294303Y1226487D01*
X-294198Y1226475D01*
X-294094Y1226459D01*
X-294076Y1226462D01*
G37*
D10*
X-1049782Y219889D02*
X-1055205Y209042D01*
X-1060629Y219889D01*
X-1066154Y222600D02*
X-1066154Y211754D01*
X-1066154Y222600D02*
X-1068865Y225312D01*
X-1074289Y225312D01*
X-1077000Y222600D01*
X-1077000Y211754D01*
X-1074289Y209042D01*
X-1068865Y209042D01*
X-1066154Y211754D01*
X-1077000Y222600D01*
X-1082525Y211754D02*
X-1082525Y209042D01*
X-1082525Y211754D02*
X-1085237Y211754D01*
X-1085237Y209042D01*
X-1082525Y209042D01*
X-1090711Y219889D02*
X-1096134Y225312D01*
X-1096134Y209042D01*
X-1090711Y209042D02*
X-1101558Y209042D01*
D11*
X-318986Y1176195D02*
X-317757Y1177423D01*
X-315300Y1177423D01*
X-314071Y1176195D01*
X-314071Y1174966D01*
X-315300Y1173737D01*
X-317757Y1173737D01*
X-318986Y1172508D01*
X-318986Y1171280D01*
X-317757Y1170051D01*
X-315300Y1170051D01*
X-314071Y1171280D01*
X-321555Y1170051D02*
X-321555Y1177423D01*
X-324013Y1172508D02*
X-321555Y1170051D01*
X-324013Y1172508D02*
X-326470Y1170051D01*
X-326470Y1177423D01*
X-329039Y1174966D02*
X-331497Y1177423D01*
X-331497Y1170051D01*
X-333954Y1170051D02*
X-329039Y1170051D01*
X-115903Y1142580D02*
X-114675Y1141351D01*
X-114675Y1138894D01*
X-115903Y1137665D01*
X-117132Y1137665D01*
X-118361Y1138894D01*
X-118361Y1141351D01*
X-119590Y1142580D01*
X-120818Y1142580D01*
X-122047Y1141351D01*
X-122047Y1138894D01*
X-120818Y1137665D01*
X-122047Y1145149D02*
X-114675Y1145149D01*
X-119590Y1147607D02*
X-122047Y1145149D01*
X-119590Y1147607D02*
X-122047Y1150064D01*
X-114675Y1150064D01*
X-114675Y1152633D02*
X-122047Y1152633D01*
X-122047Y1156319D01*
X-120818Y1157548D01*
X-115903Y1157548D01*
X-114675Y1156319D01*
X-114675Y1152633D01*
X-122047Y1160117D02*
X-122047Y1162575D01*
X-122047Y1161346D02*
X-114675Y1161346D01*
X-114675Y1160117D02*
X-114675Y1162575D01*
X-114675Y1166336D02*
X-114675Y1168793D01*
X-114675Y1166336D02*
X-115903Y1165107D01*
X-120818Y1165107D01*
X-122047Y1166336D01*
X-122047Y1168793D01*
X-120818Y1170022D01*
X-115903Y1170022D01*
X-114675Y1168793D01*
X-90503Y1141355D02*
X-89275Y1140126D01*
X-89275Y1137669D01*
X-90503Y1136440D01*
X-91732Y1136440D01*
X-92961Y1137669D01*
X-92961Y1140126D01*
X-94190Y1141355D01*
X-95418Y1141355D01*
X-96647Y1140126D01*
X-96647Y1137669D01*
X-95418Y1136440D01*
X-96647Y1143924D02*
X-89275Y1143924D01*
X-94190Y1146382D02*
X-96647Y1143924D01*
X-94190Y1146382D02*
X-96647Y1148839D01*
X-89275Y1148839D01*
X-89275Y1155095D02*
X-90503Y1156323D01*
X-89275Y1155095D02*
X-89275Y1152637D01*
X-90503Y1151409D01*
X-95418Y1151409D01*
X-96647Y1152637D01*
X-96647Y1155095D01*
X-95418Y1156323D01*
X-96647Y1158893D02*
X-89275Y1158893D01*
X-96647Y1158893D02*
X-96647Y1163808D01*
X-96647Y1166377D02*
X-89275Y1166377D01*
X-94190Y1166377D02*
X-89275Y1171292D01*
X-92961Y1167606D02*
X-96647Y1171292D01*
X-114675Y1063737D02*
X-115903Y1062509D01*
X-114675Y1063737D02*
X-114675Y1066195D01*
X-115903Y1067423D01*
X-117132Y1067423D01*
X-118361Y1066195D01*
X-118361Y1064966D01*
X-118361Y1066195D02*
X-119590Y1067423D01*
X-120818Y1067423D01*
X-122047Y1066195D01*
X-122047Y1063737D01*
X-120818Y1062509D01*
X-119590Y1069993D02*
X-114675Y1069993D01*
X-119590Y1069993D02*
X-122047Y1072450D01*
X-119590Y1074908D01*
X-114675Y1074908D01*
X-115903Y1077477D02*
X-114675Y1078706D01*
X-114675Y1081163D01*
X-115903Y1082392D01*
X-117132Y1082392D01*
X-118361Y1081163D01*
X-118361Y1079934D01*
X-118361Y1081163D02*
X-119590Y1082392D01*
X-120818Y1082392D01*
X-122047Y1081163D01*
X-122047Y1078706D01*
X-120818Y1077477D01*
X-90503Y1068693D02*
X-89275Y1067465D01*
X-89275Y1065007D01*
X-90503Y1063779D01*
X-95418Y1063779D01*
X-96647Y1065007D01*
X-96647Y1067465D01*
X-95418Y1068693D01*
X-92961Y1068693D01*
X-92961Y1066236D01*
X-96647Y1071263D02*
X-89275Y1071263D01*
X-96647Y1076178D01*
X-89275Y1076178D01*
X-89275Y1078747D02*
X-96647Y1078747D01*
X-96647Y1082433D01*
X-95418Y1083662D01*
X-90503Y1083662D01*
X-89275Y1082433D01*
X-89275Y1078747D01*
D12*
X-74345Y1196740D02*
X-74345Y1206900D01*
D10*
X-56398Y1217750D02*
X-55297Y1218852D01*
X-53094Y1218852D01*
X-51992Y1217750D01*
X-51992Y1213344D01*
X-53094Y1212242D01*
X-55297Y1212242D01*
X-56398Y1213344D01*
X-61679Y1217750D02*
X-63883Y1218852D01*
X-61679Y1217750D02*
X-59476Y1215547D01*
X-59476Y1213344D01*
X-60578Y1212242D01*
X-62781Y1212242D01*
X-63883Y1213344D01*
X-63883Y1214445D01*
X-62781Y1215547D01*
X-59476Y1215547D01*
D12*
X-151255Y1235690D02*
X-151255Y1243690D01*
D10*
X-172852Y1238027D02*
X-173953Y1236925D01*
X-172852Y1238027D02*
X-170649Y1238027D01*
X-169547Y1236925D01*
X-169547Y1232519D01*
X-170649Y1231417D01*
X-172852Y1231417D01*
X-173953Y1232519D01*
X-177031Y1238027D02*
X-181438Y1238027D01*
X-181438Y1236925D01*
X-177031Y1232519D01*
X-177031Y1231417D01*
D12*
X-107985Y1191110D02*
X-107985Y1180950D01*
D10*
X-130392Y1189357D02*
X-131493Y1188255D01*
X-130392Y1189357D02*
X-128189Y1189357D01*
X-127087Y1188255D01*
X-127087Y1183849D01*
X-128189Y1182747D01*
X-130392Y1182747D01*
X-131493Y1183849D01*
X-134571Y1188255D02*
X-135673Y1189357D01*
X-137876Y1189357D01*
X-138978Y1188255D01*
X-138978Y1187153D01*
X-137876Y1186052D01*
X-138978Y1184950D01*
X-138978Y1183849D01*
X-137876Y1182747D01*
X-135673Y1182747D01*
X-134571Y1183849D01*
X-134571Y1184950D01*
X-135673Y1186052D01*
X-134571Y1187153D01*
X-134571Y1188255D01*
X-135673Y1186052D02*
X-137876Y1186052D01*
D13*
X-298996Y1231030D03*
D10*
X-320260Y1229252D02*
X-320260Y1235862D01*
X-320260Y1229252D02*
X-324666Y1229252D01*
D12*
X-294513Y1240600D02*
X-294513Y1248600D01*
D10*
X-317137Y1248924D02*
X-317137Y1242314D01*
X-317137Y1248924D02*
X-320442Y1248924D01*
X-321543Y1247822D01*
X-321543Y1245619D01*
X-320442Y1244517D01*
X-317137Y1244517D01*
X-319340Y1244517D02*
X-321543Y1242314D01*
X-324621Y1248924D02*
X-329027Y1248924D01*
X-329027Y1247822D01*
X-324621Y1243416D01*
X-324621Y1242314D01*
D14*
X-308513Y1214165D02*
X-308513Y1172165D01*
X-280513Y1172165D01*
X-280513Y1214165D01*
X-308513Y1214165D01*
X-292513Y1204165D02*
X-292361Y1204163D01*
X-292209Y1204157D01*
X-292057Y1204148D01*
X-291906Y1204134D01*
X-291755Y1204117D01*
X-291604Y1204096D01*
X-291454Y1204071D01*
X-291305Y1204042D01*
X-291157Y1204010D01*
X-291009Y1203973D01*
X-290862Y1203934D01*
X-290717Y1203890D01*
X-290572Y1203842D01*
X-290429Y1203792D01*
X-290287Y1203737D01*
X-290147Y1203679D01*
X-290008Y1203617D01*
X-289871Y1203552D01*
X-289735Y1203483D01*
X-289601Y1203411D01*
X-289469Y1203336D01*
X-289339Y1203257D01*
X-289211Y1203175D01*
X-289085Y1203090D01*
X-288962Y1203001D01*
X-288840Y1202910D01*
X-288721Y1202815D01*
X-288605Y1202718D01*
X-288491Y1202617D01*
X-288379Y1202514D01*
X-288270Y1202408D01*
X-288164Y1202299D01*
X-288061Y1202187D01*
X-287960Y1202073D01*
X-287863Y1201957D01*
X-287768Y1201838D01*
X-287677Y1201716D01*
X-287588Y1201593D01*
X-287503Y1201467D01*
X-287421Y1201339D01*
X-287342Y1201209D01*
X-287267Y1201077D01*
X-287195Y1200943D01*
X-287126Y1200807D01*
X-287061Y1200670D01*
X-286999Y1200531D01*
X-286941Y1200391D01*
X-286886Y1200249D01*
X-286836Y1200106D01*
X-286788Y1199961D01*
X-286744Y1199816D01*
X-286705Y1199669D01*
X-286668Y1199521D01*
X-286636Y1199373D01*
X-286607Y1199224D01*
X-286582Y1199074D01*
X-286561Y1198923D01*
X-286544Y1198772D01*
X-286530Y1198621D01*
X-286521Y1198469D01*
X-286515Y1198317D01*
X-286513Y1198165D01*
X-292513Y1204165D02*
X-296513Y1204165D01*
X-296665Y1204163D01*
X-296817Y1204157D01*
X-296969Y1204148D01*
X-297120Y1204134D01*
X-297271Y1204117D01*
X-297422Y1204096D01*
X-297572Y1204071D01*
X-297721Y1204042D01*
X-297869Y1204010D01*
X-298017Y1203973D01*
X-298164Y1203934D01*
X-298309Y1203890D01*
X-298454Y1203842D01*
X-298597Y1203792D01*
X-298739Y1203737D01*
X-298879Y1203679D01*
X-299018Y1203617D01*
X-299155Y1203552D01*
X-299291Y1203483D01*
X-299425Y1203411D01*
X-299557Y1203336D01*
X-299687Y1203257D01*
X-299815Y1203175D01*
X-299941Y1203090D01*
X-300064Y1203001D01*
X-300186Y1202910D01*
X-300305Y1202815D01*
X-300421Y1202718D01*
X-300535Y1202617D01*
X-300647Y1202514D01*
X-300756Y1202408D01*
X-300862Y1202299D01*
X-300965Y1202187D01*
X-301066Y1202073D01*
X-301163Y1201957D01*
X-301258Y1201838D01*
X-301349Y1201716D01*
X-301438Y1201593D01*
X-301523Y1201467D01*
X-301605Y1201339D01*
X-301684Y1201209D01*
X-301759Y1201077D01*
X-301831Y1200943D01*
X-301900Y1200807D01*
X-301965Y1200670D01*
X-302027Y1200531D01*
X-302085Y1200391D01*
X-302140Y1200249D01*
X-302190Y1200106D01*
X-302238Y1199961D01*
X-302282Y1199816D01*
X-302321Y1199669D01*
X-302358Y1199521D01*
X-302390Y1199373D01*
X-302419Y1199224D01*
X-302444Y1199074D01*
X-302465Y1198923D01*
X-302482Y1198772D01*
X-302496Y1198621D01*
X-302505Y1198469D01*
X-302511Y1198317D01*
X-302513Y1198165D01*
X-302513Y1188165D01*
X-302511Y1188013D01*
X-302505Y1187861D01*
X-302496Y1187709D01*
X-302482Y1187558D01*
X-302465Y1187407D01*
X-302444Y1187256D01*
X-302419Y1187106D01*
X-302390Y1186957D01*
X-302358Y1186809D01*
X-302321Y1186661D01*
X-302282Y1186514D01*
X-302238Y1186369D01*
X-302190Y1186224D01*
X-302140Y1186081D01*
X-302085Y1185939D01*
X-302027Y1185799D01*
X-301965Y1185660D01*
X-301900Y1185523D01*
X-301831Y1185387D01*
X-301759Y1185253D01*
X-301684Y1185121D01*
X-301605Y1184991D01*
X-301523Y1184863D01*
X-301438Y1184737D01*
X-301349Y1184614D01*
X-301258Y1184492D01*
X-301163Y1184373D01*
X-301066Y1184257D01*
X-300965Y1184143D01*
X-300862Y1184031D01*
X-300756Y1183922D01*
X-300647Y1183816D01*
X-300535Y1183713D01*
X-300421Y1183612D01*
X-300305Y1183515D01*
X-300186Y1183420D01*
X-300064Y1183329D01*
X-299941Y1183240D01*
X-299815Y1183155D01*
X-299687Y1183073D01*
X-299557Y1182994D01*
X-299425Y1182919D01*
X-299291Y1182847D01*
X-299155Y1182778D01*
X-299018Y1182713D01*
X-298879Y1182651D01*
X-298739Y1182593D01*
X-298597Y1182538D01*
X-298454Y1182488D01*
X-298309Y1182440D01*
X-298164Y1182396D01*
X-298017Y1182357D01*
X-297869Y1182320D01*
X-297721Y1182288D01*
X-297572Y1182259D01*
X-297422Y1182234D01*
X-297271Y1182213D01*
X-297120Y1182196D01*
X-296969Y1182182D01*
X-296817Y1182173D01*
X-296665Y1182167D01*
X-296513Y1182165D01*
X-292513Y1182165D01*
X-292361Y1182167D01*
X-292209Y1182173D01*
X-292057Y1182182D01*
X-291906Y1182196D01*
X-291755Y1182213D01*
X-291604Y1182234D01*
X-291454Y1182259D01*
X-291305Y1182288D01*
X-291157Y1182320D01*
X-291009Y1182357D01*
X-290862Y1182396D01*
X-290717Y1182440D01*
X-290572Y1182488D01*
X-290429Y1182538D01*
X-290287Y1182593D01*
X-290147Y1182651D01*
X-290008Y1182713D01*
X-289871Y1182778D01*
X-289735Y1182847D01*
X-289601Y1182919D01*
X-289469Y1182994D01*
X-289339Y1183073D01*
X-289211Y1183155D01*
X-289085Y1183240D01*
X-288962Y1183329D01*
X-288840Y1183420D01*
X-288721Y1183515D01*
X-288605Y1183612D01*
X-288491Y1183713D01*
X-288379Y1183816D01*
X-288270Y1183922D01*
X-288164Y1184031D01*
X-288061Y1184143D01*
X-287960Y1184257D01*
X-287863Y1184373D01*
X-287768Y1184492D01*
X-287677Y1184614D01*
X-287588Y1184737D01*
X-287503Y1184863D01*
X-287421Y1184991D01*
X-287342Y1185121D01*
X-287267Y1185253D01*
X-287195Y1185387D01*
X-287126Y1185523D01*
X-287061Y1185660D01*
X-286999Y1185799D01*
X-286941Y1185939D01*
X-286886Y1186081D01*
X-286836Y1186224D01*
X-286788Y1186369D01*
X-286744Y1186514D01*
X-286705Y1186661D01*
X-286668Y1186809D01*
X-286636Y1186957D01*
X-286607Y1187106D01*
X-286582Y1187256D01*
X-286561Y1187407D01*
X-286544Y1187558D01*
X-286530Y1187709D01*
X-286521Y1187861D01*
X-286515Y1188013D01*
X-286513Y1188165D01*
X-286513Y1198165D01*
X-44020Y1214610D02*
X-44020Y1222610D01*
X-44020Y1180610D02*
X-44020Y1172610D01*
X980Y1235610D02*
X9980Y1235610D01*
X9980Y1159610D01*
X980Y1159610D01*
D10*
X2888Y1143922D02*
X-1518Y1137312D01*
X2888Y1137312D02*
X-1518Y1143922D01*
X-4596Y1142820D02*
X-5698Y1143922D01*
X-7901Y1143922D01*
X-9003Y1142820D01*
X-9003Y1141718D01*
X-7901Y1140617D01*
X-6799Y1140617D01*
X-7901Y1140617D02*
X-9003Y1139515D01*
X-9003Y1138414D01*
X-7901Y1137312D01*
X-5698Y1137312D01*
X-4596Y1138414D01*
D15*
X-86350Y1150875D02*
X-86350Y1166875D01*
X-53350Y1166875D02*
X-53350Y1150875D01*
X-65850Y1148375D02*
X-73850Y1148375D01*
D10*
X-53644Y1136529D02*
X-53644Y1131021D01*
X-54745Y1129919D01*
X-56949Y1129919D01*
X-58050Y1131021D01*
X-58050Y1136529D01*
X-61128Y1129919D02*
X-65534Y1129919D01*
X-61128Y1129919D02*
X-65534Y1134325D01*
X-65534Y1135427D01*
X-64433Y1136529D01*
X-62229Y1136529D01*
X-61128Y1135427D01*
D14*
X-188790Y1228530D02*
X-194290Y1228530D01*
X-188790Y1228530D02*
X-188790Y1223030D01*
X-255290Y1228530D02*
X-260790Y1228530D01*
X-260790Y1223030D01*
X-260790Y1162030D02*
X-260790Y1156530D01*
X-255290Y1156530D01*
D10*
X-195702Y1238394D02*
X-195702Y1243902D01*
X-195702Y1238394D02*
X-196804Y1237292D01*
X-199007Y1237292D01*
X-200108Y1238394D01*
X-200108Y1243902D01*
X-203186Y1238394D02*
X-204288Y1237292D01*
X-206491Y1237292D01*
X-207593Y1238394D01*
X-207593Y1239495D01*
X-206491Y1240597D01*
X-204288Y1240597D01*
X-203186Y1241698D01*
X-203186Y1242800D01*
X-204288Y1243902D01*
X-206491Y1243902D01*
X-207593Y1242800D01*
X-205389Y1245003D02*
X-205389Y1236190D01*
X-213975Y1237292D02*
X-213975Y1243902D01*
X-210670Y1240597D01*
X-215077Y1240597D01*
D12*
X-107696Y1205420D02*
X-107696Y1197420D01*
D10*
X-141245Y1204474D02*
X-142346Y1203372D01*
X-141245Y1204474D02*
X-139041Y1204474D01*
X-137940Y1203372D01*
X-137940Y1198966D01*
X-139041Y1197864D01*
X-141245Y1197864D01*
X-142346Y1198966D01*
X-145424Y1202270D02*
X-147627Y1204474D01*
X-147627Y1197864D01*
X-145424Y1197864D02*
X-149830Y1197864D01*
D12*
X-295783Y1160335D02*
X-295783Y1152335D01*
D10*
X-317394Y1158881D02*
X-318495Y1157779D01*
X-317394Y1158881D02*
X-315190Y1158881D01*
X-314089Y1157779D01*
X-314089Y1153373D01*
X-315190Y1152271D01*
X-317394Y1152271D01*
X-318495Y1153373D01*
X-321573Y1158881D02*
X-325979Y1158881D01*
X-321573Y1158881D02*
X-321573Y1155576D01*
X-323776Y1156677D01*
X-324878Y1156677D01*
X-325979Y1155576D01*
X-325979Y1153373D01*
X-324878Y1152271D01*
X-322674Y1152271D01*
X-321573Y1153373D01*
D12*
X-70485Y1181545D02*
X-70485Y1189545D01*
D10*
X-44849Y1180979D02*
X-44849Y1174369D01*
X-44849Y1180979D02*
X-48154Y1180979D01*
X-49255Y1179877D01*
X-49255Y1177674D01*
X-48154Y1176572D01*
X-44849Y1176572D01*
X-47052Y1176572D02*
X-49255Y1174369D01*
X-52333Y1178775D02*
X-54536Y1180979D01*
X-54536Y1174369D01*
X-52333Y1174369D02*
X-56739Y1174369D01*
X-72470Y1222820D02*
X-82470Y1226820D01*
X-72470Y1222820D02*
X-72470Y1230820D01*
X-82470Y1226820D01*
D14*
X-90970Y1218570D02*
X-63970Y1218570D01*
X-63970Y1235070D01*
X-90970Y1235070D01*
X-90970Y1218570D01*
D16*
X-83470Y1226820D03*
D10*
X-55644Y1238504D02*
X-55644Y1245114D01*
X-55644Y1238504D02*
X-58949Y1238504D01*
X-60050Y1239606D01*
X-60050Y1244012D01*
X-58949Y1245114D01*
X-55644Y1245114D01*
X-63128Y1238504D02*
X-67534Y1238504D01*
X-63128Y1238504D02*
X-67534Y1242910D01*
X-67534Y1244012D01*
X-66433Y1245114D01*
X-64229Y1245114D01*
X-63128Y1244012D01*
D14*
X-52164Y1060245D02*
X-32164Y1060245D01*
X-32164Y1082245D02*
X-52164Y1082245D01*
X-34164Y1056245D02*
X-31164Y1056245D01*
X-34164Y1056245D02*
X-35164Y1056245D01*
X-33164Y1058245D01*
X-31164Y1056245D01*
X-32164Y1056245D01*
X-33164Y1057245D01*
D10*
X-32926Y1085007D02*
X-32926Y1091617D01*
X-32926Y1085007D02*
X-37332Y1085007D01*
X-40410Y1085007D02*
X-44817Y1085007D01*
X-44817Y1089413D02*
X-40410Y1085007D01*
X-44817Y1089413D02*
X-44817Y1090515D01*
X-43715Y1091617D01*
X-41512Y1091617D01*
X-40410Y1090515D01*
D14*
X-105650Y1236820D02*
X-135650Y1236820D01*
X-135650Y1216820D01*
X-105650Y1216820D01*
X-105650Y1236820D01*
X-107886Y1236820D02*
X-107884Y1236914D01*
X-107878Y1237008D01*
X-107868Y1237102D01*
X-107854Y1237195D01*
X-107836Y1237288D01*
X-107815Y1237380D01*
X-107789Y1237470D01*
X-107760Y1237560D01*
X-107727Y1237648D01*
X-107690Y1237735D01*
X-107650Y1237820D01*
X-107606Y1237904D01*
X-107558Y1237985D01*
X-107508Y1238065D01*
X-107453Y1238142D01*
X-107396Y1238217D01*
X-107336Y1238289D01*
X-107272Y1238359D01*
X-107206Y1238426D01*
X-107137Y1238490D01*
X-107065Y1238551D01*
X-106991Y1238609D01*
X-106914Y1238664D01*
X-106835Y1238716D01*
X-106754Y1238764D01*
X-106671Y1238809D01*
X-106587Y1238850D01*
X-106500Y1238888D01*
X-106412Y1238922D01*
X-106323Y1238952D01*
X-106233Y1238979D01*
X-106141Y1239001D01*
X-106049Y1239020D01*
X-105955Y1239035D01*
X-105862Y1239046D01*
X-105768Y1239053D01*
X-105674Y1239056D01*
X-105579Y1239055D01*
X-105485Y1239050D01*
X-105391Y1239041D01*
X-105298Y1239028D01*
X-105205Y1239011D01*
X-105113Y1238991D01*
X-105022Y1238966D01*
X-104932Y1238938D01*
X-104844Y1238906D01*
X-104756Y1238870D01*
X-104671Y1238830D01*
X-104587Y1238787D01*
X-104505Y1238741D01*
X-104425Y1238691D01*
X-104347Y1238637D01*
X-104272Y1238581D01*
X-104199Y1238521D01*
X-104128Y1238458D01*
X-104061Y1238393D01*
X-103996Y1238324D01*
X-103934Y1238253D01*
X-103875Y1238180D01*
X-103819Y1238104D01*
X-103767Y1238025D01*
X-103718Y1237945D01*
X-103672Y1237862D01*
X-103630Y1237778D01*
X-103591Y1237692D01*
X-103556Y1237604D01*
X-103525Y1237515D01*
X-103497Y1237425D01*
X-103474Y1237334D01*
X-103454Y1237242D01*
X-103438Y1237149D01*
X-103426Y1237055D01*
X-103418Y1236961D01*
X-103414Y1236867D01*
X-103414Y1236773D01*
X-103418Y1236679D01*
X-103426Y1236585D01*
X-103438Y1236491D01*
X-103454Y1236398D01*
X-103474Y1236306D01*
X-103497Y1236215D01*
X-103525Y1236125D01*
X-103556Y1236036D01*
X-103591Y1235948D01*
X-103630Y1235862D01*
X-103672Y1235778D01*
X-103718Y1235695D01*
X-103767Y1235615D01*
X-103819Y1235536D01*
X-103875Y1235460D01*
X-103934Y1235387D01*
X-103996Y1235316D01*
X-104061Y1235247D01*
X-104128Y1235182D01*
X-104199Y1235119D01*
X-104272Y1235059D01*
X-104347Y1235003D01*
X-104425Y1234949D01*
X-104505Y1234899D01*
X-104587Y1234853D01*
X-104671Y1234810D01*
X-104756Y1234770D01*
X-104844Y1234734D01*
X-104932Y1234702D01*
X-105022Y1234674D01*
X-105113Y1234649D01*
X-105205Y1234629D01*
X-105298Y1234612D01*
X-105391Y1234599D01*
X-105485Y1234590D01*
X-105579Y1234585D01*
X-105674Y1234584D01*
X-105768Y1234587D01*
X-105862Y1234594D01*
X-105955Y1234605D01*
X-106049Y1234620D01*
X-106141Y1234639D01*
X-106233Y1234661D01*
X-106323Y1234688D01*
X-106412Y1234718D01*
X-106500Y1234752D01*
X-106587Y1234790D01*
X-106671Y1234831D01*
X-106754Y1234876D01*
X-106835Y1234924D01*
X-106914Y1234976D01*
X-106991Y1235031D01*
X-107065Y1235089D01*
X-107137Y1235150D01*
X-107206Y1235214D01*
X-107272Y1235281D01*
X-107336Y1235351D01*
X-107396Y1235423D01*
X-107453Y1235498D01*
X-107508Y1235575D01*
X-107558Y1235655D01*
X-107606Y1235736D01*
X-107650Y1235820D01*
X-107690Y1235905D01*
X-107727Y1235992D01*
X-107760Y1236080D01*
X-107789Y1236170D01*
X-107815Y1236260D01*
X-107836Y1236352D01*
X-107854Y1236445D01*
X-107868Y1236538D01*
X-107878Y1236632D01*
X-107884Y1236726D01*
X-107886Y1236820D01*
D12*
X-120015Y1241235D02*
X-120015Y1249235D01*
D10*
X-89299Y1248289D02*
X-89299Y1241679D01*
X-89299Y1248289D02*
X-92604Y1248289D01*
X-93705Y1247187D01*
X-93705Y1244984D01*
X-92604Y1243882D01*
X-89299Y1243882D01*
X-91502Y1243882D02*
X-93705Y1241679D01*
X-96783Y1241679D02*
X-101189Y1241679D01*
X-96783Y1241679D02*
X-101189Y1246085D01*
X-101189Y1247187D01*
X-100088Y1248289D01*
X-97884Y1248289D01*
X-96783Y1247187D01*
D14*
X-52164Y265000D02*
X-32164Y265000D01*
X-32164Y243000D02*
X-52164Y243000D01*
X-53164Y269000D02*
X-50164Y269000D01*
X-49164Y269000D01*
X-51164Y267000D01*
X-53164Y269000D01*
X-52164Y269000D01*
X-51164Y268000D01*
D10*
X-37958Y240244D02*
X-37958Y233634D01*
X-42364Y233634D01*
X-45442Y238040D02*
X-47645Y240244D01*
X-47645Y233634D01*
X-45442Y233634D02*
X-49848Y233634D01*
D14*
X-531020Y265000D02*
X-551020Y265000D01*
X-551020Y243000D02*
X-531020Y243000D01*
X-549020Y269000D02*
X-552020Y269000D01*
X-549020Y269000D02*
X-548020Y269000D01*
X-550020Y267000D01*
X-552020Y269000D01*
X-551020Y269000D01*
X-550020Y268000D01*
D10*
X-536814Y240244D02*
X-536814Y233634D01*
X-541220Y233634D01*
X-544298Y239142D02*
X-545399Y240244D01*
X-547603Y240244D01*
X-548704Y239142D01*
X-548704Y238040D01*
X-547603Y236939D01*
X-546501Y236939D01*
X-547603Y236939D02*
X-548704Y235837D01*
X-548704Y234736D01*
X-547603Y233634D01*
X-545399Y233634D01*
X-544298Y234736D01*
D14*
X-1134540Y244000D02*
X-1134540Y264000D01*
X-1156540Y264000D02*
X-1156540Y244000D01*
X-1130540Y262000D02*
X-1130540Y265000D01*
X-1130540Y262000D02*
X-1130540Y261000D01*
X-1132540Y263000D01*
X-1130540Y265000D01*
X-1130540Y264000D01*
X-1131540Y263000D01*
D10*
X-1159296Y249794D02*
X-1165906Y249794D01*
X-1165906Y254200D01*
X-1165906Y260583D02*
X-1159296Y260583D01*
X-1162601Y257278D01*
X-1162601Y261684D01*
D14*
X-1134540Y732950D02*
X-1134540Y752950D01*
X-1156540Y752950D02*
X-1156540Y732950D01*
X-1130540Y750950D02*
X-1130540Y753950D01*
X-1130540Y750950D02*
X-1130540Y749950D01*
X-1132540Y751950D01*
X-1130540Y753950D01*
X-1130540Y752950D01*
X-1131540Y751950D01*
D10*
X-1159296Y738744D02*
X-1165906Y738744D01*
X-1165906Y743150D01*
X-1159296Y746228D02*
X-1159296Y750634D01*
X-1159296Y746228D02*
X-1162601Y746228D01*
X-1161500Y748431D01*
X-1161500Y749533D01*
X-1162601Y750634D01*
X-1164804Y750634D01*
X-1165906Y749533D01*
X-1165906Y747329D01*
X-1164804Y746228D01*
D14*
X-1155540Y1223186D02*
X-1135540Y1223186D01*
X-1135540Y1245186D02*
X-1155540Y1245186D01*
X-1137540Y1219186D02*
X-1134540Y1219186D01*
X-1137540Y1219186D02*
X-1138540Y1219186D01*
X-1136540Y1221186D01*
X-1134540Y1219186D01*
X-1135540Y1219186D01*
X-1136540Y1220186D01*
D10*
X-1136302Y1247948D02*
X-1136302Y1254558D01*
X-1136302Y1247948D02*
X-1140708Y1247948D01*
X-1145989Y1253456D02*
X-1148193Y1254558D01*
X-1145989Y1253456D02*
X-1143786Y1251253D01*
X-1143786Y1249050D01*
X-1144888Y1247948D01*
X-1147091Y1247948D01*
X-1148193Y1249050D01*
X-1148193Y1250151D01*
X-1147091Y1251253D01*
X-1143786Y1251253D01*
D14*
X-567530Y1223186D02*
X-547530Y1223186D01*
X-547530Y1245186D02*
X-567530Y1245186D01*
X-549530Y1219186D02*
X-546530Y1219186D01*
X-549530Y1219186D02*
X-550530Y1219186D01*
X-548530Y1221186D01*
X-546530Y1219186D01*
X-547530Y1219186D01*
X-548530Y1220186D01*
D10*
X-548292Y1247948D02*
X-548292Y1254558D01*
X-548292Y1247948D02*
X-552698Y1247948D01*
X-555776Y1254558D02*
X-560183Y1254558D01*
X-560183Y1253456D01*
X-555776Y1249050D01*
X-555776Y1247948D01*
D12*
X-244538Y788670D02*
X-236538Y788670D01*
D10*
X-236214Y807484D02*
X-242824Y807484D01*
X-236214Y807484D02*
X-236214Y810789D01*
X-237316Y811890D01*
X-239519Y811890D01*
X-240621Y810789D01*
X-240621Y807484D01*
X-240621Y809687D02*
X-242824Y811890D01*
X-237316Y814968D02*
X-236214Y816069D01*
X-236214Y818273D01*
X-237316Y819374D01*
X-238418Y819374D01*
X-239519Y818273D01*
X-239519Y817171D01*
X-239519Y818273D02*
X-240621Y819374D01*
X-241722Y819374D01*
X-242824Y818273D01*
X-242824Y816069D01*
X-241722Y814968D01*
D12*
X-721170Y980440D02*
X-729170Y980440D01*
D10*
X-728726Y999254D02*
X-722116Y999254D01*
X-722116Y1002559D01*
X-723218Y1003660D01*
X-725421Y1003660D01*
X-726523Y1002559D01*
X-726523Y999254D01*
X-726523Y1001457D02*
X-728726Y1003660D01*
X-728726Y1010043D02*
X-722116Y1010043D01*
X-725421Y1006738D01*
X-725421Y1011144D01*
D12*
X-919036Y788670D02*
X-927036Y788670D01*
D10*
X-926592Y807484D02*
X-919982Y807484D01*
X-919982Y810789D01*
X-921084Y811890D01*
X-923287Y811890D01*
X-924389Y810789D01*
X-924389Y807484D01*
X-924389Y809687D02*
X-926592Y811890D01*
X-919982Y814968D02*
X-919982Y819374D01*
X-919982Y814968D02*
X-923287Y814968D01*
X-922186Y817171D01*
X-922186Y818273D01*
X-923287Y819374D01*
X-925490Y819374D01*
X-926592Y818273D01*
X-926592Y816069D01*
X-925490Y814968D01*
D12*
X-709930Y1067880D02*
X-709930Y1075880D01*
D10*
X-728472Y1077982D02*
X-728472Y1071372D01*
X-728472Y1077982D02*
X-731777Y1077982D01*
X-732878Y1076880D01*
X-732878Y1074677D01*
X-731777Y1073575D01*
X-728472Y1073575D01*
X-730675Y1073575D02*
X-732878Y1071372D01*
X-738159Y1076880D02*
X-740363Y1077982D01*
X-738159Y1076880D02*
X-735956Y1074677D01*
X-735956Y1072474D01*
X-737058Y1071372D01*
X-739261Y1071372D01*
X-740363Y1072474D01*
X-740363Y1073575D01*
X-739261Y1074677D01*
X-735956Y1074677D01*
D12*
X-410908Y980440D02*
X-402908Y980440D01*
D10*
X-400806Y998982D02*
X-407416Y998982D01*
X-400806Y998982D02*
X-400806Y1002287D01*
X-401908Y1003388D01*
X-404111Y1003388D01*
X-405213Y1002287D01*
X-405213Y998982D01*
X-405213Y1001185D02*
X-407416Y1003388D01*
X-401908Y1006466D02*
X-400806Y1007568D01*
X-400806Y1009771D01*
X-401908Y1010873D01*
X-403010Y1010873D01*
X-404111Y1009771D01*
X-405213Y1010873D01*
X-406314Y1010873D01*
X-407416Y1009771D01*
X-407416Y1007568D01*
X-406314Y1006466D01*
X-405213Y1006466D01*
X-404111Y1007568D01*
X-403010Y1006466D01*
X-401908Y1006466D01*
X-404111Y1007568D02*
X-404111Y1009771D01*
D12*
X-561912Y980440D02*
X-569912Y980440D01*
D10*
X-566420Y998982D02*
X-559810Y998982D01*
X-559810Y1002287D01*
X-560912Y1003388D01*
X-563115Y1003388D01*
X-564217Y1002287D01*
X-564217Y998982D01*
X-564217Y1001185D02*
X-566420Y1003388D01*
X-565318Y1006466D02*
X-566420Y1007568D01*
X-566420Y1009771D01*
X-565318Y1010873D01*
X-560912Y1010873D01*
X-559810Y1009771D01*
X-559810Y1007568D01*
X-560912Y1006466D01*
X-562014Y1006466D01*
X-563115Y1007568D01*
X-563115Y1010873D01*
D12*
X-223710Y788670D02*
X-215710Y788670D01*
D10*
X-216656Y810789D02*
X-217758Y811890D01*
X-216656Y810789D02*
X-216656Y808585D01*
X-217758Y807484D01*
X-222164Y807484D01*
X-223266Y808585D01*
X-223266Y810789D01*
X-222164Y811890D01*
X-223266Y814968D02*
X-223266Y819374D01*
X-223266Y814968D02*
X-218860Y819374D01*
X-217758Y819374D01*
X-216656Y818273D01*
X-216656Y816069D01*
X-217758Y814968D01*
D12*
X-422466Y980440D02*
X-430466Y980440D01*
D10*
X-423412Y1001289D02*
X-424514Y1002390D01*
X-423412Y1001289D02*
X-423412Y999085D01*
X-424514Y997984D01*
X-428920Y997984D01*
X-430022Y999085D01*
X-430022Y1001289D01*
X-428920Y1002390D01*
X-424514Y1005468D02*
X-423412Y1006569D01*
X-423412Y1008773D01*
X-424514Y1009874D01*
X-425616Y1009874D01*
X-426717Y1008773D01*
X-426717Y1007671D01*
X-426717Y1008773D02*
X-427819Y1009874D01*
X-428920Y1009874D01*
X-430022Y1008773D01*
X-430022Y1006569D01*
X-428920Y1005468D01*
D12*
X-582232Y980440D02*
X-590232Y980440D01*
D10*
X-583178Y1001289D02*
X-584280Y1002390D01*
X-583178Y1001289D02*
X-583178Y999085D01*
X-584280Y997984D01*
X-588686Y997984D01*
X-589788Y999085D01*
X-589788Y1001289D01*
X-588686Y1002390D01*
X-589788Y1008773D02*
X-583178Y1008773D01*
X-586483Y1005468D01*
X-586483Y1009874D01*
D12*
X-740728Y980440D02*
X-748728Y980440D01*
D10*
X-740404Y1002559D02*
X-741506Y1003660D01*
X-740404Y1002559D02*
X-740404Y1000355D01*
X-741506Y999254D01*
X-745912Y999254D01*
X-747014Y1000355D01*
X-747014Y1002559D01*
X-745912Y1003660D01*
X-745912Y1006738D02*
X-747014Y1007839D01*
X-747014Y1010043D01*
X-745912Y1011144D01*
X-741506Y1011144D01*
X-740404Y1010043D01*
X-740404Y1007839D01*
X-741506Y1006738D01*
X-742608Y1006738D01*
X-743709Y1007839D01*
X-743709Y1011144D01*
D12*
X-939864Y788670D02*
X-947864Y788670D01*
D10*
X-939540Y809654D02*
X-940642Y810756D01*
X-939540Y809654D02*
X-939540Y807451D01*
X-940642Y806350D01*
X-945048Y806350D01*
X-946150Y807451D01*
X-946150Y809654D01*
X-945048Y810756D01*
X-941744Y813834D02*
X-939540Y816037D01*
X-946150Y816037D01*
X-946150Y813834D02*
X-946150Y818240D01*
X-945048Y821318D02*
X-940642Y821318D01*
X-939540Y822419D01*
X-939540Y824623D01*
X-940642Y825724D01*
X-945048Y825724D01*
X-946150Y824623D01*
X-946150Y822419D01*
X-945048Y821318D01*
X-940642Y825724D01*
D12*
X-179260Y1096264D02*
X-171260Y1096264D01*
D10*
X-170936Y1118518D02*
X-172038Y1119620D01*
X-170936Y1118518D02*
X-170936Y1116315D01*
X-172038Y1115214D01*
X-176444Y1115214D01*
X-177546Y1116315D01*
X-177546Y1118518D01*
X-176444Y1119620D01*
X-173140Y1122698D02*
X-170936Y1124901D01*
X-177546Y1124901D01*
X-177546Y1122698D02*
X-177546Y1127104D01*
X-173140Y1130182D02*
X-170936Y1132385D01*
X-177546Y1132385D01*
X-177546Y1130182D02*
X-177546Y1134588D01*
D12*
X-709930Y1056576D02*
X-709930Y1048576D01*
D10*
X-731777Y1058678D02*
X-732878Y1057576D01*
X-731777Y1058678D02*
X-729574Y1058678D01*
X-728472Y1057576D01*
X-728472Y1053170D01*
X-729574Y1052068D01*
X-731777Y1052068D01*
X-732878Y1053170D01*
X-735956Y1056474D02*
X-738159Y1058678D01*
X-738159Y1052068D01*
X-735956Y1052068D02*
X-740363Y1052068D01*
X-743440Y1052068D02*
X-747847Y1052068D01*
X-747847Y1056474D02*
X-743440Y1052068D01*
X-747847Y1056474D02*
X-747847Y1057576D01*
X-746745Y1058678D01*
X-744542Y1058678D01*
X-743440Y1057576D01*
D12*
X-159956Y1096264D02*
X-151956Y1096264D01*
D10*
X-151124Y1116076D02*
X-157734Y1116076D01*
X-151124Y1116076D02*
X-151124Y1119381D01*
X-152226Y1120482D01*
X-154429Y1120482D01*
X-155531Y1119381D01*
X-155531Y1116076D01*
X-155531Y1118279D02*
X-157734Y1120482D01*
X-153328Y1123560D02*
X-151124Y1125763D01*
X-157734Y1125763D01*
X-157734Y1123560D02*
X-157734Y1127967D01*
X-156632Y1131044D02*
X-152226Y1131044D01*
X-151124Y1132146D01*
X-151124Y1134349D01*
X-152226Y1135451D01*
X-156632Y1135451D01*
X-157734Y1134349D01*
X-157734Y1132146D01*
X-156632Y1131044D01*
X-152226Y1135451D01*
M02*
