G04 EAGLE Gerber RS-274X export*
G75*
%MOMM*%
%FSLAX34Y34*%
%LPD*%
%INSolderpaste Bottom*%
%IPPOS*%
%AMOC8*
5,1,8,0,0,1.08239X$1,22.5*%
G01*
%ADD10R,1.240000X1.500000*%
%ADD11R,1.075000X1.000000*%
%ADD12R,1.200000X1.200000*%
%ADD13R,1.000000X1.000000*%
%ADD14R,2.000000X1.000000*%
%ADD15R,2.500000X2.500000*%
%ADD16R,1.250000X0.300000*%
%ADD17R,0.550000X1.200000*%
%ADD18R,0.250000X0.750000*%
%ADD19R,0.750000X0.250000*%
%ADD20R,1.000000X1.500000*%
%ADD21R,0.910000X1.220000*%
%ADD22R,0.700000X0.350000*%
%ADD23R,0.350000X0.250000*%
%ADD24R,0.350000X0.700000*%
%ADD25R,1.000000X1.075000*%

G36*
X-40814Y1224641D02*
X-40814Y1224641D01*
X-40768Y1224656D01*
X-40693Y1224671D01*
X-39628Y1225045D01*
X-39586Y1225069D01*
X-39516Y1225098D01*
X-38545Y1225672D01*
X-38508Y1225704D01*
X-38444Y1225746D01*
X-37604Y1226499D01*
X-37575Y1226537D01*
X-37520Y1226590D01*
X-36843Y1227493D01*
X-36821Y1227536D01*
X-36778Y1227599D01*
X-36290Y1228616D01*
X-36277Y1228663D01*
X-36248Y1228733D01*
X-35967Y1229826D01*
X-35964Y1229874D01*
X-35948Y1229949D01*
X-35887Y1231075D01*
X-35889Y1231091D01*
X-35886Y1231110D01*
X-35886Y1242110D01*
X-35889Y1242125D01*
X-35887Y1242145D01*
X-35948Y1243271D01*
X-35960Y1243318D01*
X-35967Y1243394D01*
X-36248Y1244487D01*
X-36268Y1244531D01*
X-36290Y1244604D01*
X-36778Y1245621D01*
X-36807Y1245660D01*
X-36843Y1245727D01*
X-37520Y1246630D01*
X-37555Y1246663D01*
X-37604Y1246721D01*
X-38444Y1247474D01*
X-38485Y1247500D01*
X-38545Y1247548D01*
X-39516Y1248122D01*
X-39561Y1248139D01*
X-39628Y1248175D01*
X-40693Y1248549D01*
X-40740Y1248557D01*
X-40814Y1248579D01*
X-41930Y1248738D01*
X-41958Y1248737D01*
X-42110Y1248738D01*
X-43227Y1248579D01*
X-43272Y1248564D01*
X-43347Y1248549D01*
X-44412Y1248175D01*
X-44454Y1248151D01*
X-44524Y1248122D01*
X-45495Y1247548D01*
X-45532Y1247516D01*
X-45596Y1247474D01*
X-46436Y1246721D01*
X-46466Y1246684D01*
X-46520Y1246630D01*
X-47197Y1245727D01*
X-47219Y1245684D01*
X-47262Y1245621D01*
X-47750Y1244604D01*
X-47763Y1244557D01*
X-47792Y1244487D01*
X-48073Y1243394D01*
X-48076Y1243346D01*
X-48092Y1243271D01*
X-48153Y1242145D01*
X-48151Y1242129D01*
X-48154Y1242110D01*
X-48154Y1231110D01*
X-48151Y1231091D01*
X-48153Y1231066D01*
X-48064Y1229781D01*
X-48052Y1229732D01*
X-48039Y1229641D01*
X-47666Y1228407D01*
X-47643Y1228362D01*
X-47610Y1228277D01*
X-46973Y1227157D01*
X-46940Y1227118D01*
X-46889Y1227042D01*
X-46018Y1226092D01*
X-45978Y1226061D01*
X-45911Y1225998D01*
X-44851Y1225266D01*
X-44805Y1225245D01*
X-44725Y1225199D01*
X-43529Y1224721D01*
X-43479Y1224711D01*
X-43392Y1224683D01*
X-42118Y1224483D01*
X-41930Y1224482D01*
X-40814Y1224641D01*
G37*
G36*
X-40814Y1146641D02*
X-40814Y1146641D01*
X-40768Y1146656D01*
X-40693Y1146671D01*
X-39628Y1147045D01*
X-39586Y1147069D01*
X-39516Y1147098D01*
X-38545Y1147672D01*
X-38508Y1147704D01*
X-38444Y1147746D01*
X-37604Y1148499D01*
X-37575Y1148537D01*
X-37520Y1148590D01*
X-36843Y1149493D01*
X-36821Y1149536D01*
X-36778Y1149599D01*
X-36290Y1150616D01*
X-36277Y1150663D01*
X-36248Y1150733D01*
X-35967Y1151826D01*
X-35964Y1151874D01*
X-35948Y1151949D01*
X-35887Y1153075D01*
X-35889Y1153091D01*
X-35886Y1153110D01*
X-35886Y1164110D01*
X-35889Y1164125D01*
X-35887Y1164145D01*
X-35948Y1165271D01*
X-35960Y1165318D01*
X-35967Y1165394D01*
X-36248Y1166487D01*
X-36268Y1166531D01*
X-36290Y1166604D01*
X-36778Y1167621D01*
X-36807Y1167660D01*
X-36843Y1167727D01*
X-37520Y1168630D01*
X-37555Y1168663D01*
X-37604Y1168721D01*
X-38444Y1169474D01*
X-38485Y1169500D01*
X-38545Y1169548D01*
X-39516Y1170122D01*
X-39561Y1170139D01*
X-39628Y1170175D01*
X-40693Y1170549D01*
X-40740Y1170557D01*
X-40814Y1170579D01*
X-41930Y1170738D01*
X-41958Y1170737D01*
X-42110Y1170738D01*
X-43227Y1170579D01*
X-43272Y1170564D01*
X-43347Y1170549D01*
X-44412Y1170175D01*
X-44454Y1170151D01*
X-44524Y1170122D01*
X-45495Y1169548D01*
X-45532Y1169516D01*
X-45596Y1169474D01*
X-46436Y1168721D01*
X-46466Y1168684D01*
X-46520Y1168630D01*
X-47197Y1167727D01*
X-47219Y1167684D01*
X-47262Y1167621D01*
X-47750Y1166604D01*
X-47763Y1166557D01*
X-47792Y1166487D01*
X-48073Y1165394D01*
X-48076Y1165346D01*
X-48092Y1165271D01*
X-48153Y1164145D01*
X-48151Y1164129D01*
X-48154Y1164110D01*
X-48154Y1153110D01*
X-48151Y1153091D01*
X-48153Y1153066D01*
X-48064Y1151781D01*
X-48052Y1151732D01*
X-48039Y1151641D01*
X-47666Y1150407D01*
X-47643Y1150362D01*
X-47610Y1150277D01*
X-46973Y1149157D01*
X-46940Y1149118D01*
X-46889Y1149042D01*
X-46018Y1148092D01*
X-45978Y1148061D01*
X-45911Y1147998D01*
X-44851Y1147266D01*
X-44805Y1147245D01*
X-44725Y1147199D01*
X-43529Y1146721D01*
X-43479Y1146711D01*
X-43392Y1146683D01*
X-42118Y1146483D01*
X-41930Y1146482D01*
X-40814Y1146641D01*
G37*
D10*
X-64845Y1201820D03*
X-83845Y1201820D03*
D11*
X-159755Y1239690D03*
X-142755Y1239690D03*
D10*
X-117485Y1186030D03*
X-98485Y1186030D03*
D12*
X-307138Y1231030D03*
X-286138Y1231030D03*
D11*
X-303013Y1244600D03*
X-286013Y1244600D03*
D13*
X-302513Y1173165D03*
X-286513Y1173165D03*
X-286513Y1213165D03*
X-302513Y1213165D03*
D14*
X-13020Y1205110D03*
X-13020Y1190110D03*
D15*
X-14020Y1233610D03*
X-14020Y1161610D03*
D16*
X-40770Y1210610D03*
X-40770Y1204110D03*
X-40770Y1197610D03*
X-40770Y1191110D03*
X-40770Y1184610D03*
D17*
X-79350Y1171876D03*
X-69850Y1171876D03*
X-60350Y1171876D03*
X-60350Y1145874D03*
X-79350Y1145874D03*
D18*
X-197290Y1157780D03*
X-202290Y1157780D03*
X-207290Y1157780D03*
X-212290Y1157780D03*
X-217290Y1157780D03*
X-222290Y1157780D03*
X-227290Y1157780D03*
X-232290Y1157780D03*
X-237290Y1157780D03*
X-242290Y1157780D03*
X-247290Y1157780D03*
D19*
X-259540Y1165030D03*
X-259540Y1170030D03*
X-259540Y1175030D03*
X-259540Y1180030D03*
X-259540Y1185030D03*
X-259540Y1190030D03*
X-259540Y1195030D03*
X-259540Y1200030D03*
X-259540Y1205030D03*
X-259540Y1210030D03*
X-259540Y1215030D03*
D18*
X-252290Y1227280D03*
X-247290Y1227280D03*
X-242290Y1227280D03*
X-237290Y1227280D03*
X-232290Y1227280D03*
X-227290Y1227280D03*
X-222290Y1227280D03*
X-217290Y1227280D03*
X-212290Y1227280D03*
X-207290Y1227280D03*
X-202290Y1227280D03*
D19*
X-190040Y1220030D03*
X-190040Y1215030D03*
X-190040Y1210030D03*
X-190040Y1205030D03*
X-190040Y1200030D03*
X-190040Y1195030D03*
X-190040Y1190030D03*
X-190040Y1185030D03*
X-190040Y1180030D03*
X-190040Y1175030D03*
X-190040Y1170030D03*
D20*
X-209790Y1205030D03*
X-224790Y1205030D03*
X-239790Y1205030D03*
X-239790Y1180030D03*
X-224790Y1180030D03*
X-209790Y1180030D03*
D18*
X-252290Y1157780D03*
D19*
X-259540Y1220030D03*
D18*
X-197290Y1227280D03*
D19*
X-190040Y1165030D03*
D11*
X-116196Y1201420D03*
X-99196Y1201420D03*
X-287283Y1156335D03*
X-304283Y1156335D03*
X-78985Y1185545D03*
X-61985Y1185545D03*
D21*
X-93845Y1226820D03*
X-61095Y1226820D03*
D22*
X-51664Y1063745D03*
X-51664Y1071245D03*
X-51664Y1078745D03*
X-32664Y1078745D03*
X-32664Y1071245D03*
X-32664Y1063745D03*
D23*
X-108650Y1234320D03*
X-108650Y1229320D03*
X-108650Y1224320D03*
X-108650Y1219320D03*
X-132650Y1234320D03*
X-132650Y1229320D03*
X-132650Y1224320D03*
X-132650Y1219320D03*
D11*
X-128515Y1245235D03*
X-111515Y1245235D03*
D22*
X-32664Y261500D03*
X-32664Y254000D03*
X-32664Y246500D03*
X-51664Y246500D03*
X-51664Y254000D03*
X-51664Y261500D03*
X-531520Y261500D03*
X-531520Y254000D03*
X-531520Y246500D03*
X-550520Y246500D03*
X-550520Y254000D03*
X-550520Y261500D03*
D24*
X-1138040Y244500D03*
X-1145540Y244500D03*
X-1153040Y244500D03*
X-1153040Y263500D03*
X-1145540Y263500D03*
X-1138040Y263500D03*
X-1138040Y733450D03*
X-1145540Y733450D03*
X-1153040Y733450D03*
X-1153040Y752450D03*
X-1145540Y752450D03*
X-1138040Y752450D03*
D22*
X-1155040Y1226686D03*
X-1155040Y1234186D03*
X-1155040Y1241686D03*
X-1136040Y1241686D03*
X-1136040Y1234186D03*
X-1136040Y1226686D03*
X-567030Y1226686D03*
X-567030Y1234186D03*
X-567030Y1241686D03*
X-548030Y1241686D03*
X-548030Y1234186D03*
X-548030Y1226686D03*
D25*
X-240538Y797170D03*
X-240538Y780170D03*
X-725170Y988940D03*
X-725170Y971940D03*
X-923036Y797170D03*
X-923036Y780170D03*
D11*
X-701430Y1071880D03*
X-718430Y1071880D03*
D25*
X-406908Y971940D03*
X-406908Y988940D03*
X-565912Y971940D03*
X-565912Y988940D03*
X-219710Y797170D03*
X-219710Y780170D03*
X-426466Y988940D03*
X-426466Y971940D03*
X-586232Y988940D03*
X-586232Y971940D03*
X-744728Y988940D03*
X-744728Y971940D03*
X-943864Y797170D03*
X-943864Y780170D03*
X-175260Y1104764D03*
X-175260Y1087764D03*
D11*
X-701430Y1052576D03*
X-718430Y1052576D03*
D25*
X-155956Y1087764D03*
X-155956Y1104764D03*
M02*
