G04 EAGLE Gerber RS-274X export*
G75*
%MOMM*%
%FSLAX34Y34*%
%LPD*%
%INSoldermask Bottom*%
%IPPOS*%
%AMOC8*
5,1,8,0,0,1.08239X$1,22.5*%
G01*
%ADD10R,1.341600X1.601600*%
%ADD11R,1.176600X1.101600*%
%ADD12R,1.301600X1.301600*%
%ADD13C,1.101600*%
%ADD14C,0.500000*%
%ADD15R,1.101600X1.101600*%
%ADD16C,0.801600*%
%ADD17R,2.514600X2.514600*%
%ADD18C,1.409600*%
%ADD19R,2.101600X1.101600*%
%ADD20R,1.450000X0.500000*%
%ADD21R,0.651600X1.301600*%
%ADD22R,0.351600X0.851600*%
%ADD23R,0.851600X0.351600*%
%ADD24R,4.801600X4.801600*%
%ADD25R,1.011600X1.321600*%
%ADD26R,0.801600X0.451600*%
%ADD27R,0.451600X0.351600*%
%ADD28R,0.451600X0.801600*%
%ADD29P,1.759533X8X22.500000*%
%ADD30R,1.101600X1.176600*%


D10*
X-64845Y1201820D03*
X-83845Y1201820D03*
D11*
X-159755Y1239690D03*
X-142755Y1239690D03*
D10*
X-117485Y1186030D03*
X-98485Y1186030D03*
D12*
X-307138Y1231030D03*
X-286138Y1231030D03*
D11*
X-303013Y1244600D03*
X-286013Y1244600D03*
D13*
X-1172083Y1187450D03*
D14*
X-1172083Y1194950D02*
X-1172264Y1194948D01*
X-1172445Y1194941D01*
X-1172626Y1194930D01*
X-1172807Y1194915D01*
X-1172987Y1194895D01*
X-1173167Y1194871D01*
X-1173346Y1194843D01*
X-1173524Y1194810D01*
X-1173701Y1194773D01*
X-1173878Y1194732D01*
X-1174053Y1194687D01*
X-1174228Y1194637D01*
X-1174401Y1194583D01*
X-1174572Y1194525D01*
X-1174743Y1194463D01*
X-1174911Y1194396D01*
X-1175078Y1194326D01*
X-1175244Y1194252D01*
X-1175407Y1194173D01*
X-1175568Y1194091D01*
X-1175728Y1194005D01*
X-1175885Y1193915D01*
X-1176040Y1193821D01*
X-1176193Y1193724D01*
X-1176343Y1193622D01*
X-1176491Y1193518D01*
X-1176637Y1193409D01*
X-1176779Y1193298D01*
X-1176919Y1193182D01*
X-1177056Y1193064D01*
X-1177191Y1192942D01*
X-1177322Y1192817D01*
X-1177450Y1192689D01*
X-1177575Y1192558D01*
X-1177697Y1192423D01*
X-1177815Y1192286D01*
X-1177931Y1192146D01*
X-1178042Y1192004D01*
X-1178151Y1191858D01*
X-1178255Y1191710D01*
X-1178357Y1191560D01*
X-1178454Y1191407D01*
X-1178548Y1191252D01*
X-1178638Y1191095D01*
X-1178724Y1190935D01*
X-1178806Y1190774D01*
X-1178885Y1190611D01*
X-1178959Y1190445D01*
X-1179029Y1190278D01*
X-1179096Y1190110D01*
X-1179158Y1189939D01*
X-1179216Y1189768D01*
X-1179270Y1189595D01*
X-1179320Y1189420D01*
X-1179365Y1189245D01*
X-1179406Y1189068D01*
X-1179443Y1188891D01*
X-1179476Y1188713D01*
X-1179504Y1188534D01*
X-1179528Y1188354D01*
X-1179548Y1188174D01*
X-1179563Y1187993D01*
X-1179574Y1187812D01*
X-1179581Y1187631D01*
X-1179583Y1187450D01*
X-1179581Y1187269D01*
X-1179574Y1187088D01*
X-1179563Y1186907D01*
X-1179548Y1186726D01*
X-1179528Y1186546D01*
X-1179504Y1186366D01*
X-1179476Y1186187D01*
X-1179443Y1186009D01*
X-1179406Y1185832D01*
X-1179365Y1185655D01*
X-1179320Y1185480D01*
X-1179270Y1185305D01*
X-1179216Y1185132D01*
X-1179158Y1184961D01*
X-1179096Y1184790D01*
X-1179029Y1184622D01*
X-1178959Y1184455D01*
X-1178885Y1184289D01*
X-1178806Y1184126D01*
X-1178724Y1183965D01*
X-1178638Y1183805D01*
X-1178548Y1183648D01*
X-1178454Y1183493D01*
X-1178357Y1183340D01*
X-1178255Y1183190D01*
X-1178151Y1183042D01*
X-1178042Y1182896D01*
X-1177931Y1182754D01*
X-1177815Y1182614D01*
X-1177697Y1182477D01*
X-1177575Y1182342D01*
X-1177450Y1182211D01*
X-1177322Y1182083D01*
X-1177191Y1181958D01*
X-1177056Y1181836D01*
X-1176919Y1181718D01*
X-1176779Y1181602D01*
X-1176637Y1181491D01*
X-1176491Y1181382D01*
X-1176343Y1181278D01*
X-1176193Y1181176D01*
X-1176040Y1181079D01*
X-1175885Y1180985D01*
X-1175728Y1180895D01*
X-1175568Y1180809D01*
X-1175407Y1180727D01*
X-1175244Y1180648D01*
X-1175078Y1180574D01*
X-1174911Y1180504D01*
X-1174743Y1180437D01*
X-1174572Y1180375D01*
X-1174401Y1180317D01*
X-1174228Y1180263D01*
X-1174053Y1180213D01*
X-1173878Y1180168D01*
X-1173701Y1180127D01*
X-1173524Y1180090D01*
X-1173346Y1180057D01*
X-1173167Y1180029D01*
X-1172987Y1180005D01*
X-1172807Y1179985D01*
X-1172626Y1179970D01*
X-1172445Y1179959D01*
X-1172264Y1179952D01*
X-1172083Y1179950D01*
X-1171902Y1179952D01*
X-1171721Y1179959D01*
X-1171540Y1179970D01*
X-1171359Y1179985D01*
X-1171179Y1180005D01*
X-1170999Y1180029D01*
X-1170820Y1180057D01*
X-1170642Y1180090D01*
X-1170465Y1180127D01*
X-1170288Y1180168D01*
X-1170113Y1180213D01*
X-1169938Y1180263D01*
X-1169765Y1180317D01*
X-1169594Y1180375D01*
X-1169423Y1180437D01*
X-1169255Y1180504D01*
X-1169088Y1180574D01*
X-1168922Y1180648D01*
X-1168759Y1180727D01*
X-1168598Y1180809D01*
X-1168438Y1180895D01*
X-1168281Y1180985D01*
X-1168126Y1181079D01*
X-1167973Y1181176D01*
X-1167823Y1181278D01*
X-1167675Y1181382D01*
X-1167529Y1181491D01*
X-1167387Y1181602D01*
X-1167247Y1181718D01*
X-1167110Y1181836D01*
X-1166975Y1181958D01*
X-1166844Y1182083D01*
X-1166716Y1182211D01*
X-1166591Y1182342D01*
X-1166469Y1182477D01*
X-1166351Y1182614D01*
X-1166235Y1182754D01*
X-1166124Y1182896D01*
X-1166015Y1183042D01*
X-1165911Y1183190D01*
X-1165809Y1183340D01*
X-1165712Y1183493D01*
X-1165618Y1183648D01*
X-1165528Y1183805D01*
X-1165442Y1183965D01*
X-1165360Y1184126D01*
X-1165281Y1184289D01*
X-1165207Y1184455D01*
X-1165137Y1184622D01*
X-1165070Y1184790D01*
X-1165008Y1184961D01*
X-1164950Y1185132D01*
X-1164896Y1185305D01*
X-1164846Y1185480D01*
X-1164801Y1185655D01*
X-1164760Y1185832D01*
X-1164723Y1186009D01*
X-1164690Y1186187D01*
X-1164662Y1186366D01*
X-1164638Y1186546D01*
X-1164618Y1186726D01*
X-1164603Y1186907D01*
X-1164592Y1187088D01*
X-1164585Y1187269D01*
X-1164583Y1187450D01*
X-1164585Y1187631D01*
X-1164592Y1187812D01*
X-1164603Y1187993D01*
X-1164618Y1188174D01*
X-1164638Y1188354D01*
X-1164662Y1188534D01*
X-1164690Y1188713D01*
X-1164723Y1188891D01*
X-1164760Y1189068D01*
X-1164801Y1189245D01*
X-1164846Y1189420D01*
X-1164896Y1189595D01*
X-1164950Y1189768D01*
X-1165008Y1189939D01*
X-1165070Y1190110D01*
X-1165137Y1190278D01*
X-1165207Y1190445D01*
X-1165281Y1190611D01*
X-1165360Y1190774D01*
X-1165442Y1190935D01*
X-1165528Y1191095D01*
X-1165618Y1191252D01*
X-1165712Y1191407D01*
X-1165809Y1191560D01*
X-1165911Y1191710D01*
X-1166015Y1191858D01*
X-1166124Y1192004D01*
X-1166235Y1192146D01*
X-1166351Y1192286D01*
X-1166469Y1192423D01*
X-1166591Y1192558D01*
X-1166716Y1192689D01*
X-1166844Y1192817D01*
X-1166975Y1192942D01*
X-1167110Y1193064D01*
X-1167247Y1193182D01*
X-1167387Y1193298D01*
X-1167529Y1193409D01*
X-1167675Y1193518D01*
X-1167823Y1193622D01*
X-1167973Y1193724D01*
X-1168126Y1193821D01*
X-1168281Y1193915D01*
X-1168438Y1194005D01*
X-1168598Y1194091D01*
X-1168759Y1194173D01*
X-1168922Y1194252D01*
X-1169088Y1194326D01*
X-1169255Y1194396D01*
X-1169423Y1194463D01*
X-1169594Y1194525D01*
X-1169765Y1194583D01*
X-1169938Y1194637D01*
X-1170113Y1194687D01*
X-1170288Y1194732D01*
X-1170465Y1194773D01*
X-1170642Y1194810D01*
X-1170820Y1194843D01*
X-1170999Y1194871D01*
X-1171179Y1194895D01*
X-1171359Y1194915D01*
X-1171540Y1194930D01*
X-1171721Y1194941D01*
X-1171902Y1194948D01*
X-1172083Y1194950D01*
D13*
X-105247Y228035D03*
D14*
X-105247Y235535D02*
X-105428Y235533D01*
X-105609Y235526D01*
X-105790Y235515D01*
X-105971Y235500D01*
X-106151Y235480D01*
X-106331Y235456D01*
X-106510Y235428D01*
X-106688Y235395D01*
X-106865Y235358D01*
X-107042Y235317D01*
X-107217Y235272D01*
X-107392Y235222D01*
X-107565Y235168D01*
X-107736Y235110D01*
X-107907Y235048D01*
X-108075Y234981D01*
X-108242Y234911D01*
X-108408Y234837D01*
X-108571Y234758D01*
X-108732Y234676D01*
X-108892Y234590D01*
X-109049Y234500D01*
X-109204Y234406D01*
X-109357Y234309D01*
X-109507Y234207D01*
X-109655Y234103D01*
X-109801Y233994D01*
X-109943Y233883D01*
X-110083Y233767D01*
X-110220Y233649D01*
X-110355Y233527D01*
X-110486Y233402D01*
X-110614Y233274D01*
X-110739Y233143D01*
X-110861Y233008D01*
X-110979Y232871D01*
X-111095Y232731D01*
X-111206Y232589D01*
X-111315Y232443D01*
X-111419Y232295D01*
X-111521Y232145D01*
X-111618Y231992D01*
X-111712Y231837D01*
X-111802Y231680D01*
X-111888Y231520D01*
X-111970Y231359D01*
X-112049Y231196D01*
X-112123Y231030D01*
X-112193Y230863D01*
X-112260Y230695D01*
X-112322Y230524D01*
X-112380Y230353D01*
X-112434Y230180D01*
X-112484Y230005D01*
X-112529Y229830D01*
X-112570Y229653D01*
X-112607Y229476D01*
X-112640Y229298D01*
X-112668Y229119D01*
X-112692Y228939D01*
X-112712Y228759D01*
X-112727Y228578D01*
X-112738Y228397D01*
X-112745Y228216D01*
X-112747Y228035D01*
X-112745Y227854D01*
X-112738Y227673D01*
X-112727Y227492D01*
X-112712Y227311D01*
X-112692Y227131D01*
X-112668Y226951D01*
X-112640Y226772D01*
X-112607Y226594D01*
X-112570Y226417D01*
X-112529Y226240D01*
X-112484Y226065D01*
X-112434Y225890D01*
X-112380Y225717D01*
X-112322Y225546D01*
X-112260Y225375D01*
X-112193Y225207D01*
X-112123Y225040D01*
X-112049Y224874D01*
X-111970Y224711D01*
X-111888Y224550D01*
X-111802Y224390D01*
X-111712Y224233D01*
X-111618Y224078D01*
X-111521Y223925D01*
X-111419Y223775D01*
X-111315Y223627D01*
X-111206Y223481D01*
X-111095Y223339D01*
X-110979Y223199D01*
X-110861Y223062D01*
X-110739Y222927D01*
X-110614Y222796D01*
X-110486Y222668D01*
X-110355Y222543D01*
X-110220Y222421D01*
X-110083Y222303D01*
X-109943Y222187D01*
X-109801Y222076D01*
X-109655Y221967D01*
X-109507Y221863D01*
X-109357Y221761D01*
X-109204Y221664D01*
X-109049Y221570D01*
X-108892Y221480D01*
X-108732Y221394D01*
X-108571Y221312D01*
X-108408Y221233D01*
X-108242Y221159D01*
X-108075Y221089D01*
X-107907Y221022D01*
X-107736Y220960D01*
X-107565Y220902D01*
X-107392Y220848D01*
X-107217Y220798D01*
X-107042Y220753D01*
X-106865Y220712D01*
X-106688Y220675D01*
X-106510Y220642D01*
X-106331Y220614D01*
X-106151Y220590D01*
X-105971Y220570D01*
X-105790Y220555D01*
X-105609Y220544D01*
X-105428Y220537D01*
X-105247Y220535D01*
X-105066Y220537D01*
X-104885Y220544D01*
X-104704Y220555D01*
X-104523Y220570D01*
X-104343Y220590D01*
X-104163Y220614D01*
X-103984Y220642D01*
X-103806Y220675D01*
X-103629Y220712D01*
X-103452Y220753D01*
X-103277Y220798D01*
X-103102Y220848D01*
X-102929Y220902D01*
X-102758Y220960D01*
X-102587Y221022D01*
X-102419Y221089D01*
X-102252Y221159D01*
X-102086Y221233D01*
X-101923Y221312D01*
X-101762Y221394D01*
X-101602Y221480D01*
X-101445Y221570D01*
X-101290Y221664D01*
X-101137Y221761D01*
X-100987Y221863D01*
X-100839Y221967D01*
X-100693Y222076D01*
X-100551Y222187D01*
X-100411Y222303D01*
X-100274Y222421D01*
X-100139Y222543D01*
X-100008Y222668D01*
X-99880Y222796D01*
X-99755Y222927D01*
X-99633Y223062D01*
X-99515Y223199D01*
X-99399Y223339D01*
X-99288Y223481D01*
X-99179Y223627D01*
X-99075Y223775D01*
X-98973Y223925D01*
X-98876Y224078D01*
X-98782Y224233D01*
X-98692Y224390D01*
X-98606Y224550D01*
X-98524Y224711D01*
X-98445Y224874D01*
X-98371Y225040D01*
X-98301Y225207D01*
X-98234Y225375D01*
X-98172Y225546D01*
X-98114Y225717D01*
X-98060Y225890D01*
X-98010Y226065D01*
X-97965Y226240D01*
X-97924Y226417D01*
X-97887Y226594D01*
X-97854Y226772D01*
X-97826Y226951D01*
X-97802Y227131D01*
X-97782Y227311D01*
X-97767Y227492D01*
X-97756Y227673D01*
X-97749Y227854D01*
X-97747Y228035D01*
X-97749Y228216D01*
X-97756Y228397D01*
X-97767Y228578D01*
X-97782Y228759D01*
X-97802Y228939D01*
X-97826Y229119D01*
X-97854Y229298D01*
X-97887Y229476D01*
X-97924Y229653D01*
X-97965Y229830D01*
X-98010Y230005D01*
X-98060Y230180D01*
X-98114Y230353D01*
X-98172Y230524D01*
X-98234Y230695D01*
X-98301Y230863D01*
X-98371Y231030D01*
X-98445Y231196D01*
X-98524Y231359D01*
X-98606Y231520D01*
X-98692Y231680D01*
X-98782Y231837D01*
X-98876Y231992D01*
X-98973Y232145D01*
X-99075Y232295D01*
X-99179Y232443D01*
X-99288Y232589D01*
X-99399Y232731D01*
X-99515Y232871D01*
X-99633Y233008D01*
X-99755Y233143D01*
X-99880Y233274D01*
X-100008Y233402D01*
X-100139Y233527D01*
X-100274Y233649D01*
X-100411Y233767D01*
X-100551Y233883D01*
X-100693Y233994D01*
X-100839Y234103D01*
X-100987Y234207D01*
X-101137Y234309D01*
X-101290Y234406D01*
X-101445Y234500D01*
X-101602Y234590D01*
X-101762Y234676D01*
X-101923Y234758D01*
X-102086Y234837D01*
X-102252Y234911D01*
X-102419Y234981D01*
X-102587Y235048D01*
X-102758Y235110D01*
X-102929Y235168D01*
X-103102Y235222D01*
X-103277Y235272D01*
X-103452Y235317D01*
X-103629Y235358D01*
X-103806Y235395D01*
X-103984Y235428D01*
X-104163Y235456D01*
X-104343Y235480D01*
X-104523Y235500D01*
X-104704Y235515D01*
X-104885Y235526D01*
X-105066Y235533D01*
X-105247Y235535D01*
D15*
X-302513Y1173165D03*
X-286513Y1173165D03*
X-286513Y1213165D03*
X-302513Y1213165D03*
D16*
X-33020Y1217110D03*
X-33020Y1178110D03*
D17*
X-14020Y1161610D03*
X-14020Y1233610D03*
D18*
X-42020Y1230610D02*
X-42020Y1243690D01*
X-42020Y1164610D02*
X-42020Y1151530D01*
D19*
X-13020Y1205110D03*
X-13020Y1190110D03*
D20*
X-40770Y1210610D03*
X-40770Y1204110D03*
X-40770Y1197610D03*
X-40770Y1191110D03*
X-40770Y1184610D03*
D21*
X-79350Y1171876D03*
X-69850Y1171876D03*
X-60350Y1171876D03*
X-60350Y1145874D03*
X-79350Y1145874D03*
D22*
X-197290Y1157780D03*
X-202290Y1157780D03*
X-207290Y1157780D03*
X-212290Y1157780D03*
X-217290Y1157780D03*
X-222290Y1157780D03*
X-227290Y1157780D03*
X-232290Y1157780D03*
X-237290Y1157780D03*
X-242290Y1157780D03*
X-247290Y1157780D03*
D23*
X-259540Y1165030D03*
X-259540Y1170030D03*
X-259540Y1175030D03*
X-259540Y1180030D03*
X-259540Y1185030D03*
X-259540Y1190030D03*
X-259540Y1195030D03*
X-259540Y1200030D03*
X-259540Y1205030D03*
X-259540Y1210030D03*
X-259540Y1215030D03*
D22*
X-252290Y1227280D03*
X-247290Y1227280D03*
X-242290Y1227280D03*
X-237290Y1227280D03*
X-232290Y1227280D03*
X-227290Y1227280D03*
X-222290Y1227280D03*
X-217290Y1227280D03*
X-212290Y1227280D03*
X-207290Y1227280D03*
X-202290Y1227280D03*
D23*
X-190040Y1220030D03*
X-190040Y1215030D03*
X-190040Y1210030D03*
X-190040Y1205030D03*
X-190040Y1200030D03*
X-190040Y1195030D03*
X-190040Y1190030D03*
X-190040Y1185030D03*
X-190040Y1180030D03*
X-190040Y1175030D03*
X-190040Y1170030D03*
D24*
X-224790Y1192530D03*
D22*
X-252290Y1157780D03*
D23*
X-259540Y1220030D03*
D22*
X-197290Y1227280D03*
D23*
X-190040Y1165030D03*
D11*
X-116196Y1201420D03*
X-99196Y1201420D03*
X-287283Y1156335D03*
X-304283Y1156335D03*
X-78985Y1185545D03*
X-61985Y1185545D03*
D25*
X-93845Y1226820D03*
X-61095Y1226820D03*
D26*
X-51664Y1063745D03*
X-51664Y1071245D03*
X-51664Y1078745D03*
X-32664Y1078745D03*
X-32664Y1071245D03*
X-32664Y1063745D03*
D27*
X-108650Y1234320D03*
X-108650Y1229320D03*
X-108650Y1224320D03*
X-108650Y1219320D03*
X-132650Y1234320D03*
X-132650Y1229320D03*
X-132650Y1224320D03*
X-132650Y1219320D03*
D11*
X-128515Y1245235D03*
X-111515Y1245235D03*
D26*
X-32664Y261500D03*
X-32664Y254000D03*
X-32664Y246500D03*
X-51664Y246500D03*
X-51664Y254000D03*
X-51664Y261500D03*
X-531520Y261500D03*
X-531520Y254000D03*
X-531520Y246500D03*
X-550520Y246500D03*
X-550520Y254000D03*
X-550520Y261500D03*
D28*
X-1138040Y244500D03*
X-1145540Y244500D03*
X-1153040Y244500D03*
X-1153040Y263500D03*
X-1145540Y263500D03*
X-1138040Y263500D03*
X-1138040Y733450D03*
X-1145540Y733450D03*
X-1153040Y733450D03*
X-1153040Y752450D03*
X-1145540Y752450D03*
X-1138040Y752450D03*
D26*
X-1155040Y1226686D03*
X-1155040Y1234186D03*
X-1155040Y1241686D03*
X-1136040Y1241686D03*
X-1136040Y1234186D03*
X-1136040Y1226686D03*
X-567030Y1226686D03*
X-567030Y1234186D03*
X-567030Y1241686D03*
X-548030Y1241686D03*
X-548030Y1234186D03*
X-548030Y1226686D03*
D29*
X-119380Y1097280D03*
X-119380Y1122680D03*
X-93980Y1097280D03*
X-93980Y1122680D03*
D30*
X-240538Y797170D03*
X-240538Y780170D03*
X-725170Y988940D03*
X-725170Y971940D03*
X-923036Y797170D03*
X-923036Y780170D03*
D11*
X-701430Y1071880D03*
X-718430Y1071880D03*
D30*
X-406908Y971940D03*
X-406908Y988940D03*
X-565912Y971940D03*
X-565912Y988940D03*
X-219710Y797170D03*
X-219710Y780170D03*
X-426466Y988940D03*
X-426466Y971940D03*
X-586232Y988940D03*
X-586232Y971940D03*
X-744728Y988940D03*
X-744728Y971940D03*
X-943864Y797170D03*
X-943864Y780170D03*
X-175260Y1104764D03*
X-175260Y1087764D03*
D11*
X-701430Y1052576D03*
X-718430Y1052576D03*
D30*
X-155956Y1087764D03*
X-155956Y1104764D03*
M02*
