<?xml version="1.0" encoding="UTF-8" standalone="no"?>
<svg
   xmlns:dc="http://purl.org/dc/elements/1.1/"
   xmlns:cc="http://creativecommons.org/ns#"
   xmlns:rdf="http://www.w3.org/1999/02/22-rdf-syntax-ns#"
   xmlns:svg="http://www.w3.org/2000/svg"
   xmlns="http://www.w3.org/2000/svg"
   xmlns:sodipodi="http://sodipodi.sourceforge.net/DTD/sodipodi-0.dtd"
   xmlns:inkscape="http://www.inkscape.org/namespaces/inkscape"
   height="180.62222mm"
   viewBox="0 -34 512.00121 512"
   width="180.62222mm"
   version="1.1"
   id="svg406"
   sodipodi:docname="drum-set-keepOutMask-10px.svg"
   inkscape:version="1.0 (4035a4f, 2020-05-01)">
  <metadata
     id="metadata412">
    <rdf:RDF>
      <cc:Work
         rdf:about="">
        <dc:format>image/svg+xml</dc:format>
        <dc:type
           rdf:resource="http://purl.org/dc/dcmitype/StillImage" />
        <dc:title />
      </cc:Work>
    </rdf:RDF>
  </metadata>
  <defs
     id="defs410" />
  <sodipodi:namedview
     units="mm"
     pagecolor="#ffffff"
     bordercolor="#666666"
     inkscape:document-rotation="0"
     borderopacity="1"
     objecttolerance="10"
     gridtolerance="10"
     guidetolerance="10"
     inkscape:pageopacity="0"
     inkscape:pageshadow="2"
     inkscape:window-width="1415"
     inkscape:window-height="835"
     id="namedview408"
     showgrid="false"
     inkscape:zoom="1.7239647"
     inkscape:cx="363.60982"
     inkscape:cy="177.0724"
     inkscape:window-x="0"
     inkscape:window-y="23"
     inkscape:window-maximized="0"
     inkscape:current-layer="layer1" />
  <g
     inkscape:groupmode="layer"
     id="layer3"
     inkscape:label="bass"
     style="display:none">
    <path
       d="m 137.63281,73.294922 c -3.59682,0.03933 -6.94241,2.727296 -7.74577,6.235044 -0.92695,3.506288 0.82182,7.478649 4.03421,9.163789 22.33277,12.885875 44.65087,25.798225 66.99281,38.667575 3.28105,1.7497 7.67743,0.85704 10.01406,-2.0354 2.35756,-2.71483 2.54896,-6.99352 0.47032,-9.92163 -1.36844,-2.10925 -3.80773,-3.0241 -5.8568,-4.29894 -6.91037,-3.9889 -13.82073,-7.97779 -20.73109,-11.966688 1.33188,-4.498705 -0.53371,-9.704381 -4.43242,-12.319729 -3.66511,-2.61727 -8.90297,-2.669145 -12.63,-0.148155 -0.67483,0.443059 -1.30356,0.958183 -1.86532,1.538196 -8.14655,-4.687503 -16.26785,-9.421713 -24.43007,-14.080214 -1.18114,-0.58325 -2.50351,-0.869884 -3.81993,-0.833848 z"
       style="display:inline;fill-rule:nonzero;stroke:#6671ce;stroke-width:7.50002;stroke-miterlimit:4;stroke-dasharray:none;stroke-opacity:1"
       id="path404-4" />
    <path
       d="m 241.58008,153.71875 c -16.4465,0.005 -32.89424,-0.0181 -49.33995,0.0231 -5.41176,0.24071 -10.37768,4.35478 -11.58563,9.64118 -0.64671,2.72764 -0.27977,5.55076 -0.3752,8.32359 0.0156,12.32741 -0.0346,24.65683 0.0333,36.98298 0.29706,5.12913 4.33742,9.62502 9.27438,10.8266 2.84479,0.74441 5.80801,0.34551 8.70991,0.44472 7.5983,0 15.19661,0 22.79492,0 -0.58427,0.39363 -1.38771,0.0828 -2.06368,0.18164 -21.13324,0.008 -42.26743,-0.0181 -63.40009,0.025 -5.39995,0.25647 -10.35119,4.36211 -11.55752,9.6393 -0.64995,2.72784 -0.27796,5.55219 -0.3752,8.32554 0.006,25.1988 -0.0129,50.39831 0.0188,75.59667 0.11649,4.17294 2.77501,8.10574 6.56055,9.84248 2.54279,1.25846 5.43281,1.46116 8.22334,1.35031 14.61067,-10e-6 29.22135,0 43.83203,0 9.94118,14.05678 24.87953,24.50451 41.52688,28.92858 16.40212,4.41609 34.304,3.059 49.81286,-3.89172 15.51357,-6.89195 28.53585,-19.22642 36.21359,-34.37132 5.8718,-11.48705 8.67816,-24.51593 8.04432,-37.40187 5.87283,-0.0221 11.74887,0.0552 17.61965,-0.0486 5.03819,-0.33885 9.73411,-3.96931 11.09509,-8.8704 0.82225,-2.83753 0.39973,-5.81775 0.50254,-8.72512 -0.0138,-9.52534 0.0365,-19.05266 -0.0336,-28.57674 -0.29949,-5.39483 -4.44496,-10.30772 -9.72841,-11.47028 -2.73244,-0.61709 -5.5527,-0.25598 -8.32637,-0.35181 -14.44531,0 -28.89062,0 -43.33594,0 -0.61449,-0.37994 0.91653,-0.0922 1.23633,-0.18139 9.18934,-0.0151 18.38092,0.04 27.56885,-0.0361 4.80482,-0.24819 9.44783,-3.40297 11.0429,-8.01008 1.07257,-2.93786 0.60262,-6.10436 0.70307,-9.15837 -0.009,-12.42717 0.0257,-24.85576 -0.0336,-37.28203 -0.33401,-5.33647 -4.41347,-10.1849 -9.63109,-11.38261 -2.72987,-0.64673 -5.55463,-0.27719 -8.32946,-0.37356 -15.14548,0.006 -30.29191,-0.0187 -45.43681,0.0254 -5.43508,0.25369 -10.41153,4.41533 -11.5809,9.73645 -0.61709,2.73244 -0.25598,5.5527 -0.35182,8.32637 -0.003,11.83594 0.003,23.67188 0.0117,35.50781 -5.0736,-0.51935 -10.20162,-0.52137 -15.27539,-0.002 -0.0198,-13.91113 0.0371,-27.82451 -0.0346,-41.73458 -0.27866,-5.35474 -4.34799,-10.24366 -9.57064,-11.4701 -1.45437,-0.3615 -2.96595,-0.43931 -4.45917,-0.38907 z"
       style="color:#000000;font-style:normal;font-variant:normal;font-weight:normal;font-stretch:normal;font-size:medium;line-height:normal;font-family:sans-serif;font-variant-ligatures:normal;font-variant-position:normal;font-variant-caps:normal;font-variant-numeric:normal;font-variant-alternates:normal;font-variant-east-asian:normal;font-feature-settings:normal;font-variation-settings:normal;text-indent:0;text-align:start;text-decoration:none;text-decoration-line:none;text-decoration-style:solid;text-decoration-color:#000000;letter-spacing:normal;word-spacing:normal;text-transform:none;writing-mode:lr-tb;direction:ltr;text-orientation:mixed;dominant-baseline:auto;baseline-shift:baseline;text-anchor:start;white-space:normal;shape-padding:0;shape-margin:0;inline-size:0;clip-rule:nonzero;display:inline;overflow:visible;visibility:visible;isolation:auto;mix-blend-mode:normal;color-interpolation:sRGB;color-interpolation-filters:linearRGB;solid-color:#000000;solid-opacity:1;vector-effect:none;fill:none;fill-opacity:1;fill-rule:nonzero;stroke:#6671ce;stroke-width:7.50002;stroke-linecap:butt;stroke-linejoin:miter;stroke-miterlimit:4;stroke-dasharray:none;stroke-dashoffset:0;stroke-opacity:1;color-rendering:auto;image-rendering:auto;shape-rendering:auto;text-rendering:auto;enable-background:accumulate;stop-color:#000000"
       id="path2929" />
    <path
       d="m 192.4375,154.91211 c -4.68225,0.16188 -9.02901,3.49437 -10.41598,7.96656 -0.88715,2.6274 -0.45916,5.43503 -0.56058,8.15102 0.0131,12.4854 -0.0261,24.97197 0.0195,37.45664 0.20503,4.47264 3.5767,8.42718 7.80388,9.7149 1.21571,0.44341 2.52211,0.48816 3.7826,0.65439 4.42522,1.06937 9.03267,0.72302 13.52698,0.38926 4.3242,-0.37014 8.74274,-0.97535 12.94709,-1.41285 2.00415,-0.16736 4.02852,-0.42851 6.0371,-0.19726 -1.26166,1.44698 -2.84673,2.56119 -4.38671,3.68945 -21.79096,0.009 -43.58239,-0.0182 -65.37305,0.0137 -4.66938,0.17895 -8.99712,3.50511 -10.38083,7.96656 -0.88941,2.62728 -0.45821,5.43498 -0.56058,8.15102 0.009,25.41843 -0.0182,50.83734 0.0137,76.25547 0.12196,3.61135 2.33919,7.0163 5.56671,8.62774 2.33539,1.26342 5.04184,1.50497 7.65087,1.40351 14.94831,0 29.89662,0 44.84492,0 9.44293,13.57456 23.57788,23.82062 39.45618,28.46885 17.09136,5.08557 36.03099,3.68182 52.14997,-3.96534 15.46515,-7.23153 28.22989,-20.03787 35.40927,-35.52804 5.19074,-11.08759 7.51063,-23.49719 6.70529,-35.7118 6.19382,-0.0204 12.38974,0.0407 18.58228,-0.0301 4.48139,-0.23401 8.7148,-3.30795 10.11351,-7.60686 0.93518,-2.64208 0.49139,-5.48129 0.59522,-8.2208 -0.0118,-9.64105 0.0235,-19.28286 -0.0176,-28.92344 -0.19366,-4.65479 -3.51508,-8.96002 -7.96266,-10.33981 -2.62758,-0.88874 -5.43479,-0.45867 -8.15102,-0.56058 -14.82864,0 -29.65729,0 -44.48593,0 -1.27825,-0.89831 -2.59706,-1.73765 -3.93555,-2.54297 10.92114,-0.0105 21.84294,0.0209 32.76367,-0.0156 4.26546,-0.14412 8.463,-2.74893 10.0848,-6.76466 1.19545,-2.68223 0.74497,-5.67008 0.83122,-8.5119 -0.0117,-12.56331 0.0235,-25.12738 -0.0176,-37.69023 -0.1925,-4.65587 -3.51725,-8.95951 -7.96461,-10.33981 -2.62799,-0.88598 -5.43492,-0.46003 -8.15102,-0.56058 -15.32269,0.0118 -30.64613,-0.0235 -45.96836,0.0176 -4.65464,0.19311 -8.9601,3.51534 -10.33981,7.96265 -0.88832,2.62731 -0.45855,5.43507 -0.56058,8.15102 0.0118,12.2556 -0.0235,24.51223 0.0176,36.76719 0.0192,0.45727 0.27748,1.09598 -0.43554,0.79296 -5.72551,-0.66246 -11.52949,-0.64976 -17.25,0.0586 0.0926,-4.11979 0.012,-8.24555 0.0391,-12.36758 -0.0156,-10.19374 0.0311,-20.38887 -0.0233,-30.58174 -0.23424,-4.7448 -3.73003,-9.09138 -8.30981,-10.34729 -2.53253,-0.74712 -5.20079,-0.35461 -7.79817,-0.45339 -15.29733,0.009 -30.59517,-0.0183 -45.89219,0.0137 z m 0.5918,3.625 c 16.76819,0.007 33.53669,-0.013 50.30468,0.01 3.63552,0.11831 6.90467,3.06663 7.39649,6.66992 0.20352,2.34119 0.0385,4.70134 0.0918,7.05 -0.01,12.0067 0.0198,24.01433 -0.0148,36.02045 -0.11603,1.67191 -0.93824,3.18103 -1.42851,4.75963 5.02204,-0.85127 10.10699,-1.42231 15.20814,-1.29374 2.7799,0.0523 5.61186,0.27533 8.28253,0.64222 1.53227,0.21576 3.02718,0.46618 4.58354,0.71206 -0.76851,-2.06771 -1.90758,-4.11481 -1.7246,-6.39648 0.0117,-13.59494 -0.0235,-27.19101 0.0176,-40.78524 0.15727,-3.69853 3.26371,-6.97562 6.94799,-7.33079 2.91648,-0.13442 5.8436,-0.0197 8.76412,-0.0578 14.2013,0.0119 28.40381,-0.0239 42.60436,0.0179 3.67564,0.16004 6.93707,3.22462 7.32721,6.88175 0.14617,2.80462 0.0224,5.62093 0.0634,8.43003 -0.0119,11.47461 0.0238,22.95041 -0.0178,34.42428 -0.10842,3.00207 -2.36952,5.66072 -5.23044,6.45993 -2.19835,0.66604 -4.52532,0.2938 -6.78341,0.39157 -12.11445,0 -24.2289,0 -36.34336,0 -0.21979,0.97597 -0.4403,1.95178 -0.66015,2.92773 4.12192,1.9518 8.0961,4.22281 11.79687,6.89258 16.87431,0.007 33.74894,-0.013 50.62305,0.01 3.66477,0.11667 6.95799,3.11727 7.40549,6.75736 0.18276,2.54861 0.0351,5.11341 0.0828,7.66842 -0.0138,8.95432 0.0277,17.90986 -0.0208,26.86341 -0.13397,3.34422 -2.80506,6.28347 -6.06347,6.91059 -2.02324,0.38016 -4.09962,0.11609 -6.14539,0.19475 -5.78867,0 -11.57734,0 -17.36601,0 0.86967,7.91155 0.52201,15.96962 -1.25014,23.73727 -3.42621,15.39858 -12.31602,29.48339 -24.67617,39.27382 -11.22567,8.99331 -25.29922,14.34985 -39.66439,15.09422 -2.76879,0.14717 -5.5059,0.13985 -8.22033,-0.0268 -3.29728,-0.20357 -6.59544,-0.64474 -9.71993,-1.2843 -7.30572,-1.48687 -14.50341,-4.21814 -20.99834,-8.00123 -7.92429,-4.599 -15.01353,-10.84355 -20.59485,-18.19204 -0.96263,-1.25508 -1.86521,-2.55449 -2.75085,-3.8646 -16.32026,-0.0106 -32.64151,0.0212 -48.96114,-0.0159 -2.95185,-0.08 -6.06294,-1.74953 -7.01807,-4.68023 -0.62809,-1.97874 -0.26197,-4.08541 -0.36064,-6.12344 0.007,-25.61089 -0.013,-51.22211 0.01,-76.83281 0.11633,-3.66965 3.12526,-6.96418 6.76913,-7.40908 2.4429,-0.17885 4.90171,-0.0309 7.35079,-0.0792 19.90078,0 39.80156,0 59.70235,0 1.44417,-0.86935 3.04724,-1.47142 4.50637,-2.32987 1.88596,-1.09352 3.98049,-2.15954 5.1558,-4.07483 0.75815,-1.2229 0.23037,-2.91155 -1.02741,-3.566 -2.16766,-1.16755 -4.72185,-1.16782 -7.12113,-1.31341 -9.33658,-0.22141 -18.63585,0.84208 -27.94649,1.35687 -2.0747,0.11504 -4.45691,0.34141 -6.46192,-0.66305 -2.65726,-1.17455 -4.55524,-3.98839 -4.35327,-6.9308 0.0117,-13.83856 -0.0235,-27.67825 0.0176,-41.5161 0.16006,-3.69688 3.26339,-6.9753 6.94798,-7.33079 0.31965,-0.0414 0.642,-0.0564 0.96413,-0.0578 z"
       style="color:#000000;font-style:normal;font-variant:normal;font-weight:normal;font-stretch:normal;font-size:medium;line-height:normal;font-family:sans-serif;font-variant-ligatures:normal;font-variant-position:normal;font-variant-caps:normal;font-variant-numeric:normal;font-variant-alternates:normal;font-variant-east-asian:normal;font-feature-settings:normal;font-variation-settings:normal;text-indent:0;text-align:start;text-decoration:none;text-decoration-line:none;text-decoration-style:solid;text-decoration-color:#000000;letter-spacing:normal;word-spacing:normal;text-transform:none;writing-mode:lr-tb;direction:ltr;text-orientation:mixed;dominant-baseline:auto;baseline-shift:baseline;text-anchor:start;white-space:normal;shape-padding:0;shape-margin:0;inline-size:0;clip-rule:nonzero;display:inline;overflow:visible;visibility:visible;isolation:auto;mix-blend-mode:normal;color-interpolation:sRGB;color-interpolation-filters:linearRGB;solid-color:#000000;solid-opacity:1;vector-effect:none;fill:none;fill-opacity:1;fill-rule:nonzero;stroke:#6671ce;stroke-width:7.50002;stroke-linecap:butt;stroke-linejoin:miter;stroke-miterlimit:4;stroke-dasharray:none;stroke-dashoffset:0;stroke-opacity:1;color-rendering:auto;image-rendering:auto;shape-rendering:auto;text-rendering:auto;enable-background:accumulate;stop-color:#000000"
       id="path2931" />
    <path
       d="m 378.42188,121.60938 c -4.52961,0.13805 -8.7536,3.3071 -10.17233,7.60704 -0.15799,0.49181 -0.18227,1.09329 -0.85932,0.87147 -9.19764,0.0142 -18.3967,-0.0283 -27.59347,0.0211 -3.71432,0.18123 -7.01953,3.21035 -7.5409,6.88904 -0.62799,3.56096 1.43075,7.36051 4.75633,8.77798 2.26446,1.0783 4.82724,0.61127 7.24133,0.71225 24.56126,-0.008 49.12302,0.0156 73.68398,-0.0117 3.74026,-0.1391 7.10557,-3.16429 7.63642,-6.8696 0.65324,-3.60289 -1.45861,-7.45192 -4.84123,-8.8462 -2.27767,-1.03894 -4.83469,-0.56594 -7.25027,-0.67287 -7.8789,0 -15.75781,0 -23.63672,0 -1.08317,-4.4863 -5.17977,-8.02566 -9.7801,-8.42925 -0.54585,-0.0574 -1.09538,-0.0688 -1.64372,-0.0493 z"
       style="display:inline;fill-rule:nonzero;stroke:#6671ce;stroke-width:7.50002;stroke-miterlimit:4;stroke-dasharray:none;stroke-opacity:1"
       id="path402-1" />
  </g>
  <g
     inkscape:label="copy"
     id="layer1"
     inkscape:groupmode="layer">
    <g
       style="opacity:1"
       id="g4157">
      <path
         id="path4159"
         d="m 137.63281,73.29494 c -3.59682,0.03933 -6.94241,2.727296 -7.74577,6.235043 -0.92695,3.506288 0.82182,7.47865 4.03421,9.163789 22.33277,12.885878 44.65087,25.798228 66.99281,38.667578 3.28105,1.7497 7.67743,0.85704 10.01406,-2.0354 2.35756,-2.71483 2.54896,-6.99352 0.47032,-9.92163 -1.36844,-2.10925 -3.80773,-3.0241 -5.8568,-4.29894 -6.91037,-3.9889 -13.82073,-7.97779 -20.73109,-11.96669 1.33188,-4.498705 -0.53371,-9.704382 -4.43242,-12.319729 -3.66511,-2.617271 -8.90297,-2.669145 -12.63,-0.148156 -0.67483,0.44306 -1.30356,0.958183 -1.86532,1.538196 -8.14655,-4.687502 -16.26785,-9.421712 -24.43007,-14.080213 -1.18114,-0.58325 -2.50351,-0.869884 -3.81993,-0.833848 z"
         style="color:#000000;font-style:normal;font-variant:normal;font-weight:normal;font-stretch:normal;font-size:medium;line-height:normal;font-family:sans-serif;font-variant-ligatures:normal;font-variant-position:normal;font-variant-caps:normal;font-variant-numeric:normal;font-variant-alternates:normal;font-variant-east-asian:normal;font-feature-settings:normal;font-variation-settings:normal;text-indent:0;text-align:start;text-decoration:none;text-decoration-line:none;text-decoration-style:solid;text-decoration-color:#000000;letter-spacing:normal;word-spacing:normal;text-transform:none;writing-mode:lr-tb;direction:ltr;text-orientation:mixed;dominant-baseline:auto;baseline-shift:baseline;text-anchor:start;white-space:normal;shape-padding:0;shape-margin:0;inline-size:0;clip-rule:nonzero;display:inline;overflow:visible;visibility:visible;isolation:auto;mix-blend-mode:normal;color-interpolation:sRGB;color-interpolation-filters:linearRGB;solid-color:#000000;solid-opacity:1;vector-effect:none;fill:#000000;fill-opacity:1;fill-rule:nonzero;stroke:none;stroke-width:7.50002;stroke-linecap:butt;stroke-linejoin:miter;stroke-miterlimit:4;stroke-dasharray:none;stroke-dashoffset:0;stroke-opacity:1.0;color-rendering:auto;image-rendering:auto;shape-rendering:auto;text-rendering:auto;enable-background:accumulate;stop-color:#000000;stop-opacity:1;" />
      <path
         sodipodi:nodetypes="cccccccccccccccccccc"
         id="path4161"
         d="m 137.5625,69.550781 c -5.40532,0.07307 -10.07079,3.818461 -11.30664,9.085938 -1.36689,5.290273 1.08005,10.83603 5.92383,13.376953 l -0.13281,-0.07227 c 22.33022,12.884414 44.65002,25.798194 66.99609,38.669924 l 0.0527,0.0293 0.0547,0.0293 c 4.95584,2.64282 11.09527,1.40018 14.64649,-2.94531 3.51107,-4.09383 3.77377,-10.0357 0.6875,-14.43359 -2.20453,-3.33314 -5.3755,-4.38275 -6.96094,-5.36914 l -0.0527,-0.0332 -0.0547,-0.0312 c -6.20532,-3.58192 -12.40993,-7.16417 -18.61524,-10.746092 0.38237,-5.203085 -1.85665,-10.368203 -6.29297,-13.36914 -5.0112,-3.549558 -11.76372,-3.611847 -16.84375,-0.185547 -0.0505,0.03334 -0.0904,0.08321 -0.14062,0.117187 -7.39103,-4.261729 -14.77545,-8.559009 -22.21094,-12.802734 l -0.0977,-0.05469 -0.10156,-0.05078 c -1.73001,-0.854282 -3.63334,-1.261949 -5.55078,-1.214844 z"
         style="color:#000000;font-style:normal;font-variant:normal;font-weight:normal;font-stretch:normal;font-size:medium;line-height:normal;font-family:sans-serif;font-variant-ligatures:normal;font-variant-position:normal;font-variant-caps:normal;font-variant-numeric:normal;font-variant-alternates:normal;font-variant-east-asian:normal;font-feature-settings:normal;font-variation-settings:normal;text-indent:0;text-align:start;text-decoration:none;text-decoration-line:none;text-decoration-style:solid;text-decoration-color:#000000;letter-spacing:normal;word-spacing:normal;text-transform:none;writing-mode:lr-tb;direction:ltr;text-orientation:mixed;dominant-baseline:auto;baseline-shift:baseline;text-anchor:start;white-space:normal;shape-padding:0;shape-margin:0;inline-size:0;clip-rule:nonzero;display:inline;overflow:visible;visibility:visible;isolation:auto;mix-blend-mode:normal;color-interpolation:sRGB;color-interpolation-filters:linearRGB;solid-color:#000000;solid-opacity:1;vector-effect:none;fill:#6671ce;fill-opacity:1;fill-rule:nonzero;stroke:none;stroke-width:7.50002;stroke-linecap:butt;stroke-linejoin:miter;stroke-miterlimit:4;stroke-dasharray:none;stroke-dashoffset:0;stroke-opacity:1;color-rendering:auto;image-rendering:auto;shape-rendering:auto;text-rendering:auto;enable-background:accumulate;stop-color:#000000;stop-opacity:1" />
    </g>
    <path
       id="path2929-9"
       style="color:#000000;font-style:normal;font-variant:normal;font-weight:normal;font-stretch:normal;font-size:medium;line-height:normal;font-family:sans-serif;font-variant-ligatures:normal;font-variant-position:normal;font-variant-caps:normal;font-variant-numeric:normal;font-variant-alternates:normal;font-variant-east-asian:normal;font-feature-settings:normal;font-variation-settings:normal;text-indent:0;text-align:start;text-decoration:none;text-decoration-line:none;text-decoration-style:solid;text-decoration-color:#000000;letter-spacing:normal;word-spacing:normal;text-transform:none;writing-mode:lr-tb;direction:ltr;text-orientation:mixed;dominant-baseline:auto;baseline-shift:baseline;text-anchor:start;white-space:normal;shape-padding:0;shape-margin:0;inline-size:0;clip-rule:nonzero;display:inline;overflow:visible;visibility:visible;isolation:auto;mix-blend-mode:normal;color-interpolation:sRGB;color-interpolation-filters:linearRGB;solid-color:#000000;solid-opacity:1;vector-effect:none;fill:none;fill-opacity:1;fill-rule:nonzero;stroke:#6671ce;stroke-width:7.50002;stroke-linecap:butt;stroke-linejoin:miter;stroke-miterlimit:4;stroke-dasharray:none;stroke-dashoffset:0;stroke-opacity:1;color-rendering:auto;image-rendering:auto;shape-rendering:auto;text-rendering:auto;enable-background:accumulate;stop-color:#000000"
       d="m 241.58008,153.71877 c -16.4465,0.005 -32.89424,-0.0181 -49.33995,0.0231 -5.41176,0.24071 -10.37768,4.35478 -11.58563,9.64118 -0.64671,2.72764 -0.27977,5.55075 -0.3752,8.32359 0.0156,12.32741 -0.0346,24.65683 0.0333,36.98298 0.29706,5.12912 4.33742,9.62501 9.27438,10.82659 2.84479,0.74441 5.80801,0.34552 8.70991,0.44473 7.5983,0 15.19661,0 22.79492,0 -0.58427,0.39363 -1.38771,0.0828 -2.06368,0.18163 -21.13324,0.008 -42.26743,-0.0181 -63.40009,0.025 -5.39995,0.25646 -10.35119,4.3621 -11.55752,9.6393 -0.64995,2.72784 -0.27796,5.55218 -0.3752,8.32553 0.006,25.1988 -0.0129,50.39831 0.0188,75.59667 0.11649,4.17294 2.77501,8.10574 6.56055,9.84248 2.54279,1.25846 5.43281,1.46116 8.22334,1.35031 14.61067,-10e-6 29.22135,0 43.83203,0 9.94117,14.05678 24.87953,24.50451 41.52688,28.92858 16.40211,4.41609 34.304,3.059 49.81285,-3.89172 15.51357,-6.89195 28.53585,-19.22642 36.21359,-34.37132 5.8718,-11.48705 8.67817,-24.51593 8.04432,-37.40187 5.87283,-0.0221 11.74887,0.0552 17.61965,-0.0486 5.03819,-0.33885 9.73411,-3.96931 11.09509,-8.87039 0.82225,-2.83754 0.39973,-5.81776 0.50254,-8.72513 -0.0138,-9.52533 0.0365,-19.05266 -0.0336,-28.57674 -0.29949,-5.39483 -4.44496,-10.30772 -9.7284,-11.47028 -2.73245,-0.61709 -5.5527,-0.25598 -8.32637,-0.35181 -14.44532,0 -28.89063,0 -43.33595,0 -0.61449,-0.37994 0.91654,-0.0922 1.23634,-0.18138 9.18933,-0.0151 18.38091,0.04 27.56885,-0.0361 4.80482,-0.24819 9.44782,-3.40297 11.0429,-8.01008 1.07257,-2.93786 0.60261,-6.10436 0.70306,-9.15836 -0.009,-12.42717 0.0257,-24.85577 -0.0336,-37.28204 -0.334,-5.33646 -4.41347,-10.18489 -9.63109,-11.3826 -2.72987,-0.64673 -5.55463,-0.27719 -8.32946,-0.37356 -15.14548,0.006 -30.29191,-0.0187 -45.4368,0.0254 -5.43509,0.25369 -10.41154,4.41533 -11.58091,9.73645 -0.61708,2.73244 -0.25597,5.5527 -0.35182,8.32637 -0.003,11.83594 0.003,23.67188 0.0117,35.50781 -5.07359,-0.51934 -10.20162,-0.52137 -15.27539,-0.002 -0.0198,-13.91113 0.0371,-27.82451 -0.0346,-41.73458 -0.27867,-5.35475 -4.34799,-10.24366 -9.57064,-11.4701 -1.45437,-0.3615 -2.96595,-0.43932 -4.45917,-0.38907 z" />
    <path
       sodipodi:nodetypes="ccccccccccccccccscccccccccccccccscccsccccccccccsccccccscccccccccccsccccccscc"
       id="path4149"
       d="m 196.89062,151.00586 -4.58203,0.1582 c -6.36041,0.2199 -11.94279,4.49771 -13.8457,10.55664 -1.24356,3.7222 -0.66718,6.95218 -0.75,9.16992 l -0.002,0.0703 v 0.0723 c 0.0131,12.47493 -0.0261,24.96516 0.0195,37.4668 v 0.0781 l 0.004,0.0801 c 0.15948,3.47905 1.68168,6.52859 3.91992,8.92383 -8.61442,3e-5 -17.22584,-0.007 -25.8418,0.006 h -0.0684 l -0.0703,0.002 c -6.34073,0.24301 -11.89941,4.51353 -13.79688,10.5586 -1.24514,3.72307 -0.66464,6.95331 -0.74804,9.16601 l -0.002,0.0703 v 0.0723 c 0.009,25.41487 -0.0182,50.83387 0.0137,76.25781 v 0.0625 l 0.002,0.0606 c 0.17018,5.03922 3.11314,9.55517 7.57812,11.81445 3.21224,1.72232 6.60671,1.9517 9.53321,1.83789 l -0.14649,0.002 h 42.99219 c 9.90987,13.46225 24.16695,23.60325 40.24023,28.3125 17.99184,5.35351 37.82627,3.88921 54.8086,-4.16211 l 0.004,-0.002 c 16.2805,-7.61394 29.65148,-21.02609 37.21289,-37.33203 l 0.004,-0.01 c 4.89634,-10.46256 7.2103,-22.01163 7.05664,-33.54883 4.93725,0.003 9.88231,0.0317 14.87305,-0.0254 h 0.0762 l 0.0762,-0.004 c 6.05476,-0.31616 11.53399,-4.26329 13.46875,-10.16015 1.31277,-3.76413 0.70864,-7.04451 0.79297,-9.26953 l 0.002,-0.0742 v -0.0723 c -0.0118,-9.62884 0.0236,-19.27515 -0.0176,-28.93555 v -0.0703 l -0.004,-0.0703 c -0.26299,-6.32113 -4.52705,-11.85223 -10.55274,-13.74414 -3.72269,-1.24454 -6.95118,-0.66495 -9.16601,-0.74805 l -0.0703,-0.002 h -4.88672 c 1.09462,-1.19653 2.04406,-2.53891 2.68945,-4.11719 1.71957,-3.91988 1.06143,-7.50149 1.13281,-9.85351 l 0.002,-0.0586 v -0.0586 c -0.0117,-12.55398 0.0236,-25.12118 -0.0176,-37.69922 v -0.0723 l -0.004,-0.0703 c -0.26144,-6.32338 -4.53016,-11.85127 -10.55273,-13.74414 -3.72092,-1.24184 -6.94895,-0.66777 -9.16992,-0.75 l -0.0703,-0.002 h -0.0723 c -15.31501,0.0118 -30.63992,-0.0236 -45.97461,0.0176 h -0.0723 l -0.0742,0.004 c -6.32174,0.26228 -11.85229,4.52722 -13.74414,10.55274 -1.24397,3.72231 -0.66485,6.95139 -0.74804,9.16601 l -0.002,0.0723 v 0.0723 c 0.0108,11.19504 -0.0108,22.40535 0.0156,33.6211 -3.38901,-0.22551 -6.77841,-0.21962 -10.16992,0.008 0.007,-2.80532 0.007,-5.62762 0.0254,-8.35547 v -0.0156 -0.0156 c -0.0156,-10.17846 0.0311,-20.37803 -0.0234,-30.5957 v -0.082 l -0.004,-0.084 c -0.31871,-6.45571 -4.81205,-12.04199 -11.0332,-13.76367 -3.54162,-1.03353 -6.56326,-0.51919 -8.67773,-0.59961 l -0.0723,-0.002 h -0.0723 c -13.81366,0.008 -27.63662,-0.008 -41.46289,0.0117 z"
       style="color:#000000;font-style:normal;font-variant:normal;font-weight:normal;font-stretch:normal;font-size:medium;line-height:normal;font-family:sans-serif;font-variant-ligatures:normal;font-variant-position:normal;font-variant-caps:normal;font-variant-numeric:normal;font-variant-alternates:normal;font-variant-east-asian:normal;font-feature-settings:normal;font-variation-settings:normal;text-indent:0;text-align:start;text-decoration:none;text-decoration-line:none;text-decoration-style:solid;text-decoration-color:#000000;letter-spacing:normal;word-spacing:normal;text-transform:none;writing-mode:lr-tb;direction:ltr;text-orientation:mixed;dominant-baseline:auto;baseline-shift:baseline;text-anchor:start;white-space:normal;shape-padding:0;shape-margin:0;inline-size:0;clip-rule:nonzero;display:inline;overflow:visible;visibility:visible;opacity:1;isolation:auto;mix-blend-mode:normal;color-interpolation:sRGB;color-interpolation-filters:linearRGB;solid-color:#000000;solid-opacity:1;vector-effect:none;fill:#6671ce;fill-opacity:1;fill-rule:nonzero;stroke:none;stroke-width:7.50002;stroke-linecap:butt;stroke-linejoin:miter;stroke-miterlimit:4;stroke-dasharray:none;stroke-dashoffset:0;stroke-opacity:1;color-rendering:auto;image-rendering:auto;shape-rendering:auto;text-rendering:auto;enable-background:accumulate;stop-color:#000000;stop-opacity:1" />
    <g
       style="opacity:1"
       id="g4151">
      <path
         id="path4153"
         d="m 378.42188,121.6094 c -4.52962,0.13805 -8.7536,3.3071 -10.17234,7.60704 -0.15798,0.49181 -0.18227,1.09329 -0.85932,0.87147 -9.19764,0.0142 -18.39669,-0.0283 -27.59346,0.0211 -3.71433,0.18123 -7.01954,3.21035 -7.5409,6.88904 -0.62799,3.56096 1.43074,7.36051 4.75632,8.77798 2.26447,1.0783 4.82724,0.61127 7.24133,0.71225 24.56126,-0.008 49.12303,0.0156 73.68398,-0.0117 3.74027,-0.1391 7.10558,-3.16429 7.63642,-6.8696 0.65324,-3.60289 -1.4586,-7.45192 -4.84122,-8.8462 -2.27768,-1.03894 -4.8347,-0.56594 -7.25028,-0.67287 h -23.63672 c -1.08316,-4.4863 -5.17976,-8.02566 -9.78009,-8.42925 -0.54586,-0.0574 -1.09539,-0.0688 -1.64372,-0.0493 z"
         style="color:#000000;font-style:normal;font-variant:normal;font-weight:normal;font-stretch:normal;font-size:medium;line-height:normal;font-family:sans-serif;font-variant-ligatures:normal;font-variant-position:normal;font-variant-caps:normal;font-variant-numeric:normal;font-variant-alternates:normal;font-variant-east-asian:normal;font-feature-settings:normal;font-variation-settings:normal;text-indent:0;text-align:start;text-decoration:none;text-decoration-line:none;text-decoration-style:solid;text-decoration-color:#000000;letter-spacing:normal;word-spacing:normal;text-transform:none;writing-mode:lr-tb;direction:ltr;text-orientation:mixed;dominant-baseline:auto;baseline-shift:baseline;text-anchor:start;white-space:normal;shape-padding:0;shape-margin:0;inline-size:0;clip-rule:nonzero;display:inline;overflow:visible;visibility:visible;isolation:auto;mix-blend-mode:normal;color-interpolation:sRGB;color-interpolation-filters:linearRGB;solid-color:#000000;solid-opacity:1;vector-effect:none;fill:#000000;fill-opacity:1;fill-rule:nonzero;stroke:none;stroke-width:7.50002;stroke-linecap:butt;stroke-linejoin:miter;stroke-miterlimit:4;stroke-dasharray:none;stroke-dashoffset:0;stroke-opacity:1.0;color-rendering:auto;image-rendering:auto;shape-rendering:auto;text-rendering:auto;enable-background:accumulate;stop-color:#000000;stop-opacity:1;" />
      <path
         sodipodi:nodetypes="cccccccccccssccccccccsscc"
         id="path4155"
         d="m 378.28906,117.86133 -3.61718,0.1289 v 0.55665 c -4.00618,1.17119 -7.27649,3.99873 -9.11133,7.79296 -8.57815,0.007 -17.1708,-0.0267 -25.78321,0.0195 h -0.082 l -0.082,0.004 c -5.61647,0.27404 -10.23465,4.50604 -11.05078,10.05078 -0.91109,5.34581 1.94706,10.62288 6.92383,12.77735 3.59939,1.67735 6.8052,0.96742 8.61133,1.04297 l 0.0781,0.004 h 0.0781 c 24.55804,-0.008 49.12137,0.0156 73.6875,-0.0117 h 0.0684 l 0.0664,-0.002 c 5.65129,-0.21017 10.35296,-4.43183 11.1875,-10.02149 0.94677,-5.41505 -1.98615,-10.76065 -7.05078,-12.8789 -3.60009,-1.61076 -6.76693,-0.90285 -8.56445,-0.98242 l -0.084,-0.004 h -21.27148 c -2.23312,-4.61642 -6.63977,-7.94354 -11.88281,-8.41016 -0.73047,-0.0742 -1.4329,-0.0895 -2.10157,-0.0664 -6.2e-4,2e-5 -10e-4,-2e-5 -0.002,0 -0.006,1.9e-4 -0.012,-2e-4 -0.0176,0 z"
         style="color:#000000;font-style:normal;font-variant:normal;font-weight:normal;font-stretch:normal;font-size:medium;line-height:normal;font-family:sans-serif;font-variant-ligatures:normal;font-variant-position:normal;font-variant-caps:normal;font-variant-numeric:normal;font-variant-alternates:normal;font-variant-east-asian:normal;font-feature-settings:normal;font-variation-settings:normal;text-indent:0;text-align:start;text-decoration:none;text-decoration-line:none;text-decoration-style:solid;text-decoration-color:#000000;letter-spacing:normal;word-spacing:normal;text-transform:none;writing-mode:lr-tb;direction:ltr;text-orientation:mixed;dominant-baseline:auto;baseline-shift:baseline;text-anchor:start;white-space:normal;shape-padding:0;shape-margin:0;inline-size:0;clip-rule:nonzero;display:inline;overflow:visible;visibility:visible;isolation:auto;mix-blend-mode:normal;color-interpolation:sRGB;color-interpolation-filters:linearRGB;solid-color:#000000;solid-opacity:1;vector-effect:none;fill:#6671ce;fill-opacity:1;fill-rule:nonzero;stroke:none;stroke-width:7.50002;stroke-linecap:butt;stroke-linejoin:miter;stroke-miterlimit:4;stroke-dasharray:none;stroke-dashoffset:0;stroke-opacity:1;color-rendering:auto;image-rendering:auto;shape-rendering:auto;text-rendering:auto;enable-background:accumulate;stop-color:#000000;stop-opacity:1" />
    </g>
  </g>
</svg>
