<?xml version="1.0" encoding="UTF-8" standalone="no"?>
<svg
   xmlns:dc="http://purl.org/dc/elements/1.1/"
   xmlns:cc="http://creativecommons.org/ns#"
   xmlns:rdf="http://www.w3.org/1999/02/22-rdf-syntax-ns#"
   xmlns:svg="http://www.w3.org/2000/svg"
   xmlns="http://www.w3.org/2000/svg"
   xmlns:sodipodi="http://sodipodi.sourceforge.net/DTD/sodipodi-0.dtd"
   xmlns:inkscape="http://www.inkscape.org/namespaces/inkscape"
   inkscape:version="1.0beta2 (2b71d25, 2019-12-03)"
   sodipodi:docname="drum-set-bass.svg"
   id="svg406"
   version="1.1"
   width="180.62222mm"
   viewBox="0 -34 512.00121 512"
   height="180.62222mm">
  <metadata
     id="metadata412">
    <rdf:RDF>
      <cc:Work
         rdf:about="">
        <dc:format>image/svg+xml</dc:format>
        <dc:type
           rdf:resource="http://purl.org/dc/dcmitype/StillImage" />
        <dc:title></dc:title>
      </cc:Work>
    </rdf:RDF>
  </metadata>
  <defs
     id="defs410" />
  <sodipodi:namedview
     units="mm"
     pagecolor="#ffffff"
     bordercolor="#666666"
     inkscape:document-rotation="0"
     borderopacity="1"
     objecttolerance="10"
     gridtolerance="10"
     guidetolerance="10"
     inkscape:pageopacity="0"
     inkscape:pageshadow="2"
     inkscape:window-width="1415"
     inkscape:window-height="835"
     id="namedview408"
     showgrid="false"
     inkscape:zoom="1.9301618"
     inkscape:cx="363.67946"
     inkscape:cy="364.95235"
     inkscape:window-x="0"
     inkscape:window-y="23"
     inkscape:window-maximized="0"
     inkscape:current-layer="layer3" />
  <g
     inkscape:groupmode="layer"
     id="layer3"
     inkscape:label="bass"
     style="display:inline">
    <path
       transform="matrix(0.75000175,0,0,0.75000175,0,-34.000605)"
       d="M 351.03125 325.22852 C 348.82673 325.22852 346.64178 325.312 344.47461 325.45898 C 342.6625 335.14174 334.07383 342.5918 323.90625 342.5918 L 320.625 342.5918 C 323.59979 346.20807 325.40234 350.81425 325.40234 355.80664 L 325.40234 366.01562 L 325.40234 367.23242 L 325.40234 461.61133 C 325.40234 473.07139 315.9404 482.53906 304.47656 482.53906 L 277.91211 482.53906 C 295.45786 503.3252 321.70018 516.53125 351.03125 516.53125 C 403.65331 516.53125 446.34288 474.04321 446.67773 421.5 C 423.54415 421.51418 400.4204 421.47769 377.3125 421.49805 C 365.59469 422.00553 355.499 413.19186 354.54492 401.42578 L 354.52344 401.15234 L 354.51953 400.87695 C 354.337 385.76966 354.49549 370.7491 354.44336 355.83203 L 354.44531 356 C 354.25335 348.18134 358.19343 341.2281 364.27148 337.21875 C 360.87983 334.1823 358.45869 330.08332 357.59375 325.45898 C 355.42457 325.31192 353.23771 325.22852 351.03125 325.22852 z "
       style="fill:#efd76f;fill-opacity:1;fill-rule:nonzero;stroke-width:0.850699"
       id="path382" />
  </g>
</svg>
