<?xml version="1.0" encoding="UTF-8" standalone="no"?>
<svg
   xmlns:dc="http://purl.org/dc/elements/1.1/"
   xmlns:cc="http://creativecommons.org/ns#"
   xmlns:rdf="http://www.w3.org/1999/02/22-rdf-syntax-ns#"
   xmlns:svg="http://www.w3.org/2000/svg"
   xmlns="http://www.w3.org/2000/svg"
   xmlns:sodipodi="http://sodipodi.sourceforge.net/DTD/sodipodi-0.dtd"
   xmlns:inkscape="http://www.inkscape.org/namespaces/inkscape"
   height="180.62222mm"
   viewBox="0 -34 512.00121 512"
   width="180.62222mm"
   version="1.1"
   id="svg406"
   sodipodi:docname="drum-set-keepOutMask.svg"
   inkscape:version="1.0 (4035a4f, 2020-05-01)">
  <metadata
     id="metadata412">
    <rdf:RDF>
      <cc:Work
         rdf:about="">
        <dc:format>image/svg+xml</dc:format>
        <dc:type
           rdf:resource="http://purl.org/dc/dcmitype/StillImage" />
        <dc:title></dc:title>
      </cc:Work>
    </rdf:RDF>
  </metadata>
  <defs
     id="defs410" />
  <sodipodi:namedview
     units="mm"
     pagecolor="#ffffff"
     bordercolor="#666666"
     inkscape:document-rotation="0"
     borderopacity="1"
     objecttolerance="10"
     gridtolerance="10"
     guidetolerance="10"
     inkscape:pageopacity="0"
     inkscape:pageshadow="2"
     inkscape:window-width="1415"
     inkscape:window-height="835"
     id="namedview408"
     showgrid="false"
     inkscape:zoom="1.1367163"
     inkscape:cx="384.55708"
     inkscape:cy="318.68891"
     inkscape:window-x="0"
     inkscape:window-y="23"
     inkscape:window-maximized="0"
     inkscape:current-layer="g1867" />
  <g
     style="display:inline"
     inkscape:label="bassBorder"
     id="g1867"
     inkscape:groupmode="layer">
    <path
       style="fill:#000000;fill-rule:nonzero;stroke-width:5.6693;stroke-miterlimit:4;stroke-dasharray:none"
       inkscape:connector-curvature="0"
       id="path1861"
       fill="#1f1f42"
       d="m 263.27696,358.25427 c -42.2368,0 -76.59549,-34.36117 -76.59549,-76.59549 0,-42.23431 34.35869,-76.59549 76.59549,-76.59549 42.23432,0 76.59549,34.36118 76.59549,76.59549 0,42.23432 -34.36117,76.59549 -76.59549,76.59549 z m 0,-143.47853 c -36.88088,0 -66.88305,30.00466 -66.88305,66.88304 0,36.88088 30.00217,66.88304 66.88305,66.88304 36.87838,0 66.88304,-30.00216 66.88304,-66.88304 0,-36.87838 -30.00466,-66.88304 -66.88304,-66.88304 z m 0,0" />
    <path
       inkscape:connector-curvature="0"
       id="path1335"
       fill="#4a4a68"
       d="m 325.44958,353.39929 c -1.93401,0 -3.72846,-1.01685 -4.72039,-2.6792 l -25.75531,-43.14151 h 24.60885 l 11.1505,38.80492 c 1.01187,3.51413 -1.62747,7.01579 -5.28365,7.01579 z m 0,0"
       style="display:inline;fill-rule:nonzero;stroke-width:5.6693;stroke-miterlimit:4;stroke-dasharray:none" />
    <path
       inkscape:connector-curvature="0"
       id="path1337"
       fill="#4a4a68"
       d="m 201.10184,353.39929 c 1.93652,0 3.72847,-1.01685 4.7204,-2.6792 l 25.75531,-43.14151 H 206.9687 l -11.14801,38.80492 c -1.01187,3.51413 1.62497,7.01579 5.28115,7.01579 z m 0,0"
       style="display:inline;fill-rule:nonzero;stroke-width:5.6693;stroke-miterlimit:4;stroke-dasharray:none" />
    <path
       inkscape:connector-curvature="0"
       id="path1339"
       fill="#ededed"
       d="m 335.01498,281.65878 c 0,39.6224 -32.11812,71.74051 -71.74051,71.74051 -39.61991,0 -71.73802,-32.11811 -71.73802,-71.74051 0,-39.6199 32.11811,-71.73802 71.73802,-71.73802 39.62239,0 71.74051,32.11812 71.74051,71.73802 z m 0,0"
       style="display:inline;fill:#000000;fill-opacity:1;fill-rule:nonzero;stroke-width:5.6693;stroke-miterlimit:4;stroke-dasharray:none" />
    <path
       style="display:inline;fill:#000000;fill-rule:nonzero;stroke:#000000;stroke-width:5.6693;stroke-miterlimit:4;stroke-dasharray:none;stroke-opacity:1"
       inkscape:connector-curvature="0"
       id="path1343"
       fill="#1f1f42"
       d="m 263.27696,358.25427 c -42.2368,0 -76.59549,-34.36117 -76.59549,-76.59549 0,-42.23431 34.35869,-76.59549 76.59549,-76.59549 42.23432,0 76.59549,34.36118 76.59549,76.59549 0,42.23432 -34.36117,76.59549 -76.59549,76.59549 z m 0,-143.47853 c -36.88088,0 -66.88305,30.00466 -66.88305,66.88304 0,36.88088 30.00217,66.88304 66.88305,66.88304 36.87838,0 66.88304,-30.00216 66.88304,-66.88304 0,-36.87838 -30.00466,-66.88304 -66.88304,-66.88304 z m 0,0" />
    <path
       inkscape:connector-curvature="0"
       id="path1345"
       d="m 198.63029,352.30345 c -0.90709,-0.55314 -1.95449,-1.7426 -2.32755,-2.64324 -0.61258,-1.47891 -0.40452,-2.58741 2.1478,-11.44324 1.55434,-5.39313 2.92347,-9.92618 3.0425,-10.07345 0.11903,-0.14727 0.82034,0.45519 1.55847,1.33881 0.73812,0.88361 3.13684,3.43968 5.3305,5.68014 l 3.98846,4.07356 -3.61919,6.04683 c -4.65987,7.78557 -6.62786,9.1507 -10.12099,7.02059 z"
       style="display:inline;fill:#000000;fill-rule:nonzero;stroke-width:5.6693;stroke-miterlimit:4;stroke-dasharray:none" />
    <path
       inkscape:connector-curvature="0"
       id="path1347"
       d="m 323.28095,352.38831 c -1.29841,-0.69422 -2.75063,-2.58774 -5.40195,-7.04345 l -3.62615,-6.09398 2.30251,-2.12238 c 1.26638,-1.16731 3.67953,-3.80551 5.36256,-5.86267 l 3.06004,-3.74029 2.8509,9.79915 c 1.56799,5.38953 2.85089,10.34449 2.85089,11.01103 0,1.5354 -2.52794,4.31041 -4.28419,4.70289 -0.78672,0.17581 -2.07111,-0.0924 -3.11461,-0.6503 z"
       style="display:inline;fill:#000000;fill-rule:nonzero;stroke-width:5.6693;stroke-miterlimit:4;stroke-dasharray:none" />
  </g>
  <g
     inkscape:groupmode="layer"
     id="layer3"
     inkscape:label="bass"
     style="display:inline">
    <path
       style="fill-rule:nonzero;stroke-width:0.638026"
       d="m 335.01498,281.65878 c 0,39.6224 -32.11812,71.74051 -71.74051,71.74051 -39.61991,0 -71.73802,-32.11811 -71.73802,-71.74051 0,-39.6199 32.11811,-71.73802 71.73802,-71.73802 39.62239,0 71.74051,32.11812 71.74051,71.73802 z m 0,0"
       fill="#ededed"
       id="path382"
       inkscape:connector-curvature="0" />
    <path
       style="fill:#efd76f;fill-opacity:1;fill-rule:nonzero;stroke-width:0.638026"
       d="m 335.01498,281.65878 c 0,39.6224 -32.11812,71.74051 -71.74051,71.74051 -39.61991,0 -71.73802,-32.11811 -71.73802,-71.74051 0,-39.6199 32.11811,-71.73802 71.73802,-71.73802 39.62239,0 71.74051,32.11812 71.74051,71.73802 z m 0,0"
       fill="#ededed"
       id="path384"
       inkscape:connector-curvature="0" />
  </g>
  <g
     style="display:inline"
     inkscape:label="snareBorder"
     id="g1305"
     inkscape:groupmode="layer">
    <path
       transform="matrix(0.63802575,0,0,0.63802575,97.512383,81.490677)"
       inkscape:original="M 402.3418 220.51367 C 364.59067 220.52777 326.83855 220.48606 289.08789 220.53516 C 280.45483 220.74868 272.97749 228.60252 273.18945 237.23633 C 273.25105 254.85884 273.06649 272.48987 273.2793 290.10742 C 273.97063 298.63334 282.05525 305.6028 290.58594 305.08398 C 328.36079 305.05048 366.13955 305.15216 403.91211 305.03516 C 412.5145 304.6204 419.77692 296.62479 419.40039 288.02539 C 419.33839 270.51551 419.5233 252.99714 419.31055 235.49219 C 418.62453 227.09408 410.76015 220.15438 402.3418 220.51367 z "
       inkscape:radius="0"
       sodipodi:type="inkscape:offset"
       style="color:#000000;font-style:normal;font-variant:normal;font-weight:normal;font-stretch:normal;font-size:medium;line-height:normal;font-family:sans-serif;font-variant-ligatures:normal;font-variant-position:normal;font-variant-caps:normal;font-variant-numeric:normal;font-variant-alternates:normal;font-variant-east-asian:normal;font-feature-settings:normal;font-variation-settings:normal;text-indent:0;text-align:start;text-decoration:none;text-decoration-line:none;text-decoration-style:solid;text-decoration-color:#000000;letter-spacing:normal;word-spacing:normal;text-transform:none;writing-mode:lr-tb;direction:ltr;text-orientation:mixed;dominant-baseline:auto;baseline-shift:baseline;text-anchor:start;white-space:normal;shape-padding:0;shape-margin:0;inline-size:0;clip-rule:nonzero;display:inline;overflow:visible;visibility:visible;isolation:auto;mix-blend-mode:normal;color-interpolation:sRGB;color-interpolation-filters:linearRGB;solid-color:#000000;solid-opacity:1;vector-effect:none;fill:#000000;fill-opacity:1;fill-rule:nonzero;stroke:#000000;stroke-width:15;stroke-linecap:butt;stroke-linejoin:miter;stroke-miterlimit:4;stroke-dasharray:none;stroke-dashoffset:0;stroke-opacity:1;color-rendering:auto;image-rendering:auto;shape-rendering:auto;text-rendering:auto;enable-background:accumulate;stop-color:#000000"
       id="path1312"
       d="m 402.3418,220.51367 c -37.75113,0.0141 -75.50325,-0.0276 -113.25391,0.0215 -8.63306,0.21352 -16.1104,8.06736 -15.89844,16.70117 0.0616,17.62251 -0.12296,35.25354 0.0898,52.87109 0.69133,8.52592 8.77595,15.49538 17.30664,14.97656 37.77485,-0.0335 75.55361,0.0682 113.32617,-0.0488 8.60239,-0.41476 15.86481,-8.41037 15.48828,-17.00977 -0.062,-17.50988 0.12291,-35.02825 -0.0898,-52.5332 -0.68602,-8.39811 -8.5504,-15.33781 -16.96875,-14.97852 z" />
    <path
       inkscape:connector-curvature="0"
       id="path1314"
       d="m 282.45761,222.1604 -0.50095,0.0137 -0.0237,10e-4 -0.0249,0.001 -0.49223,0.0374 -0.0237,0.003 -0.025,0.003 -0.48599,0.0611 -0.0237,0.003 -0.0249,0.005 -0.47852,0.0847 -0.0249,0.005 -0.0237,0.005 -0.46979,0.10841 -0.025,0.006 -0.0237,0.006 -0.45983,0.13085 -0.0237,0.007 -0.0237,0.007 -0.45111,0.15328 -0.0237,0.007 -0.0212,0.009 -0.44113,0.17446 -0.0225,0.009 -0.0225,0.01 -0.42992,0.19439 -0.0212,0.009 -0.0199,0.0112 -0.41995,0.21434 -0.0212,0.0112 -0.0225,0.0124 -0.40624,0.23428 -0.0187,0.0112 -0.0199,0.0112 -0.39503,0.25296 -0.0199,0.0137 -0.0199,0.0137 -0.38008,0.27166 -0.0187,0.0137 -0.0174,0.0124 -0.36761,0.28787 -0.0187,0.0162 -0.0187,0.0149 -0.35265,0.30531 -0.0175,0.0162 -0.0162,0.0162 -0.33646,0.32151 -0.0174,0.0162 -0.0162,0.0174 -0.32151,0.33646 -0.0162,0.0162 -0.0162,0.0174 -0.30531,0.35266 -0.0149,0.0187 -0.0149,0.0187 -0.28911,0.36761 -0.0124,0.0174 -0.0137,0.0187 -0.27041,0.38007 -0.0149,0.0199 -0.0137,0.0199 -0.25172,0.39503 -0.0124,0.0187 -0.0112,0.0199 -0.23428,0.40624 -0.0124,0.0225 -0.0112,0.0212 -0.21433,0.41871 -0.01,0.0212 -0.01,0.0212 -0.19439,0.42992 -0.01,0.0225 -0.009,0.0224 -0.17446,0.44114 -0.009,0.0212 -0.007,0.0237 -0.15327,0.4511 -0.007,0.0224 -0.007,0.0249 -0.13085,0.45983 -0.006,0.0237 -0.006,0.025 -0.10841,0.46979 -0.005,0.0237 -0.004,0.0249 -0.086,0.47852 -0.004,0.0237 -0.003,0.025 -0.0623,0.486 -0.003,0.0249 -0.003,0.0237 -0.0374,0.49223 -0.001,0.0249 -10e-4,0.0237 -0.0125,0.50095 v 0.0125 0.0124 8.29433 0.27415 24.05183 0.0112 0.0137 l 0.0125,0.50096 10e-4,0.0237 0.001,0.0249 0.0374,0.49223 0.003,0.0237 0.003,0.0249 0.0623,0.486 0.003,0.0249 0.004,0.0237 0.086,0.47852 0.004,0.0249 0.005,0.0237 0.10841,0.4698 0.006,0.025 0.006,0.0237 0.13085,0.45982 0.007,0.0237 0.007,0.0237 0.15327,0.4511 0.007,0.0237 0.009,0.0212 0.17446,0.44113 0.009,0.0225 0.01,0.0225 0.19439,0.42991 0.01,0.0212 0.01,0.0212 0.21433,0.4187 0.0112,0.0212 0.0124,0.0224 0.23428,0.40625 0.0112,0.0199 0.0124,0.0187 0.25172,0.39503 0.0137,0.02 0.0149,0.0199 0.27041,0.38008 0.0137,0.0187 0.0124,0.0175 0.28911,0.36761 0.0149,0.0187 0.0149,0.0187 0.30531,0.35265 0.0162,0.0174 0.0162,0.0162 0.32151,0.33647 0.0162,0.0174 0.0174,0.0162 0.33646,0.32151 0.0162,0.0162 0.0175,0.0162 0.35265,0.30529 0.0187,0.0149 0.0187,0.0149 0.36761,0.28911 0.0174,0.0124 0.0187,0.0137 0.38008,0.27165 0.0199,0.0137 0.0199,0.0137 0.39503,0.25172 0.0199,0.0124 0.0187,0.0112 0.40624,0.23428 0.0225,0.0124 0.0212,0.0112 0.41995,0.21433 0.0199,0.01 0.0212,0.01 0.42992,0.19439 0.0225,0.01 0.0225,0.009 0.44113,0.17447 0.0212,0.009 0.0237,0.007 0.45111,0.15327 0.0237,0.007 0.0237,0.007 0.45983,0.13085 0.0249,0.006 0.0237,0.006 0.46979,0.10841 0.0237,0.005 0.0249,0.005 0.47852,0.0847 0.0249,0.004 0.0237,0.004 0.48599,0.061 0.025,0.003 0.0237,0.003 0.49223,0.0374 0.0249,10e-4 0.0237,0.001 0.50095,0.0124 h 0.0137 0.0112 71.94987 0.0112 0.0137 l 0.50096,-0.0124 0.0237,-0.001 0.0237,-10e-4 0.49347,-0.0374 0.025,-0.003 0.0249,-0.003 0.48599,-0.061 0.0237,-0.004 0.0249,-0.004 0.47727,-0.0847 0.025,-0.005 0.0249,-0.005 0.4698,-0.10841 0.0237,-0.006 0.0237,-0.006 0.46107,-0.13085 0.0237,-0.007 0.0237,-0.007 0.45111,-0.15327 0.0237,-0.007 0.0212,-0.009 0.44113,-0.17447 0.0225,-0.009 0.0212,-0.01 0.43117,-0.19439 0.0199,-0.01 0.0212,-0.01 0.4187,-0.21433 0.0224,-0.0112 0.0212,-0.0124 0.40749,-0.23428 0.0199,-0.0112 0.0199,-0.0124 0.39378,-0.25297 0.0187,-0.0124 0.0199,-0.0137 0.38132,-0.27042 0.0187,-0.0149 0.0187,-0.0137 0.36761,-0.28785 0.0174,-0.0149 0.0187,-0.0149 0.35266,-0.30531 0.0174,-0.0162 0.0162,-0.0162 0.33646,-0.3215 0.0174,-0.0162 0.0162,-0.0174 0.32151,-0.33646 0.0162,-0.0162 0.0149,-0.0174 0.30655,-0.35266 0.0149,-0.0187 0.0149,-0.0187 0.28786,-0.36761 0.0137,-0.0175 0.0137,-0.0187 0.27042,-0.38008 0.0149,-0.0199 0.0124,-0.02 0.25296,-0.39503 0.0124,-0.0199 0.0112,-0.0199 0.23428,-0.40749 0.0112,-0.0199 0.01,-0.0199 0.21558,-0.4187 0.0112,-0.0224 0.01,-0.0212 0.1944,-0.42992 0.009,-0.0224 0.01,-0.0225 0.17446,-0.44113 0.009,-0.0225 0.007,-0.0237 0.15203,-0.4511 0.007,-0.0225 0.006,-0.0237 0.13085,-0.45983 0.007,-0.0249 0.006,-0.0237 0.10842,-0.4698 0.005,-0.0237 0.005,-0.0262 0.0847,-0.47727 0.004,-0.0249 0.004,-0.0237 0.0611,-0.48599 0.003,-0.025 0.003,-0.0237 0.0374,-0.49223 0.001,-0.0249 10e-4,-0.0237 0.0124,-0.50095 v -0.0137 -0.0112 -24.05182 -0.27416 -8.29433 -0.0124 -0.0124 l -0.0124,-0.50096 -10e-4,-0.0237 -0.001,-0.0249 -0.0374,-0.49223 -0.003,-0.0237 -0.003,-0.0249 -0.0611,-0.486 -0.004,-0.0249 -0.004,-0.0237 -0.0847,-0.47852 -0.005,-0.0249 -0.005,-0.0237 -0.10842,-0.47104 -0.006,-0.0237 -0.007,-0.0237 -0.13085,-0.46107 -0.006,-0.0225 -0.007,-0.0225 -0.15203,-0.4511 -0.007,-0.0237 -0.009,-0.0225 -0.17446,-0.44113 -0.01,-0.0225 -0.009,-0.0225 -0.1944,-0.42991 -0.01,-0.0225 -0.0112,-0.0225 -0.21558,-0.41871 -0.01,-0.0199 -0.0112,-0.0199 -0.23428,-0.40624 -0.0112,-0.0199 -0.0124,-0.02 -0.25296,-0.39503 -0.0124,-0.0199 -0.0149,-0.0199 -0.27042,-0.38131 -0.0137,-0.0175 -0.0137,-0.0174 -0.28786,-0.36762 -0.0149,-0.0199 -0.0149,-0.0174 -0.30655,-0.35266 -0.0149,-0.0174 -0.0162,-0.0162 -0.32151,-0.3377 -0.0162,-0.0174 -0.0174,-0.0162 -0.33646,-0.32151 -0.0162,-0.0162 -0.0174,-0.0149 -0.35266,-0.30531 -0.0187,-0.0162 -0.0174,-0.0137 -0.36761,-0.28786 -0.0187,-0.0149 -0.0187,-0.0137 -0.38132,-0.27166 -0.0199,-0.0124 -0.0187,-0.0124 -0.39378,-0.25296 -0.0199,-0.0125 -0.0199,-0.0112 -0.40749,-0.23428 -0.0212,-0.0124 -0.0224,-0.0124 -0.4187,-0.2131 -0.0212,-0.0112 -0.0199,-0.009 -0.43117,-0.19564 -0.0212,-0.009 -0.0225,-0.01 -0.44113,-0.17321 -0.0212,-0.009 -0.0237,-0.007 -0.45111,-0.15327 -0.0237,-0.009 -0.0237,-0.006 -0.46107,-0.13085 -0.0237,-0.006 -0.0237,-0.006 -0.4698,-0.10841 -0.0249,-0.006 -0.025,-0.004 -0.47727,-0.0847 -0.0249,-0.005 -0.0237,-0.003 -0.48599,-0.061 -0.0249,-0.004 -0.025,-0.001 -0.49347,-0.0374 -0.0237,-0.003 h -0.0237 l -0.50096,-0.0137 h -0.0137 -0.0112 -71.94987 -0.0112 z m 0,0.0486 h 0.0137 0.0112 71.94987 0.0112 0.0137 l 0.49971,0.0124 0.0224,0.001 0.0225,0.001 0.49347,0.0374 0.0237,0.003 0.0237,0.003 0.486,0.0611 0.0237,0.003 0.0225,0.005 0.47852,0.0847 0.0237,0.004 0.0224,0.005 0.4698,0.10841 0.0225,0.006 0.0237,0.006 0.46107,0.13085 0.0225,0.006 0.0224,0.007 0.45111,0.15328 0.0212,0.007 0.0199,0.007 0.44113,0.17447 0.0225,0.009 0.0212,0.01 0.42992,0.19439 0.0199,0.009 0.0199,0.01 0.4187,0.21434 0.0212,0.01 0.0199,0.0124 0.40749,0.23428 0.0187,0.0112 0.0199,0.0112 0.39254,0.25296 0.0187,0.0112 0.0187,0.0137 0.38007,0.27041 0.0187,0.0137 0.0187,0.0137 0.36637,0.28786 0.0174,0.0137 0.0175,0.0149 0.35141,0.3053 0.0162,0.0137 0.0162,0.0162 0.3377,0.3215 0.0162,0.0162 0.0149,0.0162 0.32151,0.33771 0.0162,0.0149 0.0137,0.0162 0.30655,0.35265 0.0137,0.0175 0.0149,0.0174 0.28786,0.36761 0.0125,0.0174 0.0137,0.0174 0.27042,0.38007 0.0137,0.0199 0.0124,0.0187 0.25296,0.39379 0.0112,0.0199 0.0112,0.0187 0.23303,0.40624 0.0112,0.0199 0.01,0.0187 0.21558,0.41871 0.01,0.0212 0.01,0.0212 0.19439,0.42992 0.009,0.0212 0.01,0.0212 0.17321,0.44114 0.007,0.0212 0.007,0.0225 0.15328,0.45235 0.006,0.0199 0.007,0.0225 0.13085,0.46107 0.006,0.0225 0.005,0.0225 0.10842,0.47104 0.006,0.0224 0.004,0.0237 0.0847,0.47852 0.004,0.0225 0.003,0.0225 0.0623,0.48599 0.003,0.0237 10e-4,0.0237 0.0374,0.49223 0.003,0.0237 v 0.0225 l 0.0137,0.49971 v 0.0124 0.0124 8.29434 0.27415 24.05182 0.0112 0.0137 l -0.0137,0.49971 v 0.0225 l -0.003,0.0237 -0.0374,0.49223 -10e-4,0.0237 -0.003,0.0237 -0.0623,0.48599 -0.003,0.0225 -0.004,0.0225 -0.0847,0.47852 -0.004,0.0237 -0.006,0.0224 -0.10842,0.4698 -0.005,0.0237 -0.006,0.0225 -0.13085,0.46107 -0.007,0.0212 -0.006,0.0212 -0.15328,0.45235 -0.007,0.0225 -0.007,0.0212 -0.17321,0.4399 -0.01,0.0224 -0.009,0.0212 -0.19439,0.42992 -0.01,0.0212 -0.01,0.0212 -0.21558,0.4187 -0.01,0.0187 -0.0112,0.0187 -0.23303,0.4075 -0.0112,0.0187 -0.0112,0.0187 -0.25296,0.39503 -0.0124,0.0187 -0.0137,0.0199 -0.27042,0.38007 -0.0137,0.0174 -0.0125,0.0174 -0.28786,0.36637 -0.0149,0.0187 -0.0137,0.0175 -0.30655,0.35266 -0.0137,0.0162 -0.0162,0.0149 -0.32151,0.33771 -0.0149,0.0162 -0.0162,0.0162 -0.3377,0.3215 -0.0162,0.0149 -0.0162,0.0149 -0.35141,0.30531 -0.0175,0.0149 -0.0174,0.0137 -0.36637,0.28661 -0.0187,0.0149 -0.0187,0.0137 -0.38007,0.27041 -0.0187,0.0124 -0.0187,0.0124 -0.39254,0.25172 -0.0199,0.0124 -0.0187,0.0112 -0.40749,0.23427 -0.0199,0.0112 -0.0212,0.0112 -0.4187,0.21434 -0.0199,0.01 -0.0199,0.009 -0.42992,0.1944 -0.0212,0.009 -0.0225,0.01 -0.44113,0.17321 -0.0199,0.009 -0.0212,0.007 -0.45111,0.15327 -0.0224,0.007 -0.0225,0.006 -0.46107,0.13085 -0.0225,0.006 -0.0237,0.005 -0.4698,0.10841 -0.0224,0.006 -0.0237,0.004 -0.47852,0.0847 -0.0225,0.004 -0.0237,0.003 -0.486,0.0623 -0.0237,0.003 -0.0237,10e-4 -0.49347,0.0374 -0.0225,0.003 h -0.0224 l -0.49971,0.0137 h -0.0137 -0.0112 -71.94987 -0.0112 -0.0137 l -0.49971,-0.0137 h -0.0224 l -0.0237,-0.003 -0.49223,-0.0374 -0.0237,-10e-4 -0.0237,-0.003 -0.486,-0.0623 -0.0225,-0.003 -0.0225,-0.004 -0.47852,-0.0847 -0.0237,-0.004 -0.0225,-0.006 -0.46979,-0.10841 -0.0237,-0.005 -0.0225,-0.006 -0.46107,-0.13085 -0.0225,-0.006 -0.0225,-0.007 -0.4511,-0.15327 -0.0212,-0.007 -0.0199,-0.009 -0.44114,-0.17321 -0.0224,-0.01 -0.0212,-0.009 -0.42992,-0.1944 -0.0199,-0.009 -0.0199,-0.01 -0.4187,-0.21434 -0.0212,-0.0112 -0.0212,-0.0112 -0.40624,-0.23427 -0.0187,-0.0112 -0.0174,-0.0112 -0.39502,-0.25172 -0.0187,-0.0137 -0.0187,-0.0137 -0.38132,-0.27042 -0.0175,-0.0137 -0.0174,-0.0124 -0.36636,-0.28785 -0.0187,-0.0137 -0.0175,-0.0149 -0.35141,-0.3053 -0.0162,-0.0149 -0.0162,-0.0149 -0.33771,-0.3215 -0.0162,-0.0162 -0.0149,-0.0162 -0.32275,-0.3377 -0.0149,-0.0149 -0.0149,-0.0162 -0.30531,-0.35266 -0.0137,-0.0175 -0.0149,-0.0187 -0.28786,-0.36637 -0.0124,-0.0174 -0.0137,-0.0174 -0.27041,-0.38008 -0.0137,-0.0199 -0.0124,-0.0187 -0.25296,-0.39378 -0.0112,-0.0187 -0.0112,-0.0187 -0.23428,-0.40624 -0.0112,-0.0212 -0.0112,-0.0212 -0.21433,-0.4187 -0.01,-0.0199 -0.009,-0.0199 -0.1944,-0.42993 -0.009,-0.0212 -0.01,-0.0224 -0.17322,-0.4399 -0.009,-0.0199 -0.007,-0.0224 -0.15327,-0.4511 -0.006,-0.0225 -0.007,-0.0225 -0.13084,-0.46107 -0.006,-0.0224 -0.005,-0.0237 -0.10841,-0.46979 -0.006,-0.0224 -0.004,-0.0237 -0.0847,-0.47852 -0.004,-0.0225 -0.003,-0.0225 -0.0623,-0.48599 -0.003,-0.0237 -10e-4,-0.0237 -0.0374,-0.49223 -0.003,-0.0237 v -0.0225 l -0.0137,-0.49971 v -0.0137 -0.0112 -24.05182 -0.27416 -8.29433 -0.0124 -0.0125 l 0.0137,-0.4997 v -0.0225 l 0.003,-0.0237 0.0374,-0.49223 10e-4,-0.0237 0.003,-0.0237 0.0623,-0.48599 0.003,-0.0224 0.004,-0.0225 0.0847,-0.47852 0.004,-0.0237 0.006,-0.0224 0.10841,-0.47104 0.005,-0.0225 0.006,-0.0225 0.13084,-0.46107 0.007,-0.0225 0.006,-0.0225 0.15327,-0.45111 0.007,-0.0224 0.009,-0.0199 0.17322,-0.44113 0.01,-0.0212 0.009,-0.0212 0.1944,-0.42991 0.009,-0.0199 0.01,-0.0199 0.21433,-0.4187 0.0112,-0.0212 0.0112,-0.0212 0.23428,-0.40624 0.0112,-0.0187 0.0112,-0.0187 0.25296,-0.39378 0.0124,-0.0187 0.0137,-0.0199 0.27041,-0.38007 0.0137,-0.0174 0.0124,-0.0174 0.28786,-0.36637 0.0149,-0.0187 0.0137,-0.0175 0.30531,-0.35266 0.0149,-0.0162 0.0149,-0.0149 0.32275,-0.33771 0.0149,-0.0162 0.0162,-0.0162 0.33771,-0.3215 0.0162,-0.0149 0.0162,-0.0149 0.35141,-0.30531 0.0175,-0.0149 0.0187,-0.0137 0.36636,-0.28786 0.0174,-0.0137 0.0175,-0.0124 0.38132,-0.27041 0.0187,-0.0137 0.0187,-0.0137 0.39502,-0.25172 0.0174,-0.0112 0.0187,-0.0112 0.40624,-0.23428 0.0212,-0.0112 0.0212,-0.0112 0.4187,-0.21434 0.0199,-0.01 0.0199,-0.009 0.42992,-0.19439 0.0212,-0.009 0.0224,-0.01 0.44114,-0.17322 0.0199,-0.009 0.0212,-0.007 0.4511,-0.15327 0.0225,-0.007 0.0225,-0.006 0.46107,-0.13084 0.0225,-0.006 0.0237,-0.005 0.46979,-0.10841 0.0225,-0.006 0.0237,-0.004 0.47852,-0.0847 0.0225,-0.005 0.0225,-0.003 0.486,-0.0611 0.0237,-0.003 0.0237,-0.003 0.49223,-0.0374 0.0237,-0.001 0.0224,-10e-4 z"
       style="color:#000000;font-style:normal;font-variant:normal;font-weight:normal;font-stretch:normal;font-size:medium;line-height:normal;font-family:sans-serif;font-variant-ligatures:normal;font-variant-position:normal;font-variant-caps:normal;font-variant-numeric:normal;font-variant-alternates:normal;font-variant-east-asian:normal;font-feature-settings:normal;font-variation-settings:normal;text-indent:0;text-align:start;text-decoration:none;text-decoration-line:none;text-decoration-style:solid;text-decoration-color:#000000;letter-spacing:normal;word-spacing:normal;text-transform:none;writing-mode:lr-tb;direction:ltr;text-orientation:mixed;dominant-baseline:auto;baseline-shift:baseline;text-anchor:start;white-space:normal;shape-padding:0;shape-margin:0;inline-size:0;clip-rule:nonzero;display:inline;overflow:visible;visibility:visible;isolation:auto;mix-blend-mode:normal;color-interpolation:sRGB;color-interpolation-filters:linearRGB;solid-color:#000000;solid-opacity:1;vector-effect:none;fill-opacity:1;fill-rule:nonzero;stroke:none;stroke-width:0.0478521;stroke-linecap:butt;stroke-linejoin:miter;stroke-miterlimit:4;stroke-dasharray:none;stroke-dashoffset:0;stroke-opacity:1;color-rendering:auto;image-rendering:auto;shape-rendering:auto;text-rendering:auto;enable-background:accumulate;stop-color:#000000" />
  </g>
  <g
     inkscape:groupmode="layer"
     id="layer2"
     inkscape:label="snare"
     style="display:inline">
    <path
       style="fill:#efd76f;fill-opacity:1;fill-rule:nonzero;stroke-width:0.638026"
       d="m 354.4324,275.18631 h -71.94987 c -5.3634,0 -9.71245,-4.34904 -9.71245,-9.71245 v -24.05058 h 91.37476 v 24.32473 c 0,5.36341 -4.34655,9.4383 -9.71244,9.4383 z"
       fill="#7393d8"
       id="path354"
       inkscape:connector-curvature="0"
       sodipodi:nodetypes="sssccss" />
    <path
       style="fill:#e6e6e6;fill-opacity:1;fill-rule:nonzero;stroke-width:0.638026"
       d="m 354.4324,223.14235 h -71.94987 c -5.3634,0 -9.71245,4.34904 -9.71245,9.71245 v 8.56848 h 91.37476 v -8.56848 c 0,-5.36341 -4.34655,-9.71245 -9.71244,-9.71245 z m 0,0"
       fill="#c8ebff"
       id="path358"
       inkscape:connector-curvature="0" />
  </g>
  <g
     style="display:inline"
     inkscape:label="bigDrumBorder"
     id="g1329"
     inkscape:groupmode="layer">
    <path
       id="path1325"
       style="fill-rule:nonzero;stroke:#000000;stroke-width:11.963;stroke-miterlimit:4;stroke-dasharray:none;stroke-opacity:1"
       d="m 156.40778,223.14204 c -5.3634,0 -9.71247,4.34906 -9.71247,9.71246 v 7.65633 0.91218 70.78645 c 0,5.3634 4.34907,9.71246 9.71247,9.71246 h 71.95003 c 5.3659,0 9.71248,-4.34906 9.71248,-9.71246 v -70.78645 -0.91218 -7.65633 c 0,-5.3634 -4.34658,-9.71246 -9.71248,-9.71246 z"
       inkscape:connector-curvature="0" />
  </g>
  <g
     inkscape:groupmode="layer"
     id="layer4"
     inkscape:label="bigDrum"
     style="display:inline">
    <path
       sodipodi:nodetypes="sssccss"
       style="fill:#efd76f;fill-opacity:1;fill-rule:nonzero;stroke-width:0.638026"
       d="m 228.35751,321.9217 h -71.94987 c -5.3634,0 -9.71244,-3.43687 -9.71244,-8.80027 v -71.69815 h 91.37476 v 70.78597 c 0,5.3634 -4.34655,9.71245 -9.71245,9.71245 z"
       fill="#7393d8"
       id="path350"
       inkscape:connector-curvature="0" />
    <path
       style="fill:#e6e6e6;fill-opacity:1;fill-rule:nonzero;stroke-width:0.638026"
       d="m 228.35751,223.14235 h -71.94987 c -5.3634,0 -9.71244,4.34904 -9.71244,9.71245 v 8.56848 h 91.37476 v -8.56848 c 0,-5.36341 -4.34655,-9.71245 -9.71245,-9.71245 z m 0,0"
       fill="#c8ebff"
       id="path352"
       inkscape:connector-curvature="0" />
  </g>
  <g
     inkscape:groupmode="layer"
     id="layer1"
     inkscape:label="topDrumsBorder"
     style="display:inline">
    <path
       inkscape:connector-curvature="0"
       d="m 283.62132,156.71743 c -5.36341,0 -9.71247,4.34657 -9.71247,9.71247 v 8.19747 32.62163 c 0,5.36341 4.34906,9.71247 9.71247,9.71247 h 49.93809 c 5.36341,0 9.71247,-4.34906 9.71247,-9.71247 v -32.62163 -0.54114 -7.65633 c 0,-0.83842 -0.10598,-1.65122 -0.30561,-2.42718 -1.07804,-4.19017 -4.88148,-7.28529 -9.40686,-7.28529 h -15.10049 z"
       style="fill-rule:nonzero;stroke:#000000;stroke-width:11.963;stroke-miterlimit:4;stroke-dasharray:none;stroke-opacity:1"
       id="path362" />
    <path
       inkscape:connector-curvature="0"
       d="m 192.99217,156.71743 c -5.36342,0 -9.71248,4.34657 -9.71247,9.71247 v 8.19747 32.62163 c 0,5.36341 4.34905,9.71247 9.71247,9.71247 h 49.93809 c 5.3634,0 9.71247,-4.34906 9.71247,-9.71247 v -32.62163 -0.54114 -7.65633 c 0,-0.83842 -0.10692,-1.65122 -0.30655,-2.42718 -1.07803,-4.19017 -4.88055,-7.28529 -9.40592,-7.28529 h -15.1033 z"
       style="fill-rule:nonzero;stroke:#000000;stroke-width:11.963;stroke-miterlimit:4;stroke-dasharray:none;stroke-opacity:1"
       id="path370" />
    <path
       style="fill:#000000;fill-rule:nonzero;stroke-width:0.638026"
       d="m 292.58378,194.91718 h -58.61613 c -2.6817,0 -4.85498,-2.17327 -4.85498,-4.85497 0,-2.6817 2.17328,-4.85747 4.85498,-4.85747 h 58.61613 c 2.6817,0 4.85747,2.17577 4.85747,4.85747 0,2.6817 -2.17577,4.85497 -4.85747,4.85497 z m 0,0"
       fill="#1f1f42"
       id="path390"
       inkscape:connector-curvature="0" />
  </g>
  <g
     style="display:inline"
     inkscape:label="topDrums copy"
     id="g78"
     inkscape:groupmode="layer">
    <path
       sodipodi:nodetypes="csssscc"
       style="fill:#efd76f;fill-opacity:1;fill-rule:nonzero;stroke-width:0.638026"
       inkscape:connector-curvature="0"
       id="path60"
       fill="#7393d8"
       d="m 273.90906,174.62747 v 32.62156 c 0,5.3634 4.34904,9.71244 9.71245,9.71244 h 49.93797 c 5.36341,0 9.71245,-3.80821 9.71245,-9.17161 v -33.16239 z" />
    <path
       style="fill:#e6e6e6;fill-opacity:1;fill-rule:nonzero;stroke-width:0.638026"
       inkscape:connector-curvature="0"
       id="path64"
       fill="#c8ebff"
       d="m 333.55948,156.71788 h -49.93797 c -5.36341,0 -9.71245,4.34656 -9.71245,9.71245 v 8.19714 h 69.36287 v -8.19714 c 0,-5.36589 -4.34904,-9.71245 -9.71245,-9.71245 z m 0,0" />
    <path
       sodipodi:nodetypes="csscccc"
       style="fill:#efd76f;fill-opacity:1;fill-rule:nonzero;stroke-width:0.616925"
       inkscape:connector-curvature="0"
       id="path68"
       fill="#7393d8"
       d="m 183.27949,207.88083 c 0,5.01451 4.34905,9.08064 9.71245,9.08064 h 49.93798 c 5.3634,0 9.71244,-4.06613 9.71244,-9.08064 0,-11.08445 0,-22.16891 0,-33.25336 h -69.36287 c 0,11.08445 0,22.16891 0,33.25336 z" />
    <path
       style="fill:#e6e6e6;fill-opacity:1;fill-rule:nonzero;stroke-width:0.638026"
       inkscape:connector-curvature="0"
       id="path72"
       fill="#c8ebff"
       d="m 242.92992,156.71788 h -49.93798 c -5.3634,0 -9.71245,4.34656 -9.71245,9.71245 v 8.19714 h 69.36287 v -8.19714 c 0,-5.36589 -4.34904,-9.71245 -9.71244,-9.71245 z m 0,0" />
  </g>
  <g
     inkscape:groupmode="layer"
     id="layer6"
     inkscape:label="cymbalStands"
     style="display:inline">
    <path
       inkscape:connector-curvature="0"
       id="path392"
       d="m 378.91664,314.30277 c -2.68171,0 -4.85498,-2.17327 -4.85498,-4.85497 V 115.52535 c 0,-2.6842 2.17327,-4.85747 4.85498,-4.85747 2.68419,0 4.85747,2.17576 4.85747,4.85747 V 309.4478 c 0,2.6817 -2.17328,4.85497 -4.85747,4.85497 z m 0,0"
       style="fill:#4a4a68;fill-rule:nonzero;stroke-width:0.638026" />
    <path
       inkscape:connector-curvature="0"
       id="path394"
       d="m 403.45321,358.25677 c -1.70223,0 -3.35462,-0.89723 -4.24437,-2.4898 l -20.2922,-36.35501 -20.29221,36.35501 c -1.30597,2.34026 -4.26431,3.18016 -6.60706,1.87171 -2.34275,-1.30596 -3.18016,-4.26431 -1.8742,-6.60706 l 24.53409,-43.94901 c 0.85734,-1.53774 2.47982,-2.48979 4.23938,-2.48979 1.75955,0 3.38203,0.95205 4.23938,2.48979 l 24.53159,43.94901 c 1.30845,2.34275 0.46855,5.3011 -1.87171,6.60706 -0.74769,0.4187 -1.56017,0.61809 -2.36269,0.61809 z m 0,0"
       style="fill:#4a4a68;fill-rule:nonzero;stroke-width:0.638026" />
    <path
       inkscape:connector-curvature="0"
       id="path396"
       d="m 126.89895,314.30527 c -2.6817,0 -4.85498,-2.17328 -4.85498,-4.85499 V 184.85333 c 0,-5.60765 1.48292,-11.13804 4.28674,-15.99551 l 52.09381,-90.223321 c 1.34334,-2.322813 4.31414,-3.117853 6.63446,-1.777002 2.32282,1.340851 3.11786,4.311659 1.77701,6.634471 l -52.09381,90.223322 c -1.95395,3.38204 -2.98576,7.23262 -2.98576,11.13804 v 124.59695 c 0,2.68171 -2.17327,4.85499 -4.85747,4.85499 z m 0,0"
       style="fill:#4a4a68;fill-rule:nonzero;stroke-width:0.638026" />
    <path
       inkscape:connector-curvature="0"
       id="path398"
       d="m 151.43802,358.25677 c -1.70472,0 -3.35711,-0.89723 -4.24686,-2.4898 l -20.28972,-36.35501 -20.29221,36.35501 c -1.30595,2.34026 -4.2643,3.18016 -6.60705,1.87171 -2.342752,-1.30596 -3.180161,-4.26431 -1.874202,-6.60706 l 24.534082,-43.94901 c 0.85735,-1.53774 2.47983,-2.48979 4.23938,-2.48979 1.75956,0 3.38204,0.95205 4.23939,2.48979 l 24.53159,43.94901 c 1.30845,2.34275 0.46855,5.3011 -1.8742,6.60706 -0.74769,0.4187 -1.56017,0.61809 -2.3602,0.61809 z m 0,0"
       style="fill:#4a4a68;fill-rule:nonzero;stroke-width:0.638026" />
    <path
       style="fill:#000000;fill-rule:nonzero;stroke-width:0.535527"
       d="m 100.40422,357.45286 c -1.640028,-0.84539 -2.879358,-3.27648 -2.471732,-4.84858 0.166203,-0.641 5.730552,-10.87591 12.365212,-22.74426 l 12.06302,-21.57882 0.008,-63.56958 c 0.009,-70.14915 -0.14391,-66.84762 3.41586,-73.88034 4.07103,-8.04276 52.93285,-92.060679 54.18979,-93.179353 0.74462,-0.662711 1.96142,-1.20493 2.704,-1.20493 1.77717,0 4.4809,2.716645 4.4809,4.502296 0,0.834947 -10.4346,19.445517 -26.67106,47.568997 -14.66909,25.4086 -27.14012,47.28189 -27.7134,48.60732 -1.01083,2.33705 -1.04669,4.35424 -1.18668,66.76891 l -0.14436,64.35905 12.38046,22.21481 c 11.07362,19.8699 12.34122,22.39351 12.00867,23.90757 -0.71071,3.23587 -4.85655,4.55397 -7.32581,2.32912 -0.49374,-0.44487 -5.51686,-9.10159 -11.16249,-19.23716 -5.64564,-10.13557 -10.34065,-18.42831 -10.43336,-18.42831 -0.0927,0 -4.68561,8.13328 -10.20644,18.07395 -5.52082,9.94068 -10.54326,18.6014 -11.16097,19.24606 -1.46445,1.52834 -3.46848,1.95463 -5.13953,1.09325 z"
       id="path1275"
       inkscape:connector-curvature="0" />
    <path
       style="fill:#000000;fill-rule:nonzero;stroke-width:0.535527"
       d="m 353.17178,357.75469 c -1.73907,-0.63573 -3.21314,-2.51584 -3.21314,-4.09821 0,-1.10456 3.79165,-8.41005 12.04361,-23.20478 l 12.04361,-21.59271 0.13957,-97.45051 0.13957,-97.45051 1.44024,-1.44019 c 1.92261,-1.92256 4.30082,-1.92256 6.22344,-1e-5 l 1.44024,1.44018 0.26776,97.58723 c 0.24497,89.2811 0.34281,97.72396 1.14946,99.19379 0.48493,0.88361 5.84687,10.493 11.91542,21.35419 12.11449,21.68192 12.30929,22.19357 9.38606,24.65332 -0.90621,0.76252 -2.00261,1.38641 -2.43646,1.38641 -2.6277,0 -3.70441,-1.54342 -14.12371,-20.24572 -5.7435,-10.30939 -10.60099,-18.64675 -10.79441,-18.52747 -0.19344,0.11929 -4.98966,8.54339 -10.65828,18.72023 -11.06828,19.8708 -11.79885,20.83143 -14.96298,19.67476 z"
       id="path1277"
       inkscape:connector-curvature="0" />
  </g>
  <g
     inkscape:groupmode="layer"
     id="layer5"
     inkscape:label="cymbals"
     style="display:inline">
    <path
       style="fill-rule:nonzero;stroke-width:0.638026"
       d="m 417.4823,131.58814 h -28.86817 c -0.63803,-4.79017 -4.73037,-8.48873 -9.69749,-8.48873 -4.96464,0 -9.05698,3.69856 -9.695,8.48873 h -28.86818 c -3.70105,0 -6.69927,3.00072 -6.69927,6.70177 0,3.69855 2.99822,6.69927 6.69927,6.69927 h 77.12884 c 3.70105,0 6.69927,-2.99822 6.69927,-6.69927 0,-3.70105 -2.99822,-6.70177 -6.69927,-6.70177 z m 0,0"
       fill="#efd76f"
       id="path402"
       inkscape:connector-curvature="0" />
    <path
       style="fill-rule:nonzero;stroke-width:0.638026"
       d="M 207.99552,114.25428 182.99537,99.82144 c 1.84181,-4.468673 0.14705,-9.719923 -4.15215,-12.202242 -4.30169,-2.482319 -9.695,-1.325898 -12.64338,2.504749 L 141.1997,75.691106 c -3.20508,-1.85177 -7.3024,-0.752671 -9.15417,2.452412 -1.84928,3.20259 -0.75267,7.302404 2.45241,9.151682 l 66.79582,38.56567 c 3.20507,1.84927 7.3024,0.75267 9.15417,-2.45242 1.84928,-3.20508 0.75017,-7.3024 -2.45241,-9.15417 z m 0,0"
       fill="#efd76f"
       id="path404"
       inkscape:connector-curvature="0" />
  </g>
</svg>
