<?xml version="1.0" encoding="UTF-8" standalone="no"?>
<svg
   xmlns:dc="http://purl.org/dc/elements/1.1/"
   xmlns:cc="http://creativecommons.org/ns#"
   xmlns:rdf="http://www.w3.org/1999/02/22-rdf-syntax-ns#"
   xmlns:svg="http://www.w3.org/2000/svg"
   xmlns="http://www.w3.org/2000/svg"
   xmlns:sodipodi="http://sodipodi.sourceforge.net/DTD/sodipodi-0.dtd"
   xmlns:inkscape="http://www.inkscape.org/namespaces/inkscape"
   inkscape:version="1.0beta2 (2b71d25, 2019-12-03)"
   sodipodi:docname="drum-set-title.svg"
   id="svg406"
   version="1.1"
   width="180.62222mm"
   viewBox="0 -34 512.00121 512"
   height="180.62222mm">
  <metadata
     id="metadata412">
    <rdf:RDF>
      <cc:Work
         rdf:about="">
        <dc:format>image/svg+xml</dc:format>
        <dc:type
           rdf:resource="http://purl.org/dc/dcmitype/StillImage" />
        <dc:title></dc:title>
      </cc:Work>
    </rdf:RDF>
  </metadata>
  <defs
     id="defs410" />
  <sodipodi:namedview
     inkscape:current-layer="layer1"
     inkscape:window-maximized="0"
     inkscape:window-y="23"
     inkscape:window-x="0"
     inkscape:cy="154.12558"
     inkscape:cx="357.62381"
     inkscape:zoom="5.0722792"
     showgrid="false"
     id="namedview408"
     inkscape:window-height="830"
     inkscape:window-width="1405"
     inkscape:pageshadow="2"
     inkscape:pageopacity="0"
     guidetolerance="10"
     gridtolerance="10"
     objecttolerance="10"
     borderopacity="1"
     inkscape:document-rotation="0"
     bordercolor="#666666"
     pagecolor="#ffffff"
     units="mm" />
  <g
     style="display:inline"
     inkscape:label="text 1"
     id="layer1"
     inkscape:groupmode="layer">
    <path
       inkscape:connector-curvature="0"
       id="path304"
       style="font-style:normal;font-variant:normal;font-weight:normal;font-stretch:normal;font-size:28.0001px;line-height:1.25;font-family:'Racing Sans One';-inkscape-font-specification:'Racing Sans One Normal';font-variant-ligatures:normal;font-variant-caps:normal;font-variant-numeric:normal;font-variant-east-asian:normal;display:inline;fill:#000000;fill-opacity:1;stroke:none;stroke-width:0.750002"
       d="m 381.20374,91.803529 q -0.112,0.616002 -0.168,1.176004 -0.028,0.560002 -0.028,1.008004 0,0.252001 0.028,0.560002 0.028,0.308001 0.112,0.588002 0.112,0.252001 0.28,0.448002 0.196,0.168 0.532,0.168 0.252,0 0.56,-0.168 0.336,-0.168001 0.644,-0.476002 0.33601,-0.308001 0.61601,-0.756003 0.308,-0.448001 0.476,-1.008003 h 4.59201 l -0.728,2.99601 q -0.56,0.364001 -1.288,0.616002 -0.728,0.252001 -1.54001,0.420002 -0.812,0.14 -1.652,0.196001 -0.84001,0.084 -1.59601,0.084 -1.4,0 -2.60401,-0.252001 -1.204,-0.252001 -2.10001,-0.868003 -0.896,-0.616002 -1.428,-1.624006 -0.504,-1.036004 -0.504,-2.548009 0,-1.372005 0.42,-2.688009 0.448,-1.316005 1.456,-2.324009 1.03601,-1.036003 2.74401,-1.652005 1.73601,-0.616003 4.31202,-0.616003 2.80001,0 4.20001,0.868003 1.42801,0.868003 1.42801,2.71601 0,0.756003 -0.224,1.652006 -0.224,0.868003 -0.672,1.484005 z m 3.72401,-3.332012 q 0,-0.868003 -0.28,-1.176004 -0.28,-0.308001 -0.672,-0.308001 -0.448,0 -0.84001,0.308001 -0.364,0.280001 -0.672,0.784003 -0.308,0.476002 -0.56,1.120004 -0.252,0.616002 -0.42,1.316005 h 3.19201 q 0.056,-0.336002 0.112,-0.700003 0.056,-0.308001 0.084,-0.672002 0.056,-0.364002 0.056,-0.672003 z" />
    <path
       inkscape:connector-curvature="0"
       id="path302"
       style="font-style:normal;font-variant:normal;font-weight:normal;font-stretch:normal;font-size:28.0001px;line-height:1.25;font-family:'Racing Sans One';-inkscape-font-specification:'Racing Sans One Normal';font-variant-ligatures:normal;font-variant-caps:normal;font-variant-numeric:normal;font-variant-east-asian:normal;display:inline;fill:#000000;fill-opacity:1;stroke:none;stroke-width:0.750002"
       d="m 366.19743,87.183513 q 0.588,-0.560002 1.31601,-1.036004 0.644,-0.392001 1.512,-0.728002 0.868,-0.336002 1.93201,-0.336002 1.456,0 2.40801,0.756003 0.952,0.728003 0.952,2.016007 0,0.364001 -0.084,0.896003 -0.084,0.504002 -0.196,1.064004 -0.112,0.560002 -0.252,1.148004 -0.112,0.560002 -0.196,1.008004 l -1.17601,5.460019 h -5.68402 l 1.54001,-7.308026 q 0.056,-0.364001 0.14,-0.728002 0.084,-0.392002 0.084,-0.700003 0,-0.420001 -0.224,-0.672002 -0.196,-0.280001 -0.616,-0.280001 -0.504,0 -0.98001,0.364001 -0.448,0.364001 -0.7,0.616002 l -1.84801,8.708031 h -5.71202 l 2.54801,-12.040043 h 4.56402 l 0.504,1.792007 z" />
    <path
       inkscape:connector-curvature="0"
       id="path300"
       style="font-style:normal;font-variant:normal;font-weight:normal;font-stretch:normal;font-size:28.0001px;line-height:1.25;font-family:'Racing Sans One';-inkscape-font-specification:'Racing Sans One Normal';font-variant-ligatures:normal;font-variant-caps:normal;font-variant-numeric:normal;font-variant-east-asian:normal;display:inline;fill:#000000;fill-opacity:1;stroke:none;stroke-width:0.750002"
       d="m 355.89427,97.431549 h -5.68402 l 2.54801,-12.040043 h 5.74002 z m 3.33201,-15.708056 q 0,0.644003 -0.28,1.120004 -0.252,0.476002 -0.7,0.812003 -0.42,0.336001 -0.98001,0.504002 -0.56,0.168001 -1.148,0.168001 -1.12,0 -1.87601,-0.532002 -0.756,-0.532002 -0.756,-1.680006 0,-0.616002 0.252,-1.092004 0.252,-0.504002 0.672,-0.812003 0.44801,-0.336001 1.00801,-0.504002 0.588,-0.168 1.204,-0.168 1.09201,0 1.84801,0.532002 0.756,0.532001 0.756,1.652005 z" />
    <path
       inkscape:connector-curvature="0"
       id="path298"
       style="font-style:normal;font-variant:normal;font-weight:normal;font-stretch:normal;font-size:28.0001px;line-height:1.25;font-family:'Racing Sans One';-inkscape-font-specification:'Racing Sans One Normal';font-variant-ligatures:normal;font-variant-caps:normal;font-variant-numeric:normal;font-variant-east-asian:normal;display:inline;fill:#000000;fill-opacity:1;stroke:none;stroke-width:0.750002"
       d="m 341.69997,87.183513 h 0.196 q 0.532,-0.532002 1.232,-0.980004 0.588,-0.392001 1.40001,-0.700002 0.812,-0.308001 1.82,-0.308001 1.45601,0 2.40801,0.756002 0.952,0.728003 0.952,2.016008 0,0.392001 -0.084,0.896003 -0.084,0.476001 -0.196,1.036003 -0.112,0.532002 -0.252,1.092004 -0.112,0.532002 -0.196,0.980004 l -1.176,5.460019 h -5.68402 l 1.54,-7.308026 q 0.056,-0.364001 0.14,-0.728002 0.084,-0.392002 0.084,-0.700003 0,-0.420001 -0.224,-0.672002 -0.196,-0.280001 -0.616,-0.280001 -0.504,0 -0.98,0.364001 -0.448,0.364001 -0.70001,0.644002 l -1.848,8.680031 h -5.71202 l 3.97601,-18.816067 h 5.74002 z" />
    <path
       inkscape:connector-curvature="0"
       id="path296"
       style="font-style:normal;font-variant:normal;font-weight:normal;font-stretch:normal;font-size:28.0001px;line-height:1.25;font-family:'Racing Sans One';-inkscape-font-specification:'Racing Sans One Normal';font-variant-ligatures:normal;font-variant-caps:normal;font-variant-numeric:normal;font-variant-east-asian:normal;display:inline;fill:#000000;fill-opacity:1;stroke:none;stroke-width:0.750002"
       d="m 331.91437,96.759547 q -1.176,0.476001 -2.492,0.672002 -1.28801,0.224001 -2.94001,0.224001 -1.45601,0 -2.68801,-0.280001 -1.20401,-0.308001 -2.10001,-0.952003 -0.89601,-0.644003 -1.40001,-1.652006 -0.504,-1.036004 -0.504,-2.492009 0,-1.512006 0.504,-2.80001 0.53201,-1.316005 1.56801,-2.296008 1.064,-0.980004 2.68801,-1.540006 1.624,-0.560002 3.86401,-0.560002 1.82001,0 3.16401,0.308001 1.34401,0.280001 2.21201,1.316005 l -0.784,3.584013 h -3.80802 q 0.028,-0.476002 0.056,-0.840003 0.028,-0.364001 0.028,-0.812003 0,-0.896003 -0.19601,-1.260005 -0.196,-0.392001 -0.644,-0.392001 -0.784,0 -1.372,0.784003 -0.588,0.756003 -0.98001,1.848006 -0.364,1.064004 -0.56,2.268008 -0.168,1.176005 -0.168,2.016008 0,0.308001 0.028,0.644002 0.028,0.308001 0.112,0.588002 0.112,0.280001 0.28,0.448002 0.168,0.168 0.476,0.168 0.28001,0 0.64401,-0.168 0.364,-0.168001 0.7,-0.504002 0.336,-0.364002 0.644,-0.924004 0.308,-0.560002 0.476,-1.344004 h 4.00402 z" />
    <path
       inkscape:connector-curvature="0"
       id="path294"
       style="font-style:normal;font-variant:normal;font-weight:normal;font-stretch:normal;font-size:28.0001px;line-height:1.25;font-family:'Racing Sans One';-inkscape-font-specification:'Racing Sans One Normal';font-variant-ligatures:normal;font-variant-caps:normal;font-variant-numeric:normal;font-variant-east-asian:normal;display:inline;fill:#000000;fill-opacity:1;stroke:none;stroke-width:0.750002"
       d="m 306.02172,86.42751 q 1.42801,-0.700002 2.91201,-1.008003 1.51201,-0.336002 3.36001,-0.336002 1.79201,0 2.96801,0.280001 1.17601,0.280001 1.87601,0.812003 0.7,0.532002 0.98,1.260005 0.28001,0.728002 0.28001,1.652006 0,0.532001 -0.084,1.148004 -0.056,0.616002 -0.14001,1.036003 l -1.316,6.160022 h -4.50802 l -0.504,-1.792006 h -0.168 q -0.896,0.980003 -2.10001,1.512005 -1.176,0.504002 -2.352,0.504002 -0.67201,0 -1.31601,-0.196001 -0.644,-0.196001 -1.148,-0.588002 -0.504,-0.420001 -0.81201,-1.036004 -0.308,-0.644002 -0.308,-1.540005 0,-1.456005 0.78401,-2.296008 0.812,-0.868003 2.1,-1.288005 1.31601,-0.448001 2.94001,-0.560002 1.65201,-0.112 3.30402,-0.112 0.056,-0.280001 0.14,-0.784003 0.084,-0.532002 0.084,-0.924003 0,-0.504002 -0.28,-0.924003 -0.25201,-0.448002 -1.09201,-0.448002 -0.98,0 -1.456,0.588002 -0.44801,0.560002 -0.58801,1.372005 h -4.08801 z m 6.44002,4.928018 h -0.504 q -0.812,0 -1.4,0.224 -0.56,0.196001 -0.92401,0.532002 -0.336,0.336001 -0.504,0.756003 -0.168,0.420001 -0.168,0.840003 0,0.672002 0.336,1.008003 0.364,0.336002 0.84001,0.336002 0.588,0 1.148,-0.420002 0.588,-0.420001 0.728,-1.120004 z" />
    <path
       inkscape:connector-curvature="0"
       id="path292"
       style="font-style:normal;font-variant:normal;font-weight:normal;font-stretch:normal;font-size:28.0001px;line-height:1.25;font-family:'Racing Sans One';-inkscape-font-specification:'Racing Sans One Normal';font-variant-ligatures:normal;font-variant-caps:normal;font-variant-numeric:normal;font-variant-east-asian:normal;display:inline;fill:#000000;fill-opacity:1;stroke:none;stroke-width:0.750002"
       d="m 300.9327,97.431549 h -6.21602 l 2.57601,-12.096043 -6.63602,12.096043 h -3.80802 l -1.26,-12.516044 -2.68801,12.516044 h -2.52001 l 3.78001,-17.780063 h 7.14003 l 0.868,10.024036 5.37602,-10.024036 h 7.19603 z" />
    <path
       inkscape:connector-curvature="0"
       id="path290"
       style="font-style:normal;font-variant:normal;font-weight:normal;font-stretch:normal;font-size:28.0001px;line-height:1.25;font-family:'Racing Sans One';-inkscape-font-specification:'Racing Sans One Normal';font-variant-ligatures:normal;font-variant-caps:normal;font-variant-numeric:normal;font-variant-east-asian:normal;display:inline;fill:#000000;fill-opacity:1;stroke:none;stroke-width:0.750002"
       d="m 258.40799,87.183513 q 0.588,-0.560002 1.316,-1.036004 0.644,-0.392001 1.54001,-0.728002 0.896,-0.336002 2.01601,-0.336002 1.344,0 1.988,0.616003 0.672,0.616002 0.756,1.512005 h 0.16801 q 0.644,-0.588002 1.4,-1.064004 0.644,-0.392001 1.51201,-0.728002 0.868,-0.336002 1.848,-0.336002 1.45601,0 2.35201,0.812003 0.924,0.784003 0.924,2.044007 0,0.644003 -0.224,1.708006 -0.224,1.064004 -0.504,2.324009 l -1.176,5.460019 h -5.51602 l 1.512,-7.308026 q 0.084,-0.420001 0.168,-0.812003 0.084,-0.392001 0.084,-0.644002 0,-0.392001 -0.224,-0.644002 -0.224,-0.280001 -0.644,-0.280001 -0.532,0 -1.008,0.392001 -0.448,0.364001 -0.70001,0.616002 l -1.82,8.680031 h -5.23602 L 260.48,90.123523 q 0.056,-0.364001 0.14,-0.728002 0.084,-0.392002 0.084,-0.700003 0,-0.420001 -0.224,-0.672002 -0.19601,-0.280001 -0.61601,-0.280001 -0.504,0 -0.98,0.364001 -0.448,0.364001 -0.7,0.616002 l -1.84801,8.708031 h -5.71202 l 2.54801,-12.040043 h 4.56402 l 0.504,1.792007 z" />
    <path
       inkscape:connector-curvature="0"
       id="path288"
       style="font-style:normal;font-variant:normal;font-weight:normal;font-stretch:normal;font-size:28.0001px;line-height:1.25;font-family:'Racing Sans One';-inkscape-font-specification:'Racing Sans One Normal';font-variant-ligatures:normal;font-variant-caps:normal;font-variant-numeric:normal;font-variant-east-asian:normal;display:inline;fill:#000000;fill-opacity:1;stroke:none;stroke-width:0.750002"
       d="m 244.94169,85.391506 h 5.71203 l -2.57601,12.040043 h -4.53602 l -0.504,-1.792006 h -0.168 q -0.72801,0.868003 -1.98801,1.456005 -1.232,0.560002 -2.49201,0.560002 -1.68,0 -2.63201,-0.840003 -0.952,-0.868003 -0.952,-2.240008 0,-0.700003 0.224,-1.736006 0.252,-1.064004 0.448,-1.988007 l 1.17601,-5.46002 h 5.68402 l -1.40001,6.552024 q -0.056,0.224 -0.112,0.532002 -0.056,0.308001 -0.112,0.616002 -0.056,0.280001 -0.112,0.560002 -0.028,0.252001 -0.028,0.420001 0,0.420002 0.168,0.728003 0.196,0.280001 0.672,0.280001 0.504,0 0.95201,-0.336001 0.448,-0.336002 0.7,-0.644003 z" />
    <path
       inkscape:connector-curvature="0"
       id="path286"
       style="font-style:normal;font-variant:normal;font-weight:normal;font-stretch:normal;font-size:28.0001px;line-height:1.25;font-family:'Racing Sans One';-inkscape-font-specification:'Racing Sans One Normal';font-variant-ligatures:normal;font-variant-caps:normal;font-variant-numeric:normal;font-variant-east-asian:normal;display:inline;fill:#000000;fill-opacity:1;stroke:none;stroke-width:0.750002"
       d="m 223.2578,85.391506 h 4.56402 l 0.42,2.100008 h 0.196 q 0.644,-1.008004 1.65201,-1.708006 1.008,-0.700003 2.66001,-0.700003 0.112,0 0.336,0.028 0.252,0 0.532,0.084 0.308,0.056 0.616,0.196 0.336,0.112001 0.644,0.336002 l -1.232,5.76802 h -3.05201 q -0.056,-1.736006 -0.308,-2.408008 -0.252,-0.700003 -0.812,-0.700003 -0.28001,0 -0.61601,0.140001 -0.308,0.112 -0.644,0.532001 l -1.79201,8.37203 h -5.71202 z" />
    <path
       inkscape:connector-curvature="0"
       id="path284"
       style="font-style:normal;font-variant:normal;font-weight:normal;font-stretch:normal;font-size:28.0001px;line-height:1.25;font-family:'Racing Sans One';-inkscape-font-specification:'Racing Sans One Normal';font-variant-ligatures:normal;font-variant-caps:normal;font-variant-numeric:normal;font-variant-east-asian:normal;display:inline;fill:#000000;fill-opacity:1;stroke:none;stroke-width:0.750002"
       d="m 202.45067,97.431549 3.78001,-17.780063 h 7.53203 q 1.736,0 3.02401,0.364001 1.316,0.336002 2.15601,1.148004 0.868,0.812003 1.288,2.128008 0.448,1.316005 0.448,3.220011 0,2.044008 -0.532,4.004015 -0.504,1.960007 -1.70801,3.500012 -1.204,1.540005 -3.16401,2.492009 -1.932,0.924003 -4.78801,0.924003 z m 7.67203,-1.960007 q 0.924,0 1.624,-0.756003 0.728,-0.784002 1.23201,-1.960006 0.532,-1.204005 0.868,-2.63201 0.364,-1.456005 0.56,-2.80001 0.224,-1.344004 0.308,-2.408008 0.112,-1.064004 0.112,-1.512006 0,-0.868003 -0.364,-1.344004 -0.336,-0.504002 -1.204,-0.504002 h -1.34401 l -2.99601,13.916049 z" />
  </g>
</svg>
