<?xml version="1.0" encoding="UTF-8" standalone="no"?>
<svg
   xmlns:dc="http://purl.org/dc/elements/1.1/"
   xmlns:cc="http://creativecommons.org/ns#"
   xmlns:rdf="http://www.w3.org/1999/02/22-rdf-syntax-ns#"
   xmlns:svg="http://www.w3.org/2000/svg"
   xmlns="http://www.w3.org/2000/svg"
   xmlns:sodipodi="http://sodipodi.sourceforge.net/DTD/sodipodi-0.dtd"
   xmlns:inkscape="http://www.inkscape.org/namespaces/inkscape"
   height="180.62222mm"
   viewBox="0 -34 512.00121 512"
   width="180.62222mm"
   version="1.1"
   id="svg406"
   sodipodi:docname="drum-set-cymbals-drums.svg"
   inkscape:version="1.0beta2 (2b71d25, 2019-12-03)">
  <metadata
     id="metadata412">
    <rdf:RDF>
      <cc:Work
         rdf:about="">
        <dc:format>image/svg+xml</dc:format>
        <dc:type
           rdf:resource="http://purl.org/dc/dcmitype/StillImage" />
        <dc:title />
      </cc:Work>
    </rdf:RDF>
  </metadata>
  <defs
     id="defs410" />
  <sodipodi:namedview
     units="mm"
     pagecolor="#ffffff"
     bordercolor="#666666"
     inkscape:document-rotation="0"
     borderopacity="1"
     objecttolerance="10"
     gridtolerance="10"
     guidetolerance="10"
     inkscape:pageopacity="0"
     inkscape:pageshadow="2"
     inkscape:window-width="1405"
     inkscape:window-height="830"
     id="namedview408"
     showgrid="false"
     inkscape:zoom="1.1367163"
     inkscape:cx="286.46752"
     inkscape:cy="318.68891"
     inkscape:window-x="0"
     inkscape:window-y="23"
     inkscape:window-maximized="0"
     inkscape:current-layer="layer2" />
  <g
     inkscape:groupmode="layer"
     id="layer2"
     inkscape:label="snare"
     style="display:inline">
    <path
       style="fill:#efd76f;fill-opacity:1;fill-rule:nonzero;stroke-width:0.638026"
       d="m 354.4324,275.18631 h -71.94987 c -5.3634,0 -9.71245,-4.34904 -9.71245,-9.71245 v -24.05058 h 91.37476 v 24.32473 c 0,5.36341 -4.34655,9.4383 -9.71244,9.4383 z"
       fill="#7393d8"
       id="path354"
       inkscape:connector-curvature="0"
       sodipodi:nodetypes="sssccss" />
  </g>
  <g
     inkscape:groupmode="layer"
     id="layer4"
     inkscape:label="bigDrum"
     style="display:inline">
    <path
       sodipodi:nodetypes="sssccss"
       style="fill:#efd76f;fill-opacity:1;fill-rule:nonzero;stroke-width:0.638026"
       d="m 228.35751,321.9217 h -71.94987 c -5.3634,0 -9.71244,-3.43687 -9.71244,-8.80027 v -71.69815 h 91.37476 v 70.78597 c 0,5.3634 -4.34655,9.71245 -9.71245,9.71245 z"
       fill="#7393d8"
       id="path350"
       inkscape:connector-curvature="0" />
  </g>
  <g
     style="display:inline"
     inkscape:label="topDrums copy"
     id="g78"
     inkscape:groupmode="layer">
    <path
       sodipodi:nodetypes="csssscc"
       style="fill:#efd76f;fill-opacity:1;fill-rule:nonzero;stroke-width:0.638026"
       inkscape:connector-curvature="0"
       id="path60"
       fill="#7393d8"
       d="m 273.90906,174.62747 v 32.62156 c 0,5.3634 4.34904,9.71244 9.71245,9.71244 h 49.93797 c 5.36341,0 9.71245,-3.80821 9.71245,-9.17161 v -33.16239 z" />
    <path
       sodipodi:nodetypes="csscccc"
       style="fill:#efd76f;fill-opacity:1;fill-rule:nonzero;stroke-width:0.616925"
       inkscape:connector-curvature="0"
       id="path68"
       fill="#7393d8"
       d="m 183.27949,207.88083 c 0,5.01451 4.34905,9.08064 9.71245,9.08064 h 49.93798 c 5.3634,0 9.71244,-4.06613 9.71244,-9.08064 0,-11.08445 0,-22.16891 0,-33.25336 h -69.36287 c 0,11.08445 0,22.16891 0,33.25336 z" />
  </g>
  <g
     inkscape:groupmode="layer"
     id="layer5"
     inkscape:label="cymbals"
     style="display:inline">
    <path
       style="fill-rule:nonzero;stroke-width:0.638026"
       d="m 417.4823,131.58814 h -28.86817 c -0.63803,-4.79017 -4.73037,-8.48873 -9.69749,-8.48873 -4.96464,0 -9.05698,3.69856 -9.695,8.48873 h -28.86818 c -3.70105,0 -6.69927,3.00072 -6.69927,6.70177 0,3.69855 2.99822,6.69927 6.69927,6.69927 h 77.12884 c 3.70105,0 6.69927,-2.99822 6.69927,-6.69927 0,-3.70105 -2.99822,-6.70177 -6.69927,-6.70177 z m 0,0"
       fill="#efd76f"
       id="path402"
       inkscape:connector-curvature="0" />
    <path
       style="fill-rule:nonzero;stroke-width:0.638026"
       d="M 207.99552,114.25428 182.99537,99.82144 c 1.84181,-4.468673 0.14705,-9.719923 -4.15215,-12.202242 -4.30169,-2.482319 -9.695,-1.325898 -12.64338,2.504749 L 141.1997,75.691106 c -3.20508,-1.85177 -7.3024,-0.752671 -9.15417,2.452412 -1.84928,3.20259 -0.75267,7.302404 2.45241,9.151682 l 66.79582,38.56567 c 3.20507,1.84927 7.3024,0.75267 9.15417,-2.45242 1.84928,-3.20508 0.75017,-7.3024 -2.45241,-9.15417 z m 0,0"
       fill="#efd76f"
       id="path404"
       inkscape:connector-curvature="0" />
  </g>
</svg>
