<?xml version="1.0" encoding="UTF-8" standalone="no"?>
<svg
   xmlns:dc="http://purl.org/dc/elements/1.1/"
   xmlns:cc="http://creativecommons.org/ns#"
   xmlns:rdf="http://www.w3.org/1999/02/22-rdf-syntax-ns#"
   xmlns:svg="http://www.w3.org/2000/svg"
   xmlns="http://www.w3.org/2000/svg"
   xmlns:sodipodi="http://sodipodi.sourceforge.net/DTD/sodipodi-0.dtd"
   xmlns:inkscape="http://www.inkscape.org/namespaces/inkscape"
   sodipodi:docname="title.svg"
   inkscape:version="1.0beta2 (2b71d25, 2019-12-03)"
   id="svg8"
   version="1.1"
   viewBox="0 0 98.485519 10"
   height="10mm"
   width="98.485519mm">
  <defs
     id="defs2">
    <rect
       id="rect12"
       height="36.915924"
       width="119.40706"
       y="65.628311"
       x="58.336273" />
  </defs>
  <sodipodi:namedview
     showguides="false"
     fit-margin-bottom="0"
     fit-margin-right="0"
     fit-margin-left="0"
     fit-margin-top="0"
     inkscape:window-maximized="0"
     inkscape:window-y="25"
     inkscape:window-x="2"
     inkscape:window-height="855"
     inkscape:window-width="1423"
     showgrid="false"
     inkscape:document-rotation="0"
     inkscape:current-layer="layer2"
     inkscape:document-units="mm"
     inkscape:cy="15.049016"
     inkscape:cx="310.23066"
     inkscape:zoom="5.8220913"
     inkscape:pageshadow="2"
     inkscape:pageopacity="0.0"
     borderopacity="1.0"
     bordercolor="#666666"
     pagecolor="#ffffff"
     id="base" />
  <metadata
     id="metadata5">
    <rdf:RDF>
      <cc:Work
         rdf:about="">
        <dc:format>image/svg+xml</dc:format>
        <dc:type
           rdf:resource="http://purl.org/dc/dcmitype/StillImage" />
        <dc:title></dc:title>
      </cc:Work>
    </rdf:RDF>
  </metadata>
  <g
     style="display:inline"
     inkscape:label="Layer 2"
     id="layer2"
     inkscape:groupmode="layer">
    <path
       inkscape:connector-curvature="0"
       id="path54"
       style="display:inline;font-style:normal;font-weight:normal;font-size:10.58329999999999949px;line-height:1.25;font-family:'Racing Sans One';white-space:pre;shape-inside:url(#rect12);fill:none;fill-opacity:1;stroke:#000000;font-variant:normal;font-stretch:normal;-inkscape-font-specification:'Racing Sans One Normal';font-variant-ligatures:normal;font-variant-caps:normal;font-variant-numeric:normal;font-variant-east-asian:normal;stroke-opacity:1;stroke-width:0.07196644;stroke-miterlimit:4;stroke-dasharray:none"
       d="m 125.89989,73.157128 q -0.0423,0.232833 -0.0635,0.444499 -0.0106,0.211666 -0.0106,0.380999 0,0.09525 0.0106,0.211665 0.0106,0.116417 0.0423,0.22225 0.0423,0.09525 0.10583,0.169333 0.0741,0.0635 0.20109,0.0635 0.0952,0 0.21166,-0.0635 0.127,-0.0635 0.24342,-0.179917 0.127,-0.116416 0.23283,-0.285749 0.11642,-0.169332 0.17992,-0.380998 h 1.73566 l -0.27517,1.132413 q -0.21166,0.137583 -0.48683,0.232832 -0.27517,0.09525 -0.58208,0.15875 -0.30692,0.05292 -0.62442,0.07408 -0.31749,0.03175 -0.60324,0.03175 -0.52917,0 -0.98425,-0.09525 -0.45508,-0.09525 -0.79375,-0.328082 -0.33866,-0.232833 -0.53975,-0.613832 -0.1905,-0.391582 -0.1905,-0.96308 0,-0.518582 0.15875,-1.015997 0.16934,-0.497415 0.55034,-0.878414 0.39158,-0.391582 1.03716,-0.624414 0.65616,-0.232833 1.62983,-0.232833 1.05833,0 1.58749,0.328083 0.53975,0.328082 0.53975,1.02658 0,0.285749 -0.0847,0.624414 -0.0847,0.328083 -0.254,0.560915 z m 1.40758,-1.259413 q 0,-0.328082 -0.10584,-0.444498 -0.10583,-0.116416 -0.254,-0.116416 -0.16933,0 -0.3175,0.116416 -0.13758,0.105833 -0.25399,0.296332 -0.11642,0.179916 -0.21167,0.423332 -0.0952,0.232833 -0.15875,0.497415 h 1.2065 q 0.0212,-0.126999 0.0423,-0.264582 0.0212,-0.116416 0.0318,-0.253999 0.0212,-0.137583 0.0212,-0.254 z"
       transform="matrix(1.3895366,0,0,1.3895366,-81.05992,-94.728038)" />
  </g>
</svg>
