<?xml version="1.0" encoding="UTF-8" standalone="no"?>
<!-- Created with Inkscape (http://www.inkscape.org/) -->

<svg
   xmlns:dc="http://purl.org/dc/elements/1.1/"
   xmlns:cc="http://creativecommons.org/ns#"
   xmlns:rdf="http://www.w3.org/1999/02/22-rdf-syntax-ns#"
   xmlns:svg="http://www.w3.org/2000/svg"
   xmlns="http://www.w3.org/2000/svg"
   xmlns:sodipodi="http://sodipodi.sourceforge.net/DTD/sodipodi-0.dtd"
   xmlns:inkscape="http://www.inkscape.org/namespaces/inkscape"
   width="98.485519mm"
   height="10mm"
   viewBox="0 0 98.485519 10"
   version="1.1"
   id="svg8"
   inkscape:version="1.0beta2 (2b71d25, 2019-12-03)"
   sodipodi:docname="title.svg">
  <defs
     id="defs2">
    <rect
       x="58.336273"
       y="65.628311"
       width="119.40706"
       height="36.915924"
       id="rect12" />
  </defs>
  <sodipodi:namedview
     id="base"
     pagecolor="#ffffff"
     bordercolor="#666666"
     borderopacity="1.0"
     inkscape:pageopacity="0.0"
     inkscape:pageshadow="2"
     inkscape:zoom="5.8220913"
     inkscape:cx="310.23066"
     inkscape:cy="15.049016"
     inkscape:document-units="mm"
     inkscape:current-layer="layer2"
     inkscape:document-rotation="0"
     showgrid="false"
     inkscape:window-width="1423"
     inkscape:window-height="855"
     inkscape:window-x="2"
     inkscape:window-y="25"
     inkscape:window-maximized="0"
     fit-margin-top="0"
     fit-margin-left="0"
     fit-margin-right="0"
     fit-margin-bottom="0"
     showguides="false" />
  <metadata
     id="metadata5">
    <rdf:RDF>
      <cc:Work
         rdf:about="">
        <dc:format>image/svg+xml</dc:format>
        <dc:type
           rdf:resource="http://purl.org/dc/dcmitype/StillImage" />
        <dc:title></dc:title>
      </cc:Work>
    </rdf:RDF>
  </metadata>
  <g
     inkscape:label="Layer 1"
     inkscape:groupmode="layer"
     id="layer1"
     transform="translate(-58.335936,-68.172393)"
     style="display:inline">
    <g
       aria-label="Drum Machine"
       transform="matrix(1.3895366,0,0,1.3895366,-22.723984,-26.555644)"
       id="text10"
       style="font-style:normal;font-weight:normal;font-size:10.5833px;line-height:1.25;font-family:sans-serif;white-space:pre;shape-inside:url(#rect12);fill:#000000;fill-opacity:1;stroke:none">
      <path
         d="m 58.335937,75.284371 1.428746,-6.720395 h 2.846908 q 0.656164,0 1.142996,0.137583 0.497415,0.127 0.814914,0.433915 0.328082,0.306916 0.486832,0.804331 0.169333,0.497415 0.169333,1.21708 0,0.77258 -0.201083,1.513411 -0.1905,0.740831 -0.645581,1.322913 -0.455082,0.582081 -1.195913,0.941913 -0.730248,0.349249 -1.809745,0.349249 z m 2.899825,-0.740831 q 0.349248,0 0.613831,-0.285749 0.275166,-0.296332 0.465665,-0.740831 0.201083,-0.455082 0.328082,-0.99483 0.137583,-0.550331 0.211666,-1.05833 0.08467,-0.507998 0.116417,-0.910164 0.04233,-0.402165 0.04233,-0.571498 0,-0.328082 -0.137583,-0.507998 -0.127,-0.1905 -0.455082,-0.1905 H 61.91309 l -1.132413,5.2599 z"
         style="font-style:normal;font-variant:normal;font-weight:normal;font-stretch:normal;font-size:10.5833px;font-family:'Racing Sans One';-inkscape-font-specification:'Racing Sans One Normal';font-variant-ligatures:normal;font-variant-caps:normal;font-variant-numeric:normal;font-variant-east-asian:normal;fill:#640000;fill-opacity:1"
         id="path34"
         inkscape:connector-curvature="0" />
      <path
         d="m 66.200487,70.733553 h 1.725077 l 0.15875,0.793747 h 0.07408 q 0.243416,-0.380999 0.624415,-0.645581 0.380998,-0.264583 1.005413,-0.264583 0.04233,0 0.127,0.01058 0.09525,0 0.201082,0.03175 0.116417,0.02117 0.232833,0.07408 0.127,0.04233 0.243416,0.126999 l -0.465665,2.18016 h -1.15358 q -0.02117,-0.656165 -0.116416,-0.910164 -0.09525,-0.264582 -0.306916,-0.264582 -0.105833,0 -0.232832,0.05292 -0.116417,0.04233 -0.243416,0.201083 l -0.677332,3.164406 h -2.158993 z"
         style="font-style:normal;font-variant:normal;font-weight:normal;font-stretch:normal;font-size:10.5833px;font-family:'Racing Sans One';-inkscape-font-specification:'Racing Sans One Normal';font-variant-ligatures:normal;font-variant-caps:normal;font-variant-numeric:normal;font-variant-east-asian:normal;fill:#640000;fill-opacity:1"
         id="path36"
         inkscape:connector-curvature="0" />
      <path
         d="m 74.396425,70.733553 h 2.158993 l -0.973663,4.550818 H 73.86726 L 73.676761,74.60704 h -0.0635 q -0.275166,0.328082 -0.751414,0.550332 -0.465665,0.211666 -0.941914,0.211666 -0.634998,0 -0.99483,-0.317499 -0.359832,-0.328083 -0.359832,-0.846664 0,-0.264583 0.08467,-0.656165 0.09525,-0.402165 0.169333,-0.751414 l 0.444499,-2.063743 h 2.148409 l -0.529165,2.476492 q -0.02117,0.08467 -0.04233,0.201082 -0.02117,0.116417 -0.04233,0.232833 -0.02117,0.105833 -0.04233,0.211666 -0.01058,0.09525 -0.01058,0.158749 0,0.15875 0.0635,0.275166 0.07408,0.105833 0.253999,0.105833 0.1905,0 0.359833,-0.126999 0.169332,-0.127 0.264582,-0.243416 z"
         style="font-style:normal;font-variant:normal;font-weight:normal;font-stretch:normal;font-size:10.5833px;font-family:'Racing Sans One';-inkscape-font-specification:'Racing Sans One Normal';font-variant-ligatures:normal;font-variant-caps:normal;font-variant-numeric:normal;font-variant-east-asian:normal;fill:#640000;fill-opacity:1"
         id="path38"
         inkscape:connector-curvature="0" />
      <path
         d="m 79.486332,71.410884 q 0.222249,-0.211666 0.497415,-0.391582 0.243416,-0.148167 0.582081,-0.275166 0.338666,-0.127 0.761998,-0.127 0.507998,0 0.751414,0.232833 0.253999,0.232832 0.285749,0.571498 h 0.0635 q 0.243416,-0.222249 0.529165,-0.402165 0.243416,-0.148167 0.571498,-0.275166 0.328082,-0.127 0.698498,-0.127 0.550331,0 0.888997,0.306916 0.349249,0.296332 0.349249,0.772581 0,0.243416 -0.08467,0.645581 -0.08467,0.402165 -0.190499,0.878414 l -0.444499,2.063743 h -2.08491 L 83.23282,72.52213 q 0.03175,-0.158749 0.0635,-0.306916 0.03175,-0.148166 0.03175,-0.243415 0,-0.148167 -0.08467,-0.243416 -0.08467,-0.105833 -0.243416,-0.105833 -0.201083,0 -0.380999,0.148166 -0.169333,0.137583 -0.264582,0.232832 l -0.687915,3.280823 h -1.979077 l 0.582082,-2.762241 q 0.02117,-0.137583 0.05292,-0.275166 0.03175,-0.148166 0.03175,-0.264582 0,-0.15875 -0.08467,-0.253999 -0.07408,-0.105833 -0.232833,-0.105833 -0.190499,0 -0.370415,0.137583 -0.169333,0.137582 -0.264583,0.232832 l -0.698498,3.291406 h -2.158993 l 0.963081,-4.550818 h 1.725077 l 0.1905,0.677331 z"
         style="font-style:normal;font-variant:normal;font-weight:normal;font-stretch:normal;font-size:10.5833px;font-family:'Racing Sans One';-inkscape-font-specification:'Racing Sans One Normal';font-variant-ligatures:normal;font-variant-caps:normal;font-variant-numeric:normal;font-variant-east-asian:normal;fill:#640000;fill-opacity:1"
         id="path40"
         inkscape:connector-curvature="0" />
      <path
         d="M 95.559552,75.284371 H 93.21006 l 0.973663,-4.571985 -2.508242,4.571985 h -1.439328 l -0.476249,-4.730735 -1.015997,4.730735 H 87.79141 l 1.428746,-6.720395 h 2.698741 l 0.328083,3.788821 2.031993,-3.788821 h 2.719908 z"
         style="font-style:normal;font-variant:normal;font-weight:normal;font-stretch:normal;font-size:10.5833px;font-family:'Racing Sans One';-inkscape-font-specification:'Racing Sans One Normal';font-variant-ligatures:normal;font-variant-caps:normal;font-variant-numeric:normal;font-variant-east-asian:normal;fill:#640000;fill-opacity:1"
         id="path42"
         inkscape:connector-curvature="0" />
      <path
         d="m 97.483067,71.125135 q 0.539748,-0.264583 1.100663,-0.380999 0.571498,-0.127 1.269996,-0.127 0.677334,0 1.121834,0.105833 0.44449,0.105833 0.70908,0.306916 0.26458,0.201083 0.37041,0.476248 0.10584,0.275166 0.10584,0.624415 0,0.201083 -0.0317,0.433915 -0.0212,0.232833 -0.0529,0.391582 l -0.49742,2.328326 h -1.703907 l -0.1905,-0.677331 h -0.0635 q -0.338665,0.370416 -0.793747,0.571498 -0.444499,0.1905 -0.888997,0.1905 -0.253999,0 -0.497415,-0.07408 -0.243416,-0.07408 -0.433916,-0.22225 -0.190499,-0.158749 -0.306915,-0.391582 -0.116417,-0.243416 -0.116417,-0.582081 0,-0.550332 0.296333,-0.867831 0.306916,-0.328082 0.793747,-0.486832 0.497415,-0.169332 1.111247,-0.211666 0.624414,-0.04233 1.248827,-0.04233 0.0212,-0.105833 0.0529,-0.296332 0.0317,-0.201083 0.0317,-0.349249 0,-0.190499 -0.10583,-0.349249 -0.09525,-0.169333 -0.412753,-0.169333 -0.370416,0 -0.550332,0.22225 -0.169333,0.211666 -0.222249,0.518581 h -1.545162 z m 2.434159,1.86266 h -0.1905 q -0.306915,0 -0.529165,0.08467 -0.211666,0.07408 -0.349248,0.201082 -0.127,0.127 -0.1905,0.28575 -0.0635,0.158749 -0.0635,0.317499 0,0.253999 0.127,0.380998 0.137583,0.127 0.317499,0.127 0.222249,0 0.433915,-0.15875 0.22225,-0.158749 0.275166,-0.423332 z"
         style="font-style:normal;font-variant:normal;font-weight:normal;font-stretch:normal;font-size:10.5833px;font-family:'Racing Sans One';-inkscape-font-specification:'Racing Sans One Normal';font-variant-ligatures:normal;font-variant-caps:normal;font-variant-numeric:normal;font-variant-east-asian:normal;fill:#640000;fill-opacity:1"
         id="path44"
         inkscape:connector-curvature="0" />
      <path
         d="m 107.26981,75.030372 q -0.4445,0.179916 -0.94191,0.253999 -0.48684,0.08467 -1.11125,0.08467 -0.55033,0 -1.016,-0.105833 -0.45508,-0.116417 -0.79375,-0.359832 -0.33866,-0.243416 -0.52916,-0.624415 -0.1905,-0.391582 -0.1905,-0.941914 0,-0.571498 0.1905,-1.05833 0.20108,-0.497415 0.59266,-0.86783 0.40217,-0.370416 1.016,-0.582082 0.61383,-0.211666 1.4605,-0.211666 0.68791,0 1.19591,0.116417 0.508,0.105833 0.83608,0.497415 l -0.29633,1.354662 h -1.43933 q 0.0106,-0.179916 0.0212,-0.317499 0.0106,-0.137583 0.0106,-0.306916 0,-0.338665 -0.0741,-0.476248 -0.0741,-0.148166 -0.24342,-0.148166 -0.29633,0 -0.51858,0.296332 -0.22225,0.285749 -0.37042,0.698498 -0.13758,0.402165 -0.21166,0.857247 -0.0635,0.444499 -0.0635,0.761998 0,0.116416 0.0106,0.243415 0.0106,0.116417 0.0423,0.22225 0.0423,0.105833 0.10584,0.169333 0.0635,0.0635 0.17991,0.0635 0.10584,0 0.24342,-0.0635 0.13758,-0.0635 0.26458,-0.1905 0.127,-0.137583 0.24342,-0.349249 0.11641,-0.211666 0.17991,-0.507998 h 1.51341 z"
         style="font-style:normal;font-variant:normal;font-weight:normal;font-stretch:normal;font-size:10.5833px;font-family:'Racing Sans One';-inkscape-font-specification:'Racing Sans One Normal';font-variant-ligatures:normal;font-variant-caps:normal;font-variant-numeric:normal;font-variant-east-asian:normal;fill:#640000;fill-opacity:1"
         id="path46"
         inkscape:connector-curvature="0" />
      <path
         d="m 110.96851,71.410884 h 0.0741 q 0.20108,-0.201083 0.46566,-0.370416 0.22225,-0.148166 0.52917,-0.264582 0.30691,-0.116417 0.68791,-0.116417 0.55033,0 0.91017,0.28575 0.35983,0.275165 0.35983,0.761997 0,0.148166 -0.0318,0.338666 -0.0317,0.179916 -0.0741,0.391582 -0.0423,0.201082 -0.0952,0.412748 -0.0423,0.201083 -0.0741,0.370416 l -0.4445,2.063743 h -2.14841 l 0.58209,-2.762241 q 0.0212,-0.137583 0.0529,-0.275166 0.0318,-0.148166 0.0318,-0.264582 0,-0.15875 -0.0847,-0.253999 -0.0741,-0.105833 -0.23284,-0.105833 -0.1905,0 -0.37041,0.137583 -0.16933,0.137582 -0.26458,0.243415 l -0.6985,3.280823 h -2.159 l 1.50283,-7.111977 h 2.16958 z"
         style="font-style:normal;font-variant:normal;font-weight:normal;font-stretch:normal;font-size:10.5833px;font-family:'Racing Sans One';-inkscape-font-specification:'Racing Sans One Normal';font-variant-ligatures:normal;font-variant-caps:normal;font-variant-numeric:normal;font-variant-east-asian:normal;fill:#640000;fill-opacity:1"
         id="path48"
         inkscape:connector-curvature="0" />
      <path
         d="m 116.33358,75.284371 h -2.14841 l 0.96308,-4.550818 h 2.16957 z m 1.25941,-5.937231 q 0,0.243416 -0.10583,0.423332 -0.0953,0.179916 -0.26459,0.306916 -0.15875,0.127 -0.37041,0.190499 -0.21167,0.0635 -0.43392,0.0635 -0.42333,0 -0.70908,-0.201083 -0.28575,-0.201082 -0.28575,-0.634998 0,-0.232832 0.0952,-0.412748 0.0953,-0.1905 0.254,-0.306916 0.16934,-0.127 0.381,-0.190499 0.22225,-0.0635 0.45508,-0.0635 0.41275,0 0.6985,0.201083 0.28575,0.201082 0.28575,0.624414 z"
         style="font-style:normal;font-variant:normal;font-weight:normal;font-stretch:normal;font-size:10.5833px;font-family:'Racing Sans One';-inkscape-font-specification:'Racing Sans One Normal';font-variant-ligatures:normal;font-variant-caps:normal;font-variant-numeric:normal;font-variant-east-asian:normal;fill:#640000;fill-opacity:1"
         id="path50"
         inkscape:connector-curvature="0" />
      <path
         d="m 120.2279,71.410884 q 0.22225,-0.211666 0.49741,-0.391582 0.24342,-0.148167 0.5715,-0.275166 0.32808,-0.127 0.73025,-0.127 0.55033,0 0.91016,0.285749 0.35984,0.275166 0.35984,0.761998 0,0.137583 -0.0318,0.338665 -0.0318,0.1905 -0.0741,0.402166 -0.0423,0.211666 -0.0953,0.433915 -0.0423,0.211666 -0.0741,0.380999 l -0.4445,2.063743 h -2.14841 l 0.58208,-2.762241 q 0.0212,-0.137583 0.0529,-0.275166 0.0318,-0.148166 0.0318,-0.264582 0,-0.15875 -0.0847,-0.253999 -0.0741,-0.105833 -0.23283,-0.105833 -0.1905,0 -0.37041,0.137583 -0.16934,0.137582 -0.26459,0.232832 l -0.6985,3.291406 h -2.15899 l 0.96308,-4.550818 h 1.72508 l 0.1905,0.677331 z"
         style="font-style:normal;font-variant:normal;font-weight:normal;font-stretch:normal;font-size:10.5833px;font-family:'Racing Sans One';-inkscape-font-specification:'Racing Sans One Normal';font-variant-ligatures:normal;font-variant-caps:normal;font-variant-numeric:normal;font-variant-east-asian:normal;fill:#640000;fill-opacity:1"
         id="path52"
         inkscape:connector-curvature="0" />
    </g>
  </g>
  <g
     inkscape:groupmode="layer"
     id="layer2"
     inkscape:label="Layer 2"
     style="display:none">
    <path
       transform="matrix(1.3895366,0,0,1.3895366,-81.05992,-94.728038)"
       d="m 125.89989,73.157128 q -0.0423,0.232833 -0.0635,0.444499 -0.0106,0.211666 -0.0106,0.380999 0,0.09525 0.0106,0.211665 0.0106,0.116417 0.0423,0.22225 0.0423,0.09525 0.10583,0.169333 0.0741,0.0635 0.20109,0.0635 0.0952,0 0.21166,-0.0635 0.127,-0.0635 0.24342,-0.179917 0.127,-0.116416 0.23283,-0.285749 0.11642,-0.169332 0.17992,-0.380998 h 1.73566 l -0.27517,1.132413 q -0.21166,0.137583 -0.48683,0.232832 -0.27517,0.09525 -0.58208,0.15875 -0.30692,0.05292 -0.62442,0.07408 -0.31749,0.03175 -0.60324,0.03175 -0.52917,0 -0.98425,-0.09525 -0.45508,-0.09525 -0.79375,-0.328082 -0.33866,-0.232833 -0.53975,-0.613832 -0.1905,-0.391582 -0.1905,-0.96308 0,-0.518582 0.15875,-1.015997 0.16934,-0.497415 0.55034,-0.878414 0.39158,-0.391582 1.03716,-0.624414 0.65616,-0.232833 1.62983,-0.232833 1.05833,0 1.58749,0.328083 0.53975,0.328082 0.53975,1.02658 0,0.285749 -0.0847,0.624414 -0.0847,0.328083 -0.254,0.560915 z m 1.40758,-1.259413 q 0,-0.328082 -0.10584,-0.444498 -0.10583,-0.116416 -0.254,-0.116416 -0.16933,0 -0.3175,0.116416 -0.13758,0.105833 -0.25399,0.296332 -0.11642,0.179916 -0.21167,0.423332 -0.0952,0.232833 -0.15875,0.497415 h 1.2065 q 0.0212,-0.126999 0.0423,-0.264582 0.0212,-0.116416 0.0318,-0.253999 0.0212,-0.137583 0.0212,-0.254 z"
       style="font-style:normal;font-variant:normal;font-weight:normal;font-stretch:normal;font-size:10.5833px;line-height:1.25;font-family:'Racing Sans One';-inkscape-font-specification:'Racing Sans One Normal';font-variant-ligatures:normal;font-variant-caps:normal;font-variant-numeric:normal;font-variant-east-asian:normal;white-space:pre;shape-inside:url(#rect12);display:inline;fill:none;fill-opacity:1;stroke:#000000;stroke-width:0.0719664;stroke-miterlimit:4;stroke-dasharray:none;stroke-opacity:1"
       id="path54"
       inkscape:connector-curvature="0" />
  </g>
</svg>
